<?xml version="1.0" encoding="UTF-8"?>
<svg id="_图层_2" data-name="图层 2" xmlns="http://www.w3.org/2000/svg" viewBox="0 0 1432 861">
  <defs>
    <style>
      .cls-1 {
        fill: #040404;
      }

      .cls-2 {
        fill: #ebebeb;
      }

      .cls-3 {
        fill: #ededed;
      }

      .cls-4 {
        fill: #ececec;
      }

      .cls-5 {
        fill: #fefefe;
      }

      .cls-6 {
        fill: #e2e2e2;
      }

      .cls-7 {
        fill: #fdd3a0;
      }

      .cls-8 {
        fill: #fead8d;
      }

      .cls-9 {
        fill: #b4b4b4;
      }

      .cls-10 {
        fill: #bababa;
      }

      .cls-11 {
        fill: #acacac;
      }

      .cls-12 {
        fill: #c9c9c9;
      }

      .cls-13 {
        fill: #de8f56;
      }

      .cls-14 {
        fill: #d9d9d9;
      }

      .cls-15 {
        fill: #070707;
      }
    </style>
  </defs>
  <g id="_图层_1-2" data-name="图层 1">
    <g>
      <path class="cls-5" d="M332.07,.12C697.11,.12,1062.15,.13,1427.19,0c4.15,0,4.81,.95,4.81,4.91-.11,283.7-.11,567.4-.01,851.1,0,3.81-.42,4.99-4.73,4.99-232.42-.14-464.84-.13-697.26-.13-.32-.59-.21-1.08,.32-1.48,5.41-1.81,11.13-1.87,16.68-2.96,32.4-6.35,59.86-20.99,80.08-47.74,12.19-16.13,17.09-34.76,18.51-54.58,.62-8.63,1.39-17.2,.17-25.89-.73-5.18,.92-6.47,6.18-6.7,2-.09,4-.03,6-.03,158.97,0,317.94,.04,476.91-.07,13.61,0,27.33-.1,40.81-1.33,16.86-1.54,33-6.75,45.27-19.76,6.73-7.13,9.21-15.65,8.01-25.28-.4-3.16-.45-6.31-.45-9.47,0-48.98-.31-97.97,.18-146.95,.15-14.95-5.92-25.88-16.9-34.9-4.51-3.71-9.25-7.2-14.64-9.49-5.01-2.13-6.74-5.59-6.71-10.94,.16-29.66-.09-59.32,.19-88.97,.08-8.12-2.71-13.97-9.2-18.73-19.03-13.95-39.54-15.73-61.09-7.47-13.82,5.29-25.41,13.82-33.68,26.39-2.77,4.22-4.74,8.81-6.21,13.6-1.25,4.05-3.73,5.43-7.9,4.98-12.42-1.34-24.78-3.12-37.19-4.45-5.06-.54-10,.1-14.9,.98-4.06,.73-7.05-.48-9.79-3.43-43.19-46.48-97.76-70.28-159.45-79.89-15.82-2.47-31.76-3.55-47.74-3.8-8.15-.13-16.29,.8-24.4,1.54-3.92,.36-6.89-.36-8.98-3.79-.26-.42-.64-.78-.89-1.2-14.19-23.39-37.4-30.36-62.25-32.08-15.34-1.06-29.22,5.76-40.71,16.4-3.42,3.17-6.49,6.72-9.99,9.8-3.55,3.12-4.99,2.63-5.65-2.1-1.77-12.7-3.23-25.43-5.9-38-5.95-27.96-15.31-54.53-31.6-78.27-13.4-19.53-30.34-34.98-52.82-43.44-16.98-6.39-34.57-8.46-52.58-5.68-3.93,.61-7.11-.41-10.28-2.62-23.06-16.09-47.69-29.26-73.83-39.59-27.57-10.9-56.18-17.77-85.49-21.97-17.17-2.46-34.46-3.12-51.75-4-3.21-.16-5.53-1.71-8.04-3.48-22.46-15.87-44.79-31.98-71.61-40.07-18.75-5.66-38.04-8.41-57.45-10.37-4.46-.45-8.91-1.22-13.43-1.2-1.5,0-3.52,.16-3.72-2.28Z"/>
      <path class="cls-5" d="M714.01,860.87c-236.36,0-472.72-.01-709.08,.1-3.93,0-4.93-.61-4.93-4.79,.14-143.73,.12-287.46,.12-431.19,.42-.38,.9-.51,1.46-.39,2.37,1.48,2.38,4.27,3.49,6.44,10.24,19.98,23.32,37.89,38.1,54.79,24.11,27.56,53.9,47.23,85.85,64.25,10.61,5.65,21.35,10.91,32.56,15.19,3.6,1.37,6.19,3.58,8.15,6.92,13.96,23.88,30.96,45.36,51.23,64.19,18.12,16.83,38.79,29.6,61.62,39.2,38.05,16,77.53,26.29,118.52,30.76,19.54,2.13,39.19,3.1,58.81,2.13,45.8-2.27,90.55-10.42,134-25.35,2.54-.87,5.74-3.35,7.85-.93,1.75,2-.64,5.01-1.61,7.42-6.51,16.09-10.44,32.81-9.66,50.14,1.3,29.1,11.26,54.78,31.8,76.11,23.91,24.82,53.19,38.26,87.05,42.59,1.74,.22,4.19-.43,4.68,2.42Z"/>
      <path d="M714.01,860.87c-3.13-2.24-6.88-1.35-10.32-1.93-43.97-7.41-79.25-28.18-100.89-68.04-18.24-33.61-17.74-68.54-3.12-103.52,.69-1.65,1.39-3.3,2.34-5.55-9.77,3.11-18.98,6.26-28.32,8.99-50.44,14.71-101.81,21.3-154.39,18.17-50.38-3-98.47-14.94-144.55-35.41-37.81-16.79-66.54-44.16-90.71-76.95-5.93-8.04-11.37-16.42-16.28-25.12-1.22-2.15-2.76-3.52-5.08-4.42-32.84-12.69-63.21-30.01-90.63-51.86-28.13-22.42-50.7-49.93-67.32-82.06-1.36-2.64-2.34-5.48-3.5-8.22-1.18-1.68-.35-3.58-.57-5.36,5.28-16.18,14.08-30.14,27.25-40.98,3.38-2.78,6.4-5.76,9.26-8.97,25.97-29.21,58.89-47.48,95.28-60.12,5.08-1.77,7.8-4.37,9.6-9.49,15-42.67,36.61-81.66,65.94-116.24,7.33-8.64,14.79-17.16,23.04-24.93,2.76-2.6,3.9-5.55,3.82-9.31-.17-7.49,.1-15-.08-22.49-.69-29.33,7.26-56.64,19.43-82.92,5.53-11.95,11.92-23.48,20-33.95,3.81-4.94,7.94-9.55,14.95-9.55,8.25,.67,16.49-.42,24.73,0,1.73,0,3.47,0,5.2,0,3.99-.31,8.03,.65,11.99-.52h1c1.3,2,3.32,.88,4.97,1.01,27.61,2.11,55.07,5.2,81.09,15.43,22.65,8.9,42.44,22.75,61.85,37.12,2.42,1.79,4.62,2.72,7.63,2.77,73.28,1.03,141.42,19.6,202.77,60.42,8.31,5.53,15.92,7.53,26.07,6.83,36.41-2.49,66.26,11.6,89.55,39.48,20.55,24.6,31.64,53.66,38.96,84.4,3.7,15.51,5.8,31.29,7.18,47.99,1.89-2.1,3.29-3.64,4.68-5.18,19.8-21.86,43.22-29.7,72.44-21.3,18.39,5.28,32.23,15.25,42.39,30.93,1.63,2.52,3.23,2.99,6.03,2.78,74.12-5.65,142.52,10.18,203.26,54.44,11.75,8.56,22.34,18.45,32.08,29.24,1.72,1.9,3.16,2.51,5.95,1.92,11.11-2.37,22.22-.45,33.3,.79,6.95,.78,13.91,1.51,20.81,2.58,3.39,.53,4.78-.25,5.9-3.76,11.42-36.06,55.87-56.08,90.62-41.11,7.18,3.09,13.17,7.74,18.73,13.04,3.3,3.15,3.49,7.36,3.48,11.6-.02,31.15,.03,62.31-.09,93.46-.01,3.35,.7,5.34,4.03,6.86,7.62,3.46,14.5,8.25,20.57,13.98,8.79,8.29,13.99,18.13,13.94,30.76-.2,50.98-.03,101.95-.09,152.93,0,4.82,1.01,9.59,.21,14.44-1.94,11.73-8.66,20.15-18.65,25.8-13.77,7.8-28.39,11.93-44.63,12.16-27.78,.4-55.56,.75-83.35,.76-143.79,.01-287.57,.03-431.36-.1-4.73,0-5.75,1.24-5.31,5.75,1.46,14.85,.44,29.66-2.58,44.23-7.23,34.92-29.71,57.54-60.35,73.15-16.97,8.64-35.21,12.94-54.16,14.32-1.62,.71-3.33,.22-4.98,.37-3,.28-6.08-.59-9.03,.52h-2Z"/>
      <path class="cls-5" d="M288.13,1.24c-5.93,1.35-9.81,5.44-13.14,10.1-17.85,24.96-29.75,52.44-36.06,82.54-3.95,18.86-2.88,37.76-2.57,56.71,.06,3.43-.92,5.83-3.4,8.25-41.95,40.98-72.05,89.43-90.83,144.92-1.05,3.11-2.58,4.82-5.83,5.88-39.79,13.03-75.11,33.1-102.31,65.74-2.51,3.01-6.18,4.37-8.92,7.12-10.51,10.55-17.88,23.06-23.84,36.53-.38,.45-.75,.46-1.09-.04C.12,280.8,.13,142.6,.03,4.41,.03,.93,.59,0,4.32,0,98.9,.15,193.49,.12,288.07,.12c.55,.35,.57,.73,.05,1.13Z"/>
      <path class="cls-3" d="M288.13,1.24c-.02-.38-.04-.75-.05-1.13,8.67,0,17.33,0,26,0,.33,.2,.44,.4,.32,.59-.12,.19-.23,.28-.35,.28-8.64-.05-17.27,1.37-25.92,.26Z"/>
      <path class="cls-11" d="M331.07,.12c-3.87,2.23-8.02,.57-12.03,.85-.31-.2-.4-.39-.29-.57,.11-.18,.21-.27,.32-.27h12Z"/>
      <path class="cls-10" d="M716.01,860.87c2.83-2.17,6.01-.59,9.03-.84,.3,.2,.4,.39,.29,.57-.11,.18-.21,.27-.32,.27h-9Z"/>
      <path class="cls-2" d="M.12,419c.36,.01,.73,.03,1.09,.04,0,1.97,0,3.94,.01,5.92-.37,.01-.74,.03-1.1,.04,0-2,0-4,0-6Z"/>
      <path class="cls-12" d="M319.07,.12c0,.28,0,.57-.03,.85-1.67,0-3.33,.01-5,.02,.02-.29,.03-.58,.03-.87h5Z"/>
      <path class="cls-14" d="M725.01,860.87c0-.28,.01-.56,.03-.84,1.66-.01,3.33-.03,4.99-.04-.02,.29-.03,.59-.02,.88h-5Z"/>
      <path class="cls-5" d="M258.92,564.02c-2.73-4.11-6.78-5.67-11.5-5.9-2.95,.86-4.63-1.16-6.44-2.85-8.06-7.52-15.24-15.81-21.26-25.04-2.36-3.63-5.26-5.01-9.52-4.95-41.59,.59-81.07-9.18-119.4-24.54-3.1-1.24-5.96-2.93-8.76-4.73-17.52-14.81-32.69-31.75-45.57-50.72-4.3-6.33-8.25-12.89-11.93-19.61-1.27-2.32-1.33-4.21-.07-6.48,3.47-6.28,7.15-12.44,12.09-17.66,6.52-6.89,13.3-13.54,19.98-20.28,27.33-27.54,60.26-45.06,97.67-54.49,3.2-.81,4.68-2.41,5.33-5.58,2.66-12.92,7.39-25.15,12.85-37.12,4.92-2.49,10.33-2.42,15.57-2.51,22.78-.43,45.53-1.59,68.3-2.28,26.74-.82,53.5-1.78,80.15-4.48,3.52-.36,6.95,.58,10.45,.69,10.03,.34,19.96-.31,29.72-2.71,15.23,2.16,30.24,.93,44.84-3.84,23.36-7.64,45.54-17.92,66.2-31.26,13.12-8.48,26.75-16.45,36.97-28.65,12.31-14.68,26.93-27.13,39.57-41.48,16.09-18.27,36.5-28.04,60.49-30.36,10.24-.99,20.56-1.16,30.81-2.37,4.97-.58,9.86-1.58,14.8-2.3,2.01-.29,3.95-.61,5.85,.37,3.92,1.78,7.29,4.35,11.43,7.72-6.81,.14-10.44,3.99-13.61,8.23-3.87,5.19-7.64,10.49-11.01,16.01-3.84,6.28-2.6,12.66,2.54,15.84,5.18,3.21,11.18,1.43,15.32-4.79,4.05-6.09,7.96-12.26,12.94-17.68,3.07-3.35,3.48-7.41,2.18-11.67,59.75-9.6,91.24,15.06,113.11,61.47,1.58,4.9,3.19,9.77,3.68,14.96,.23,2.47,.87,4.9,2.52,6.95,4.8,5.99,5.66,13.02,4.9,20.32-2.3,22.11-7.31,43.64-13.58,64.94-8.29,28.16-18.55,55.6-29.84,82.67-5.55,13.29-12.66,25.72-21.39,37.15-8.3,10.87-16.21,21.98-23.14,33.77-15.58,26.52-34.16,50.76-54.29,74-24.02,27.72-51.86,50.66-82.96,69.83-17.22,10.61-35.84,17.62-55.79,20.95-15.49,2.58-30.26,8.03-45.65,11-16.08,3.09-32.26,5.69-48.6,4.57-34.25-2.35-68.4-5.78-100.75-18.59-13.33-5.28-24.82-13.58-35.52-22.93-12.94-11.3-26.23-22.08-41.09-30.78-3.95-2.31-7.54-4.83-7.4-10.2,.02-.78-.27-1.98-1.19-2.61Z"/>
      <path class="cls-5" d="M772.95,493.86c24.19-23.87,43.67-51.07,57.87-81.99,.61-1.34,1.39-2.6,2.09-3.9,8.11-12.22,18.91-21.76,30.73-30.11,15.61-11.02,31.86-21.06,48.82-29.92,3.68-1.92,6.63-4.41,8.31-8.23,.9-2.04,2.25-3.65,4.17-4.77,16.24-5.72,33.05-8.98,50.1-10.69,52.63-5.27,103.29,2.36,151.38,24.76,42.91,19.99,76.61,50.21,99.76,91.77,1.91,3.42,4.22,6.36,7.74,8.22,3.99,0,5.63,2.41,6.66,5.92,5.12,17.41,9.75,34.93,12.53,52.88,.46,2.94,1.28,5.49,4.01,7.06,3.17,4.71,7.57,6.63,13.21,6.21,10.41-.78,20.91,.91,31.28-1.2,4.41-.9,7.82-3.08,10.88-6.43,10.23-11.2,20.69-22.24,36.24-26.02,14.26-3.47,28.26-3.98,41.13,4.8,1.66,2,.87,4.11,.19,6.16-8.57,25.93-11.57,52.65-10.63,79.8,.46,13.29,2.27,26.53,4.25,39.7,.64,4.28,1.08,8.6,1.47,12.9,1.35,14.92-5.28,25.66-17.98,32.99-3.19,1.84-6.63,3.21-10.21,4.01-20.14,4.47-40.1,9.9-61.11,8.63-12.13-.73-23.88-2.59-34.66-8.38-6.33-3.4-13.35-5.23-19.5-8.96-13.52-8.21-19.79-21.68-25.44-35.48-3.48-8.5-5.65-17.4-6.34-26.63-.13-1.71,.05-4.09-1.98-4.78-2.09-.71-3.15,1.46-4.4,2.68-20.28,19.77-43.26,34.88-71.22,41.44-6.66,1.56-13.39,2.72-20.23,3.06-8.11,.41-15.62,3.33-23.24,5.67-23.03,7.07-46.59,11.24-70.56,13.42-8.45,.77-16.9,1.61-25.38,1.83-20.2,.52-40.31-.9-60.12-4.9-19.76-3.99-39.8-6.43-59.48-10.83-15.13-3.39-30.09-7.44-44.72-12.55-4.95-1.73-9.24-1.91-13.53,1.14-5.14,3.95-6.16,8.97-4.22,15,2.72,8.47,5.66,16.89,7.16,25.71,.84,2.22,.99,4.69,.64,6.84-3.01,18.54-4.79,37.37-11.96,55.02-1.44,3.56-3.11,7-4.86,10.41-3.17,6.21-4.53,6.54-9.31,1.62-6.7-6.89-14.34-12.37-22.95-16.6-21.51-10.56-43.53-11.23-65.94-3.41-6.91,2.41-13.65,5.31-20.02,9-4.8,2.78-5.79,2.37-8.47-2.66-12.06-22.6-12.92-46.44-7.79-70.92,.72-3.42,1.6-6.81,2.71-10.13,2.19-6.55,5.11-12.62,10.6-17.17,8.1-6.73,13.37-15.41,17.97-24.83,11.25-23.04,24.22-45.19,36.49-67.69,4.94-9.06,9.99-18.07,14.41-27.41,1.57-3.32,3.42-6.47,5.63-9.42,3.84-5.12,7.2-10.85,14.76-11.02,1.2-.03,2.16-.81,3.01-1.63Z"/>
      <path class="cls-6" d="M772.95,493.86c-.27,1.07-1.02,1.89-2.02,2-10.35,1.18-14.41,9.78-18.19,17.19-14.51,28.45-30.97,55.84-45.47,84.28-1.81,3.55-4.13,6.88-5.64,10.54-5.16,12.54-12.66,23.35-23.14,31.99-3.03,2.5-4.31,5.96-5.5,9.31-7.99,22.59-10.36,45.54-3.01,68.78,1.84,5.83,4.74,11.33,7.03,17.03,1.09,2.73,2.46,2.9,4.88,1.44,11.18-6.77,23.18-11.3,36.08-13.75,24.31-4.61,45.95,1.52,65.82,15.52,4.11,2.9,7.64,6.42,11.03,10.08,2.15,2.32,3.17,2.53,4.89-.59,7.82-14.18,11.8-29.54,14.21-45.36,1.44-9.47,3.9-18.8,4.1-28.45,5.65,20.99,8.47,42.32,8.28,64.08-.09,10.68-.42,21.31-2.71,31.78-4.76,21.79-18.05,37.49-36.02,49.64-47.86,32.35-115.47,23.55-153.57-19.89-29.02-33.08-31.61-80.86-6.17-120.06,7.51-11.58,15.43-22.92,24.6-33.32,8.28-9.39,15.09-19.89,22.13-30.2,2.48-3.63,4.27-7.6,3.05-12.2-.33-1.27-.47-2.97-1.76-3.43-1.49-.53-2.14,1.24-3,2.11-14.98,15.18-30.29,30.02-45.99,44.46-2.75,2.53-5.75,4.42-9.17,5.86-63.29,26.65-129.14,39.16-197.82,35.12-52.28-3.07-102.13-15.86-148.88-39.8-24.64-12.62-43.88-31.68-61.33-52.72-4.24-5.12-8.44-10.3-11.8-16.08,.21-2.72,1.98-1.66,3.42-1.41,10.04,1.13,20.1,2.13,30.12,3.44,7.3,.96,14.21-.96,21.04-2.75,6.17-1.62,7.99-6.51,6.47-14.5,.15,.07,.41,.12,.43,.22,2.2,10.28,11.48,13.59,18.94,17.95,10.91,6.37,20.06,14.77,29.27,23.02,19.74,17.68,42.54,28.51,68.33,33.73,17.53,3.55,35.22,5.98,52.97,7.92,21.92,2.4,43.71,1.05,65.21-3.9,20.65-4.75,41.38-9.23,61.87-14.62,24.18-6.36,44.83-19.78,64.64-34.53,13.98-10.41,27.77-21.16,39.76-33.84,26.63-28.15,51.18-57.95,70.58-91.71,7.37-12.82,16.22-24.64,25.11-36.44,13.05-17.33,20.85-37.32,28.71-57.3,11.07-28.15,20.4-56.85,27.57-86.23,3.3-13.5,5.67-27.22,6.62-41.11,.44-6.48-.76-12.59-5.66-17.44-.56-.55-1.04-1.37-1.16-2.13-1.09-6.52-2.08-13.05-3.11-19.58,8.14,15.6,12.88,32.36,16.45,49.44,8.52,40.75,8.57,81.25-4.45,121.24-11.53,35.41-30.76,66.2-56.18,93.25-1.94,2.06-4,4.02-5.77,6.22-3.51,4.37-3.78,9.41-.94,13.39,2.86,4,7.45,5.05,12.97,2.98,.62-.23,1.23-.46,1.85-.68Z"/>
      <path class="cls-6" d="M815.08,633.15c3.64-3.75,7.15-4.98,12.83-2.99,25.7,8.99,52.06,15.4,79.13,18.93,11.3,1.47,22.42,4.28,33.67,6.2,7.82,1.33,15.7,2.19,23.64,2.8,9.8,.75,19.6,1.25,29.37,.76,31.67-1.56,63.11-5.06,93.39-14.97,13.21-4.32,26.86-5.46,40.32-8.04,22.09-4.23,41.82-13.78,59.22-28.08,6.29-5.17,12.56-10.34,18.22-16.22,.94-.98,1.69-2.64,3.68-1.74,1.76,.79,2.29,2.1,2.43,3.95,.72,9.63,2.62,19.02,6.04,28.08,3.9,10.32,8.84,20.07,15.97,28.56,3.02,3.6,6.8,6.77,11.03,8.38,11.17,4.25,21.22,11.12,33.07,13.76,15.45,3.45,31,3.38,46.49,.92,10.6-1.69,21.12-4.07,31.56-6.6,14.19-3.44,24.8-11.18,28.34-26.2,1.68-7.11-.2-14.22-1.01-21.25-1.22-10.51-2.61-20.99-3.69-31.52-.86-8.31-1.01-16.59-.79-24.88,.59-21.78,3.54-43.22,10.41-64.01,.73-2.2,1.78-4.33,1.48-6.75,6.55,4.74,13.91,8.58,17.58,16.47,1.01,2.18,1.6,4.28,1.59,6.67-.07,54.8-.14,109.59-.06,164.39,0,5.99-3.57,9.22-7.9,11.73-11.44,6.63-23.71,8.77-37.11,9.01-97.41,1.71-194.83,.3-292.24,.67-73.79,.28-147.59,.02-221.38,.15-4.11,0-5.78-.91-6.33-5.17-2.39-18.53-7.05-36.55-12.96-54.25-2.86-8.55-7.13-10.86-15.98-8.74Z"/>
      <path class="cls-7" d="M676.11,132.9c-18.73,3.95-37.91,3.96-56.8,6.38-18.16,2.33-34.55,9.43-47.7,22.76-6.9,6.99-13.84,13.92-20.45,21.19-8.49,9.33-18.11,17.53-26.27,27.25-11.86,14.12-27.88,23.08-43.37,32.42-21.28,12.84-43.71,23.31-67.96,29.43-11.73,2.96-23.56,3.88-35.54,1.6,.53-2.69,3.03-2.8,4.89-3.63,5.15-2.29,9.53-5.43,12.33-10.48,5.23-9.44,1.72-19.43-8.31-23.32-7.24-2.81-14.92-3.8-22.56-3.85-26.14-.17-52.27-2.02-78.4-1.04-21.11,.79-42.25,.91-63.32,2.74-5.96,.52-11.98,.12-17.94,1.04-1.93,.3-4.03,.27-5.61-1.37,4.21-7.51,9.03-14.59,14.71-21.07,1.87-1.38,4.04-1.34,6.22-1.41,37.47-1.34,74.95-1.46,112.42-.84,30.64,.5,61.18,2.9,91.33,9.1,10.21,2.1,20.27,.87,29.45-4.65,9.15-5.5,10.25-12.42,3.38-20.64-4.16-4.98-9.7-7.41-15.82-8.92-10.88-2.69-22.08-3.23-33.09-4.99-18.78-3-37.71-4.04-56.66-5.23-25.57-1.6-51.15-3.09-76.73-4.69-4.99-.31-10,.05-14.99-.18-2.01-.09-4.51,.47-5.37-2.39,5.15-4.99,10.39-9.87,16.26-14.02,5.2-2.07,10.66-2.39,16.16-2.53,35.71-.97,71.2,1.71,106.66,5.66,19.52,2.17,39.17,2.95,58.84,2.34,4.76-.15,9.22-1.4,13.36-3.69,6.62-3.66,7.85-8.61,3.74-14.93-5.87-9.02-14.73-13.86-24.64-16.85-7.66-2.31-15.56-3.76-23.64-3.51-9.7,.3-19.26-1.37-28.87-2.19-17.95-1.52-35.9-1.97-53.89-1.88-2.43,.01-5.46,.98-6.91-2.29,27.12-14.26,55.82-24.27,85.87-29.85,77.18-14.35,151.68-5.89,222.91,27.82,12.6,5.96,24.95,12.5,36.29,20.71Z"/>
      <path class="cls-6" d="M1257.13,514.88c-4.1,.95-4.74-1.94-5.14-4.82-2.61-18.66-7.52-36.78-12.77-54.83-.91-3.13-2.4-5.1-5.29-6.22,4.67,.67,9.08,.41,11.97-4.06,3.02-4.68,1.73-9.12-.7-13.64-4.01-7.46-8.73-14.49-13.68-22.26,4.21-.53,7.9-.14,11.55,.33,12.22,1.56,24.42,3.24,36.73,4,10.58,.65,16.95-4.51,18.5-14.98,1.52-10.29,6.98-18.34,15.31-24.24,15.11-10.71,31.23-15.34,49.23-7.17,5.72,2.6,8.25,6.04,8.11,12.89-.51,26.31-.3,52.63-.14,78.95,.02,3.89-.53,5.44-5,5.34-26.95-.63-47.97,11.68-65.37,31.13-3.21,3.58-6.39,5.07-11.11,4.81-6.48-.36-12.99-.11-19.48-.06-10.21,.08-14.1,4.64-12.71,14.83Z"/>
      <path class="cls-13" d="M199.11,234.03c25.37-1.28,50.72-3.05,76.1-3.69,20.6-.52,41.24-.98,61.87,.47,8.79,.62,17.65,.09,26.47,.3,7.47,.18,14.89,1.01,22.08,3.25,6.76,2.11,12.13,5.88,13.31,13.33,1.31,8.29-1.97,14.93-8.48,20.09-3.71,2.95-8.28,4.11-12.43,6.15-12.36,3.6-24.94,3.3-37.63,2.62-6.45-.35-13.06-.24-19.42,.78-11.73,1.89-23.55,1.84-35.33,2.38-24.44,1.12-48.91,1.6-73.37,2.48-13.3,.48-26.59,1.24-39.89,1.87,7.34-17.52,15.94-34.37,26.73-50.04Z"/>
      <path class="cls-13" d="M253.96,168.12c.81,1.11,2.01,1.07,3.17,1.02,10.82-.54,21.61,.44,32.39,.99,19.88,1.01,39.73,2.56,59.6,3.79,6.3,.39,12.62,.74,18.9,.91,14.16,.4,28.07,2.6,42.02,4.53,10.49,1.45,21.12,2.12,31.44,4.74,7.29,1.85,13.66,5.06,17.99,11.58,5.49,8.25,4.22,15.06-4.23,20.22-9.96,6.07-20.81,7.77-32.14,5.29-14.78-3.23-29.77-4.65-44.77-6.24-43.64-4.64-87.4-2.65-131.12-2.6-11.1,.01-22.24,.72-33.38,.6,7.85-11.84,17.51-22.17,27.26-32.4,4.11-4.32,8.57-8.3,12.88-12.43Z"/>
      <path class="cls-13" d="M331.04,114.22c.92,.96,2.12,.82,3.28,.81,15.8-.06,31.66-.61,47.37,1.17,20.42,2.32,41.2,1.08,61.31,5.97,10.72,2.6,20.05,7.84,26.75,17.07,5.64,7.78,4.02,14.53-4.6,18.68-6.32,3.04-13.16,3.94-19.9,3.52-10.62-.66-21.25-.38-31.88-1.13-17.88-1.26-35.67-3.24-53.49-4.98-10.57-1.03-21.18-1.91-31.79-2.12-19.29-.38-38.6-.75-57.87,.9,18.62-15.81,39-28.94,60.82-39.88Z"/>
      <path class="cls-7" d="M321.08,95.09c-19.46,10.59-38.36,22.06-55.88,35.69-2.45,1.9-4.92,3.77-7.79,5.97-1.56-15.83,.39-30.72,3.78-45.5,5.32-23.15,15.27-44.26,28.25-64.04,2.14-3.25,4.38-4.59,8.8-4.6,10.31-.04,20.66-1.05,30.96-.52,31.69,1.65,63.09,4.95,92.29,18.92,9.62,4.6,17.79,11.5,28.31,16.94-11.1,1.48-20.92,2.8-30.75,4.11-1.47-.42-2.7-1.24-3.79-2.29-11.33-10.92-25.35-16.2-40.45-19.11-22-4.24-44.25-4.47-66.54-4.2-3.75,.05-4.89,1.66-4.85,5.17,.21,16.03,4.59,30.77,13.16,44.33,1.8,2.85,4.77,5.22,4.49,9.13Z"/>
      <path class="cls-8" d="M321.08,95.09c-10.18-13.34-16.65-28.27-18.75-44.94-.52-4.1-.17-8.31-.23-12.47-.03-2.38,1.54-2.6,3.36-2.57,17.42,.27,34.83-.48,52.25,1.73,13.56,1.73,26.94,3.65,39.5,9.22,8.41,3.72,16.06,8.64,21.86,16-14.89,3.45-29.85,6.63-44.44,11.28-18.42,5.86-36.09,13.51-53.54,21.75Z"/>
      <path class="cls-6" d="M82.03,496.01c13.34,4.98,26.54,10.33,40.17,14.51,17.74,5.45,35.85,9.04,54.23,11.56,12.04,1.65,24.08,2.1,36.18,1.85,3.15-.06,5.15,.89,6.93,3.65,6.58,10.21,14.45,19.39,23.31,27.71,1.35,1.27,2.63,2.53,4.56,2.82-12.74,3.89-25.41,1.1-38.02-.65-36.42-5.04-68.21-21.51-98.67-40.9-9.91-6.31-20.06-12.41-28.7-20.56Z"/>
      <path class="cls-6" d="M898.61,287.85c.13-.1,.26-.28,.4-.29,16.7-1.82,31.87,2.11,45.29,12.28,2.08,1.57,3.73,3.75,5.06,6.86-34.35,6.83-66.46,19.25-96.91,36.38,2.15-4.14,3.03-8.45,4.61-12.5,7.36-18.77,18.51-34.15,38-41.95,.6-.24,1.27-.29,1.91-.42,.69,.53,1.46,1.41,1.65-.36Z"/>
      <path class="cls-6" d="M924.95,334.95c-3.68,10.91-13.56,14.7-22.42,19.86-23.12,13.47-46.27,26.95-64.26,47.4-1.73,1.97-3.57,3.85-5.36,5.76,3.96-11.27,8.65-22.3,11.52-33.95,.23-.93,.69-1.74,1.69-2.32,21.49-12.32,42.83-24.97,66.49-32.92,4.08-1.37,8.23-2.56,12.34-3.84Z"/>
      <path class="cls-4" d="M898.61,287.85c.54,.27,1.57,.57,1.55,.79-.11,1.25-1.21,1.3-2.17,1.37-1.53,.1-1.51-.73-1.03-1.8l1.65-.36Z"/>
      <path class="cls-9" d="M201.29,577.82c-1.16,.42-2.7-.09-3.42,1.41-.74-.38-1.63-1.4-1.24-1.74,1.52-1.34,3.14-.49,4.66,.33Z"/>
      <path class="cls-8" d="M196.98,495.98c-50.31-7.35-91.51-29.75-124.91-66.67-2.67-2.96-4.86-6.36-7.63-9.22-2.24-2.3-1.92-4.01-.18-6.37,21.73-29.51,50.14-48.59,86.29-55.91,3.68-.75,4.84,.08,5.84,3.52,7.73,26.65,15.58,53.27,23.58,79.85,4.98,16.55,10.3,33,15.46,49.5,.48,1.54,.92,3.1,1.57,5.3Z"/>
      <path class="cls-8" d="M567.21,445.02c-10.04-.02-20.01-7.7-24.89-20.55-7.98-21.01,.86-49.45,19.38-62.33,17.6-12.23,37.59-5.76,45.14,14.63,8.15,21.99-1.56,50.82-21.37,63.3-5.01,3.15-10.44,5.1-18.26,4.95Z"/>
      <path d="M544.6,337.52c.04-2.02,.49-3.93,1.37-5.77,8.56-18,18.01-35.52,27.76-52.89,3.5-6.23,9.27-8.39,14.56-5.78,5.46,2.69,7.34,8.94,3.98,15.44-8.9,17.25-18.61,34.07-26.9,51.64-1.92,4.07-5.17,6.93-10.01,7.25-5.94,.4-10.67-3.98-10.76-9.91Z"/>
      <path d="M701.84,234.07c-3.57-1.49-7.04-2.15-10.72-1.47-6.54,1.21-8.58,3.84-6.77,10.53,2.43,8.97,5.4,17.79,8.14,26.68,.38,1.22,.76,2.44,1.24,3.96-3,.32-4.41-1.31-5.35-3.23-5.14-10.48-9.12-21.4-11.28-32.88-.45-2.37-1.07-4.01-3.14-5.15-2.04-1.12-4.02-2.34-6.01-3.56-3.91-2.4-7.3-3.61-12.13-.76-7.15,4.22-16.51-.05-20.25-8.08-3.42-7.35-.34-15.12,7.58-19.11,7.85-3.96,16.91-1.38,20.6,6.02,1.02,2.05,2.48,4.61,2.03,6.54-1.26,5.43,2.33,6.7,5.84,8.65,5.15,2.86,9.79,6.37,16.47,5.07,2.99-.58,6.49,1.05,9.66,2,1.99,.59,4.11,1.5,4.1,4.8Z"/>
      <path class="cls-1" d="M481.9,541.99c5.07-7.13,10.15-14.25,15.19-21.4,1.1-1.56,1.87-.96,3.12-.08,8.11,5.78,8.13,5.73-.21,11.19-5.76,3.77-11.49,7.57-17.23,11.36-.29-.36-.58-.71-.86-1.07Z"/>
      <path class="cls-1" d="M480.32,496.9c1.78,2.19,3.13,3.86,4.49,5.52q4.85,5.95-2.18,9.56c-4.68,2.38-9.4,4.7-14.12,7.01-.23,.11-.62-.1-1.02-.17,4.2-7.17,8.37-14.3,12.83-21.92Z"/>
      <path class="cls-15" d="M507.31,553.57c2.51-5.16,5.01-10.32,7.51-15.49,.47-.97,.76-2.72,2.12-2.06,2.03,.99,3.98,2.41,5.54,4.04,1.11,1.15-.6,1.97-1.34,2.64-4.34,3.93-8.75,7.79-13.13,11.67-.24-.27-.47-.53-.71-.8Z"/>
    </g>
  </g>
</svg>