<?xml version="1.0" encoding="UTF-8"?>
<svg id="_图层_2" data-name="图层 2" xmlns="http://www.w3.org/2000/svg" viewBox="0 0 950 1192">
  <defs>
    <style>
      .cls-1 {
        fill: #f6f6f6;
      }

      .cls-2 {
        fill: #f0f0f0;
      }

      .cls-3 {
        fill: #fefefe;
      }

      .cls-4 {
        fill: #e5e5e5;
      }

      .cls-5 {
        fill: #e5be90;
      }

      .cls-6 {
        fill: #fead8d;
      }

      .cls-7 {
        fill: #fed3a0;
      }

      .cls-8 {
        fill: #df9057;
      }

      .cls-9 {
        fill: #c9824e;
      }

      .cls-10 {
        fill: #242424;
      }

      .cls-11 {
        fill: #9a9a9a;
      }

      .cls-12 {
        fill: #595959;
      }
    </style>
  </defs>
  <g id="_图层_1-2" data-name="图层 1">
    <g>
      <path class="cls-3" d="M.1,855.97C.1,572.19,.11,288.41,.01,4.62,.01,.87,.85,.02,4.6,.03,77.42,.16,150.23,.12,223.05,.12c.2,1.65-1.12,1.93-2.19,2.17-9.08,2.08-13.45,8.49-15.9,16.85-7.37,25.11-13.78,50.45-18.66,76.16-4.97,26.19-8.33,52.56-10.16,79.19-.8,11.63-1.02,23.29-1.37,34.88-.45,14.73,.26,29.58,1.36,44.35,.45,6.13,.59,12.29,1.25,18.42,.58,5.37-1.16,10.12-3.76,14.73-20.6,36.66-31.93,76.34-38.2,117.67-3.26,21.49-4.1,43.17-2.8,64.75,2.22,36.97,9.05,73.01,26.24,106.4,13.8,26.79,32.62,49.29,56.52,67.68,17.24,13.26,35.7,24.45,55.02,34.33,1.48,.76,2.99,1.48,4.47,2.23,6.48,3.3,6.84,4.42,2.4,9.9-11.66,14.36-22.82,29.09-33.22,44.4-18.28,26.9-34.78,54.81-48.51,84.36-8.79,18.93-16.47,38.23-22.22,58.29-1.89,6.57-3.17,13.28-4.75,19.92-.4,1.68-.09,4.27-2.47,4.31-2.46,.04-2.16-2.54-2.45-4.23-1.42-8.21-2.05-16.52-2.81-24.8-2.43-26.62-10.55-50.86-29.24-70.63-9.12-9.64-19.61-17.6-32.43-21.8-13.85-4.53-27.79-6.06-42.22-1.89-8.49,2.45-15.44,7.02-21.8,12.67-16.65,14.77-27.03,33.16-30.91,55.14-.43,2.46-.81,4.94-1.59,7.32-.43,1.3-.42,3.15-2.57,3.08Z"/>
      <path class="cls-3" d="M228.05,.12C467.11,.12,706.16,.14,945.22,0c4.27,0,4.74,1.14,4.74,4.97-.1,394.02-.11,788.03,.04,1182.05,0,4.53-1.3,4.98-5.24,4.98-177.25-.1-354.51-.09-531.76-.09,.49-2.84,2.94-2.16,4.69-2.46,16.79-2.9,33.35-6.42,48.58-14.62,9.6-5.16,18.42-11.41,26.64-18.46,3.24-2.78,5.77-3.02,9.28-.86,14.14,8.75,30.07,11.59,46.24,12.82,6.88,.52,13.94-.86,20.73-2.65,3.27-.86,6.48-1.08,9.87-.51,4.96,.84,9.93,.34,14.9-.46,16.66-2.69,32.56-7.15,45.63-18.61,3.49-3.06,6.72-1.89,9.84,.71,12.13,10.13,26.61,14.2,41.89,15.84,9.5,1.02,18.85-1.09,27-5.68,9.13-5.15,17.77-6.99,27.93-3.35,7.74,2.77,15.94,2.12,24.18,.61,31.24-5.71,57.54-21.1,82.11-40.35,30.05-23.54,40.21-55.75,38.68-92-1.18-27.87-11.85-52.77-30.66-73.83-13.44-15.04-30.16-23.19-50.31-24.39-5.28-.31-5.84-.89-4.67-6.07,3.38-14.95,6.87-29.87,9.35-45,4.29-26.19,6.7-52.54,5.56-79.08-.64-14.85-3.81-29.37-7.12-43.83-3.82-16.74-8.34-33.29-13.71-49.59-2.07-6.28-1.85-6.89,4.21-10.07,21.14-11.12,40.98-24.22,59.8-38.93,23.4-18.29,40.4-41.79,55.22-67.1,14.78-25.25,22.9-52.79,27.17-81.52,3.4-22.86,1.09-45.48-3.95-67.92-5.33-23.78-13.82-46.25-27.05-66.81-1.85-2.87-2.7-6.06-3.47-9.31-4.88-20.62-10.84-40.88-18.94-60.5-7.71-18.68-16.68-36.7-27.69-53.65-3.31-5.1-4.4-9.91-3.1-15.96,6.89-32.22,10.08-64.87,8.55-97.76-1.4-30.04-8.51-58.96-21.02-86.39-4.84-10.61-10.36-20.88-17.01-30.52-5.19-7.52-12.19-10.72-21.05-9.33-35.88,5.65-70.58,15.27-103.72,30.39-24.07,10.98-46.46,24.66-67.62,40.43-3.83,2.86-7.54,3.54-12.12,2.38-34.99-8.89-70.66-11.62-106.56-9.86-32.22,1.58-63.83,7.63-94.59,17.37-7.52,2.38-12.54,.98-18.42-3.98-33.31-28.07-70.18-49.98-111.91-63.29-21-6.7-42.35-11.76-64.1-15.24-1.59-.25-3.91,.34-4.2-2.39Z"/>
      <path d="M228.05,.12c8.54,1.64,17.09,3.27,25.62,4.94,59.92,11.72,112.84,37.77,158.91,77.76,3.14,2.72,5.76,3.24,9.7,2.01,45.18-14.14,91.36-21.06,138.77-18.53,23.32,1.24,46.34,4.64,68.98,10.38,3.08,.78,5.31,.25,7.77-1.63,52.01-39.82,111.06-62.74,175.47-72.42,7.28-1.09,14.14,1.76,18.66,8.16,16.74,23.68,27.25,50.05,33.89,78.16,7.96,33.73,7.22,67.7,3.46,101.8-1.61,14.57-3.99,29-7.1,43.32-.44,2.03,.15,3.51,1.18,5.1,24.07,37.06,40.36,77.35,49.77,120.47,.61,2.78,1.78,5.26,3.27,7.7,22.58,37.04,34.09,77.33,32.12,120.64-1.8,39.62-15.2,75.78-36.05,109.61-23.94,38.84-58.27,65.56-97.07,87.61-4.48,2.54-8.91,5.24-13.61,7.29-3.23,1.41-2.44,3.15-1.65,5.43,8.31,24.08,14.45,48.72,19.07,73.77,4.24,23.02,3.37,46.09,1.22,69.2-2.46,26.39-7.52,52.33-13.8,78.05-.36,1.47-2.2,3.5,1.57,3.55,24.36,.34,43.28,11.23,57.99,30.2,18.21,23.48,27.48,50.14,26.55,79.76-1.21,38.62-17.55,69.03-50.17,90.92-23.5,15.78-48.03,28.27-76.18,32.99-10.78,1.81-20.81-1.29-30.94-3.75-2.89-.7-5.02-.34-7.47,1.02-5.79,3.23-11.52,6.54-18.07,8.24-23.55,6.13-43.9-1.05-62.57-14.96-2.62-1.95-4.09-2.1-6.67-.03-18.93,15.22-40.67,21-64.76,19.34-6.6-.46-12.95,2.61-19.63,2.98-19.97,1.11-38.65-2.98-55.87-13.25-1.86-1.11-2.99-1.69-5,.12-23.04,20.73-50.18,32.07-80.98,34.85-.7,.06-1.28,.18-1.44,.99h-3c-3.33-.85-6.66-.85-10,0h-3c-10.43-.85-20.66-2.65-30.81-5.29-28.29-7.37-53.11-21.08-75.01-40.24-4.95-4.33-10.05-7.69-16.83-8.98-12.44-2.37-24.56-6.03-36.12-11.41-12.31-5.73-22.53-14.12-31.37-24.26-1.88-2.15-3.79-3.53-6.75-3.52-10.64,0-20.96-2.54-30.72-6.19-22.13-8.27-44.29-16.64-64.29-29.63-14.83-9.63-29.44-19.66-41.91-32.21-15.48-15.56-27.62-33.68-37.96-53.03-12.57-23.51-19.5-48.77-23.66-74.92-.81-5.06-.23-10.25-1.47-15.26v-10c.85-4,.85-8,0-12v-9c2.58-5.05,2.69-10.72,3.99-16.08,5.97-24.72,19.04-44.58,40.65-58.13,11.78-7.38,25.09-9.73,38.85-7.24,41.28,7.48,63.33,34.78,74.37,73.06,4.68,16.26,4.63,33.25,7.08,49.85,.16,1.06-.22,2.31,1.15,3.37,2.17-8.93,3.98-17.77,6.48-26.4,9.99-34.51,25.55-66.6,43.21-97.73,17.78-31.32,38.23-60.82,61.19-88.55,2.93-3.53,2.68-4.68-1.55-6.69-29.17-13.81-56.53-30.56-79.72-53.21-29.47-28.79-47.99-63.8-56.7-104.03-18.37-84.87-5.55-165.2,35.12-241.47,1.45-2.71,2.27-5.23,1.98-8.43-3.13-34.74-3.61-69.51-1.15-104.32,3.77-53.35,14.45-105.37,30.39-156.35,1.96-6.28,6.69-10.57,13.41-12.2,1.41-.34,3.06-.05,4.19-1.32,1.67,0,3.33,0,5,0Z"/>
      <path class="cls-3" d="M.1,886.96c2.5,4.98,2.03,10.53,2.81,15.81,6.9,46.91,25.69,88.4,58.14,122.92,22.21,23.63,49.33,40.82,79.32,53.35,17.01,7.11,33.76,15.57,52.37,16.93,9.12,.67,14.67,4.31,20.56,10.65,14.68,15.79,34.04,23.5,54.64,27.94,10.09,2.17,18.55,5.91,26.6,12.88,28.94,25.06,62.93,39.2,101,43.44,.7,.08,1.28,.22,1.46,1.01-130.87,0-261.75-.02-392.62,.09-3.51,0-4.39-.61-4.38-4.3,.13-100.24,.1-200.49,.1-300.73Z"/>
      <path class="cls-10" d="M.1,864.97c1.58,4,1.61,8,0,12v-12Z"/>
      <path class="cls-11" d="M400,1191.91c3.33-1.62,6.66-1.63,10,0h-10Z"/>
      <path class="cls-3" d="M928.64,471.81c1.08,25.68-2.87,50.48-12.9,74.22-4.18,6.34-10.19,10.97-15.69,15.95-30.7,27.78-64.63,50.91-102.17,68.43-38.59,18.02-79.01,29.96-121.4,35.12-24.67,3-49.42,4.87-74.2,3.58-27.94-1.46-55.61-5.55-83.06-11.14-59.5-12.12-116.67-31.49-172.67-54.63-21.41-8.85-42.42-18.57-63.14-28.87-44.89-22.32-87.32-48.54-125.96-80.65-1.67-1.38-3.42-2.68-4.27-4.78-2.94-19.54-2.6-39.18-1.53-58.81,2.82-51.94,17.94-100.16,44.21-144.96,1.1-1.88,1.17-3.69,.96-5.71-4.05-39.37-4.3-78.77-1-118.21,3.86-46.08,12.85-91.13,26.24-135.37,1.42-4.68,3.06-5.87,8.13-5.14,67.47,9.74,126.51,37.36,176.45,83.71,5.87,5.45,9.84,2.59,14.93,1.31,2.46-.71,4.5,.18,6.53,1.52,20.13,13.36,38.98,28.31,56.47,45.01,23.91,22.83,45.48,47.62,63.52,75.34,4.68,7.2,9.62,13.93,16.68,18.92,2.87,2.03,6.02,3.51,9.21,4.95,5.34,2.41,10.36,.93,15.36-1.11,1.88,.35,3.39,1.42,4.75,2.63,13.97,12.41,30.68,19.75,47.95,26.14,38.37,14.18,77.92,23.97,117.99,31.88,22.5,4.44,44.17,11.08,63.55,24.08,19.8,13.28,33.27,31.42,42.2,53.16,9.79,23.85,23.78,44.98,41,64,4.78,5.28,10.41,9.89,17.12,12.73,3.08,1.31,4.84,3.29,4.76,6.71Z"/>
      <path class="cls-3" d="M198.84,1044.03c-6.59-14.86-9.11-30.75-11.78-46.6-.47-2.77-.6-5.6-.89-8.4,4.26-2.31,9.04-1.56,13.57-2.27,18.83-2.96,37.42-6.73,54.25-16.24,11.65-6.59,22.02-15.02,31.96-23.9,25.34-22.65,46.93-48.6,65.64-76.89,16.39-24.79,30.46-50.85,41.27-78.6,1.03-2.65,1.3-6.05,4.84-7.1,12.4,1.51,24.58,4.27,36.95,6.03,27.37,3.89,54.73,7.86,82.18,11.11,9.06,1.07,18.28,.7,27.43-.15,7.12-.66,14.27-1.29,21.4-1.4,22.53-.34,45.08-1.79,66.97-6.8,44.18-10.1,88.09-21.41,128.52-42.97,7.82-4.17,15.33-8.73,22.4-14.06,1.91-1.44,3.64-3.59,6.55-2.9,9.32,30.11,13.9,60.82,11.65,92.39-2.38,33.41-6.15,66.87-17.26,98.43-8.82,25.06-16.45,50.66-27.93,74.83-9.77,20.58-14.7,42.65-16.18,65.46-.52,8.02,1.18,15.93,.61,23.92-2.27,7.04-8.27,9.73-14.47,11.62-15.1,4.59-30.39,5.2-45.75,1.04-2.58-.7-5.05-1.66-7.49-2.72-4.83-2.1-8.59-4.97-8.27-10.94-1.13-4.51-1.83-9.19-3.47-13.51-3.53-9.26-3.51-18.49-1.15-27.95,3.73-14.96,4.5-30.28,5.08-45.59,.28-7.47-3.77-12.4-9.8-12.83-5.92-.43-11.05,3.85-11.23,10.86-.46,18.05-2.93,35.8-6.55,53.45-1.76,8.55-.03,16.89,2.43,25.1,.62,2.06,1.16,4.15,1.74,6.22,.87,7.12,.71,7.21-5.39,10.51-5.4,2.92-10.41,6.45-16.01,9.14-11.46,5.52-23.16,6.16-35.53,4.66-13.08-1.58-24.9-5.89-35.49-13.58-2.35-1.7-6.52-1.34-6.75-5.61,3.18-10.84,6.91-21.59,7.46-32.99,2.79-58.05-42.06-104.43-92.83-106.59-12.63-.54-24.8,2.42-36.76,6.11-21.33,6.59-41.79,15.31-61.53,25.73-6.43,4.41-13.25,8.21-19.84,12.37-12.58,7.94-21.27,19.42-29.88,31.08-4.75,6.43-8.76,13.34-13.03,20.08-3.05,4.82-6.71,9.07-10.8,13.01-4.18,4.04-9.14,6.15-14.69,7.91-13.9,4.39-26.68,1.3-39.85-3.33-10.33-3.62-19.67-8.77-28.96-14.26-1.33-.79-2.25-1.92-3.37-2.89Z"/>
      <path class="cls-4" d="M153.16,489.03c20.83,16.18,41.57,32.47,63.88,46.63,15.44,9.8,31.25,18.95,47.4,27.49,35.88,18.98,72.77,35.78,110.66,50.31,40.95,15.71,82.58,29.32,125.36,39.17,22.57,5.2,45.36,9.42,68.35,12.22,21.76,2.66,43.66,4.12,65.59,3.07,44.59-2.13,88.23-9.47,130.25-25,37.97-14.04,73.1-33.37,105.38-57.76,13.5-10.2,26.59-20.96,38.43-33.13,2.18-2.24,4.84-4.02,7.27-6.01-1.48,6.35-4.62,12.02-7.36,17.84-21.49,45.54-56.28,77.97-99.71,102.28-50.55,28.29-104.22,46.56-161.86,53.04-49.53,5.56-99.08,5.23-148.66,.92-54.76-4.76-108.29-15.42-160.07-34.11-34.95-12.61-68.71-27.69-99.63-48.64-45.43-30.78-72.15-73.58-82.32-127.12-1.33-7.01-2.85-14.02-2.95-21.22Z"/>
      <path class="cls-7" d="M928.64,471.81c-1.18-1.27-.48-3.47-2.74-4.36-13.73-5.45-22.77-16.42-31.46-27.59-12.4-15.95-22.61-33.19-30.26-51.97-15.12-37.14-43.5-59.14-81.33-69.76-28.27-7.94-57.46-12.01-85.73-20.02-27.19-7.7-54.22-15.82-79.88-27.91-10.49-4.95-19.18-12.49-28.38-19.3-.5-3.12,1.42-5.72,1.85-8.68,2.26-15.54-.77-30.47-5.32-45.13-6.31-20.33-17.74-37.84-31.04-54.22-14.82-18.26-31.93-34.27-49.38-49.94-1.43-1.29-3.44-2.24-2.97-4.74,13.24-1.94,26.55-2.53,39.92-2.04,6.41,4.41,10.75,10.81,15.6,16.66,24.62,29.68,46.41,61.33,65.04,95.11,6.51,11.8,13.12,23.57,18.35,36.04,3.01,7.18,12.08,12.28,19.85,11.42,4.71-.52,7.45-3.2,8.55-8.42,1.29-6.13,.85-12.3-.13-18.37-4.02-24.82-12.32-48.35-22.11-71.39-6.98-16.44-15.69-31.97-25.03-47.17-1.78-2.89-1.74-2.91-.09-5.08,9.86,1.97,19.62,4.33,29.02,7.96,6.63,6.46,11.23,14.47,16.26,22.07,18.24,27.52,34.77,56.04,48.22,86.26,1.16,2.61,1.8,5.37,2.8,8.01,3.49,9.21,13.04,14.44,22.01,12.09,8.59-2.24,14.49-12.1,12.94-21.58-3.46-21.1-8.6-41.75-16.58-61.65-.74-1.85-3.27-4.34,.33-6.19,34.6,21.13,64.36,47.75,89.42,79.56,34.32,43.56,57.14,92.55,68.62,146.81,.6,2.82,1.79,5.29,3.32,7.71,18,28.55,28.04,59.71,30.46,93.35,.06,.82-.09,1.65-.14,2.48Z"/>
      <path class="cls-3" d="M401.98,983.87c14.6-6.51,29.59-12,45.53-13.87,36.54-4.28,65.02,22.46,75.48,47.9,8.77,21.32,7.63,42.39-.54,63.62-8.03,20.86-20.43,38.59-35.94,54.57-10.83,11.15-22.86,20.18-37.17,26.16-2.39,1-4.89,1.74-7.35,2.61-1.47-.38-2.97,.24-4.44-.22-15.73-4.98-32.41-5.7-48.12-11.11-7.83-2.7-16.48-3.41-22.81-9.33-17.58-16.43-28.82-35.52-25.21-60.91,3.5-24.64,10.78-47.87,26.35-67.57,9.69-12.26,21.4-22.74,34.21-31.84Z"/>
      <path class="cls-4" d="M790.09,732.9c-34.8,26.13-74.99,40-116.39,51.09-15.34,4.11-30.6,8.6-46.28,11.26-14.51,2.47-29.09,4.26-43.84,4.85-19.86,.79-39.66,2.9-59.57,2.88-9.48,0-18.76-1.69-28.09-3-11.77-1.65-23.55-3.27-35.33-4.89-21.28-2.91-42.57-5.72-63.61-10.12-.37-.43-.58-.92-.64-1.49,1.57-7.98,5.01-15.39,7.04-23.24,2.32-8.97,4.76-17.9,6.43-27.03,.41-2.26-.15-5.81,4.1-5.38,16.21,2.87,32.36,6.02,48.68,8.29,43.67,6.08,87.53,7.96,131.57,6.86,54.46-1.36,107.56-10.09,158.8-29,8.41-3.1,16.65-6.67,24.96-10.04,1.47-.59,2.96-1.92,3.78,.81,2.82,9.37,6.48,18.49,8.4,28.14Z"/>
      <path class="cls-7" d="M396.9,783.98c.03,.33,.05,.67,.08,1-6.32,14.27-12.07,28.79-19.29,42.66-16.35,31.4-35.73,60.71-59.07,87.4-15.26,17.45-31.93,33.29-50.27,47.53-18.09,14.05-39,20.29-60.92,24.29-7.01,1.28-14.09,2.32-21.27,2.16-2.87-17.29-3.44-34.71-2.91-52.2,.85-8.39,.83-8.35,8.56-5,13.89,6.02,27.86,11.81,42.21,16.69,4.4,1.5,8.28,1.41,12.49-.5,13.91-6.31,25.35-15.62,34.73-27.43-.56-1.2-1.43-1.26-2.23-1.41-22.88-4.33-44.52-12.35-65.51-22.19-6.61-3.1-12.95-6.81-19.25-10.53-1.43-.85-2.9-1.69-3.34-3.5,2.32-10.69,6.47-20.75,10.48-30.86,3.11-.66,5.44,1.3,7.86,2.59,24.82,13.21,50.91,23.08,78.21,29.78,4.69,1.15,9.44,2.04,14.13,3.19,3.04,.74,5.53,.14,7.66-2.24,7.83-8.72,14.22-18.43,19.95-28.61,1.96-3.49-.32-4-2.88-4.27-9.12-.94-18.16-2.34-27.11-4.29-26.86-5.84-52.4-15.21-76.24-28.97-2.02-1.17-4.86-2.01-4.17-5.4,4.53-9.61,9.34-19.06,15.14-27.99,2.05-.8,3.49,.59,5.03,1.47,32.13,18.61,66.48,31.14,103,37.77,8.36,1.52,8.31,1.54,12.52-5.83,3.79-6.65,7.44-13.37,11-20.14,2.67-5.1,2.59-5.17-2.85-6.43-27.83-6.49-54.5-16.21-79.99-29.1-7.41-3.75-14.79-7.62-21.75-12.19-1.53-1-3.94-1.64-2.96-4.42,1.65-2.37,3.31-4.73,4.96-7.1,2.83-1.62,5.15,.1,7.47,1.26,10.99,5.53,22.06,10.88,33.4,15.69,16.31,6.92,33.32,11.39,50.58,15.08,13.83,2.96,27.1,8.01,40.93,10.98,.66,.14,1.2,.56,1.65,1.06Z"/>
      <path class="cls-4" d="M401.98,983.87c-4.64,4.47-9.03,9.24-13.97,13.34-13.06,10.84-24.35,23.11-31.39,38.7-8.22,18.22-14.28,37.09-14.59,57.36-.24,15.63,6.91,28.31,16.06,40.26,7.36,9.62,16.41,15.5,28.68,17.84,9.99,1.91,19.64,6.06,29.83,7.34,8.75,1.1,17.11,3.39,25.4,6.14-16.31,6.56-33.35,7.9-50.49,5.52-36.95-5.13-68.42-21.62-94.85-47.84-1.75-1.73-3.53-2.76-5.95-3.16-4.25-.7-8.46-1.71-12.68-2.59-5.04-3.78-10.68-5.5-16.98-4.87-16.74-4.58-30.63-13.49-40.86-27.58-9-12.4-16.22-25.82-21.34-40.31,3.83,1.61,7.52,3.46,11,5.76,13.08,8.67,27.84,14.2,43.04,15.61,15.35,1.43,29.8-3.55,39.26-17.62,7.66-11.4,14.85-23.08,23.14-34.1,8.92-11.86,20.11-20.51,32.47-28.08,3.64-2.22,7.25-4.55,11.49-5.55-2.09,2.59-4.19,5.13-4.18,8.78,.03,7.88,7.95,12.41,16.01,8.83,8.66-3.84,17.15-8.05,25.75-12.03,1.64-.76,3.42-1.18,5.14-1.76Z"/>
      <path class="cls-3" d="M763.85,1047.8c1.17-11.87,4.83-23.1,9.23-34.05,8.98-22.36,19.27-44.22,25.01-67.76,.61-2.49,2.34-2.79,4.46-3.08,15.65-2.18,29.16,2.59,40.07,13.58,22.77,22.95,32.76,50.77,29.8,83.04-1.34,14.61-5.6,28.33-13.53,40.78-2.77,4.36-5.92,8.43-10.07,11.6-2.47,2.3-5.63,3.11-8.76,3.13-9.32,.04-18.58,2.02-27.89,1.16-10.12-.94-18.67-6.05-26.34-12.2-8.79-7.06-14.89-16.55-20.69-26.09-1.83-3.01-2.24-6.55-1.29-10.09Z"/>
      <path class="cls-8" d="M502,88.18c8.12,7.59,16.31,15.12,24.34,22.8,18.2,17.4,35.06,35.95,47.74,57.88,9.92,17.15,16.48,35.4,18.08,55.39,.74,9.25,1.29,18.19-3.31,26.64-4.1,3.95-8.95,4.15-13.91,2.33-10.12-3.69-18.32-9.92-24.18-19.09-32.23-50.44-73.34-92.2-123-125.58-1.89-1.27-3.65-2.96-6.22-2.71,26.14-9.01,52.88-15.25,80.45-17.67Z"/>
      <path class="cls-7" d="M743.78,122.2c-24.6-14.36-50.13-26.68-77.28-35.48-2.18-.71-4.35-1.46-6.67-2.24,.33-1.92,1.92-2.36,3.04-3.12,45.55-30.98,95.6-50.49,150.02-58.9,2.49-.38,3.62,.46,4.8,2.32,18.65,29.61,30.41,61.56,33.31,96.61,2.47,29.9,.11,59.55-4.35,89.1-.12,.81-.4,1.59-.78,3.03-3.59-3.75-6.5-7.38-9.05-11.32-1.73-5.22,.55-10.19,1.13-15.22,4.51-39.02,1.24-77.1-13.3-113.87-2.39-6.04-4.61-12.15-7.66-17.91-2.53-4.78-2.92-4.87-7.3-1.45-23.55,18.36-43.79,39.85-60.87,64.34-1.24,1.78-2.01,4.4-5.03,4.1Z"/>
      <path class="cls-8" d="M621.95,94.94c-1.64,1.39-.14,2.33,.51,3.35,15.8,25.01,28.54,51.48,37.75,79.59,5.43,16.57,10.16,33.32,11.43,50.86,.69,9.44-2.99,16.31-9.85,17.87-6.74,1.53-18.16-3.82-21.05-10.1-17.71-38.54-39.71-74.52-64.94-108.56-10.69-14.42-22.41-28.01-33.89-41.8,27.06-.57,53.72,2.58,80.03,8.79Z"/>
      <path class="cls-5" d="M396.9,783.98c-7.54-.38-14.65-2.75-21.71-5.05-15.15-4.94-30.9-7.39-46.19-11.75-20.74-5.91-40.04-15.11-59.18-24.77-2.2-1.11-4.29-2.63-6.96-2.49,10.44-16.04,22.62-30.76,34.69-45.56,2.02-2.48,3.76-1.17,5.68-.39,22.58,9.3,45.61,17.3,69.21,23.58,13.76,3.66,27.64,6.88,41.46,10.3-2.66,.83-2.47,3.29-2.81,5.27-2.95,17.46-7.97,34.33-14.2,50.87Z"/>
      <path class="cls-6" d="M743.78,122.2c5.33-6.94,10.61-13.92,16.01-20.82,13.56-17.33,29.05-32.74,46.32-46.37,1.82-1.44,3.83-2.68,5.43-4.33,2.45-2.52,3.68-2.18,5.24,1,11.14,22.64,18.54,46.36,22.29,71.36,2.56,17.07,1.98,34.15,1.6,51.21-.21,9.34-2.5,18.64-3.85,27.96-11.63-13.04-23.28-26.02-36.38-37.66-16.47-14.63-34.06-27.7-52.6-39.54-1.39-.89-2.71-1.87-4.06-2.81Z"/>
      <path class="cls-8" d="M736.95,141.9c-1.94,1.81-.14,3.5,.46,4.93,8.62,20.46,13.57,41.91,17.33,63.68,1.61,9.31-5.04,19.58-13.99,22.12-9.25,2.63-20.07-2.73-23.49-12.18-10.69-29.57-27-56.18-43.32-82.79-6.77-11.04-14.14-21.69-21.92-32.05-.61-.82-1.14-1.64-1.05-2.71,13.25,3.17,25.76,8.45,38.21,13.81,16.57,7.14,32.64,15.29,47.77,25.19Z"/>
      <path class="cls-8" d="M257.9,747.01c2.49,4.08,6.99,5.46,10.77,7.6,30.55,17.26,62.88,29.99,97.24,37.36,2.86,.61,4.23,1.24,2.43,4.43-5.2,9.27-10.22,18.65-15.25,28.01-1.41,2.62-2.87,3.43-6.27,2.88-34.24-5.52-66.58-16.57-97.27-32.61-5.3-2.77-10.42-5.86-15.63-8.81,7.09-13.52,15.27-26.36,23.98-38.87Z"/>
      <path class="cls-4" d="M542.9,1087.8c12.1,7.7,23.94,15.96,38.93,17.18,4.77,.39,9.52,1.1,14.25,1.82,3.91,.59,7.72-.35,11.29-1.32,8.95-2.45,17.76-5.51,25.14-11.52,1.02-.83,2.2-1.7,3.44-1.96,5.21-1.11,6.34-4.72,6.12-9.31,5.36,14.57-.8,38.24-12.62,47.86-15.44,12.57-33.01,18.12-52.92,15.65-4.79-.59-9.09,1.6-13.66,2.28-16.57,2.49-32.44,.69-47.58-6.78-2.67-1.32-3.4-2.18-1.03-4.79,5.92-6.53,10.48-14.11,15.5-21.34,1.45,.1,1.62-.57,1.01-1.7,4.45-8.49,8.44-17.2,12.13-26.05Z"/>
      <path class="cls-8" d="M218.79,813.87c2.98,5.16,8.71,6.49,13.39,8.92,26.88,13.95,55.31,23.29,85.42,27.26,4.9,.65,9.78,1.41,15.17,2.19-4.63,10.22-11.12,18.81-17.08,27.78-5.39,8.11-11.15,10.02-21.01,7.69-32.77-7.72-63.77-19.61-93.29-35.62,5.1-13.06,10.79-25.85,17.39-38.23Z"/>
      <path class="cls-8" d="M142.96,881c2.11,14.94,4.23,29.89,6.34,44.83-.74,1.11-1.92,1.27-3.09,1.31-15.7,.5-29.12,7.75-42.52,14.73-12.31,6.41-23.54,14.44-33,24.75-1,1.1-2.06,2.19-3.55,2.68-.54,.07-1.03-.08-1.45-.42-5.98-10.57-8.85-22.22-11.61-33.88-.77-3.24-1.54-6.48-2.42-9.69-.13-1.12,.29-2.06,.93-2.93,16.45-14.55,35.9-23.81,56.08-31.79,9.29-3.67,18.91-6.33,28.48-9.11,1.88-.55,3.78-1.4,5.81-.47Z"/>
      <path class="cls-7" d="M67.04,968.88c12.93-15.35,29.52-25.58,47.48-33.87,3.77-1.74,7.6-3.35,11.47-4.87,7.49-2.93,15.17-4.89,23.32-4.31,1.86,5.72,4.5,11.06,7.81,16.07-.11,1.25-.93,2.1-1.73,2.93-17.56,17.95-29.83,39.19-38.9,62.42-.48,1.23-.89,2.5-1.73,3.57-.34,.39-.76,.66-1.25,.83-14.51-2.27-27.65-6.87-35.84-20.38-3.36-5.55-6.76-11.06-9.68-16.85-.85-1.7-2.31-3.42-.94-5.54Z"/>
      <path class="cls-8" d="M190.92,882.95c28.54,17.63,59.37,29.45,92.97,35.99-7.53,10.65-16.8,18.3-27.01,25.21-10.03,6.79-19.62,8.3-31.06,3.09-12.06-5.49-24.75-9.68-36.74-15.41-4.3-2.06-5.53-1.34-5.16,3.2,.05,.58-.43,1.2-.67,1.8,.84-18.21,1.95-36.37,7.66-53.88Z"/>
      <path class="cls-7" d="M142.96,881c-14.27,4.3-28.62,8.33-42.38,14.18-17.04,7.24-33.01,16.23-47.48,27.83-1.42-.83-2-2.22-2.25-3.72-2.47-14.6-4.61-29.24-4.13-44.11,.02-.67,.2-1.31,.38-1.95,.88-2.3,3.01-3.01,5.01-3.77,21.18-8.09,42.98-13.1,65.79-12.91,6.56,.05,12.87,1.56,19.16,3.23,1.48,.4,2.78,1.11,3.78,2.3,1.16,6.26,1.87,12.57,2.12,18.93Z"/>
      <path class="cls-8" d="M140.84,862.07c-10.28-2.73-20.64-4.95-31.37-4.08-21.25,1.73-41.9,5.98-61.4,14.95-.65,.31-1.17,.17-1.56-.44-1.34-2.65-.84-5.52-.94-8.31-.38-10.59,.8-21.22-.75-31.79,.11-3.03,3-2.51,4.62-3.62,10.73-3.27,21.88-4.05,32.94-5.13,12.23-1.2,24.53-1.46,36.83-1.19,2,.04,3.98,.12,5.93,.59,8.56,11.67,13.89,24.65,15.7,39.03Z"/>
      <path class="cls-4" d="M763.85,1047.8c-.3,5.88,2.76,10.38,5.92,14.92,7.51,10.79,15.28,20.96,27.6,27.23,9.77,4.97,19.37,5.6,29.83,4.27,7.17-.92,14.58,.11,21.62-2.32-24.1,22.74-51.81,38.7-84.7,44.75-4.67,.86-9.55,.71-14.6-1.13,5.58-9.2,9.85-18.69,11.77-29.12,1.43-7.76,1.74-15.51,1.04-23.37-1.05-11.79-1.3-23.58,1.51-35.23Z"/>
      <path class="cls-4" d="M665.01,1086.93c1.41,8.26,8.45,9.95,14.71,11.87,15.29,4.7,30.71,3.95,46.01-.32,6.28-1.75,11.3-5.4,15.26-10.55,1.82,17.19-3.57,32.64-15.7,43.99-16.18,15.15-36.6,16.1-56.54,5.54-.29-.16-.58-.33-.87-.49-10.54-5.82-10.6-5.84-7-17.08,3.44-10.74,4.52-21.75,4.13-32.96Z"/>
      <path class="cls-8" d="M114.1,1010.96c6.5-20.55,17.43-38.7,30.28-55.8,3.7-4.93,7.78-9.51,12.73-13.25,4.55,3.15,6.19,7.25,6.21,12.97,.05,10.61,1.21,21.21,1.9,31.82-2.74,7.26-7.66,13.02-13.1,18.28-9.9,9.57-22.32,8.97-34.73,7.99-1.34-.11-2.55-.74-3.28-2.01Z"/>
      <path class="cls-9" d="M114.1,1010.96c12.59,1.65,25.11,3.17,36-5.95,2.98-2.5,5.41-5.31,7.63-8.43,2.4-3.36,4.98-6.6,7.48-9.89,.54,3.44,1.08,6.89,1.61,10.33-2.88,8.14-7.2,15.71-9.52,24.08-2.95,10.61-5.16,21.31-4.91,32.42,.06,2.74,.76,5.69-1.23,8.17-16.35-5.84-31.23-14.39-45.27-24.51,1.38-9.17,2.45-18.44,8.01-26.33l.19,.1Z"/>
      <path class="cls-7" d="M125.14,823.03c-1.02,1.2-2.43,.89-3.73,.89-12.81,0-25.63-.18-38.39,1.11-11.37,1.14-22.75,2.35-33.91,4.98-2.07,.93-3.01-.53-3.09-2.01-.43-7.72-1.89-15.52,1.04-23.1,14.08-13.98,30.53-13.62,47.52-7.21,12.93,4.88,22.79,13.97,30.56,25.34Z"/>
      <path class="cls-5" d="M151.17,1061.7c-1.33-21.4,3.08-41.59,12.84-60.64,.75-1.46,1.25-3.12,2.82-4.02,2.32,13.59,5.09,27.09,8.66,40.41,3.57,13.35,9.19,25.88,16.06,38.78-14.8-2.8-27.5-8.91-40.37-14.52Z"/>
      <path class="cls-5" d="M47.07,872.88c.33,.02,.67,.04,1,.05-.25,16.88,1.81,33.53,5.03,50.07-.36,.62-.73,1.24-1.09,1.86-1.81,4.89-7.23,6.54-9.75,10.9-1.28,2.23-3.61,3.81-5.28,5.87-.9,1.1-1.86,2.51-3.67,1.35-6.86-18.4-10.96-37.37-12.1-56.98,4.99-5.28,11.8-7.56,18.04-10.71,2.37-1.2,4.78-3.08,7.82-2.4Z"/>
      <path class="cls-5" d="M113.92,1010.86c-2.67,8.78-5.34,17.56-8.01,26.33-20.9-13.53-38.21-30.58-51.05-52.03-.27-.79-.58-1.68-.11-2.38,3.35-4.96,5.93-10.55,11.36-13.79,.31-.02,.62-.06,.92-.1,6.8,13.64,11.95,28.54,27.18,35.76,6.27,2.97,12.81,5.16,19.7,6.22Z"/>
      <path class="cls-9" d="M47.07,872.88c-8.62,4.37-17.24,8.74-25.86,13.12-2.01-15.94-1.48-31.69,3.76-47.05,4.46-1.84,8.6-4.34,13.04-6.2,2.19-.92,4.43-2.58,7.01-.87,2.98,.61,2.03,3.02,2.04,4.81,.06,12.06,.02,24.13,.02,36.19Z"/>
      <path class="cls-9" d="M66.11,968.98c-3.67,5.45-8.6,10.02-11.26,16.17-9.04-13.11-16-27.28-21.55-42.17,3.79-1.72,5.66-5.44,8.21-8.33,3.21-3.64,6.85-6.68,10.48-9.79,2.19,1.53,2.12,4.08,2.59,6.26,2.57,12,5.59,23.85,10.99,34.96,.41,.85,.37,1.93,.53,2.9Z"/>
      <path class="cls-5" d="M45.01,831.89c-5.82,.77-10.55,4.19-15.77,6.43-1.3,.56-2.56,2.5-4.27,.63,4.17-13.42,11.22-24.97,22.09-34.04,0,6.93-.02,13.86,.05,20.79,.02,1.67-.72,3.84,2,4.32-1.37,.62-2.73,1.25-4.1,1.87Z"/>
      <path class="cls-1" d="M261.04,1111.92c.15-.46,.18-1.2,.48-1.35,3.5-1.68,14.69,2.58,16.5,6.21-5.84-.98-11.56-2.42-16.98-4.87Z"/>
      <path class="cls-2" d="M530.77,1113.85c1.38,.3,3.47,.55,2.48,2.41-.72,1.35-2.54,.77-3.49-.71,.34-.57,.68-1.14,1.01-1.7Z"/>
      <path class="cls-6" d="M226.12,195.89c-.42-40.86,4.43-81.14,14.81-120.72,.88-3.37,2.01-3.83,5.04-2.59,39.34,16.06,73.2,39.78,101.17,71.87,7.01,8.04,13.32,16.59,19.65,25.15,1.85,2.51,1.6,4-.65,6.16-25.5,24.41-53.78,45.02-84.43,62.46-15.06,8.57-30.71,15.91-46.55,22.9-3.96,1.75-5.53,1.16-5.91-3.08-1-11.08-2.43-22.13-3.02-33.23-.51-9.61-.11-19.27-.11-28.91Z"/>
      <path d="M549.13,391.64c-.28,9.73-2.02,21.85-7.21,33.23-4.16,9.11-10.6,15.84-20.23,19.49-8.88,3.36-16.22,1.6-22.56-5.27-7.77-8.42-12.05-18.58-14.71-29.52-5.02-20.65-1.18-39.62,11.53-56.58,14.95-19.94,34.29-18.26,46.01,3.76,4.85,9.11,7.32,20.18,7.17,34.88Z"/>
      <path d="M829,383.78c-.67,13.24-3.14,26.51-9.63,38.83-12.61,23.93-35.52,16.58-45.12,2.6-9.47-13.8-11.88-29.37-10.88-45.65,.79-12.9,4.85-24.72,12.95-34.94,12.22-15.42,27.82-15.42,39.98,.1,8.84,11.28,12.49,24.37,12.7,39.06Z"/>
      <path class="cls-6" d="M457.72,518.15c-22.7-.06-37.87-12.35-41.18-29.98-2.34-12.47,5.09-26.34,18.13-33.86,16.89-9.74,41.57-6.95,56.7,5.44,11.14,9.12,10.39,26.12,4.76,34.51-10.13,15.08-24.53,22.8-38.4,23.9Z"/>
      <path class="cls-6" d="M859.65,430.1c11.16,.58,22.06,1.98,29.23,12.06,12.48,17.56,4.77,41.56-16.09,50.37-13.71,5.79-29.39,3.38-38.58-5.93-9.35-9.47-12.17-26.48-6.44-39.62,5.3-12.15,15.96-15.62,27.89-16.87,1.32-.14,2.66-.02,4-.02Z"/>
      <path d="M622.76,424.16c5.88,12.74,15.61,19.55,27.85,18.78,12.43-.78,21.09-7.34,26.03-18.73,.86-1.99,1.88-3.76-1.47-5.4-8.03-3.93-10.5-12.69-6.19-19.75,4.26-6.98,13.2-9.12,20.01-4.78,7.23,4.61,9.59,14.22,4.21,20.83-3.22,3.95-2.28,6.25,.31,9.57,4.45,5.71,9.4,10.72,15.81,14.25,5.06,2.79,9.8,2.42,14.63-.42,6.38-3.75,10.77-9.2,13.68-16.16,4.63,9.82-1.57,22.49-12.05,24.67-13.91,2.89-25.98-1.61-36.53-10.43-3.08-2.58-4.39-3.05-7.74,.03-11.41,10.5-24.41,17.01-40.43,11.36-10.32-3.63-16.88-10.88-19.09-21.78-.19-.93-.91-2.11,.98-2.05Z"/>
      <path class="cls-12" d="M622.76,424.16c-.33,.68-.65,1.37-.98,2.05-1.39-1.85-.97-3.9-.53-7.32,.73,2.56,1.12,3.92,1.51,5.27Z"/>
    </g>
  </g>
</svg>