<?xml version="1.0" encoding="UTF-8"?>
<svg id="_图层_2" data-name="图层 2" xmlns="http://www.w3.org/2000/svg" viewBox="0 0 1446 980">
  <defs>
    <style>
      .cls-1 {
        fill: #f8f8f8;
      }

      .cls-2 {
        fill: #028d27;
      }

      .cls-3 {
        fill: #01be69;
      }

      .cls-4 {
        fill: #01bc75;
      }

      .cls-5 {
        fill: #03bf68;
      }

      .cls-6 {
        fill: #03b3ba;
      }

      .cls-7 {
        fill: #00ba7e;
      }

      .cls-8 {
        fill: #01828d;
      }

      .cls-9 {
        fill: #018763;
      }

      .cls-10 {
        fill: #00b988;
      }

      .cls-11 {
        fill: #00c33e;
      }

      .cls-12 {
        fill: #01885b;
      }

      .cls-13 {
        fill: #00b6a1;
      }

      .cls-14 {
        fill: #00b793;
      }

      .cls-15 {
        fill: #00b4ae;
      }

      .cls-16 {
        fill: #03c34d;
      }

      .cls-17 {
        fill: #03c34a;
      }

      .cls-18 {
        fill: #03c132;
      }

      .cls-19 {
        fill: #03c158;
      }

      .cls-20 {
        fill: #03c157;
      }

      .cls-21 {
        fill: #048768;
      }

      .cls-22 {
        fill: #03c253;
      }

      .cls-23 {
        fill: #038d39;
      }

      .cls-24 {
        fill: #02c43c;
      }

      .cls-25 {
        fill: #02bb81;
      }

      .cls-26 {
        fill: #02bc76;
      }

      .cls-27 {
        fill: #02bf67;
      }

      .cls-28 {
        fill: #008479;
      }

      .cls-29 {
        fill: #008382;
      }

      .cls-30 {
        fill: #00856e;
      }

      .cls-31 {
        fill: #fefefe;
      }

      .cls-32 {
        fill: #e5e5e5;
      }

      .cls-33 {
        fill: #e5be90;
      }

      .cls-34 {
        fill: #fead8d;
      }

      .cls-35 {
        fill: #fed3a0;
      }

      .cls-36 {
        fill: #7c858e;
      }

      .cls-37 {
        fill: #028b4c;
      }

      .cls-38 {
        fill: #028b4b;
      }

      .cls-39 {
        fill: #939aa0;
      }

      .cls-40 {
        fill: #b1b8be;
      }

      .cls-41 {
        fill: #aaa;
      }

      .cls-42 {
        fill: #df9157;
      }

      .cls-43 {
        fill: #c7824f;
      }

      .cls-44 {
        fill: #e0e0e0;
      }

      .cls-45 {
        fill: #df9057;
      }

      .cls-46 {
        fill: #c9824e;
      }

      .cls-47 {
        fill: #d5d5d5;
      }

      .cls-48 {
        fill: #0fae17;
      }

      .cls-49 {
        fill: #0eae17;
      }

      .cls-50 {
        fill: #14a206;
      }

      .cls-51 {
        fill: #04c234;
      }

      .cls-52 {
        fill: #04c15b;
      }

      .cls-53 {
        fill: #04c441;
      }

      .cls-54 {
        fill: #068820;
      }

      .cls-55 {
        fill: #12a80f;
      }

      .cls-56 {
        fill: #12a80e;
      }

      .cls-57 {
        fill: #08bb2b;
      }

      .cls-58 {
        fill: #09bb90;
      }

      .cls-59 {
        fill: #09bc2e;
      }

      .cls-60 {
        fill: #0bb31f;
      }

      .cls-61 {
        fill: #0ab420;
      }

      .cls-62 {
        fill: #6e6e6e;
      }

      .cls-63 {
        fill: #494949;
      }

      .cls-64 {
        fill: #7b868e;
      }
    </style>
  </defs>
  <g id="_图层_1-2" data-name="图层 1">
    <g>
      <path class="cls-31" d="M1445.91,514c0,153.78-.01,307.55,.09,461.33,0,3.64-.64,4.66-4.53,4.66-478.87-.11-957.74-.11-1436.62,0-4.07,0-4.85-.83-4.85-4.87C.12,651.75,.12,328.37,.02,4.99,.01,1.18,.44,0,4.74,0,351.48,.14,698.22,.12,1044.96,.12c-.51,2.91-3.11,2.63-5.02,3.06-29.89,6.75-58.56,16.94-85.83,30.91-27.71,14.2-53.29,31.6-76.69,52.13-4.24,3.72-8.35,5.16-14.03,4.13-25.05-4.55-50.45-5.11-75.7-3.6-43.86,2.62-86.33,12.38-127.08,29.04-4.33,1.77-7.64,1.56-11.49-1.29-33.84-25.08-71.01-43.35-111.83-54-25.52-6.66-51.3-11.71-77.78-12.46-10.14-.29-17.48,5.06-20.04,15.24-5.92,23.45-10.04,47.26-12.95,71.25-2.64,21.81-3.86,43.71-4.26,65.72-.76,40.91,2.27,81.45,9.37,121.71,.7,3.97,.18,7.45-1.51,11.1-8.56,18.51-14.89,37.8-19.68,57.61-1.59,6.58-2.19,7.14-8.96,7.8-26.97,2.62-52.85,9.4-77.09,21.53-31.51,15.77-57.87,37.86-78.83,66.29-1.4,1.9-2.36,5.15-5.32,4.47-2.62-.61-3.01-3.74-3.86-6.05-6.11-16.66-8.81-34.15-12.68-51.37-6.72-29.9-16.24-59.02-33.11-84.77-19.24-29.37-46.56-47.86-81.8-52.8-20.53-2.88-39.01,4.44-56.78,14-23.66,12.74-36.37,33.46-43.26,58.52-2.78,10.12-5.47,20.31-6.03,30.84-.64,12.07,1.79,23.62,7.86,34.1,13.56,23.42,34.44,35.28,60.95,38.46,9.68,1.16,18.88-.47,28.12-2.73,7.39-1.81,7.8-1.6,9.31,5.85,4.35,21.5,16.37,38.72,30.29,54.95,16.96,19.76,38.43,31.47,63.84,36.36,5.81,1.12,6.09,1.61,5.28,7.29-.66,4.62-1.55,9.21-1.93,13.85-.33,4.07-2.43,5.04-6.08,4.27-9.46-1.99-18.96-3.8-28.59-4.65-18.1-1.6-36.12-2.98-53.83,3.4-28.45,10.24-44.5,40.19-42.35,63.33,1.76,18.91,8.37,36.22,18.4,52.32,11.35,18.22,26.87,31.97,44.92,43.3,35.89,22.53,74.55,37.63,116.39,44.47,4.32,.71,7.74,2.62,10.76,5.75,12.03,12.51,24.9,24.06,39.02,34.21,15.73,11.31,33.31,18.87,51.35,25.4,34.65,12.54,70.41,20.19,107.09,23.51,3.52,.32,5.87,2.09,7.76,4.78,11.27,16.04,24.94,29.95,39.09,43.36,12.12,11.48,25.18,21.9,39.79,30.06,13.97,7.8,29.31,11.79,45.04,14.25,30.44,4.77,60.07,1.66,88.81-9.47,7.63-2.96,15.01-6.65,21.25-12,4.31-3.7,9.14-5.17,14.52-5.85,48.08-6.12,96.1-12.61,144.17-18.83,57.48-7.44,114.94-14.99,172.4-22.56,36.33-4.78,72.59-10.15,108.89-15.16,51.97-7.18,103.93-14.52,155.92-21.6,8.75-1.19,17.48-2.52,26.22-3.75,3.89-.55,6.88-2.33,9.34-5.23,7.19-8.49,9.1-18.3,7.11-29.03-.58-3.12-1.77-6.07-2.75-9.08-1.38-4.23-.79-5.37,3.56-6.3,3.74-.81,7.59-1.37,11.38-1.46,10.15-.25,18.31-4.6,25.2-11.62,10.12-10.33,17.27-22.23,19.74-36.8,13.72-80.81,26.99-161.7,40.65-242.52,.59-3.46-.1-7.82,4.27-9.76Z"/>
      <path d="M1445.91,514c-3.74,6.69-3.57,14.31-4.81,21.54-8.4,49.19-16.58,98.42-24.81,147.64-4.78,28.55-9.13,57.17-14.44,85.62-3.75,20.11-15.56,35.13-33.37,44.94-5.95,3.28-13.37,2.13-20.08,3.25-2.43,.4-4.87,.69-7.52,1.07,2.49,6.89,5.29,13.29,5.3,20.48,.02,9.11-3.24,16.88-8.91,23.79-2.21,2.69-5,4.23-8.5,4.71-33.62,4.64-67.24,9.31-100.85,14.01-37.07,5.18-74.14,10.44-111.22,15.56-35.27,4.87-70.55,9.67-105.84,14.41-34.3,4.6-68.61,9.11-102.93,13.61-31.84,4.17-63.69,8.25-95.53,12.41-32.67,4.27-65.32,8.61-97.99,12.87-1.55,.2-2.91,.61-4.1,1.6-18.17,15.13-39.82,21.8-62.65,25.12-29.01,4.22-57.44,1.53-85.05-8.66-16.7-6.17-30.53-16.87-43.97-28.09-18.23-15.23-34.39-32.48-48.36-51.7-2.08-2.85-4.33-3.92-7.76-4.27-48.01-4.87-94.54-15.58-138.05-37.03-23.14-11.41-42.21-28.36-59.66-47.14-2.42-2.6-4.99-4.07-8.45-4.61-50.67-7.87-97-26.7-137.08-58.56-27.57-21.92-43.63-51.6-44.91-87.42-1.06-29.68,23.35-57.7,53.8-63.19,21.28-3.84,42.49-1.18,63.57,2.43,3.44,.59,6.85,1.36,10.22,2.26,2.19,.58,2.9-.02,3.13-2.26,.57-5.63,1.19-11.27,2.25-16.81,.51-2.65,.06-3.28-2.6-3.76-46.42-8.23-74.67-37.99-93.18-79.11-2.33-5.16-3.79-10.73-4.27-16.36-.34-3.92-1.83-3.73-4.74-2.76-14.63,4.86-29.33,4.72-44.27,1.03-40.92-10.1-63.69-45.91-54.79-87.03,4.17-19.27,9.8-37.94,22.33-53.9,12.72-16.2,30.27-24.57,48.83-31.48,18.52-6.89,37.13-5.65,55.24,1.07,30.51,11.32,53.51,31.04,68.76,60.41,16.17,31.14,25.03,64.28,31.51,98.38,2.11,11.1,5.77,21.82,10.18,33.1,1.91-2.59,3.4-4.67,4.96-6.7,37.97-49.76,87.9-78.76,150.08-86.66,4.07-.52,9.3,.99,11.94-1.89,2.37-2.59,2.23-7.46,3.24-11.31,4.91-18.68,11.28-36.83,19.4-54.36,.78-1.69,1.24-3.3,.88-5.25-8.51-46.21-11.59-92.8-9.76-139.73,1.63-41.87,7.57-83.15,17.3-123.89,2.19-9.18,11.24-15.36,21.65-14.74,70.1,4.16,134.25,25.25,190.87,67.5,2.76,2.06,4.9,2.16,7.96,.93,54.91-22.19,111.87-32.82,171.17-29.73,12.64,.66,25.23,2.07,37.71,4.18,2.24,.38,3.71,.02,5.35-1.43C922.69,44.26,979.44,14.49,1044.41,.87c.22-.05,.37-.48,.55-.74,1,0,2,0,3,0,10.35-.35,15.78,6.37,21.38,13.83,26.25,34.96,39.89,74.68,44.68,117.65,2.73,24.49,2.95,49.1,.6,73.7-.66,6.95-1.16,13.92-2.03,20.86-.38,3.04,.81,5.5,2.58,7.83,15.76,20.78,29.1,43.02,40.09,66.66,6.67,14.35,12.69,28.99,17.07,44.23,1.31,4.55,3.22,8.66,6.05,12.48,22.56,30.47,34.48,65.09,39.74,102.29,.33,2.31,.23,4.65,.52,6.97,.4,3.29,1.83,4.99,5.46,5.03,11.99,.12,23.96-.76,35.89-1.5,9.12-.57,18.29-.84,27.4-1.23,18.77-.81,37.56-1.66,56.32-2.5,17.6-.79,35.23-1.1,52.8-2.64,5.97-.52,11.99-.3,17.98-.07,4.7,.18,8.89,2.18,11.94,5.59,5.97,6.7,11.84,13.5,15.65,21.84,2.04,4.47,2.42,9.28,3.84,13.85v9Z"/>
      <path class="cls-31" d="M1445.91,505c-1.61-.26-1.45-1.76-1.62-2.74-2.33-13.13-10.54-22.77-19.05-32.2-3.69-4.09-8.6-5.47-14.03-5.25-19.3,.8-38.6,1.52-57.89,2.39-17.13,.78-34.24,1.81-51.37,2.57-26.61,1.19-53.23,2.16-79.84,3.45-3.51,.17-4.35-.67-4.66-4.07-2.93-32.32-11.23-63.05-27.51-91.37-1.33-2.31-2.44-4.79-4.1-6.84-10.11-12.49-15.31-27.21-20.56-42.16-11.99-34.1-29.52-65.35-51.45-94.08-2.45-3.21-2.92-6.21-2.49-10.07,5.47-48.51,5.26-96.67-9.31-143.9-8.29-26.87-22.03-50.79-39.07-72.99-3.86-5.04-9.72-5.65-15-7.64,131.15,0,262.3,.02,393.44-.09,3.75,0,4.6,.84,4.59,4.59-.11,166.79-.09,333.59-.09,500.38Z"/>
      <path class="cls-31" d="M1195.77,455.1c1.35,5.03,1.02,10.26,1.92,15.33,.63,3.52-1,4.26-4.02,4.34-13.3,.38-26.61,.88-39.91,1.34-1.17-2.54,.91-4.03,1.96-5.78,8.11-13.57,5.97-28.77-5.37-39.56-4.56-4.34-10.26-5.48-16.01-6.18-6.11-.75-12.28-.42-18.35,1.1-16.84,4.19-25.62,18.02-22.19,35.13,1.1,5.47,3.28,10.46,6.49,15.02,1.01,1.43,2.72,2.64,1.82,4.82-4.77,2.34-9.59,4.56-14.29,7.03-13.71,7.21-23.32,17.95-27.86,32.93-.73,2.42-1.7,4.54-3.81,6.21-2.18,1.73-2.69,4.49-3.22,7.12-7.7,38.24-15.4,76.48-23.13,114.72-.16,.79-.56,1.54-.85,2.31-1.29,1.62-3.04,2.52-4.94,3.25-30.3,11.66-61.64,19.22-93.7,24.11-25.96,3.97-52.08,5-78.2,3.83-32.95-1.47-65.66-5.52-98.1-11.65-39.99-7.55-79.3-17.73-118.11-29.96-41.21-12.98-81.46-28.31-120.56-46.74-30.08-14.18-58.49-31.12-85.88-49.86-1.67-1.14-3.17-2.42-4.47-3.95-3.78-14.74-4.94-29.83-5.93-44.92-3.7-56.66,6.87-110.58,31.54-161.71,1.13-2.35,.83-4.47,.41-6.74-6.72-36.95-10.22-74.19-10.46-111.75-.31-48.83,5.1-97.02,15.65-144.67,.67-3.01,1.88-3.77,5.03-3.59,70.1,3.8,132.65,27.49,187.7,70.99,2.15,1.7,3.82,1.98,6.23,.69,2.46-1.32,5.19-2.12,7.8-3.15,7.28,1.73,13.08,6.35,19.32,10.06,35.43,21.09,66.53,47.52,94.58,77.59,8.84,9.48,17.12,19.49,24.87,29.9,6.36,8.55,15.12,13.19,25.01,16.33,4.91,1.56,8.72-.81,12.78-2.64,1.98-.19,3.57,.77,5.05,1.84,16.75,12.2,36.01,18.53,55.71,23.74,35.62,9.43,71.82,15.77,108.42,19.87,19.39,2.17,38.61,5.11,56.85,12.49,23.03,9.32,41.84,23.66,54.8,45.24,7.88,13.11,14.29,27.1,23.72,39.28,11.22,14.5,22.65,28.75,37.94,39.36,4.3,2.98,9.42,4.1,13.76,6.86Z"/>
      <path class="cls-31" d="M239.95,536.75c6.1-16.35,15.25-30.96,26.06-44.5,27.54-34.49,62.66-57.48,105.48-68.52,2.82-.73,5.71-1.17,8.57-1.75,1.75,1.9,.99,4.07,.64,6.17-3.17,18.9-5.86,37.92-5.15,57.08,1.1,29.74,6.49,58.85,15.28,87.31,10.09,32.67,24.7,63.22,43.18,91.97,17.1,26.6,39.2,47.33,68.81,59.42,1.39,.57,2.74,1.21,4.09,1.87,2.12,1.03,2.97,2.67,2.11,4.91-3.94,10.27-.3,19.67,3.43,29,6.28,15.69,16.74,28.18,29.78,38.77,5.62,4.57,11.15,8.96,18.54,10.24,3.24,.56,3.18,2.84,2.33,5.34-1.18,8.39-2.39,16.77-3.52,25.17-.36,2.63-.72,5.29-.74,7.94-.04,5.85,3.67,10.26,8.9,10.88,5.44,.65,10.23-2.38,11.4-8.16,1.65-8.14,2.56-16.42,3.92-24.61,1.46-8.83,2.44-17.75,4.85-26.4,3.59-4.24,8.8-5.8,13.6-7.87,11.74-5.07,24.09-8.18,36.53-10.97,5.9-.98,11.92-1.74,14.81-8.17,2.95-3.99,.82-7.18-1.63-10.32-5.87-5.87-12.88-8.58-21.2-9.63-12.17-1.53-24.3-3.74-34.52-11.67-22.39-17.36-22.11-51.36,.74-67.98,2.05-1.49,4.14-2.86,4.3-5.72,.12-2.15,1.62-2.01,3.2-2.11,2.76-.16,5.6,.69,8.29-.54,7.45-2.93,14.82-2.8,22.3,.1,16.05,6.24,29.78,15.36,39.02,30.35,2.64,4.28,4.91,8.61,5.36,13.77,.53,6.08,3.95,10.22,9.61,12.19,15.38,5.35,27.8,14.54,37.26,27.82,3.56,5,6.14,10.51,6.28,16.53,.54,22.27,1.5,44.55-.58,66.8-.05,.49-.19,.97-.29,1.46-3.05,13.14-10.55,24.27-16.39,36.14-2.78,5.65-6.28,10.96-9.52,16.37-1.3,2.17-2.74,4.16-5.06,5.35-5.3,3.86-8.59,9.18-11.03,15.12-1.91,5.45-6.28,8.94-10.36,12.54-13.1,11.58-28.04,19.55-45.34,23.05-17.29,3.49-33.4,0-48.91-7.49-22.62-10.93-42.46-26.17-63.11-40.23-14.36-9.78-21.02-24.47-29.42-38.31-10.44-17.19-14.64-36.73-21.1-55.42-1.14-3.3-1.92-6.73-3.64-9.82-1.55-2.77-3.27-3.2-5.99-1.12-13.49,10.32-29.03,15.75-45.76,16.89-14.77,1-28.7-3.53-41.85-9.97-22.57-11.04-42.73-25.72-62.31-41.37-16.89-13.51-32.08-28.52-44.93-45.91-2.02-2.73-3.42-5.66-4.33-8.92-6.9-24.75-12.1-49.87-14.86-75.41-2.11-19.53-2.81-39.16-2.27-58.82,.06-2.01,.61-3.95,.79-5.94,.63-7.1,.55-14.03-4.74-19.74-.76-.82-1.4-1.89-.89-3.18Z"/>
      <path class="cls-40" d="M1021.97,769.94c3.14-16.15,6.2-32.32,9.43-48.45,11.56-57.72,23-115.47,34.92-173.11,2.52-12.21,8.49-23.46,14.52-34.27,4.46-8,13.52-11.43,21.28-16,9.54-5.61,20.01-4.25,30.13-4.78,43.21-2.26,86.45-4.12,129.68-6.03,27.94-1.23,55.88-2.29,83.82-3.43,1.1-.53,2.29-.32,3.44-.34,9.09-.1,10.36,.98,10.95,10.33,.6,9.57-1.76,18.85-3.42,28.15-2.07,11.62-5.21,23.01-8.31,34.41-4.78,17.59-14.58,32.32-25.51,46.47-5.28,6.84-10.62,13.65-16.33,20.14-1.09,1.24-2,2.68-3.69,3.23-3.1,0-3.72-2.93-5.44-4.57-1.88-2.87-3.96-5.55-7.04-7.28-3.51-2.89-7.24-5.39-11.61-6.84-22.04-7.51-43.49-5.91-64.38,4.15-4.67,1.95-9.04,4.42-12.93,7.69-3.04,1.94-5.52,4.52-8.14,6.95-2.44,2.56-4.93,5.07-6.9,8.05-2.68,2.93-4.21,6.52-5.83,10.05-1.76,3.69-3.1,7.5-3.58,11.59-.06,.5-.17,.98-.3,1.46-1.09,5.31-.41,10.5,1.13,15.61,.31,1.86,.78,3.68,1.7,5.34,.79,1.88,1.81,3.63,3.03,5.25,4.76,6.52,4.98,6.53,11.8,.67,3.05-2.27,6.18-4.43,9-6.99,2.21-1.49,4.22-3.24,6.23-4.99,2.68-1.88,5.36-3.77,7.78-5.99,1.74-1.31,3.57-2.52,5.11-4.09,2.34-1.64,4.55-3.45,6.86-5.12,1.97-1.81,4.17-3.33,6.24-5.01,1.77-1.24,3.45-2.58,5.09-3.98,2.18-1.86,4.4-2.22,6.62-.03,1.99,1.79,4.32,3.18,6.17,5.13,2.6,2.04,5.07,4.24,7.8,6.12,1.88,1.74,4.08,3.19,5.01,5.75-1.17,3.48-3.39,5.83-7.11,6.55-1.52-.16-2.61-1.11-3.69-2.05-1.65-1.56-3.64-2.71-5.31-4.24q-7.45-5.88-14.97-.01c-.52,.41-1.07,.79-1.6,1.19-2.34,2.05-4.89,3.83-7.3,5.79-1.9,1.06-3.36,2.67-5.04,4-1.47,.87-2.76,1.98-3.98,3.17-1.76,1.28-3.5,2.58-5.18,3.97-2.69,1.83-5.05,4.07-7.64,6.02-2.23,1.98-4.88,3.45-6.8,5.77-.51,2.67,2.11,2.12,3.22,3.11,4.66,2.02,9.47,3.52,14.45,4.53,1.73,.35,3.59,.52,4.89,1.98,.67,2.55-1.33,3.61-2.85,4.75-40.88,30.59-85.41,53.05-136.57,60.18-16.31,2.27-32.83,2.67-49.31,2.27-3.26-.08-6.68-.21-9.56-2.26Z"/>
      <path class="cls-36" d="M1021.97,769.94c8.25,1.22,16.56,1.07,24.86,.97,36.99-.41,72.27-8.21,105.95-23.75,22.45-10.35,43.09-23.54,63.08-37.88,1.54-1.1,3.55-1.95,4.16-4.09,.44-.79,1.17-1.13,2-1.33,3.17-.42,6.21,.77,9.37,.76,12.57-.05,23.97-4.4,35.18-9.44,3.27-1.44,6.49-2.99,9.42-5.07,1.91-1.31,1.38-2.59-.03-3.88-1.07-.98-2.34-1.68-3.43-2.61-2.19-2.19-4.89-3.77-7.13-5.9-2.31-1.72-4.6-3.47-6.63-5.53-.2-.47-.08-.84,.33-1.13,3.21-.91,4.85-3.63,6.84-5.95,.33-.35,.72-.46,1.19-.39,2.27,1.36,4.1,3.3,6.32,4.73,1.55,1.6,3.45,2.76,5.18,4.13q8.77,8.18,16.24-1.18c1.44-2.06,2.91-4.1,4.12-6.32,1.38-2.5,2.62-5.05,2.92-7.96,2.06-4.78,3.18-9.73,2.64-14.96-.07-2.25,.28-4.52-.41-6.73-.5-3.14-1.68-6.1-2.58-9.13-.03-.51,.13-.96,.48-1.34,10.82-11.73,20.28-24.53,29.67-37.41,11.9-16.32,16.63-35.35,21.08-54.45,2.48-10.63,4.11-21.47,5.89-32.25,.48-2.92,.46-6.01,.13-8.97-.91-8.01-1.3-8.18-13.05-9.01,1.33-.91,2.88-.73,4.35-.79,19.29-.72,38.59-1.3,57.87-2.2,4.14-.19,6.94,.96,9.22,4.39,2.02,3.04,4.69,5.64,6.73,8.67,5.27,7.83,5.26,16.38,3.74,25.39-11.07,65.41-21.97,130.85-32.91,196.28-3.02,18.04-5.57,36.17-9.19,54.08-1.44,7.1-6.27,13.08-10.81,18.88-6.29,8.02-14.74,11.15-24.6,12.27-38.99,4.45-77.93,9.23-116.9,13.83-35.17,4.15-70.36,8.17-105.54,12.33-26.58,3.15-53.15,6.47-79.73,9.61-3.07,.36-6.28,1.09-9.3-.5,.24-.48,.67-.71,1.16-.56,.6,.18,.61,.03,.07,0-3.97-.25-7.13-2.92-10.95-3.58-9.67-6.75-15.6-21.89-13.11-33.3,2.09-9.57,4.09-19.15,6.13-28.73Z"/>
      <path class="cls-35" d="M1195.77,455.1c-7.57-.48-13.59-4.58-19.07-9.1-19.06-15.73-34.29-34.73-46.38-56.25-7.33-13.04-14.08-26.47-24.61-37.38-17.95-18.61-40.38-28.75-65.24-34.27-14.12-3.14-28.51-4.25-42.81-6.12-24.01-3.14-47.9-7.02-71.53-12.33-19.46-4.37-38.8-9.13-57.4-16.5-8.88-3.52-16.96-8.45-24.82-13.78-1.51-1.02-2.87-2.31-4.87-2.27,5.94-34.25-8.13-62.35-27.89-88.34-15.7-20.65-35.32-37.43-55.76-53.24-4.08-3.15-8.08-6.4-12.21-9.49-1.55-1.16-3.43-2.23-3.18-4.67,12.91-2.42,25.85-4.56,39-5.14,6.27,3.9,11.6,8.9,16.57,14.28,15.92,17.22,31.83,34.45,46.21,53.03,17.45,22.55,33.77,45.87,47.54,70.83,4.35,7.89,10.76,10.41,18.62,11.13,6.3,.57,10.26-3.68,10.79-10.43,.9-11.44-2.45-22.11-6.03-32.66-12.13-35.75-29.52-68.75-52.39-98.82-1.17-1.53-2.76-3-2.23-5.29,9.63,1.17,19.2,2.63,28.66,4.83,.79,.18,1.53,.56,2.29,.85,6.28,4.34,10.3,10.77,14.99,16.52,21.63,26.49,40.8,54.68,57.66,84.44,1.73,3.05,3.02,6.3,4.45,9.49,3.07,6.82,8.51,10.74,15.84,11.3,11.99,.92,21.23-11.02,18.2-23.3-5.17-20.9-12.13-41.18-21.68-60.52-1.94-3.93-1.92-3.94-.34-6.1,36.65,18.43,68.82,42.84,96.63,72.93,37.16,40.2,63.59,86.58,79.38,139.01,.92,3.06,2.32,5.77,4.25,8.35,19.45,26,32.05,54.96,37.32,87.05,.11,.65,.04,1.32,.05,1.98Z"/>
      <path class="cls-32" d="M239.95,536.75c7.73,7.59,7.38,16.72,6.53,26.76-1.02,12.02-1.23,24.23,.36,36.34,.78,5.91,.58,11.9,1.04,17.86,1.54,19.87,5.27,39.33,9.54,58.72,1.71,7.76,3.98,15.39,5.7,23.15,1.33,6,5.51,10.18,9,14.72,14.58,18.99,32.95,33.97,51.71,48.6,15.91,12.41,32.78,23.21,50.79,32.21,11.53,5.76,23.87,9.8,36.76,9.6,18.67-.28,35.91-5.88,50.45-18.15,2.21-1.87,3.4-1.23,4.88,.52,2.67,3.15,3.6,7.08,4.83,10.85,4.54,13.89,8.5,28,13.73,41.63,4.52,11.78,12.33,22.02,17.94,33.29,5.91,11.88,16.91,17.95,26.74,25.29,17.71,13.21,35.92,25.7,55.99,35.21,10.62,5.03,21.83,8.55,33.51,8.31,13.69-.28,26.9-3.77,39.01-10.54,11.7-6.54,21.89-14.95,30.51-25.23-1.71,10.56-2.78,21.13,1.56,31.35,1.31,3.08-1.12,3.43-2.61,4.32-11.28,6.71-23.59,10.78-36.42,13.01-27.87,4.85-55.31,3.39-82.03-6.62-9.78-3.67-18.26-9.52-26.49-15.73-33.23-25.06-58.86-56.6-78.91-92.87-2.09-3.78-3.99-7.68-6.25-11.36-3.54-5.74-9.39-7.56-14.49-4.77-5.03,2.75-6.86,8.81-3.86,14.78,3.58,7.12,7.66,13.99,11.53,20.96,1.02,2.34-.15,2.55-2.02,2.09-36.63-4.82-72.15-13.79-106.01-28.74-31.61-13.96-55.69-37.14-76.91-63.68-7.18-8.98-13.5-18.57-19.21-28.55-.83-1.44-1.68-2.88-2.68-4.2-3.7-4.9-9.36-6.26-14.08-3.47-4.67,2.76-6.49,8.58-3.75,13.99,2.77,5.48,6.13,10.66,9.31,15.93,1.54,2.55,3.29,4.98,5.32,8.04-5.99-.44-11.05-2.26-16.11-3.73-34.05-9.91-65.88-24.76-93.3-47.26-21.47-17.62-34.19-41.23-36.14-69.35-.88-12.69,5.25-23.4,14.74-31.94,.81,.71,1.23,1.71,1.08,2.68-1.17,7.4,2.49,13.2,6.24,18.93,6.2,9.48,12.79,18.65,21.2,26.35,5.78,5.29,12.06,9.27,20.48,8.57,9.63-.8,15.79-6.8,15.54-16.37-.36-13.81,.78-27.55,1.13-41.33,.08-3.12,.25-6.34,2.3-9.01,8.21,.27,16.02,2.72,23.97,4.41,2.29,.49,2.09,2.18,2.1,3.85,.05,6.67,.38,13.34,1.93,19.83,1.23,5.14,5.88,8.23,10.78,7.82,5.11-.43,9-4.49,9.45-9.95,.11-1.32,.03-2.66-.1-3.98-1.24-13.12-1.65-26.25-.2-39.39,2.05-18.59,5.95-36.69,13.92-53.74Z"/>
      <path class="cls-32" d="M425,540c6.71,2.66,12,7.6,17.94,11.46,21.09,13.67,42.62,26.56,65.24,37.49,27.08,13.1,54.81,24.68,83.09,35.04,41.05,15.04,82.89,27.33,125.43,37.31,22.56,5.29,45.3,9.64,68.28,12.77,20.02,2.73,40.06,4.85,60.24,6.12,16.32,1.03,32.64,1.17,48.88,.5,18.32-.76,36.53-3.52,54.62-6.84,21.91-4.02,43.34-9.79,64.37-17.07,5.33-1.84,10.59-3.88,15.88-5.82-2.85,14.69-6.04,29.32-8.38,44.08-.99,6.26-3.85,9.05-9.59,11.37-36.65,14.83-74.8,23.39-113.84,28.58-37.88,5.04-75.94,7.13-114.13,6.72-10.66-.11-21.31-.74-31.97-1.04-3.36-.09-5.69-1.16-7.78-4.15-10.53-15.04-24-26.64-41.19-33.56-1.87-.75-2.72-1.85-3.38-3.81-6.22-18.56-18.04-32.94-34.29-43.44-11.62-7.51-24.1-15.78-38.1-14.59-14.25,1.2-27.28-3.3-40.92-3.98-27.5-1.37-50.93,16.33-57.97,42.95-.21,.8-.41,1.6-.73,2.82-10.17-5.25-19.54-11.43-28.53-18.2-38.18-28.75-59.97-67.79-71.06-113.5-.9-3.69-2.2-7.34-2.11-11.23Z"/>
      <path class="cls-32" d="M563.09,814.06c.09-2.65-.64-3.99-3.81-4.38-8.01-.98-13.54-6.6-19.43-11.43-10.25-8.4-18.96-18.14-24.9-30.03-4.66-9.34-9.15-18.83-8.96-29.71,.04-2.21,.15-4.42,1.16-6.31,1.66-3.13,1.36-4.56-2.35-6.03-19.71-7.8-37.15-19.19-51.67-34.71-11.62-12.42-20.86-26.59-29.43-41.22-18.85-32.18-32.72-66.36-40.91-102.76-3.96-17.59-6.63-35.35-7.95-53.41-1.69-23.22,1.33-45.88,5.12-68.58,.19-1.14,.07-2.33,.1-3.49,6.71-2.09,13.7-2.51,20.6-3.46,3.29-.45,2.06,1.56,1.81,3.05-2.58,15.81-4.03,31.74-4.11,47.74-.23,43.34,5.88,85.68,22.24,126.01,18.75,46.23,51.16,80.5,94.81,104.13,7.54,4.08,12.14,8.19,13.17,17.44,1.27,11.48,8.06,21.02,15.93,29.4,7.42,7.91,15.4,15.25,24.42,21.33,2.55,1.72,3.26,3.16,2.5,6.44-3.07,13.26-5.6,26.65-8.34,39.99Z"/>
      <path class="cls-45" d="M740.01,111.34c6.73,6.71,14.74,11.83,22.09,17.77,22.58,18.27,44.01,37.67,59.74,62.42,12.62,19.85,20.49,41.31,20.24,65.24-.04,3.79-.87,7.21-3.03,10.31-3.08,3.45-6.97,4.39-11.32,3.38-10.68-2.49-19.8-7.63-26.54-16.46-36.85-48.29-81.75-87.27-134.9-116.72-1.15-.64-2.21-1.41-3.32-2.12,18.94-8.91,38.87-14.92,59.11-19.98,5.93-1.48,11.95-2.57,17.93-3.84Z"/>
      <path class="cls-31" d="M1014.6,841.05c-8.24,1.33-15.72,2.56-23.21,3.73-48.79,7.6-97.59,15.19-146.39,22.78-32.04,4.98-64.08,9.92-96.11,14.97-2.63,.41-3.53,.21-2.94-2.83,1.57-8.16,2.96-16.36,4.09-24.59,.43-3.15,2.41-2.98,4.57-3.27,41.97-5.69,80.45-20.24,114.62-45.54,4.02-2.97,6.82-4.08,12.72-2.35,17.34,5.07,34.61,10.71,52.46,14.03,20.35,3.78,40.8,2.62,61.24,1.25,3.76-.25,6.06,.02,7.54,4.07,2.36,6.41,6.21,12.08,11.41,17.77Z"/>
      <path class="cls-36" d="M1330.19,838.23c-.08,8.73-3.39,12.84-10.95,13.9-37.71,5.3-75.43,10.52-113.14,15.79-32.28,4.51-64.55,9.07-96.83,13.58-19.93,2.79-39.86,5.51-59.79,8.31-3.16,.44-5.06,.53-3.53-3.84,3.48-9.95,4.4-20.16,.87-30.35-1.44-4.17,2.09-3.1,3.56-3.29,12.04-1.57,24.11-2.87,36.16-4.3,24.44-2.9,48.87-5.86,73.31-8.74,23.78-2.81,47.57-5.52,71.35-8.34,23.78-2.82,47.55-5.71,71.32-8.58,5.94-.72,11.89-1.41,17.82-2.19,1.93-.25,3.21,.52,4.16,2.07,3.18,5.18,5.22,10.75,5.69,15.99Z"/>
      <path class="cls-35" d="M982.78,125.23c-17.99-8.17-36.08-16.09-55.08-21.66-10.35-3.03-20.79-5.75-31.96-8.82,3.62-2.9,6.85-5.57,10.17-8.12,41.14-31.69,86.96-53.54,137.45-65.68,3.15-.76,4.68-.05,6.52,2.41,25.37,33.86,39.92,71.73,43.23,113.98,1.79,22.79,1.96,45.54,.05,68.32-.06,.75-.21,1.49-.42,3-3.59-3.94-6.68-7.33-9.76-10.71-1.24-1.55-1.33-3.34-1.15-5.21,4.12-43.64-3.44-85.2-22.44-124.67-2.6-5.39-5.76-10.51-8.67-15.74-1.74-3.12-3.31-3.62-6.04-1.15-6.68,6.03-13.05,12.37-19.09,19.03-14.37,15.84-26.78,33.11-37.63,51.53-1.09,1.86-1.99,4.53-5.19,3.5Z"/>
      <path class="cls-45" d="M858.07,108.26c16.54,21.81,31.01,44.9,42.37,69.84,7.93,17.42,14.96,35.18,19,53.98,1.1,5.1,.95,10.31,.39,15.42-.67,6.08-6.54,10.18-12.62,9.35-1.81-.25-3.62-.55-5.37-1.05-5.33-1.52-9.69-3.82-12.68-9.23-18.17-32.85-39.99-63.23-64.26-91.8-12.91-15.2-26.16-30.16-41.06-43.53-1.73-1.55-3.22-3.35-4.82-5.04,26.44-2.4,52.79-1.81,79.07,2.06Z"/>
      <path class="cls-34" d="M982.78,125.23c2.52-.45,3.24-2.68,4.31-4.48,10.29-17.29,21.69-33.73,35.25-48.68,7.49-8.26,15.16-16.26,23.56-23.61,2.68-2.35,3.46-1.03,4.65,.93,7.75,12.83,14.27,26.26,19.44,40.33,6.2,16.86,10.86,34.18,12.75,52.02,1.81,17,2.21,34.13,.3,51.21-.18,1.65-.04,3.33-.06,4.99-21.14-21.02-44.23-39.61-69.62-55.25-9.99-6.16-20.38-11.66-30.59-17.46Z"/>
      <path class="cls-35" d="M23.18,398.03c-.97-32.2,18.67-62.95,48.66-76.03,10.59-4.62,21.38-8.44,33.27-6.71,1.88,.64,2.29,2.31,2.63,3.93,4.19,20.24,5.69,40.41-1.51,60.39-1.54,4.27-3.48,8.27-6.17,11.89-8.56,11.55-20.63,18.54-33.04,25-2.15,1.12-4.71,1.59-7.26,1.42-12.08-3.77-22.93-10.03-33.59-16.67-1.29-.8-2.31-1.85-3-3.22Z"/>
      <path class="cls-40" d="M703.95,921.93c-.75-2.43-.83-4.88-.35-7.39,1.38-7.25,2.44-8.33,9.75-9.7,45.45-8.5,91.28-14.63,136.94-21.89,41.71-6.63,83.46-13.03,125.19-19.56,16.75-2.62,33.47-5.48,50.26-7.86,4.84-.68,5.19,3.96,6.33,7.26,1.43,11.61,1.45,11.7-9.75,13.41-87.27,13.27-174.49,26.85-261.75,40.14-14.32,2.18-28.64,4.46-42.97,6.57-4.53,.67-9.26,1.58-13.64-.98Z"/>
      <path class="cls-45" d="M59.12,416.97c11.11-.9,18.9-8.39,27.49-14.12,15.04-10.04,20.42-25.29,22.61-42.42,1.98-15.44-.42-30.32-4.11-45.15,23.82,2.79,43.05,14.15,59.04,31.58,1.18,2.09,1.54,4.39,1.32,6.72-1.81,18.99-4.46,37.79-13.2,55.13-1.1,1.91-1.9,4.06-4.12,5.06-11.46,5.97-23.45,10.09-36.34,11.87-13.65,1.88-26.89,.21-40.04-3.16-4.5-1.15-8.79-3.07-13.55-3.23-1.38-.05-3.15-.14-3.21-2.3,1.38-.73,2.75-.57,4.11,.02Z"/>
      <path class="cls-45" d="M978.13,145.77c-1.58,1.6,.08,2.78,.67,3.94,10.15,19.96,17.23,41.03,22.76,62.67,2.37,9.28-3.07,20.29-11.6,23.56-8.91,3.42-19.92-.48-24.2-9.45-14.76-30.96-34.66-58.58-55.15-85.83-6.88-9.15-14.37-17.83-21.59-26.72,14.15,2.23,27.71,6.67,41.21,11.26,16.49,5.61,32.54,12.29,47.9,20.57Z"/>
      <path class="cls-32" d="M753.87,785.17c-1.03-6.21-.96-12.47-.97-18.73-.44-1.84-.74-3.67,.11-5.48,12.97,.29,25.94,.82,38.91,.81,31.98-.01,63.87-1.62,95.62-5.6,.59-.07,1.2,0,2.45,0-11.24,15.37-24.56,27.67-40.02,37.7-15.16,3.75-30.48,6.54-46.1,7.53-2.45,.15-4.42,1.42-6.04,3.16-5.45,5.85-10.14,12.24-13.59,19.49-9.29,3.18-18.95,4.67-28.6,6.25-2.44,.4-2.79-.34-2.72-2.47,.42-12.63,.75-25.26,1.11-37.89,.81-1.61,2.54-3.25-.14-4.76Z"/>
      <path class="cls-36" d="M703.95,921.93c15.57,.58,30.61-3.41,45.85-5.52,18.87-2.6,37.67-5.66,56.5-8.54,18.17-2.78,36.34-5.62,54.51-8.4,18.83-2.88,37.66-5.72,56.49-8.6,15.72-2.41,31.43-4.85,47.15-7.28,18.82-2.9,37.63-5.91,56.48-8.65,10.81-1.57,10.84-1.36,11.13-12.16,2.56,11.03-.62,20.58-7.57,29.13-1.38,1.7-3.48,1.69-5.48,1.96-39.71,5.21-79.42,10.49-119.13,15.69-31.8,4.16-63.63,8.19-95.43,12.36-29.17,3.82-58.34,7.58-87.46,11.72-11.12,1.58-13.08-.72-13.03-11.71Z"/>
      <path class="cls-31" d="M178.1,607.91c-1.68,18.17-2.21,36.38-2.05,54.62,.05,6.4-8.32,12.77-16.22,13.52-8.73,.83-15.47-2.86-21.5-8.42-10.83-9.98-19.09-21.98-26.51-34.59-2.77-4.71-1.97-9.87-1.67-14.95,5.83-6.01,12.99-9.84,21.12-11.1,15.62-2.43,31.28-1.8,46.84,.92Z"/>
      <path class="cls-32" d="M937.98,796.86c-7.66-.68-14.86-3.33-22.21-5.29-7.21-1.92-14.37-4.08-21.66-6.17-.34-1.46,1.1-2.1,1.92-3.02,7.51-8.49,14.37-17.47,20.01-27.31,1.41-2.46,3.21-3.53,5.81-3.97,28.53-4.78,56.57-11.57,83.77-21.49,3.1-1.13,4.11-.58,4.6,2.54,.41,2.61,1.5,5.14,.95,7.84-1.64,8.11-3.34,16.2-5.02,24.3-2.19-.65-4.24-.08-6.35,.54-15.51,4.5-30.85,9.58-46.42,13.89-7.18,1.99-15.57,12.01-15.41,18.14Z"/>
      <path class="cls-32" d="M612.02,663.9c-.77,1.12-1.97,1.08-3.13,1.16-3.27,.23-7.78-1.76-7.5,4.65,.04,.98-2.31,2.15-3.67,3.08-19.03,12.96-23.18,39.62-9.44,58.04,8.01,10.73,18.88,15.79,31.51,18.05,6.34,1.13,12.72,2.1,19.09,3.06,6.2,.94,9.17,6.14,13.23,9.89-.32,.56-.7,.6-1.12,.11-3.91-3.42-8.37-4.34-13.46-3.44-14.49,2.57-28.85,1.16-43.11-1.89-2.57-.55-5.27-1.3-7.48-2.65-13.73-8.45-27-18.04-34.24-32.67-9.16-18.52-9.75-43.23,10.45-57.48,10.69-7.54,21.87-7.57,33.1-2.92,5.26,2.18,10.14,3.87,15.76,3Z"/>
      <path class="cls-45" d="M145.04,505.03c-9.65-12.06-16.47-25.31-17.28-41.07-.1-1.98-.29-4,.51-5.91,8.79-5.85,17.1-12.31,24.78-19.58,1.22-1.15,2.07-2.56,2.67-4.12,1.78-2.73,4.94-3.62,7.37-5.5,9.38-5.52,19.3-9.6,30.14-11.09,1.88-.26,3.39-1.31,5.11-1.85,5.16,14.61,7.98,29.77,10.6,44.98-9.02-1.22-16.96,1.88-24.39,6.43-14.75,9.02-27.12,20.6-36.76,35.02-.73,1.09-1.28,2.36-2.75,2.69Z"/>
      <path class="cls-34" d="M1102.11,480.65c-5.87-7.45-10.06-15.55-10.17-25.33-.17-16.56,6.9-26.15,22.85-30.63,7.45-2.09,14.98-1.88,22.68-1.1,20.53,2.08,32.35,29.4,18.52,48.71-.86,1.2-2.09,2.18-2.22,3.8-12.41,.68-24.8,2.33-37.26,1.11-5.2-.51-9.69,1.92-14.39,3.44Z"/>
      <path class="cls-46" d="M55.08,417.13c15.27,2.39,29.82,8.71,45.68,7.93,14.23-.7,27.95-3.15,40.79-9.68,2.03-1.03,3.81-3.36,6.63-2.26,1.24,2.96-1.3,4.56-2.49,6.56-2.31,3.85-4.82,7.6-8.63,10.21-5.24-1.94-9.66-.87-13.6,3.2-16.03,16.6-35.58,21.65-57.92,17.46-15.81-2.97-27.76-11.44-36.43-24.88-5.09-7.89-7.13-16.39-5.99-25.67,1.44-.38,2.16,.66,2.77,1.58,5.35,8,13.45,11.24,22.39,13.1,2.36,.49,4.97,.44,6.81,2.45Z"/>
      <path class="cls-35" d="M145.04,505.03c12.49-20.41,28.97-36.25,51.9-44.29,3.56-1.25,8.09-3.97,12,.15,1.76,6.71,3.52,13.42,5.28,20.13,1.11,2.74-.65,4.13-2.55,5.46-8.26,4.82-15.02,11.24-20.34,19.2-.75,.79-1.62,1.4-2.6,1.88-11.09,4.39-22.65,5.43-34.45,4.83-2.15-.11-3.62-1.4-5.34-2.32-1.72-1.36-2.94-3.1-3.91-5.04Z"/>
      <path class="cls-46" d="M189.27,506.11l1.7-1.16c.53-.4,1.02-.88,1.63-1.12,7.7-2.95,14.1-7.24,16.52-15.74,.28-.97,1.29-1.48,1.87-2.28,1.02-1.63,3.54-2.26,3.23-4.79,1.28,3.73,2.44,7.49,3.86,11.16,1.37,3.55,2.18,7.81,4.68,10.33,6.54,6.59,4.33,12.36,.54,19.18-3.36,6.03-5.9,12.66-7.83,19.31-1.56,5.35-5.05,6.34-9.3,5.58-9.98-1.79-19.56-4.92-28.23-10.37,.55-11.24,4.43-21.23,11.33-30.09Z"/>
      <path class="cls-35" d="M198.34,415.91c-.33,1.83-1.3,2.89-3.28,3.05-11.62,.89-21.88,5.76-31.95,11.12-1.03-1.97-1.19-2.08,.51-4.47,3.64-5.12,4.67-10.81,4.19-16.91-.1-1.32-.27-2.62-.7-3.88-1.49-4.37-2.69-4.68-6-1.52-1.67,1.59-3.2,3.36-5.16,4.6-1.46,.92-2.86,2.47-4.88,1.15,7.46-15.93,10.42-33.02,12.76-50.24,.53-3.92,.24-7.95,.33-11.93,3.05,2.11,5.35,5,7.23,8.07,11.69,19.12,21.55,39.07,26.96,60.98Z"/>
      <path class="cls-31" d="M937.98,796.86c-1.32-1-3.38-1.52-1.44-3.94,2.9-3.62,5.55-7.44,8.24-11.22,2.03-2.86,5.27-3.33,8.24-4.23,16.18-4.91,32.39-9.72,48.59-14.56,1.82-.55,3.91-1.97,4.56,1.38-2,10.25-4.02,20.49-6.01,30.74-.3,1.53-.56,2.87-2.61,2.97-19.56,.99-39.13,2.62-58.63-.82-.32-.06-.63-.21-.94-.32Z"/>
      <path class="cls-33" d="M151.06,409.03c4.77-1.26,7.69-5.01,10.77-8.36,2.56-2.79,3.95-2.08,5.23,.85,3.55,8.15,2.95,16.01-1.64,23.61-.94,1.55-2.86,2.68-2.31,4.93-2.34,1.64-4.68,3.29-7.02,4.93-3.46,4.54-8.38,7.33-12.85,10.65-.75,.56-2.2,1.46-2.35-.75,2.48-7.31,1.75-10.18-3.82-15.02,2.85-4,5.76-7.97,8.54-12.03,1.01-1.48,1.73-3.16,2.58-4.74,.96-1.36,1.92-2.72,2.88-4.08Z"/>
      <path class="cls-31" d="M784.22,824.04c-.9-.3-2.07-.34-1.04-1.85,4.58-6.68,8.56-13.8,14.51-19.47,1.75-1.67,3.68-2.71,6.16-2.8,14.07-.55,27.84-3.17,41.53-6.28,1.59-.36,3.13-1.37,4.58,.23-20.09,14.03-41.97,24.15-65.74,30.17Z"/>
      <path class="cls-32" d="M700.01,890.78c11.82-17.76,21.62-36.6,29.97-56.21,.25-.59,.67-1.1,1.01-1.65-1.12,17.1-3.6,33.99-7.53,50.68-.54,2.27-1.54,3.3-3.87,3.67-6.55,1.04-13.06,2.33-19.58,3.51Z"/>
      <path class="cls-33" d="M189.27,506.11c-5.11,9.53-8.65,19.64-11.33,30.09-11.92-6.2-21.29-15.25-28.99-26.13,13.81,2.5,27.19,.52,40.31-3.96Z"/>
      <path class="cls-32" d="M638.02,780.03c-6.27,3.13-13.14,4.38-19.79,6.32-10.57,3.08-20.57,7.52-30.34,12.53,.45-6.31,2.34-12.33,3.63-18.48,.43-2.05,1.44-2.64,3.5-2.19,14.22,3.07,28.58,3.28,43.01,1.83Z"/>
      <path class="cls-33" d="M55.08,417.13c-12.84-1.63-24.74-5.03-31.97-17.13,.02-.66,.04-1.31,.06-1.97,11.44,7.34,23.41,13.69,35.94,18.95-1.35,.05-2.69,.11-4.04,.16Z"/>
      <path class="cls-43" d="M140.88,444.9c2.7,1.08,3.71-1.62,5.13-2.71,3.28-2.52,6.65-4.89,10.08-7.19-.3,5.19-5.28,6.53-8.17,9.45-5.64,5.69-12.08,10.53-19.65,13.59,4.52-4.07,9.16-8.03,12.61-13.13Z"/>
      <path class="cls-39" d="M1028.94,831.97c4.38-.98,7.45,2.05,11.02,3.57-.43,.19-.86,.38-1.29,.57-3.67-.37-6.84-1.92-9.73-4.14Z"/>
      <path class="cls-47" d="M651,761.95c.37-.04,.75-.07,1.12-.11,2.31,3.19,5.95,6.29,.71,10.02,.53-3.51,.03-6.84-1.83-9.91Z"/>
      <path class="cls-1" d="M753.87,785.17c1.73-1.42,2.4,.35,2.66,1.25,.56,1.95-1.21,2.66-2.52,3.51-.05-1.59-.09-3.18-.14-4.76Z"/>
      <path class="cls-62" d="M448.96,861.07c1.14-.25,2.35-.43,2.02-2.09,.86,.7,2.06,1.56,.99,2.62-.8,.8-2.11,.29-3.02-.53Z"/>
      <path class="cls-44" d="M753,760.96c-.04,1.83-.07,3.65-.11,5.48-.42-1.83-1.98-3.69,.11-5.48Z"/>
      <path class="cls-34" d="M471.12,202.1c.45-26.52,2.58-53.82,7.06-80.92,.68-4.11,1.79-5.39,6.33-3.92,46.34,15,85.89,40.44,118.6,76.51,.67,.74,1.32,1.5,1.91,2.3,2.82,3.84,8.78,7.03,8.11,11.28-.63,4.02-5.7,7.43-9.03,10.92-34.08,35.71-72.91,65.09-116.81,87.75-3.52,1.82-4.53,1.45-5.35-2.58-5.62-27.56-9.46-55.3-10.18-83.47-.14-5.63-.54-11.29-.64-17.87Z"/>
      <path d="M744.88,411.17c.32-14.89,4.75-28.41,14.1-40.09,11.52-14.39,26.46-14.54,38.44-.58,7.23,8.43,11.26,18.34,13,29.18,2.55,15.86,1.72,31.48-4.32,46.54-3.62,9.02-9.9,15.52-19.01,19.34-7.78,3.27-14.61,2.05-20.76-3.47-11.49-10.33-17.2-23.76-20.3-38.51-.86-4.07-1.35-8.2-1.16-12.41Z"/>
      <path d="M1089.97,387.65c-.43,10.79-1.99,23.46-8.37,34.95-8.33,15.01-24.52,18.18-37.95,7.33-9.47-7.64-14.15-18.21-16.97-29.74-4.18-17.14-3.85-33.94,4.3-50,11.89-23.43,32.06-24.94,47.27-3.52,8.25,11.62,11.92,24.69,11.72,40.98Z"/>
      <path class="cls-34" d="M727.99,473.86c11.37,.07,20.49,2.31,28.76,7.35,11.77,7.18,16.17,18,12.14,31.11-6.16,20.04-38.78,43.17-66.18,25.85-22.02-13.92-21.38-43.37,1.42-57.09,7.8-4.7,16.23-7.65,23.86-7.22Z"/>
      <path d="M887.84,437.1c6.59,11.44,16.23,17.72,29.64,15.76,12.04-1.76,19.97-9.05,23.83-20.7,.84-2.53,1.04-3.94-2.08-5.26-8.11-3.44-11.2-11.53-7.74-18.83,3.45-7.28,12.38-10.44,19.43-6.87,7.59,3.84,11.07,13.36,6.29,20.28-3.12,4.52-1.74,6.87,1.18,10.05,4.42,4.83,9.31,8.92,15.16,11.98,6.63,3.46,12.42,2.39,17.9-2.28,2.55-2.17,4.97-4.47,6.61-7.4,1.52-2.72,2.81-5.57,4.21-8.38,5.53,11.78-1.42,24.66-14.35,26.55-12.88,1.88-24.4-1.66-34.6-9.42-2.52-1.92-3.45-1.52-5.39,.67-8.89,10.07-19.4,17.26-33.56,16.74-13.09-.48-23.39-8.48-27.42-20.91-.49-1.02-.92-2,.89-1.97Z"/>
      <path class="cls-63" d="M887.84,437.1c-.3,.66-.6,1.31-.89,1.97-1.12-1.1-1.03-2.56-1.2-3.95-.2-.98,.18-1.3,1.12-.97,.32,.98,.65,1.97,.97,2.95Z"/>
      <path class="cls-41" d="M886.87,434.15c-.37,.32-.75,.65-1.12,.97-.78-1.04-1.5-2.27-.21-3.18,.34-.24,1.14,1.26,1.33,2.21Z"/>
      <path d="M1069.68,649.23c2.31-9.84,4.67-20.4,7.26-30.89,5.89-23.9,10.47-48.11,17.64-71.7,6.63-21.83,27.48-39.03,50.16-40.6,25.75-1.79,51.51-3.35,77.27-5,1.33-.09,2.67-.2,3.99-.1,3.01,.22,5.15,1.72,5.39,4.85,.24,3.13-1.58,5.2-4.58,5.57-5.28,.65-10.6,1-15.92,1.33-20.61,1.28-41.23,2.42-61.84,3.76-22.11,1.43-38.57,14.51-44.73,35.84-9.15,31.66-15.31,64.06-23.26,96.02-.32,1.29-.56,2.61-1.02,3.86-1.11,3.05-3.24,4.7-6.55,3.94-3.19-.73-3.95-3.22-3.81-6.87Z"/>
      <path class="cls-50" d="M1212.96,611.04c21.74-11.02,44.03-12.99,66.98-4.1,2.5,2.71-.22,3.1-1.72,3.15-5.83,.19-11.57,2.8-17.49,.8-1.15-.39-2.27,.07-3.4,.21-4.56,.6-9.14,.27-13.7,.34-3.8-.38-7.51-.03-11.06,1.5-1.28,.56-2.58,.95-3.98,.43-3.12-1.73-6.32-.61-9.52-.38-2.21,.16-4.92,1.3-6.1-1.96Z"/>
      <path class="cls-18" d="M1246.87,648.99c-1.94-1.58-3.66-1.66-5.6,.23-1.52,1.48-3.44,2.55-5.19,3.81-4.23,2.08-8.5,3.71-13.12,1.08-.91-1.33-.51-2.68,.55-3.5,4.33-3.36,7.93-7.78,13.49-9.38,4.23,1.17,8.45-1.24,12.68-.06-.57-.85-1.48-1.69-.05-2.59,3.73-.3,5.5,2.44,7.49,4.83,1.09,2.27,5.26,4.07,3.47,6.38-2.14,2.75-6.39,1.79-9.78,1.23-1.4-.23-2.69-1.22-3.94-2.03Z"/>
      <path class="cls-13" d="M1196.8,694.67c2.05-2.31,4.52-4.1,7.13-5.7,1.94,.48,3.84,.47,5.84,.12,8.68-1.54,17.54-1.29,26.27-2.42,1.64-.21,3.34-.08,4.73,1.09,1.03,2.4-1.14,3.35-2.17,4.83-1.65,1.5-3.18,3.23-5.76,2.88-10.62-.19-21.07,1.87-31.64,2.25-2,.07-5.1,1.07-4.4-3.05Z"/>
      <path class="cls-14" d="M1240.92,688.86c-2.07-1.65-4.51-1.05-6.7-.71-8.97,1.41-18.13,.79-27.03,2.8-1.74,.39-2.73-.42-3.26-1.98,2.35-2.46,4.95-4.62,7.95-6.25,1.57-.47-1.92,2.29,1.23,1.61,9.23-1.99,18.75-1.77,28.13-2.73,1.63-.17,3.33,.03,4.68,1.24,.75,1.04,.5,2.06-.06,3.07-1.34,1.5-2.37,3.52-4.95,2.95Z"/>
      <path class="cls-56" d="M1212.96,611.04c2.43,1.68,4.91,.6,7.48,.37,2.9-.26,6.42-2.34,8.55,1.71,0,.34,.03,.81-.19,.91-5.77,2.87-10.97,7.02-17.66,7.83-2.21-.54-4.49-.16-6.69-.58-1.54-.29-3.81,.15-3.66-2.62,3.6-3.28,7.72-5.73,12.18-7.63Z"/>
      <path class="cls-10" d="M1245.95,684c-1.44-1.68-3.41-1.12-5.12-.99-9.96,.77-19.91,1.69-29.97,2.57-.65-1.19,1.1-1.75,1.02-2.87,1.29-1.78,3.08-2.94,4.98-3.96,6.6,1.12,13.13-.16,19.66-.74,3.94-.35,7.9-.27,11.83-.72,1.38-.16,2.66,.06,3.22,1.62,.12,.53,.1,1.05-.03,1.58-1.4,1.91-2.88,3.69-5.59,3.5Z"/>
      <path class="cls-55" d="M1257.93,609.93c.57-.27,1.31-.93,1.67-.76,6.5,2.97,12.91-.95,19.37-.22,1.68,.19,1.21-1.06,.97-2.01,4.28,1.26,7.88,3.65,11.09,6.68,1.46,1.74,1.17,3-1.12,3.38-2.45,.42-4.84,.92-6.89,2.41-.65,.19-1.36,.37-1.94,.05-6.73-3.68-13.78-6.46-21.32-7.94-.8-.16-1.43-.81-1.82-1.59Z"/>
      <path class="cls-15" d="M1196.8,694.67c.45,2.65,2.12,2.09,4.09,1.88,9.61-.99,19.24-1.78,28.87-2.56,1.42-.12,3.01-.43,4.17,.91-.15,1.27-1.02,2.09-1.81,2.98-1.46,1.4-2.87,2.89-5.18,2.58-4.62-.18-9.26-.36-13.78,.78-4.83,1.22-9.01-.97-13.39-2.2-5.19-1.91-5.26-2.02-2.97-4.36Z"/>
      <path class="cls-3" d="M1250.94,664.95c1.85,1.11,3.69,2.24,4.98,4.04,.99,2.44-.9,2.91-2.45,3.22-7.98,1.59-16.11,1.7-24.2,2.07-1.5,.07-3.46-.16-3.49-2.55,2.37-1.95,4.74-3.9,7.11-5.84,6.03,0,12.01-1.1,18.05-.94Z"/>
      <path class="cls-4" d="M1225.79,671.73c.73,1.14,1.88,1.31,3.07,1.21,8.56-.68,17.12-1.38,25.68-2.13,.96-.08,1.25-.97,1.39-1.83,1.06,.69,2.11,1.37,3.17,2.06,0,.28,.03,.55,.08,.82-.16,3.25-2.14,4.49-5.12,4.65-7.15,.12-14.25,.89-21.36,1.54-2.83,.26-5.65,.56-8.46,.22-1.53-.19-3.53-.08-3.45-2.57,1.4-1.66,2.96-3.11,5-3.97Z"/>
      <path class="cls-26" d="M1178.89,678.98c-1.29-1.42-2-3.07-1.95-5.01,4.11,1.9,8.08,2.37,11.64-1.17,2.36,.58,4.71,1.34,7.19,.65,4.13,.15,8.27,.71,12.2-1.28,.91-.46,2.39-1.03,2.13,1.14-1.68,1.98-3.72,3.5-6.01,4.71-3.21,2.67-6.88,3.72-11.03,3.37-1.98-.17-4,.08-5.87,.73-3.7,1.28-6.43,.29-8.3-3.14Z"/>
      <path class="cls-7" d="M1220.79,675.71c3.81,2.48,7.9,1.11,11.89,.83,6.54-.47,13.06-1.05,19.6-1.56,1.01-.08,1.98,.08,2.65,.98,.06,2.73-1.17,4.16-4.01,3.95-.18-1.59-.99-1.49-2.41-1.37-9.65,.82-19.32,1.39-28.98,2.18-1.73,.14-2.51-.32-2.66-1.97,1.01-1.4,2.29-2.46,3.92-3.05Z"/>
      <path class="cls-61" d="M1185.81,633.56c1.56-3.17,3.99-5.59,6.69-7.78,3.68,.23,7.4,.2,10.82,1.89-1.4,4.82-4.83,8.01-8.75,10.8-1.55,.7-3.19,.87-4.86,.87-5,0-5.77-1.17-3.9-5.78Z"/>
      <path class="cls-51" d="M1175.92,655.96c.12-4.45,1.55-8.5,3.86-12.27,3.77,2.09,7.66,.1,11.49,.34,.73,3.41-.76,6.19-2.51,8.89-4.41,5.49-8.77,6.51-12.84,3.04Z"/>
      <path class="cls-60" d="M1302.03,625.95c-.03,.34-.07,.69-.1,1.03-.87,3.79-4.16,5.84-6.27,8.76-.36,.33-.77,.53-1.26,.59-.48-.11-.87-.36-1.16-.76-1.91-4.42-4.35-8.48-7.75-11.97-.97-1-2.91-2.12-1.14-4.05,4.5,1.02,8.87,3.55,13.67,1.17,1.34,1.74,2.67,3.49,4.01,5.23Z"/>
      <path class="cls-49" d="M1203.05,628.27c-3.53-.76-7.45,.11-10.54-2.48,2.3-2.9,5.07-5.26,8.28-7.11,1.75,2.25,4.22,1.13,6.37,1.25,1.83,.1,3.54,.35,5.15,1.22-2.09,3.67-4.8,6.53-9.25,7.13Z"/>
      <path class="cls-25" d="M1178.89,678.98c2.41,2.47,5.23,3.11,8.4,1.71,1.9-.84,3.88-.84,5.85-.71,3.83,.26,7.51-.15,10.95-1.97-2.61,2.82-5.71,5.01-8.95,7.02-.45,.21-.89,.43-1.32,.68-6.58,3.9-6.89,3.86-12.02-1.71-1.6-1.31-2.47-3.05-2.91-5.04Z"/>
      <path class="cls-57" d="M1190.98,643.99c-3.79,2.18-7.57,4.01-11.2-.29,1.17-3.87,3.24-7.22,6.03-10.13-.81,3.09-.39,5,3.58,4.47,1.95-.26,3.93-.18,5.78-.99,.36,3.38-.92,5.76-4.19,6.94Z"/>
      <path class="cls-6" d="M1199.77,699.03c7.68,2.78,15.34-.3,23.01-.05,1.74,.06,3.65-.62,5.15,.89-.72,3.18-3.4,4.05-5.97,5.06-.65,.09-1.29,.17-1.94,.26-7.01-1.21-14.04-2.33-20.25-6.16Z"/>
      <path class="cls-52" d="M1250.94,664.95c-5.91,2.26-11.9,3.08-18.05,.94,.73-.62,1.44-1.27,2.19-1.86q8.23-6.38,15.86,.92Z"/>
      <path class="cls-5" d="M1189.06,672.72c-3.21,5.18-8.12,5.69-12.12,1.24-2.12-5.6-2.86-11.29-1.14-17.14,1.65,1.41,1.46,3.34,1.5,5.21-.83,5.8,1.23,8.85,7.09,6.82,2.21-.77,.9-3.58,3-4.11,2.46,2.26,2.9,4.95,1.66,7.98Z"/>
      <path class="cls-27" d="M1210.1,673.32c-3.91,.85-7.7,2.42-11.85,1.68-1.12-.2-2.33,.1-3.29-.78,1.37-4.11,4.52-6,8.54-6.81,3.56,.32,7.08,.31,10.56-.7,1.37-.4,2.83-.88,4.1,.33-2.35,2.53-5.08,4.56-8.05,6.28Z"/>
      <path class="cls-48" d="M1298.02,620.72c-2.01,2.52-7.4,3.26-10.43,1.29-1.23-.8-2.13-2.15-3.86-1.95-.51-.04-.81-.32-.92-.81,.62-3.2,3.13-3.21,5.58-3.26,1.61-.03,3.47,.32,2.63-2.37,2.97,1.74,5.29,4.12,6.99,7.1Z"/>
      <path class="cls-19" d="M1218.15,667.03c-5.01,1.13-9.94,3.29-15.2,1.2,1.99-4.44,5.48-7.09,10.09-8.39,.93,2.22,2.35,2.89,4.69,1.83,2.07-.94,4.21-1.16,5.49,1.42-1.37,1.72-3.12,2.96-5.06,3.94Z"/>
      <path class="cls-24" d="M1246.87,648.99c4.33,1.88,8.76,.87,13.36,.83-.65-2.87-3.74-3.61-4.18-6.16,5.29,.77,8.34,4.17,10.36,8.79-.93,4.5-4.36,3.62-7.47,3.5-2.21-.09-4.24-.65-6.03-1.97-2.23-1.4-4.31-2.97-6.03-4.99Z"/>
      <path class="cls-17" d="M1252.9,653.98c3.02,.33,6.04,.61,9.05,.99,2.29,.29,3.18-1.21,3.97-2.9,4.5-.39,6.24,2.49,7.31,6.17-.25,1.52-1.22,2.24-2.68,2.43-3.31-.55-6.68,.08-9.98-.52-2.85-1.69-5.36-3.81-7.67-6.17Z"/>
      <path class="cls-11" d="M1176,662.91c-.07-2.03-.14-4.06-.21-6.08-.09-.31-.05-.59,.12-.86,4.5,1.64,8.48,1.59,10.97-3.36,0-.02,.57,.24,.88,.37,1.83,1.66,1.03,3.41,.21,5.18-4.41,6.62-5.63,7.1-11.97,4.77Z"/>
      <path class="cls-53" d="M1222.84,652.7c4.34,2.94,8.82,.45,13.24,.32-1.8,2-3.94,3.56-6.24,4.91-4.09,2.09-8.69,1.1-12.96,2.16-.9,.22-1.38-.65-1.59-1.51,1-3.9,3.44-5.97,7.55-5.89Z"/>
      <path class="cls-16" d="M1215.88,657.82c.1,.64,.4,1.71,.94,1.39,4.17-2.47,8.7-.68,13.01-1.28-1.78,2.27-4.42,3.42-6.62,5.15-1.94-.94-3.51-1.37-5.77,.1-2.35,1.53-5.27,1.47-4.49-2.96,.25-1.69,1.14-2.6,2.93-2.41Z"/>
      <path class="cls-20" d="M1260.57,660.15c3.44-1.69,6.9-1.73,10.39-.17,.16,2.93-1.86,4.13-4.09,5.16-.31-.05-.62-.06-.93-.05-1.79-1.65-3.58-3.3-5.37-4.94Z"/>
      <path class="cls-58" d="M1181.8,684.02c4.1,4.87,8.74,2.71,13.34,1.02-.56,.59-1.06,1.26-1.69,1.77-6.42,5.22-7.36,4.99-11.65-2.8Z"/>
      <path class="cls-8" d="M1221.96,704.94c1.99-1.69,3.98-3.37,5.97-5.06,1.34-.97,2.67-1.94,4.01-2.92,10.74-1.79,21.53-3.07,32.45-2.65,1.29,.05,3.15-.76,3.51,1.56-14.54,6.94-29.33,12.6-45.93,9.07Z"/>
      <path class="cls-29" d="M1267.89,695.87c-10.53-.82-20.95,.39-31.36,1.78-1.62,.22-3.25,.84-4.59-.69,.66-.69,1.33-1.37,1.99-2.06,1.33-.99,2.65-1.98,3.98-2.98,10.92-2.08,21.98-2.89,33.06-3.36,2.05-.09,4.81-.88,5.86,2.21-2.66,2.27-5.77,3.74-8.94,5.1Z"/>
      <path class="cls-28" d="M1276.83,690.77c-3.99-1.66-8.2-.95-12.23-.64-7.87,.61-15.7,1.83-23.55,2.77-1.16,.14-2.35,.15-3.15-.98,.68-1.34,1.74-2.31,3.01-3.06,1.33-.98,2.66-1.95,3.99-2.93,9.36-.95,18.82-1.04,28.06-3.1,1.56,1.11,3.12,2.22,4.66,3.35,2.85,2.07,2.02,3.51-.8,4.59Z"/>
      <path class="cls-12" d="M1277.76,674.04c-1.92-1.02-3.79-2.09-4.97-4.02,2.98-3.78,7.74-1.42,11.28-3.28,3.11,1.21,4.34-3.21,7.31-2.46,.58,1.12,.1,3.04,2.61,2.55,1.82-.35,3.85-1.18,5.71,.13-1.31,2-2.62,4.01-3.93,6.01-5.96,4.78-11.97,5.14-18.02,1.07Z"/>
      <path class="cls-30" d="M1272.97,682.83c-.69,3.59-3.83,2.09-5.72,2.36-6.51,.93-13.06,1.89-19.68,1.76-1.02-.02-1.99-.12-2.66-1.02,.35-.64,.69-1.29,1.04-1.93,1.82-.73,2.65-3.02,4.89-3.09,3.15-1.1,6.41-1.31,9.7-1.21,2.31,.07,4.18-.59,5.38-2.67,2.42,1.85,5.19,3.27,7.06,5.8Z"/>
      <path class="cls-37" d="M1284.92,667.12c-1.34,2.45-3.71,1.91-5.78,1.8-2.24-.12-4.24,.7-6.34,1.1-2.31-1.21-4.41-2.68-5.92-4.87,1.36-1.72,2.73-3.44,4.09-5.16,.95-.41,1.64-1.08,1.99-2.07,.2-.13,.4-.25,.6-.38,4.99,1.77,8.91,4.81,11.36,9.59Z"/>
      <path class="cls-2" d="M1305.03,635.82c1.44,2.24,.88,4.74,.91,7.16-.45,.54-.51,1.18-.54,1.85-.28,6.71-4.12,8.65-10.22,5.19-.48-4.65-2.47-9.26-.39-13.99l.18-.11q4.95,3.06,10.06-.11Z"/>
      <path class="cls-23" d="M1295.83,649.79q7.33,.61,10.11-6.81c.59,5.62-.54,10.91-2.94,15.98-3.53,2.64-6.77,2.1-9.8-.87-.21-3.11-.69-6.31,2.63-8.3Z"/>
      <path class="cls-38" d="M1293.84,657.81c2.86,1.92,6.03,1.39,9.16,1.15-.09,3.08-1.86,5.48-3.3,8-1.75,.34-3.51,.67-5.26,1.01-3.41,.65-4.27-.96-3.52-3.98-.57-2.79-.23-5.14,2.92-6.17Z"/>
      <path class="cls-9" d="M1265.92,677.03c.47,1.7,.56,3.53-1.7,3.62-4.45,.19-8.91,1.06-13.38,.26,.04-.33,.07-.66,.08-.99,1.73-.92,3.04-2.27,4.01-3.95,1.8-.96,3.05-2.5,4.25-4.09,2.8,1,4.59,3.31,6.74,5.16Z"/>
      <path class="cls-54" d="M1305.03,635.82c-3.79,5.98-6.46,6.01-10.06,.11,1.28-3.79,4.58-6.01,6.96-8.94,2.13,2.56,2.89,5.6,3.1,8.83Z"/>
      <path class="cls-21" d="M1277.76,674.04c6.19,2.81,12.13,1.31,18.02-1.07-9.18,11.32-5.95,11.87-18.02,1.07Z"/>
      <path class="cls-42" d="M211,485.81c-2.64,10.6-8.95,17.36-20.02,19.14,4.66-8.48,11.62-14.57,20.02-19.14Z"/>
      <path class="cls-40" d="M1215.88,657.82c-.98,.8-1.96,1.6-2.93,2.41-3.64,2.29-6.9,5.04-10,8-3.11,1.4-5.47,3.8-8,5.98-2.73,2.52-4.52,1.33-5.9-1.49-.66-2.67-1.31-5.33-1.97-8-2.28-2.22-.85-4.49-.1-6.75,.72-1.6,.96-3.27,.78-5.01,1.07-2.99,2.14-5.99,3.21-8.98,1.4-2.31,2.8-4.62,4.19-6.94,2.63-2.93,5.25-5.86,7.88-8.78,3.08-2.38,6.17-4.75,9.25-7.13,5.56-2.67,11.12-5.35,16.68-8.02,1.16,.23,2.06-.31,2.9-.99,3.62-1.43,7.51-1.4,11.27-2.07,4.92-.04,9.85-.08,14.77-.13,8.91,1.48,17.33,4.25,24.89,9.32,.31,.27,.61,.54,.92,.81,4.36,4.67,9.12,9.09,10.25,15.84-3.2,7.15-9.44,11.81-14.4,17.5-1.71,1.96-3.41,4.21-6.49,4.16,0,0-.14,.35-.14,.35-2-2.37-3.97-4.76-7.04-5.84-2.8-3.38-6.21-6.04-9.87-8.41-1.64-2-3.62-3.59-5.9-4.81-3.47-2.31-6.6-2.14-9.42,1.17-.98,1.15-2.54,1.41-3.93,1.87-4.91,3.26-9.56,6.87-13.96,10.8-2.32,1.71-4.64,3.41-6.95,5.12Z"/>
      <path class="cls-56" d="M1243.16,610.05c-3.68,1.09-7.41,1.92-11.27,2.07,3.44-2.42,7.36-2.23,11.27-2.07Z"/>
      <path class="cls-59" d="M1236.8,641.9c1.48-1.27,3.1-2.41,4.4-3.84,3.41-3.76,6.29-3.1,8.95,.8-.25,1.89-.34,3.47-3.23,3.23-3.34-.27-6.76,2.08-10.12-.19Z"/>
      <path class="cls-64" d="M1273.1,657.56c8.15-6.08,13.87-14.5,20.9-21.66,.27,.04,.53,.08,.8,.13,.47,4.58,1.44,9.11,1.04,13.76-.66,2.67-1.33,5.35-1.99,8.02-1.63,1.74-1.94,4.12-2.92,6.17-2.01,1.03-1.67,6.55-6,3.14-3.94-3.18-7.88-6.37-11.82-9.56Z"/>
      <path class="cls-22" d="M1186.99,657.97c.03,2.25,.06,4.5,.1,6.75,.53,4.78-2.42,6.29-6.36,6.16-5.38-.18-4.63-4.42-4.72-7.98,4.61,.46,8.71-.2,10.98-4.94Z"/>
    </g>
  </g>
</svg>