<?xml version="1.0" encoding="UTF-8"?>
<svg id="_图层_2" data-name="图层 2" xmlns="http://www.w3.org/2000/svg" viewBox="0 0 1566 1262">
  <defs>
    <style>
      .cls-1 {
        fill: #003c45;
      }

      .cls-2 {
        fill: #00c437;
      }

      .cls-3 {
        fill: #ebebeb;
      }

      .cls-4 {
        fill: #f2647c;
      }

      .cls-5 {
        fill: #f4f4f4;
      }

      .cls-6 {
        fill: #fcfdfd;
      }

      .cls-7 {
        fill: #fefefe;
      }

      .cls-8 {
        fill: #fef8a2;
      }

      .cls-9 {
        fill: #fead8d;
      }

      .cls-10 {
        fill: #fed3a0;
      }

      .cls-11 {
        fill: #68688d;
      }

      .cls-12 {
        fill: #8b8aa3;
      }

      .cls-13 {
        fill: #91ba93;
      }

      .cls-14 {
        fill: #93949c;
      }

      .cls-15 {
        fill: #91929a;
      }

      .cls-16 {
        fill: #333;
      }

      .cls-17 {
        fill: #acd8ad;
      }

      .cls-18 {
        fill: #df9057;
      }

      .cls-19 {
        fill: #e1e1e1;
      }

      .cls-20 {
        fill: #e1bb8e;
      }

      .cls-21 {
        fill: #a7e3ec;
      }

      .cls-22 {
        fill: #a7e2eb;
      }

      .cls-23 {
        fill: #12c143;
      }

      .cls-24 {
        fill: #12121a;
      }

      .cls-25 {
        fill: #40a35c;
      }

      .cls-26 {
        fill: #94d0d8;
      }

      .cls-27 {
        fill: #538862;
      }

      .cls-28 {
        fill: #45a25f;
      }

      .cls-29 {
        fill: #45a15f;
      }

      .cls-30 {
        fill: #52775d;
      }

      .cls-31 {
        fill: #555d57;
      }

      .cls-32 {
        fill: #2b2b2b;
      }

      .cls-33 {
        fill: #2c7e3d;
      }

      .cls-34 {
        fill: #2d7e3e;
      }

      .cls-35 {
        fill: #2d7f3e;
      }

      .cls-36 {
        fill: #577961;
      }

      .cls-37 {
        fill: #575757;
      }

      .cls-38 {
        fill: #3ac95e;
      }

      .cls-39 {
        fill: #5ecd77;
      }

      .cls-40 {
        fill: #82be8a;
      }

      .cls-41 {
        fill: #52805f;
      }

      .cls-42 {
        fill: #504f74;
      }

      .cls-43 {
        fill: #504f75;
      }
    </style>
  </defs>
  <g id="_图层_1-2" data-name="图层 1">
    <g>
      <path class="cls-7" d="M636.02,.09C944.48,.09,1252.94,.1,1561.41,0c3.75,0,4.59,.84,4.59,4.59-.1,417.61-.1,835.21,0,1252.82,0,3.75-.84,4.59-4.59,4.59-518.94-.1-1037.88-.1-1556.82,0-3.75,0-4.59-.84-4.59-4.59C.1,838.3,.09,419.2,.09,.09c209.31,0,418.62,0,627.93,0,.32,.55,.25,1.03-.23,1.46-1.1,.82-2.4,1.16-3.71,1.41-16.55,3.19-25.2,14.45-29.95,29.54-3.42,10.87-4.58,22.14-5.52,33.44-1.05,12.64-3.58,25.07-6.03,37.48-5.29,26.81-9.84,53.75-14.34,80.7-2.45,14.66-6.42,28.94-10.89,43.1-.98,3.11-2.96,5.53-4.99,7.99-31.83,38.55-55.83,81.18-67.71,130.1-2.4,9.88-4.33,19.85-5.37,29.99-.73,7.12-1.85,8.28-9.15,8.03-7.69-.26-15.26,1.53-22.94,1.07-1.99-.12-4.07,.23-5.48-.71,9.38,3.3,18.99,7.34,28.76,10.94,4.62,1.7,7.21,4.14,7.14,9.39-.05,3.45,.96,6.91,.73,10.44-.2,2.95-1.49,4.65-4.56,4.83-12.46,.73-24.86,2.19-37.39,3.11,12.67,3.62,25.38,6.85,38.02,10.31,5.35,1.46,8.37,6.63,7.21,11.88-.39,1.78-1.63,2.5-3.1,2.86-9.5,2.34-18.96,4.85-27.67,6.22,6.33-.04,13.37,1.97,20.52,3.19,15.82,2.69,13.12,.76,17.17,15.35,7.44,26.82,17.77,52.48,33.74,75.38,9.71,13.93,21.75,26.06,33.79,38.08,2.03,2.03,5.88,4.02,4.65,6.99-1.24,2.99-5.38,1.66-8.26,1.67-26.83,.08-53.66-.03-80.49,.07-17.08,.07-31.72,7.08-44.9,17.18-11.99,9.18-20.68,21.62-30.57,32.85-19.6,22.24-39,44.66-58.45,67.03-16.94,19.48-33.96,38.89-50.79,58.47-2.54,2.96-4.59,6.11-4.95,10.15-.35,3.94-3.49,4.51-6.48,5-8.72,1.42-17.42,2.92-26.04,4.87-28.04,6.35-55.36,14.7-81.15,27.68-25.59,12.88-51.63,24.92-76.2,39.71-24.41,14.69-42.06,35.51-54.03,61.31-2.85,6.15-7.09,11.66-7.66,18.78-.14,1.81-1.89,3.07-3.13,4.43-14.5,15.92-23.09,34.22-24.41,56.07-1.17,19.53,2.95,37.86,11.18,55.17,14.05,29.52,29.81,58.14,49.59,84.3,11.54,15.27,25.98,27.61,41.48,38.73,4.13,2.96,8.97,3.92,13.82,3.31,7.69-.97,11.5,2.48,14.89,9.2,10.29,20.34,26.05,35.59,46.13,46.39,4.66,2.5,9.6,3.55,14.9,3.54,25.33-.07,50.66,.08,75.99-.09,10.34-.07,20.65,.27,30.93,1.12,10.47,.87,18.64-3.18,26.03-10.21,14.21-13.52,27.12-28.01,36.35-45.47,1.59-3,3.8-4.47,7.17-4.37,1.83,.05,3.67-.01,5.5-.01,72.99,0,145.98-.2,218.97,.21,11.22,.06,18.67-4.27,24.67-12.94,1.84-2.66,3.24-6.99,6.73-6.73,4.09,.31,3.95,5.21,5.29,8.27,11.17,25.52,27.89,46.39,51.34,61.7,4.47,2.92,9.25,4.56,14.58,4.45,32.32-.67,64.61,1.57,96.93,1.06,7.48-.12,14.96-.17,22.45,.74,6.87,.83,12.93-1.39,18.32-6.18,7.12-6.33,13.72-13.08,19.78-20.42,3.33-4.04,4.81-3.98,8.31,.01,7.32,8.35,15.65,15.42,25.47,20.67,3.89,2.08,8.05,3.22,12.48,3.13,31.82-.69,63.61,1.47,95.43,1.07,8.81-.11,17.63-.33,26.45,.74,6.07,.73,11.73-1.02,16.89-4.79,16.96-12.39,30.56-27.73,40.79-46.01,2.74-4.9,6.09-7.12,11.9-7.09,37.33,.21,74.66,.18,111.98,.02,5.08-.02,8.34,1.64,11.07,5.93,9.89,15.56,21.74,29.46,36.03,41.22,3.83,3.16,7.93,5.37,12.87,6.19,21.04,3.51,42.15,5.82,63.49,7.01,15.04,.84,29.95,.31,44.88-.41,17.46-.84,34.84-2.94,52.05-6.18,6.93-1.3,11.55-6.4,16.54-10.76,19.82-17.35,30.65-40.03,37.61-64.78,6.48-23.02,9.87-46.56,10.13-70.53,.05-4.97,.89-9.91,.08-14.92-.42-2.6,.76-4.77,2.74-6.64,16.54-15.61,29.21-34.12,40.07-53.94,16.7-30.47,24.87-63.42,28.13-97.77,.97-10.27,2.29-20.55,1.83-30.87-.8-18.03-2.69-35.85-10.73-52.48-7.85-16.23-21.01-26.93-36.36-35.2-12.32-6.64-25.49-10.07-39.75-10.14-22.79-.12-45.57-1.49-68.36-2.14-9.47-.27-18.97-.38-28.44-.77-11-.46-11.55-1.35-8.68-11.67,6.33-22.81,11.81-45.83,15.31-69.27,1.16-7.75,3.72-15.21,4.53-23.04,1.83-17.86-3.01-33.79-14.64-47.3-14.66-17.03-33.39-24.99-56.06-24.78-23.29,.21-46.57-1.46-69.86-2.12-13.96-.4-27.91-.94-41.88-.79-2.56,.03-6.21,1.04-7.27-1.68-1.11-2.84,2.48-4.22,4.37-5.94,26.99-24.58,47.12-53.76,59.25-88.31,.44-1.26,.84-2.53,1.27-3.79,2.31-6.78,3.55-7.63,10.54-6.69,6.45,.86,12.94,1.27,19.39,2.05,2.06,.41,4.06,1.29,6.23,1.11,.69-.12-.3-.77-.22-.11,.01,.1-.13,.13-.45,.1-.64-.05-1.25-.18-1.86-.41-7.21-4.18-14.49-8.23-21.57-12.62-2.68-1.66-5.58-3.16-5.01-7.22,.6-4.25,3.2-6.2,7.11-7.3,9.26-2.62,18.2-6.3,28.13-8.67-9.04-1.27-17.38-2.78-25.73-4.18-3.44-.58-4.81-2.17-4.3-5.8,2.14-15.3,.57-12.99,13.51-16.04,2.74-.64,5.55-1,8.55-1.99-4.35-1.1-8.36-2.17-12.33-3.35-5.97-1.78-6.46-2.37-6.52-8.78-.05-5.66,.16-11.33-.04-16.99-1.99-56.39-16.01-109.17-47.29-156.73-2.38-3.62-4.4-7.57-7.29-10.74-9.56-10.48-13.36-23.48-17.38-36.61-8.1-26.44-11.17-53.74-15.07-80.94-5.5-38.32-15.5-75.33-33.23-110-3.5-6.85-8.02-12.24-16.07-13.64-2-.35-3.94-.47-5.95-.14-22.02,3.6-41.72,12.01-58.75,26.81-9.07,7.88-16.8,17.11-26.28,24.54-12.34,9.68-26.21,16.4-40.77,21.89-3.55,1.34-7.13,1.39-10.81,.56-19.19-4.33-38.57-7.59-58.11-9.77-15.7-1.76-31.44-3.29-47.26-3.49-22.47-.28-44.95-.26-67.34,2.04-19.05,1.95-38.06,4.36-56.81,8.32-4.82,1.02-8.46,.19-12.33-3.03-27.69-22.98-55.76-45.48-85.79-65.42-10.77-7.15-22.01-13.15-34.87-15.66-1.56-.31-3.91,.02-4.13-2.63Z"/>
      <path d="M1296.72,518.16c-7.96-.72-15.92-1.39-23.87-2.18-2.24-.22-3.46,.1-4.29,2.68-12.51,38.92-34,71.96-65.08,98.66-.75,.64-1.47,1.31-2.38,2.13,1.56,1.56,3.31,.95,4.78,.84,22.84-1.68,45.6,.91,68.4,1.21,17.66,.23,35.3,1.23,52.95,1.71,42.61,1.16,73.35,41,63.59,82.6-4.22,17.98-6.37,36.37-10.85,54.3-3.14,12.56-6.22,25.13-10.1,38,4.98,.28,9.6,.64,14.23,.79,33.47,1.11,66.97,1.65,100.41,3.43,22.42,1.19,40.87,12.15,56.65,27.63,15.13,14.83,20.86,33.95,22.4,54.22,3.63,48.03-3.94,94.29-24.58,138.02-10.16,21.52-23.47,41.17-40.2,58.07-5.16,5.21-6.39,9.83-6.47,16.6-.43,34.83-4.7,69.06-18.3,101.56-6.31,15.08-15.26,28.26-26.7,40.04-9.51,9.8-20.45,14.79-34.03,16.59-49.79,6.62-99.31,5.96-148.72-3.12-4.4-.81-8.12-2.7-11.54-5.54-15.26-12.67-28.14-27.42-38.55-44.28-1.6-2.58-3.24-3.55-6.3-3.54-38.99,.11-77.99,.12-116.98-.02-3.41-.01-4.87,1.28-6.4,4.1-10.71,19.79-25.24,36.28-43.45,49.55-4.1,2.98-8.47,4.44-13.49,4.36-42.32-.65-84.64-1.27-126.96-1.89-4.42-.06-8.48-1.22-12.36-3.41-10.87-6.17-20.03-14.29-28.02-24.45-7.25,8.73-14.77,16.84-23.04,24.28-5.33,4.8-11.11,6.62-18.18,6.49-39.82-.77-79.64-1.35-119.46-1.81-6.58-.08-12.28-1.68-17.76-5.41-24.16-16.45-41.4-38.28-51.92-65.49-.54-1.39-1.03-2.81-1.58-4.19-.11-.29-.42-.49-.73-.84-3.51,4.47-7.02,8.82-10.4,13.27-4.3,5.67-9.99,7.63-17.01,7.61-44.83-.14-89.65-.07-134.48-.07-31,0-61.99,.06-92.99-.08-3.58-.02-5.56,.9-7.36,4.2-10.73,19.68-25.04,36.43-42.41,50.61-4.37,3.57-9.07,5.29-14.66,5.24-38.66-.36-77.32-.66-115.98-.94-4.77-.04-9.13-1.24-13.34-3.55-21.87-12.01-38.21-29.25-48.98-51.71-1.33-2.78-2.76-4.25-5.94-3.8-11.22,1.62-20.01-2.83-28.66-9.81-22.66-18.28-40.46-40.37-54.74-65.56-10.26-18.09-21.19-35.82-29.31-55.03-9.8-23.16-13.28-47-6.53-71.69,3.95-14.44,11.47-26.88,21.82-37.6,1.93-2,3.32-3.91,3.32-6.88,0-1.93,.54-4.04,1.42-5.76,10.73-20.9,21.68-41.62,39.95-57.35,13.51-11.63,28.78-20.31,44.57-28.29,25.82-13.06,51.06-27.35,78.12-37.78,25.69-9.9,52.31-16.51,79.49-20.87,4.19-.67,8.44-.52,7.76-7.05-.32-3.1,2.64-5.59,4.72-7.98,37.53-43.1,75-86.25,112.64-129.26,8.21-9.38,15.49-19.66,25.33-27.54,14.8-11.85,31.16-19.35,50.66-19.15,27.33,.29,54.66,.08,81.99,.08,1.3,0,2.6,0,5.62,0-6.6-6.43-12.17-11.94-17.84-17.36-31.91-30.56-48.61-69.26-59.38-111.11-.74-2.89-1.58-4.42-4.95-4.92-10.84-1.61-21.61-3.74-32.47-6.42,9.5-2.16,19.04-4.19,28.48-6.6,1.44-.37,5.08,.62,4.19-2.6-.9-3.25,1.2-8-4.26-9.43-13.18-3.44-26.31-7.08-39.46-10.65-1.8-.49-3.58-1.07-5.23-2.52,9.19-.81,18.38-1.64,27.57-2.44,4.98-.43,9.96-.9,14.94-1.18,2.33-.13,3.4-.97,2.95-3.36-.03-.16-.01-.33-.02-.5-.32-5.14,1.02-11.39-1.45-15.09-2.29-3.42-8.66-4.14-13.26-5.97-7.83-3.1-15.7-6.13-23.55-9.2l.05-1.3c7.29,0,14.59,.01,21.88,0,4.17,0,8.36-.4,12.49,0,3.87,.37,4.27-1.7,4.56-4.6,2.22-22.13,7.43-43.58,15.24-64.36,14.01-37.26,34.38-70.77,60.03-101.14,1.53-1.81,2.6-3.71,3.35-6,7.72-23.49,11.47-47.81,15.62-72.08,4.25-24.92,8.94-49.76,13.64-74.6,2.27-11.97,1.79-24.25,4.47-36.15,2.16-9.57,4.28-19.05,10.48-27.19,7-9.17,15.87-14.41,27.33-15.36,2.3-1.07,4.92,.41,7.2-.89h1c1.2,1.93,3.33,1.09,4.93,1.38,16.95,3.03,30.59,12.72,44.23,22.15,26.43,18.27,51.66,38.14,76.16,58.91,3.53,2.99,6.67,3.94,11.48,2.99,50.76-10.02,101.95-13.03,153.56-8.72,26.4,2.21,52.53,6.1,78.34,12.08,2.49,.58,4.79,.41,7.28-.48,20.31-7.28,38.53-17.71,53.61-33.49,12.12-12.69,25.59-23.77,41.73-31.18,10.68-4.9,22.01-8.04,33.51-9.23,8.93-.93,15.58,2.42,20.94,13.01,12.12,23.98,20.96,49.13,27.19,75.27,5.76,24.17,8.29,48.84,11.95,73.34,3.33,22.26,9.36,43.84,16.67,65.1,.62,1.8,1.65,3.23,2.78,4.66,34.13,43.31,53.11,92.85,60.28,147.18,2.2,16.7,2.97,33.53,1.88,50.35-.25,3.79,1.15,4.88,4.2,5.61,6.01,1.44,11.98,3.01,17.98,5.44-6.56,1.44-13.12,2.89-19.68,4.33-.32,.07-.7,.04-.97,.2-6.13,3.64-2.88,10.22-4.57,15.28-1.02,3.03,2.89,1.91,4.36,2.19,9.14,1.78,18.35,3.17,28.12,4.79-3.93,2.39-7.97,3.01-11.73,4.29-6.76,2.29-13.51,4.72-20.44,6.37-4.14,.99-5.06,3.56-5.72,6.94-.68,3.45,2.45,3.57,4.18,4.65,7.48,4.64,15.08,9.08,22.64,13.59-.81,2.63-2.68,1.18-4.19,1.09Z"/>
      <path class="cls-32" d="M635.02,.09c-2.21,1.85-4.78,.73-7.2,.89,.06-.3,.13-.59,.2-.89h7Z"/>
      <path class="cls-16" d="M1296.72,518.16c1.3-.76,3.09,.41,4.19-1.09,.82,.38,1.65,.76,3.65,1.68-3.48,.4-5.68,.4-7.84-.59Z"/>
      <path class="cls-7" d="M520.03,321.04c9.91-22.82,21.94-44.68,38.38-63.2,13.35-15.05,19.26-32.33,23.68-51.03,5.93-25.11,8.99-50.71,13.85-76,4.24-22.02,9.19-43.94,11.56-66.28,.87-8.26,1.02-16.6,3.47-24.64,1.17-3.84,2.63-7.53,4.91-10.84,4.93-7.18,11.77-10,20.32-8.5,7.82,1.37,14.79,4.91,21.47,9,29.18,17.84,55.65,39.34,82.1,60.85,6.2,5.04,12.24,10.26,18.38,15.37,1.23,1.02,2.26,2.6,4.28,1.91,3.39,.39,2.59,2.9,2.36,4.93-.62,5.47-1.98,10.81-3.3,16.14-6.46,26.09-9.24,52.77-12.82,79.31-1.28,9.49,1.57,18.44,6.86,26.55,5.43,8.32,12.75,12.36,22.8,10.74,1.59,.58,2.17,2.01,2.68,3.4,4.83,13.18,13.84,23.49,23.54,33.09,15.3,15.16,32.5,27.97,50.93,39.14,20.02,12.13,41.26,21.58,63.46,28.88,13.12,4.32,26.13,8.96,39.19,13.44,1.86,.64,3.92,.98,5.12,2.84,.11,2.3-1.69,3.51-2.91,5.03-7.62,9.56-12.47,20.36-11.75,32.65,.77,13.24,6.21,24.61,16.2,33.82,10.56,9.73,26.45,13.01,39.47,7.22,15.08-6.69,24.1-18.45,27.89-34.32,1.04-4.36,1.72-8.83,1.55-13.36,.31-4.19,2.91-3.89,5.65-2.68,5.18,2.29,10.4,4.53,15.41,7.12,16.42,8.51,32.78,17.17,46.89,29.36,15.58,13.46,29.26,28.22,33.91,49.29,2.05,9.29,3.33,18.68,4.67,28.07,2.8,19.58,11.33,35.69,27.82,47.17,2.19,1.53,4.49,2.86,6.84,4.12,1.58,.84,3.44,1.5,3.57,3.77-2.31,5.71-6.89,9.73-10.78,14.23-15.19,17.57-34.28,29.89-54.72,40.39-50.75,26.08-104.55,42.36-161,50-20.62,2.79-41.35,4.28-62.19,4.43-12.31,.09-24.63,.26-36.92-.16-46.78-1.61-92.87-7.82-137.59-22.25-17.77-5.73-33.63-15.29-49.29-25.13-26.81-16.83-51.08-36.84-72.5-60.12-26.78-29.1-47.73-61.9-61.27-99.26-8.05-22.22-13.14-45.07-15.34-68.55-2.09-22.27-1.78-44.55,.99-66.75,.39-3.09,1.12-6.18,2.17-9.16Z"/>
      <path class="cls-10" d="M1177.94,562.99c-5.72-3.64-11.72-6.8-16.91-11.32-13.24-11.54-19.57-26.46-22.09-43.42-2.02-13.59-3.34-27.32-8.8-40.18-3.09-7.27-7.2-13.86-12.42-19.72-14.78-16.59-32.53-29.25-52.11-39.61-8.68-4.59-17.56-8.72-26.4-12.97-1.6-.77-4.03-2.92-4.48,1.23-2.58-.77-1.93-3.17-2.37-4.93-3.82-15.37-11.83-27.5-27.07-33.39-11.86-4.58-23.44-3.16-34.34,3.56-2.48,1.53-4.54,4.01-7.85,3.89-31.72-11.26-64.45-19.89-94.26-36.14-22.1-12.05-42.81-26.02-61.07-43.49-10.35-9.91-20.33-20.06-26.26-33.41-1-2.26-1.7-4.66-2.54-6.99-.29-2.23,1.6-2.77,2.95-3.49,4.69-2.49,6.78-6.42,7.59-11.57,5.39-33.96,13.77-67.17,25.11-99.63,3.4-9.74,7.05-19.4,10.94-28.97,.9-2.21,1.89-4.28,4.32-5.19,7.02-.46,14.04-.92,21.05-1.38,6.37-.55,7.14,.37,4.5,6.57-11.47,26.94-19.9,54.8-25.29,83.56-3.31,17.68-6.34,35.42-5.83,53.54,.19,6.63,1.71,12.86,4.81,18.7,4.25,8,9.9,9.35,17.14,4.09,6.34-4.6,10.76-10.93,14.64-17.52,5.01-8.52,8.13-17.76,10.06-27.55,6.28-31.88,12.91-63.72,24.46-94.22,3-7.92,6.5-15.7,10.98-22.96,.98-1.58,1.92-3.11,3.56-4.07,10.78-.29,21.42,1.33,32.11,2.31,4.38,1.53,1.84,4.41,.89,6.4-3.99,8.26-7.52,16.71-10.96,25.2-14.92,36.89-25.98,74.89-32.47,114.17-1.92,11.63,.99,21.39,11.55,28.11,12.17,7.74,32.39,2.51,36.74-14.63,12.52-49.32,28.9-97.4,48.3-144.44,.75-1.82,1.16-3.86,2.93-5.11,11.79,3.72,21.98-1.59,32.28-5.89,18.66-7.79,34.91-19.1,48.98-33.65,12.36-12.78,25.89-23.91,43.09-29.75,5.21-1.77,10.52-3.03,15.85-4.3,2.61-.62,3.78,.14,4.95,2.51,14.31,28.91,24.74,59.08,29.78,91,5.15,32.64,8.13,65.67,17.94,97.46,.83,2.7,1.62,5.41,2.35,8.13,3.09,11.65,7.5,22.54,15.68,31.78,4.04,4.56,7.46,9.76,10.16,15.32,9.58,20.88,13.12,43.26,16.06,65.74,1.27,9.72,2.02,19.52,2.17,29.36,.51,33.08-4.14,65.4-13.63,97.07-9.4,31.4-23.39,60.54-42.67,87.1-.78,1.08-1.49,2.22-2.56,3.05-.51,.36-1.04,.37-1.57,.04Z"/>
      <path class="cls-2" d="M933.23,892.16c3.01,15.34,4.37,30.89,5.72,46.44,1.65,18.95,1.49,37.95,1.02,56.92-.95,38.54-6.69,76.44-16.11,113.79-.3,1.21-.38,2.65-2.28,3.3-.87-8.29-1.58-16.47-2.61-24.61-4.4-34.54-10.31-68.76-25.05-100.7-15.91-34.47-42.6-54.94-80.55-59-22.91-2.45-44.09,4.63-63.96,15.7-25.29,14.09-43.14,35.71-59.41,58.92-17.54,25.02-32.25,51.67-45.35,79.21-1.94,4.09-4.51,5.52-8.79,5.65-12.48,.37-24.97,.34-37.46,.87-21.13,.89-42.3,.68-63.44,1.4-41.47,1.42-82.95,.99-124.42,1.3-45.64,.35-91.29-.27-136.94-.74-28.14-.29-56.29-.95-84.42-1.71-32.79-.89-65.57-2.02-98.35-3.14-14.8-.51-29.6-1.35-44.4-1.82-3.42-.11-5.44-1.23-7.01-4.33-7.11-13.98-13.84-28.08-15.76-43.89-1.73-14.26-.88-28.24,5.48-41.45,.61-1.26,.79-3.27,2.67-3.17,1.56,.08,1.61,1.93,2.16,3.06,3.3,6.82,7.74,12.8,13.19,18.05,7.06,6.8,16.43,7.71,25.28,9.57,21.63,4.53,43.29,4.05,64.85-.82,3.83-.87,7.22-2.4,9.9-5.39,7.33-8.19,15.91-15.59,21.67-24.76,4.41-7.02,9.37-7.19,15.86-6.93,40.28,1.62,80.58,2.45,120.89,1.87,18.48-.27,36.95-.95,55.42-1.64,2.79-.1,4.23,.99,5.64,3.09,7.46,11.09,16.2,21.1,25.69,30.52,5.39,5.35,11.48,7.63,18.93,6.97,17.94-1.59,35.96-.18,53.92-1.67,9.61-.8,19.29-.76,28.93-1.18,5.87-.25,10.37-2.75,13.64-7.87,8.52-13.36,16.2-27.15,21.78-42.02,.92-2.46,2.57-4.23,4.28-6.04,25.68-27.07,54.26-50.65,85.41-71.16,2.22-1.46,4.42-2.96,6.63-4.44,4.42-1,8.9-1.13,13.4-.95,28.14,1.09,56.16-3.51,84.29-1.96,25.12,1.38,50.28,.08,75.37,1.2,20.98,.93,41.96-.12,62.89,.88,21.8,1.04,43.59,.71,65.39,.91,2.17,.02,4.37,.02,6.04,1.78Z"/>
      <path class="cls-2" d="M1228.88,896.76c2.49,11.39,3.12,23.02,3.99,34.58,2.08,27.41,1.6,54.83-1.02,82.18-1.39,14.54-3.26,29.04-6.26,43.36-1.93,1.74-4.32,1.5-6.64,1.53-36.46,.46-72.9-.98-109.35-1.33-18.29-.18-36.6-.41-54.9-.61-15.48-.17-30.91-1.32-46.41-1.22-11.61,.08-22.52-9.66-26.54-22.37-.9-2.84-1.49-5.75-1.79-8.71,1.47,12.49,.19,24.94-.74,37.35-1.68,22.36-6.01,44.21-14.44,65.09-6.49,16.09-13.98,31.68-24.27,45.78-1.28,1.76-2.55,3.51-4.57,4.51-2.33,.07-4.68,.39-6.97,.13-2.04-.23-5.36,1.58-5.83-1.71-.44-3.1-1.69-6.93,2.77-9.08,2.93-1.42,4.23-4.5,5.29-7.58,11.59-33.71,19.86-68.2,24.92-103.5,3.92-27.37,5.91-54.88,5.58-82.49-.31-26.1-2.17-52.13-6.49-77.92-.11-.64-.02-1.32-.02-1.98,1.81-1.56,4.04-1.33,6.18-1.38,31.26-.67,62.49,1.6,93.75,1.02,1.33-.02,2.66,.11,3.94,.52,2.05,.72,3.1,2.44,4.03,4.22,6.46,12.31,17.07,18.2,30.52,18.24,16.32,.04,32.62,.92,48.91,1.43,14.29,.45,28.6,.53,42.9,1.22,12.44,.6,21.42-6.07,27.64-16.6,1.16-1.97,1.66-4.44,4.12-5.43,3.96-.59,7.92-1.36,11.7,.76Z"/>
      <path class="cls-2" d="M586.81,891.13c-24.15,18.11-47.11,37.59-67.8,59.63-3.5,3.73-8.19,2.51-12.24,2.88-22.86,2.09-45.76,3.73-68.65,5.44-73.82,5.5-147.76,5.98-221.72,4.6-29.78-.55-59.56-2.26-89.31-3.94-22.75-1.28-45.46-3.36-68.19-5.07-4.64-.35-5.28-1.61-3.28-6.14,11.17-25.25,28.76-44.76,53.01-57.87,28.11-15.2,56.3-30.32,85.7-42.94,26.43-11.35,54.21-18.02,82.5-22.79,7.58-1.28,15.22-1.67,22.87-1.87,31.64-.82,63.27-1.48,94.91-2.3,36.96-.95,73.92-2,110.88-3.02,35.96-.99,71.92-1.97,107.88-2.98,33.96-.95,67.92-1.94,101.88-2.86,1.77-.05,3.62-.47,6.8,1.08-12.92,6.34-24.95,12.23-36.98,18.13-8.29,.86-16.61,.3-24.9,.33-50.65,.19-101.31-.76-151.93,.32-56.3,1.21-112.6-.18-168.88,.99-17.81,.37-35.62,.51-53.43,.79-3.03,.05-5.94,.63-8.82,1.55-30.69,9.79-60.46,21.84-89.34,36.11-6.87,3.39-10.21,9.86-14.33,15.63-1.91,2.67,.38,3.91,2.75,4.32,5.92,1.03,11.89,1.77,17.9,.94,4.31-.59,8.62-.71,12.96-.71,26.82,.01,53.65,.1,80.47-.01,79.45-.32,158.9-1.17,238.36-1.24,17.78-.01,35.62-.52,53.43-.7,2.58-.03,5.41-.59,7.52,1.69Z"/>
      <path class="cls-34" d="M935.94,1176.9c7.9-11.54,15.18-23.42,21.15-36.11,9.68-20.6,16.16-42.07,19-64.69,2.09-16.67,3.1-33.38,2.98-50.18-.02-2.07-.58-4.36,1.55-6.21,1.18,10.39,3.6,20.05,11.76,27.26,4.92,4.34,10.36,6.94,17.08,7.01,30.46,.34,60.93,.57,91.37,1.29,21.97,.52,43.96-.29,65.88,.88,19.64,1.05,39.26,.5,58.89,.72-6.92,38.28-18.69,75.04-34.46,110.56-.4,.91-1.1,1.84-1.09,2.76,.03,7.22-4.66,6.94-9.95,6.93-79.55-.11-159.11-.08-238.66-.08-1.83,0-3.66-.1-5.48-.15Z"/>
      <path class="cls-19" d="M1177.94,562.99c.33-.01,.66-.03,.99-.05,1.9-.72,3.57,.2,5.24,.81,9.55,3.47,19.31,5.47,29.54,4.86,2.23-.13,4.67-.46,6.51,1.47-9.72,13.9-21.9,25.51-34.7,36.43-48.29,41.2-103.47,67.36-166.4,77.72-63.08,10.38-126.42,14-190.18,10.55-39.27-2.13-78.43-5.88-116.5-16.3-44.21-12.1-82.7-35.18-118.11-63.76-18.2-14.69-34.52-31.32-49.97-48.87-13.57-15.41-21.64-33.83-29.21-52.46-14.3-35.2-20.87-71.79-18.09-109.83,2.12-29.03,10.01-56.49,22.96-82.52-.94,9.71-2.3,19.4-2.72,29.14-.5,11.47-.87,23.03-.06,34.46,1.03,14.49,2.63,28.96,5.65,43.27,6.34,30.04,17.46,58.14,33.05,84.52,16.03,27.12,36.15,50.96,59.32,72.13,20.88,19.08,43.93,35.28,68.48,49.47,26.97,15.59,56.5,22.58,86.65,28.09,22.51,4.11,45.15,6.59,67.99,8.07,22.57,1.46,45.15,1.44,67.66,.55,35.79-1.42,71.18-6.65,105.89-15.78,26.21-6.9,51.78-15.7,76.59-26.7,17.22-7.63,33.83-16.35,49.71-26.44,12.33-7.84,22.39-18.23,31.89-29.18,2.71-3.13,5.22-6.43,7.83-9.66Z"/>
      <path class="cls-42" d="M54.33,1105.67c36.03,1.16,71.77,2.19,107.5,3.5,24.62,.9,49.25,1.23,73.87,1.97,26.14,.79,52.29,.31,78.42,1.03,45.63,1.26,91.27,.78,136.9,.41,25.97-.21,51.95-.43,77.93-.9,27.79-.5,55.58-1.26,83.37-1.96,5.15-.13,10.3-.45,15.45-.81,2.99-.21,3.45,.85,2.29,3.42-5.97,13.25-9.27,27.39-13.71,41.15-2.48,7.68-6.3,14.6-11.03,21.15-2.43,3.36-5.1,4.52-9.17,4.52-120.78-.1-241.55-.08-362.33-.08-37.81,0-75.62-.02-113.44,.04-3.29,0-5.96-.7-8.71-2.76-21.42-16.05-37.97-36.23-51.07-59.39-2.1-3.7-4.83-7.08-6.26-11.3Z"/>
      <path class="cls-17" d="M586.81,891.13c-38.81,.23-77.61,.48-116.42,.68-33.82,.18-67.63,.29-101.45,.47-55.47,.31-110.93,.63-166.4,1-8.65,.06-17.3,.92-25.94-.25-2.27-.31-4.71-.17-5.98-2.77-1.33-2.7,1.12-3.8,2.11-5.58,5.83-10.46,15.38-15.91,25.94-20.64,25.38-11.37,51.05-21.91,77.56-30.35,3.7-1.18,7.36-1.83,11.24-1.85,66.63-.35,133.25-.76,199.88-1.15,59.3-.35,118.6-.69,177.89-1.08,6.66-.04,13.31-.41,19.81,1.49-12.61,7.06-25.25,14.05-37.81,21.2-20.83,11.87-40.74,25.18-60.44,38.82Z"/>
      <path class="cls-2" d="M1247.77,1054.95c2.91-19.23,5.6-38.48,6.64-57.92,1.11-20.78,1.27-41.58-.1-62.35-.83-12.59-2.21-25.15-3.34-37.72,2.05-1.98,4.67-1.39,7.11-1.54,10.84-.66,21.61,1.03,32.44,1,12.83-.03,25.68-.45,38.49,.09,26.64,1.12,53.32,.04,79.92,1.15,24.66,1.03,49.3,.6,73.94,.64,20.72,.03,34.33-20.36,26.46-39.18-3.83-9.16-10.84-15.07-20.7-17.14-4.56-.96-9.2-1.52-13.89-1.45-36.81,.49-73.61-.89-110.42-1.31-22.31-.25-44.65,.28-66.93-.86-17.49-.9-34.96-.52-52.44-.83-2.17-.04-4.36-.02-6.13-1.61-1.81-6.03-3.56-12.07-5.44-18.08-1.15-3.68,1.51-2.91,3.31-2.86,12.98,.38,25.97,.79,38.95,1.27,12.14,.46,24.28,1.12,36.42,1.51,36.12,1.18,72.24,2.21,108.35,3.41,21.63,.72,43.31,.95,64.87,2.66,27.16,2.16,50.75,24.37,55.55,51.1,4.38,24.39,2.7,48.79-1.08,73.05-4.9,31.42-14.97,61.02-32.71,87.71-.74,1.11-1.52,2.18-2.29,3.27-5.75,2.09-11.31,.83-16.84-.95-3.1-14.98-6.28-29.93-11.87-44.25-9.57-24.51-22.18-47.04-42.87-64-16.01-13.12-34.39-21.26-55.29-21.42-22.12-.16-41.74,7.45-58.3,22.37-22.56,20.33-36.11,46.17-45.7,74.49-5.46,16.13-8.27,32.87-11.94,49.41-.25,1.12-.66,2.21-1,3.31-3.46,2.44-7.28,1.7-11.01,1.12-2.26-.35-2.9-1.96-2.16-4.09Z"/>
      <path class="cls-7" d="M878.64,763.89c8.05-15.27,16.17-30.51,24.09-45.84,1.2-2.33,2.91-2.32,4.91-2.41,17.96-.81,35.9-1.77,53.78-3.65,46.04-4.85,91.6-12.08,135.28-28.14,11.84-4.35,23.19-9.94,34.22-16.08,3.64-2.03,7.23-2.8,11.33-2.85,14.5-.18,28.95-.26,42.78,5.07,7.14,2.75,14.1,5.8,19.98,10.86,.4,1.15-.25,2.01-1.01,2.59-5.15,3.92-5.02,9.33-4.42,14.96,2.11,19.71-7.32,43.04-27.6,52.71-16.32,7.78-33.51,11.77-51.24,14.11-11.87,1.57-23.83,2.14-35.74,3.31-2.27,.22-4.39,.4-4.97-2.56-10.88-22.62-27.48-32.14-52.39-30.7-15.77,.91-31.58,1.21-47.38,1.65-15.63,.44-31.27,.76-46.9,1.08-5.63,.11-9.71,2.68-12.96,7.18-5.45,7.55-9.86,15.71-14.29,23.86-7.94-3.7-16.4-3.91-24.92-3.86-.99,0-1.92-.44-2.56-1.29Z"/>
      <path class="cls-17" d="M1238.82,835.91c61.3,.79,122.6,1.42,183.9,2.47,18.49,.31,36.98,.54,55.46,.82,9.35,.14,18.26,1.79,25.35,8.65,9.47,9.17,12.16,20.2,7.74,32.45-4.38,12.14-13.73,18.66-26.45,19.67-7.61,.61-15.32,.16-22.98,.07-36.32-.42-72.63-.82-108.95-1.35-33.98-.49-67.95-1.14-101.93-1.72-2.76-14.18-4.59-28.53-7.98-42.6-1.48-6.13-2.78-12.3-4.17-18.45Z"/>
      <path class="cls-11" d="M1276.88,1088.84c1.13-10.59,4.11-20.81,6.1-31.23,4.32-22.55,9.14-44.96,18.84-66.01,7.68-16.65,17.31-31.9,30.99-44.27,25.24-22.8,59.06-23.66,85.66-2.32,18.12,14.54,29.03,34.03,37.32,55.19,9,22.99,12.62,47.09,14.42,71.59,2.2,30.08,.51,59.86-6.34,89.24-4.33,18.57-10.56,36.44-22.25,51.9-4.44,5.87-9.89,10.78-15.17,15.86-3.84,3.69-8.66,3.94-13.39,4.6-19.28,2.68-38.58,5.16-58.12,4.47-9.97-2.48-17.09-9.47-24.21-16.1-6.18-5.76-12.5-11.38-18.23-17.69-13.57-14.96-22.13-32.25-26.16-51.92-3.37-16.45-7.54-32.74-9.2-49.53-.46-4.63-.3-9.19-.25-13.79Z"/>
      <path class="cls-17" d="M933.23,892.16c-73.57-1.06-147.14-2.03-220.71-3.23-26.96-.44-53.79,3.27-80.76,1.9-1.98-.1-4,.38-5.91-.51,35.92-23.44,73.74-43.41,112.62-61.43,1.03-.48,2.18-.71,3.27-1.06,2.9-.85,5.8-1.11,8.84-.7,3.79,.51,7.63,.31,11.44,.22,30.21-.71,60.38,1.26,90.59,1.06,2.27-.02,4.72-.29,6.47,1.77-1.07,1.03-1.99,2.3-3.23,3.06-9.56,5.92-11.2,14.62-8.97,24.79,2.97,13.55,10.97,22.83,23.6,28.36,5.67,2.48,10.88,2,16.13-1.27,12.3-7.65,24.74-15.07,37.05-22.71,2.66-1.65,3.78-1.81,4.46,1.79,1.77,9.31,4.05,18.52,5.1,27.97Z"/>
      <path class="cls-11" d="M1328.12,644.88c20.26-.21,40.81,18.65,43.02,38.78,1.09,9.91-1.84,19.09-3.37,28.55-4.4,27.1-10.45,53.81-18.16,80.16-1.11,3.8-2.53,5.15-6.8,4.96-24.27-1.06-48.55-1.7-72.83-2.49-2.18-2.65-1.34-5.67-1.01-8.6,2.03-17.71,6.16-35.03,10.44-52.26,3.49-14.06,5.02-28.47,8.67-42.47,3.39-12.99,9.01-24.87,16.16-36.24,5.82-9.27,13.41-12.69,23.88-10.39Z"/>
      <path class="cls-11" d="M689.91,1042.78c9.45-17.28,20.79-33.28,33.24-48.5,14.15-17.29,30.91-31.16,52.12-39.07,7.99-2.98,16.17-5.02,24.68-5.82,2.18-.21,3.89,.4,5.59,1.54,38.92,26.18,64.62,60.59,69.68,108.7,4.21,39.96,1.4,79.09-11.49,117.21-7.57,22.38-20.93,41.1-38.6,56.76-1.67,1.48-3.31,2.51-5.72,2.5-22.14-.11-44.28-.23-66.41-1.28-12.78-6.92-22.85-17.01-32.68-27.48-14.97-15.95-21.84-35.77-28.22-56.07-7.53-23.95-8.7-48.27-6.71-73.04,.7-8.77,.48-17.61,2.05-26.33,.56-3.13,1.34-6.16,2.47-9.12Z"/>
      <path class="cls-18" d="M999.07,108.02c-2.66,9.81-7.19,18.9-10.83,28.34-15.32,39.71-28.41,80.14-39.18,121.32-3.43,13.11-13.57,20.3-27.95,19.38-11.79-.75-22.26-11.14-23.16-23.5-.9-12.42,2.88-24.26,5.49-36.18,8.61-39.41,21.44-77.43,38.74-113.92,.78-1.65,2.31-3.47-.08-5.13,19.15,2.3,38.29,4.64,56.97,9.69Z"/>
      <path class="cls-2" d="M915.95,807.94c.81-8.76,4.19-16.8,7.5-24.76,2.89-6.95,6.39-13.67,10.55-20.02,1.57-2.39,3.21-3.56,5.96-3.26,2.35-.82,4.78-.2,7.16-.4,6.62-.25,13.27,.53,19.87-.44,.63-.07,1.25-.14,1.88-.21,3.12-.77,6.3-.16,9.45-.35,2.2-.19,4.45,.42,6.61-.39,6.95-.07,13.89-.15,20.84-.22,3.4-.68,6.81-.55,10.23-.08,1.17,.56,1.95-.63,2.99-.66,7,1.09,14.09-.44,21.08,.8,8.49,.78,13.6,6.42,18.21,12.73,1.19,1.63,.56,3.51,.6,5.3-1.1,1.95,.17,4.22-.84,6.17-.06,2.56-.12,5.12-.18,7.68-1,1.67,.12,3.67-.84,5.35-.07,2.25-.14,4.51-.2,6.76-1,2,.25,4.31-.86,6.3-.05,2.25-.1,4.51-.15,6.76-1.02,1.91,.29,4.16-.87,6.05-.42,6.46-4.53,9.82-10.07,11.98-1.69,.75-3.42,.43-5.15,.22-5.04-.62-10.1-.13-15.15-.29-6.88,0-13.76,0-20.64,0-7.29,0-14.58,0-21.87,0-14.86,.04-29.72,.12-44.55-.85-2.05-.46-2.48-2.38-3.5-3.83-5.27-7.45-9.63-15.74-18.1-20.35Z"/>
      <path class="cls-18" d="M909.99,96.02c-18.78,31.93-25.85,67.72-34.05,103.15-2.84,12.25-3.79,24.95-8.98,36.65-4.71,10.61-10.6,20.35-19.84,27.64-7.73,6.1-14.32,4.42-19.17-4.32-6.17-11.12-5.81-23.21-4.71-35.07,2.06-22.13,5.97-44,11.69-65.53,5.17-19.46,11.37-38.58,19.55-56.98,2.12-4.76,.78-5.72-3.52-5.68,6.39-1.34,12.87-.78,19.3-.78,13.25-.01,26.52-.8,39.73,.92Z"/>
      <path class="cls-20" d="M1220.22,570.09c-14.28,.61-28.26-.49-41.28-7.14,4.99-7.8,10.18-15.48,14.95-23.41,13.59-22.61,23.85-46.67,31.04-72.06,4.48-15.8,7.91-31.85,9.77-48.11,2.16-18.93,2.96-37.93,1.49-57.1-1.51-19.73-4.52-39.1-9.3-58.24-1.96-7.86-4.48-15.59-6.75-23.38,12.79,19.02,22.31,39.65,29.09,61.45,18.87,60.65,19.32,121.09-3.35,180.97-6.36,16.8-14.44,32.81-25.67,47.02Z"/>
      <path class="cls-17" d="M1228.88,896.76l-11.97-.09c-1.36-1.4-.89-3.09-.74-4.73,1.77-19.69-12.53-35.57-32.36-35.49-17.48,.07-34.95-.75-52.39-1.4-13.79-.52-27.6-.22-41.4-1.14-16.68-1.11-32.02,16.3-29.97,32.91,.29,2.38,1.53,4.87-.21,7.22-34.89-.43-69.78-.86-104.67-1.28-2.24-11.42-4.39-22.86-6.8-34.25-.59-2.79,.51-3.12,2.72-3.13,27.48-.15,54.98-1.07,82.43-.24,18.46,.56,32.1-5.29,40.58-21.96,2.35-2.15,5.28-2,8.06-1.73,18.95,1.83,37.96,.2,56.91,.99,23.46,.99,46.93,.86,70.4,.95,2.32,0,4.72-.11,6.53,1.8,5.19,15.25,7.94,31.07,10.88,46.84,.91,4.87,2.01,9.74,1.99,14.74Z"/>
      <path class="cls-21" d="M615.02,671.1c8.29-.09,16.57-.23,24.86-.23,1.26,0,2.64,.4,3.76,1,15.04,8.04,30.6,14.9,46.55,20.93-.54,2.06-2.49,2.49-3.99,3.43-7.98,5-16.45,9.23-23.98,14.95-1.01,.37-1.97,.08-2.92-.26-5.93-3.03-12.1-5.5-18.25-8.06-2.91-1.21-5.13-2.88-5.42-6.44-.28-3.49-2.88-5.46-5.53-7.29-5.39-1.63-10.89-1.24-16.24-.23-4.71,.89-6.82,4.93-8.6,8.99-6.65,15.14-14.75,29.41-25.4,42.15-12.02,14.37-26.64,24.71-45.44,27.57-15.65,2.37-30.07-1.07-42.11-12.05-1.74-1.59-3.17-3.45-3.8-5.76-1.44-5.27-4.85-8.57-10-10.19-1.77-1.37-1.8-3.25-1.53-5.22,.12-.52,.33-1.01,.63-1.46,12.93-6.87,26.43-12.58,39.69-18.76,20.37-9.49,40.82-18.84,61.39-27.89,12.01-5.29,23.63-11.55,36.34-15.18Z"/>
      <path class="cls-43" d="M689.91,1042.78c-.67,5.9-1.37,11.79-2.01,17.69-1.98,18.33-2.5,36.74-1.71,55.13,.51,11.9,3.75,23.47,7.16,34.89,3.99,13.34,8.22,26.57,15.26,38.74,7.34,12.68,17.57,22.78,28.2,32.57,5.1,4.69,11.4,7.92,16.18,13.02-18.32,.26-36.63,.33-54.93-.7-2.13-.12-3.8-1.05-5.46-2.2-24.96-17.28-40.36-41.02-47.56-70.3-.99-4.02-1.28-8.28-3.98-11.69-1.42-1.8-.44-3.54,.03-5.22,2.96-10.6,6.49-21.02,11.42-30.86,11.27-22.47,21.81-45.33,34.55-67.04,.83-1.42,1.33-3.08,2.83-4.04Z"/>
      <path class="cls-43" d="M1328.12,644.88c-1.33,.06-2.71,.38-3.97,.13-8.22-1.65-12.96,3.2-17.22,9.02-12.06,16.47-18.06,35.24-21,55.18-2.17,14.74-6.44,29.04-9.42,43.61-2.85,13.91-6.47,27.7-6.52,42.04-14.1-.44-28.2-.88-43.86-1.36,4.65-4.8,8.71-8.09,12.04-12.06,12.19-14.53,19.09-31.3,17.38-50.13-3.15-34.57-20.85-60.06-51.57-76.34-10.47-5.55-21.78-8.66-33.83-10.52,1.6-2.68,3.79-2.5,5.88-2.51,9.66-.03,19.37,.55,28.98-.19,17.83-1.37,35.59,0,53.37,.36,21.8,.45,43.59,1.34,65.38,2.05,1.48,.05,3.02-.2,4.36,.73Z"/>
      <path class="cls-18" d="M829.9,97.27c-4.7,7.55-7.04,16.09-10.17,24.29-12.39,32.51-20.98,66.08-27.45,100.22-.56,2.93-1.15,5.89-1.28,8.85-.28,6.73-3.65,11.11-9.61,13.82-.88,.4-1.61,1.11-2.42,1.67-15.71,2.26-27.74-7.89-31.04-25.62-1.69-9.09-.23-17.9,1.1-26.76,2.85-18.9,4.97-37.91,8.94-56.63,1.79-8.45,3.78-16.86,5.63-25.3,.34-1.53,1.2-3.34-1.19-4.13,22.26-5.01,44.78-8.32,67.49-10.4Z"/>
      <path class="cls-19" d="M1080.05,765.98c3.14,3.25,6.93,.91,10.22,.75,9.74-.48,19.45-1.61,29.14-2.78,19.2-2.32,38.04-6.16,55.12-15.81,14.27-8.06,20.98-21.09,23.45-36.79,.72-4.61,1.09-9.07,.11-13.78-1.44-6.89,.59-12.81,6.94-16.7,7.16,3.93,12.3,10.03,16.69,16.63,10.7,16.05,16.2,33.25,10.17,52.59-.14,.44-.5,.82-.76,1.22-5.47,9.51-12.15,18.09-19.92,25.82-6.3,5.42-13.86,8.23-21.59,10.93-8.77,3.07-17.56,3.71-26.81,3.27-26.12-1.24-52.26-1.89-78.4-2.61-3.9-.11-5.55-.77-4.9-5.32,.82-5.73,1.14-11.6,.52-17.43Z"/>
      <path class="cls-43" d="M1276.88,1088.84c1.81,7.41,1.79,15.05,2.77,22.57,1.75,13.48,5.36,26.53,7.91,39.82,3.87,20.17,12.49,37.88,26.86,52.78,12.31,12.75,24.79,25.23,40.51,33.86-28.34,1.16-56.4-1.51-84.29-6.31-1.96-.34-3.7-1.19-5.32-2.52-10.61-8.72-19.57-18.94-27.63-29.99-1.01-1.38-2.46-2.67-.2-4.58,19.3-16.28,27.52-37.85,30.71-62.31,1.9-14.56,4.84-29.07,8.68-43.31Z"/>
      <path class="cls-21" d="M775.14,710.17c21.45,2.39,42.94,4.34,65.55,5.09-9.2,16-18.02,31.35-26.85,46.7-2.85,1.5-5.46-.57-8.25-.54-9.48,.11-19-.43-28.45,.16-17.26,1.08-34.5,2.45-51.46,6.23-13.65,3.04-27.37,5.75-40.25,11.46-1.07,.47-2.2,.77-3.38,.77-5.09-.63-7.49-4.01-8.72-8.58-.04-.51,.03-1.02,.21-1.51,6.86-5.56,14.84-9.33,22.41-13.75,24.83-14.5,49.83-28.7,74.94-42.69,1.57-.88,3.31-1.62,4.25-3.34Z"/>
      <path class="cls-42" d="M898.93,1100.03c2.46,25.2,3.55,50.46,2.89,75.78-.03,1.33-.01,2.67-.15,3.99-1.23,11.89,4.6,18.67,16.71,18.91,10.33,.21,20.66,.15,30.99-.02,3-.05,4.76,.93,6.49,3.44,21.77,31.47,67.51,31.68,88.97,.23,3.49-5.11,7.79-3.13,11.94-3.54,1.53-.15,3.75-.92,4.59,.69,.82,1.59-1.11,2.95-2,4.25-7.58,11.07-16.63,20.76-27.33,28.91-2.11,1.61-4.17,2.42-6.83,2.39-37.98-.5-75.96-1.36-113.94-1.16-15.57,.08-24.49-9.03-33.51-19.29-3.97-4.52-4.38-8.24-1.39-13.88,10.49-19.78,15.14-41.45,18.56-63.39,1.92-12.33,3.28-24.73,3.17-37.25,.22-.68,.5-.71,.84-.07Z"/>
      <path class="cls-2" d="M500.84,654.71c-3.89,.71-7.65-1.29-11.27-1.12-19.34,.9-38.01,3.42-51.2,20.5-18.83,24.38-39.41,47.33-59.11,71-14.69,17.66-29.63,35.12-44.35,52.76-1.86,2.23-3.72,3.34-6.72,3.27-7.97-.2-15.95-.07-24.36-.07,4.5-5.22,9.17-10.67,13.88-16.08,35.3-40.57,70.7-81.05,105.85-121.75,9.93-11.49,20.41-21.86,35.34-26.66,4.64-1.49,9.14-2.71,14.1-2.52,8.65,.34,17.31,.26,25.96,.36,.5,6.78,.85,13.58,1.87,20.31Z"/>
      <path class="cls-37" d="M674.18,769.9c-.07,.35-.14,.69-.21,1.04-5.36,4.54-11.52,7.74-17.87,10.65-.49-.03-.96-.17-1.38-.42-2.2-2.54-2.48-5.78-2.94-8.86-.59-3.98-2.44-6.53-6.17-8.29-5.57-2.62-11.23-5-16.93-7.31-3.5-1.42-5.59-.49-7.38,2.63-7.89,13.77-19.7,23.64-32.58,32.42-1.41,.96-2.96,1.46-4.49,2.06-20.73,.68-41.46,1.37-62.2,2.05,1.92-5.22,7.06-6.28,11.17-8.68,1.2-.38,2.45-.47,3.7-.5,11.31,.76,21.35-3.26,30.57-9.07,8.83-5.57,17.43-11.57,24.84-19.11,3.78-3.85,6.6-8.32,9.65-12.66,1.19-1.45,1.78-3.39,3.56-4.36,7.73-4.02,14.95-8.89,22.51-13.19,1.88-1.07,3.53-3.14,6.17-2.23-2.13,7.4,3,9.15,8.35,10.84,2.69,.85,5.21,2.16,7.81,3.25,1.99,.83,4.07,1.85,5.46-1.07,1.21-2.56,1.37-4.76-1.34-6.45-6.29-3.93-12.41-8.34-20.52-6.69-1.12-2.13-.18-3.95,1.78-4.14,6.49-.65,10.86-5.31,16.26-7.99,2.63-1.31,4.92-3.35,7.97-3.77,.67,.2,1.33,.4,2,.6,1.04-.31,1.94,.13,2.83,.58q5.85,2.95,10.62-1.8c5.63-5.57,10.95-11.48,17.36-16.22,9.25,3.22,18.83,5.22,28.3,7.63-.6,1.51-1.98,2.21-3.2,3.05-9.46,6.6-18.17,14.05-26.03,22.52-11.02,11.87-18.67,25.1-17.23,42.07,.04,.49-.22,.97-.44,1.42Z"/>
      <path class="cls-42" d="M151.93,1200.76c15.91,0,30.73,0,45.54,0,11.66,0,23.33,.1,34.99-.06,3.31-.04,5.25,.85,7.19,3.84,10.07,15.53,24.84,23.84,43.11,23.92,17.87,.07,32.56-7.86,42.6-22.93,2.5-3.75,4.9-5.3,9.16-4.83,2.58,.28,5.21,.05,8.52,.05-3.75,7.37-8.34,13.24-13.27,18.77q-17.45,19.58-43.7,19.46c-24.33-.07-48.65-.16-72.98-.32-6.82-.05-13.64-.35-20.46-.63-1.29-.05-2.72-.26-3.83-.86-15.43-8.38-27.29-20.39-36.86-36.42Z"/>
      <path class="cls-7" d="M615.02,671.1c-9.42,5.29-19.61,8.91-29.38,13.44-20.33,9.43-40.84,18.46-61.23,27.77-14.35,6.55-28.62,13.29-42.94,19.89-1.02,.47-2.22,.56-3.33,.83-2.76-3.92-1.65-8.41-1.32-12.53,1.23-15.03,5.08-29.41,11.91-42.93,1.45-2.87,3.11-5.53,6.55-6.35,39.92-.04,79.83-.08,119.75-.12Z"/>
      <path class="cls-21" d="M485.67,796.77c-43.38,1.14-86.75,2.28-131.57,3.46,5.75-6.72,10.73-12.53,15.71-18.35,13.04-4.97,25.56-11.11,38.25-16.87,13.16-5.97,26.19-12.22,39.36-18.19,3.48-1.58,7-3.11,9.62-6.05,1.31-.04,1.69,.9,2.02,1.9,2.54,19.19,10.11,35.96,23.78,49.85,1.17,1.19,3.3,1.89,2.82,4.23Z"/>
      <path class="cls-7" d="M457.2,741.03c.03,2.45-1.7,3.31-3.59,4.19-26.39,12.25-52.63,24.82-79.41,36.22-1.33,.57-2.72,2.43-4.39,.44,20.53-24.52,41.08-49.02,61.59-73.56,6.83-8.18,13.56-16.45,20.31-24.7,4.55-5.55,10.16-9.47,17.1-11.43,1.7,1.97,.29,3.82-.39,5.55-7.04,18.05-10.84,36.65-9.98,56.11,.11,2.42,.55,5.03-1.25,7.18Z"/>
      <path class="cls-2" d="M1216.01,835.18c-47.3-.67-94.6-1.34-141.9-2.01,1.96-6.05,3.07-12.23,3.01-18.6-.03-3.39,1.18-4.93,5.03-4.78,36.54,1.41,73.09,2.64,109.64,3.9,4.82,.17,9.65,.29,14.47,.2,2.71-.05,4.28,.64,4.94,3.55,1.36,5.97,4.09,11.58,4.8,17.75Z"/>
      <path class="cls-26" d="M681.07,778.96c6.37-1.21,11.96-4.61,18.21-6.3,18.37-4.94,36.87-8.89,55.84-10.78,15.36-1.53,30.72-2.01,46.13-1.95,4.34,.02,8.61,.02,12.59,2.03-3.89,8.46-9.08,16.21-13.42,24.41-1.21,2.29-3.02,1.66-4.7,1.72-32.26,1.05-64.53,2.05-96.79,3.06-5.68,1.07-10.7,.81-13.18-5.73-.95-2.51-4.64-3.2-4.69-6.47Z"/>
      <path class="cls-7" d="M674.18,769.9c-2.31-7.93-.44-15.39,2.5-22.76,5.86-14.7,16.78-25.35,28.55-35.2,4.93-4.13,9.96-8.27,15.84-11.1,17.86,4.07,35.91,6.97,54.06,9.34,2.27,1.83,.16,2.16-.97,2.79-11.14,6.28-22.32,12.49-33.4,18.86-20.74,11.9-41.42,23.9-62.13,35.84-1.44,.83-2.97,1.5-4.45,2.24Z"/>
      <path class="cls-2" d="M859.09,830.16c-35.31-.49-70.62-.96-105.93-1.5-3.81-.06-7.61-.55-11.41-.84,12.5-6.98,26.06-11.58,39.04-17.51,1-.46,2.28-.35,3.44-.38,28.09-.73,56.18-1.45,84.28-2.13,5.73-.14,11.45-1.35,18.57-.31-9.67,8.3-18.57,15.78-27.98,22.66Z"/>
      <path class="cls-8" d="M505.1,975.15c-3.83,8.41-8.05,15.75-12.38,23.03-1.16,1.95-2.69,2.65-4.89,2.73-25.63,.93-51.25,2.07-76.91,2.21-1.71,0-3.24-.16-4.57-1.47-5.69-5.58-11.07-11.41-16.45-18.46,38.76-1.85,76.68-4.39,115.2-8.04Z"/>
      <path class="cls-17" d="M500.84,654.71c-3.07-6.55-3.78-13.31-1.87-20.31,28.46-.06,56.92-.13,85.38-.21,1.39,0,2.66,.31,3.76,1.11,8.58,6.26,17.14,12.54,26.63,19.49-2.3,0-3.67,0-5.04,0-34.46,.03-68.92,.07-103.37,.09-1.83,0-3.65-.12-5.48-.18Z"/>
      <path class="cls-34" d="M1247.77,1054.95c0,2.29,1.21,3.05,3.41,2.97,3.25-.12,6.5-.01,9.75,0-1.85,12.99-5.2,25.68-7.61,38.56-2.87,15.33-5.46,30.71-8.45,46.01-2.11,10.79-6.95,20.35-13.92,28.9-3.41,4.19-7.24,6.57-12.84,5.72-2.39-.36-4.89-.06-7.76-.06,4.51-11.35,9-22.05,13.03-32.92,10.58-28.56,18.85-57.76,23.7-87.88,.07-.46,.44-.87,.68-1.3Z"/>
      <path class="cls-8" d="M148.46,982.27c-5.28,5.97-9.8,11.07-14.29,16.19-1.27,1.45-2.84,2.15-4.73,2.49-21.44,3.93-42.68,3.55-63.67-2.75-5.53-1.66-14.93-13.93-15.06-19.32-.04-1.49,.68-1.63,1.71-1.75,3.94-.48,7.76-1.49,11.86-1.09,27,2.65,54.07,4.55,81.17,5.95,.61,.03,1.22,.11,3.02,.28Z"/>
      <path class="cls-1" d="M485.67,796.77c-15.03-12.72-22.83-29.52-27.13-48.26-.4-1.75-.33-3.62-.48-5.43,5.97-4.34,12.06-8.39,19.74-8.96,.36,1.64,.72,3.28,1.08,4.92,1.01,.78,1.28,1.9,1.43,3.07,1.17,9.64,5.46,18.12,10.15,26.36,5.28,9.27,13.55,14.43,24.04,16,4.27,.64,8.53,1.35,12.89,1.23,2.09-.06,4.44-.25,5.64,2.2-3.39,3.04-7.99,4.42-11.01,7.97-12.12,.3-24.24,.59-36.36,.89Z"/>
      <path class="cls-2" d="M869.17,715.96q10.44,.11,5.5,9.46c-8.5,16-17.05,31.98-25.53,47.99-1.79,3.38-3.58,6.81-2.36,10.88,.73,2.46-.78,2.69-2.69,2.73-7.48,.15-14.97-.26-22.44,.64-2.98,.36-2.99-.93-1.72-3.16,12.5-21.96,24.97-43.94,37.4-65.95,1.12-1.98,2.59-2.8,4.85-2.64,2.32,.16,4.66,.04,6.99,.04Z"/>
      <path class="cls-7" d="M584.22,793.82c3.84-2.9,7.59-5.92,11.52-8.67,10.66-7.47,19.18-16.88,25.58-28.17,1.53-2.71,2.88-3.29,5.85-2.14,7.28,2.83,14.5,5.72,21.43,9.34,2.23,1.16,3.52,2.36,3.86,5.11,.48,3.92,1.75,7.74,2.69,11.6,.31,2.18-1.54,2.77-2.83,3.59-4.59,2.9-9.22,5.76-14.39,7.59-3.07,.97-6.24,.82-9.39,.89-14.77,.32-29.55,.59-44.32,.88Z"/>
      <path class="cls-37" d="M477.8,734.13c-6.58,2.98-13.16,5.97-19.74,8.96-.29-.69-.58-1.37-.86-2.06-1.81-23.24,1.95-45.55,11.29-66.91,.25-.58,.22-1.28,.33-1.92,8.75-2.38,17.64-.81,26.47-.97-4.64,3.69-6.53,9.1-8.6,14.28-6.08,15.24-9.57,30.99-8.55,47.53-.11,.36-.22,.73-.33,1.09Z"/>
      <path class="cls-17" d="M936.11,830.95c15.29,.4,30.59,.8,45.88,1.2,1.09,1.09,3.47-.86,3.94,1.68-15.79,.12-31.59,.37-47.38,.29-6.39-.03-11.99,1.58-17.4,4.99-13.21,8.33-26.73,16.17-39.86,24.63-4.06,2.61-6.55,1.76-9.31-1.36-1.68-1.9-2.99-3.99-3.83-6.36-1.02-2.9-.73-5.18,2.12-7.32,7.69-5.8,15.1-11.97,22.63-17.99,2.17-.87,4.39-1.38,6.76-1.37,10.11,.03,20.21-.01,30.32,.03,2.17,0,4.33,.09,6.12,1.58Z"/>
      <path class="cls-19" d="M878.64,763.89c3.98,.03,7.98,.27,11.95,.02,5.93-.37,11.13,1.08,15.54,5.14-1.81,4.79-3.65,9.56-5.4,14.37-.63,1.74-1.91,2.08-3.51,2.08-9.94-.01-19.88,0-30.55,0,4.01-7.11,7.31-14.7,11.98-21.6Z"/>
      <path class="cls-35" d="M936.11,830.95c-14.4-.08-28.81-.16-43.21-.24,4.43-3.73,8.72-7.65,13.34-11.13,4.2-3.16,7.67-6.76,9.71-11.64,3.33-.06,5.75,1.77,7.63,4.15,4.67,5.95,10.31,11.27,12.53,18.85Z"/>
      <path class="cls-1" d="M681.07,778.96c3.31,2.88,7.02,5.45,8.12,10.07,.47,1.96,1.88,1.92,3.39,1.94,2.12,.02,4.23,.12,6.35,.18-1.11,1.04-2.54,.91-3.79,.71-11.07-1.71-22.11,.73-33.17,.07-3.32-2.91-6.88-5.69-6.04-10.9,5.93-3.52,11.58-7.53,18.04-10.1,1.79,3.18,3.13,6.76,7.1,8.02Z"/>
      <path class="cls-14" d="M974.92,1199.02h51.23c-12.89,14.64-39.25,13.86-51.23,0Z"/>
      <path class="cls-6" d="M692.78,693.2c.42,1.7-.99,2.26-1.95,3.07-6.35,5.33-12.23,11.16-17.74,17.34-1.92,2.16-3.31,3.36-5.81,.66-1.42-1.53-3.51-2.44-5.3-3.63,.11-1.3,.91-2.02,1.99-2.64,8.75-5.05,17.48-10.13,26.22-15.2,.86,.13,1.73,.27,2.59,.4Z"/>
      <path class="cls-33" d="M1487.91,1038c5.66-.55,11.22,.77,16.84,.95-4.19,6.47-8.67,12.71-14.39,18.98-.89-7.24-1.67-13.59-2.45-19.93Z"/>
      <path class="cls-15" d="M265.01,1200.99h34.83c-6.46,7.51-24.76,8.55-34.83,0Z"/>
      <path class="cls-22" d="M655.94,781.04c.61,4.41,4.32,7.1,6.04,10.9-8.01,.04-16.03,.08-24.04,.12,5.18-4.58,12.09-6.5,17.22-11.17,.26,.05,.52,.1,.79,.15Z"/>
      <path class="cls-5" d="M1211.22,777.12c-1.09-.69-.56-1.36,.07-1.95,7.17-6.69,12.95-14.47,17.91-22.9,.3-.52,.47-2.35,1.94-.98-3.58,10.96-10.48,19.38-19.92,25.82Z"/>
      <path class="cls-40" d="M985.93,833.83c-1.31-.56-2.63-1.12-3.94-1.68,7.32-.02,14.65-.04,21.97-.06,2.47,1.45,5.66-1.07,7.95,1.41-8.66,.11-17.32,.22-25.98,.32Z"/>
      <path class="cls-38" d="M1024.86,832.06c5.07,.17,10.21-.91,15.21,.73-1.55,1.43-3.55,.16-5.22,.88-7.16-.04-14.32-.09-21.48-.13,1.5-2.34,3.76-.64,5.64-1.02,1.91-.38,3.95,.39,5.85-.46Z"/>
      <path class="cls-39" d="M1024.86,832.06c-3.6,2.25-7.82-.25-11.49,1.48-.49-.01-.98-.03-1.46-.04-2.47-1.45-5.56,.56-7.95-1.41,6.97,0,13.93-.02,20.9-.03Z"/>
      <path class="cls-23" d="M1040.09,757.94c-7.02-.4-14.11,1.02-21.08-.8,7.03,.27,14.13-1.47,21.08,.8Z"/>
      <path class="cls-23" d="M967.01,759.05c-6.63,2.06-13.42,.44-20.11,.88-.28-.25-.34-.46-.2-.63,.12-.15,.24-.22,.37-.22,6.65-.01,13.3-.02,19.95-.03Z"/>
      <path class="cls-36" d="M1016.01,757.81c-3.41,.03-6.82,.05-10.22,.08,3.4-.93,6.8-1.66,10.22-.08Z"/>
      <path class="cls-31" d="M978.87,758.89c-3.33-.01-6.65-.03-9.98-.04,3.31-1.32,6.75-.8,10.16-.76,.27,.25,.33,.45,.19,.6-.12,.13-.24,.2-.37,.2Z"/>
      <path class="cls-13" d="M1034.86,833.68c1.6-1.11,3.51-.39,5.22-.88,1.61,.08,3.22,.16,4.83,.24-3.25,1.85-6.67,.99-10.05,.65Z"/>
      <path class="cls-24" d="M898.93,1100.03h-.42s-.42,.07-.41,.07c0-2.38,0-4.77,0-7.16,1.29,2.32,.83,4.72,.84,7.08Z"/>
      <path class="cls-27" d="M947.05,759.08c-.04,.29-.1,.57-.16,.85-2.31-.01-4.62-.03-6.92-.04,2.19-1.75,4.71-.68,7.08-.81Z"/>
      <path class="cls-28" d="M978.87,758.89c.06-.27,.12-.53,.18-.8,1.97,0,3.94,0,5.9,.01-1.87,1.46-4.02,.75-6.08,.78Z"/>
      <path class="cls-30" d="M1058.06,782.15c0-2.1-.67-4.28,.84-6.17,.08,2.11,.48,4.26-.84,6.17Z"/>
      <path class="cls-29" d="M1054.97,821.05c.13-2.04-.67-4.21,.87-6.05,.09,2.07,.58,4.2-.87,6.05Z"/>
      <path class="cls-25" d="M1055.99,808.24c.1-2.12-.72-4.37,.86-6.3,.14,2.16,.46,4.34-.86,6.3Z"/>
      <path class="cls-41" d="M1057.05,795.18c-.02-1.83-.61-3.74,.84-5.34,.11,1.84,.4,3.71-.84,5.34Z"/>
      <path class="cls-9" d="M734.8,121.29c-43.07,20.46-82.85,46.19-120.05,78.65,1.77-10.68,3.19-19.75,4.78-28.79,6.49-36.94,13.07-73.86,19.53-110.8,1.51-8.61,1.4-8.72,7.74-3.68,27.35,21.77,55.67,42.2,84.79,61.54,1.07,.71,2.47,1.1,3.22,3.08Z"/>
      <path class="cls-9" d="M1059.84,537.17c-14.81-.7-28.36-4.15-39.36-14.14-12.86-11.68-15.38-26.44-6.58-41.47,10.36-17.7,25.9-28.16,46.5-30.66,12.84-1.56,24.78,1.43,36,7.39,22.11,11.76,27.34,35.01,11.9,54.61-12.3,15.63-28.76,23.69-48.47,24.27Z"/>
      <path class="cls-9" d="M642.11,467.88c-.86,13.62-10.45,25.96-24.66,35.18-20.92,13.58-46.44,11.19-63.72-5.67-15.99-15.61-16.74-37.69-1.87-54.62,21.02-23.92,52.22-26.67,77.08-6.8,8.42,6.73,13.25,16.93,13.16,31.91Z"/>
      <path d="M963.11,366.14c7.28-5.64,14.99-10.38,24.47-11.13,20.98-1.67,39.5,11.96,45.28,33.33,.77,2.85,1.26,5.78,1.87,8.67,.54,16.43-5.16,30.28-17.45,41.22-19.09,17.01-45.88,13.55-60.74-7.69-13.77-19.69-12.05-44.17,4.33-61.77,.78-.84,1.49-1.75,2.23-2.63Z"/>
      <path d="M757.34,439.68c.11-1.31,.25-2.96,.38-4.62,.19-2.44,1.07-4.41,3.91-3.98,2.72,.42,3.09,2.26,2.6,4.85-1.02,5.48-.67,10.89,1.6,16.13,3.53,8.14,9.81,12.9,18.27,14.68,6.13,1.29,11.57-.48,15.68-5.42,6.75-8.12,11.73-17.27,15.93-26.93,1.15-2.65-.47-3.51-1.88-4.88-7.7-7.44-9.29-17.23-4.34-26.36,4.06-7.49,11.27-11.39,18.41-9.98,7.36,1.46,14.35,9.06,15.14,16.72,.91,8.82-2.08,16.09-9.45,21.15-2.32,1.6-2.82,3.02-2.07,5.69,3.49,12.5,9.91,22.84,21.32,29.52,13.58,7.96,32.12-.37,35.18-15.77,.87-4.4,1.34-8.88,2.08-13.3,.23-1.38,0-3.28,2.11-3.42,1.98-.13,2.9,1.24,3.49,2.95,6.15,17.89-4.08,38.58-22.91,42.76-8.51,1.89-12.01,5.71-14.44,13.07-2.1,6.33-6.03,11.91-10.41,16.93-8.27,9.47-18.34,14.16-31.13,10.47-7.72-2.23-13.09-6.97-15.92-14.55-2.7-7.23-4.24-14.68-4.74-22.37-.08-1.24,.7-2.8-2.15-2.57-17.5,1.4-28.48-6.1-33.84-22.73-1.85-5.74-2.52-11.68-2.82-18.04Z"/>
      <path d="M717.27,382.87c.11,20.98-14.65,40.48-33.83,44.52-10.28,2.16-19.47-.55-27.51-7.11-25.41-20.74-19.97-63.49,9.79-77.31,16.7-7.75,34.18-2.12,44.3,14.34,4.81,7.82,7.3,16.34,7.25,25.55Z"/>
      <path class="cls-9" d="M1030.63,130.86c15.7-7.92,30.02-16.26,44.05-25.12,16.98-10.73,33.38-22.28,49-34.92,4.99-4.04,4.72-4.14,6.4,1.9,8.35,30.01,14.65,60.48,20.51,91.04,3.48,18.14,6.58,36.39,8.91,56.08-43.06-30.31-85.56-59.6-128.87-88.98Z"/>
      <path d="M1059.86,894.04c-3.75-18.48,2.96-32.53,18.74-39.32,4.05-1.74,8.23-2.47,12.63-2.33,30.76,.93,61.53,2.68,92.28,2.43,22.74-.19,38.36,22.16,33.53,39.87-.17,.63-.09,1.32-.13,1.98-4.04,9.99-10.55,17.55-20.93,21.32-3.16,1.15-6.42,1.76-9.76,1.66-31.05-.92-62.09-1.85-93.14-2.83-15.9-.5-26.92-8.24-33.23-22.78Z"/>
      <path d="M282.1,1116.78c27.32,0,54.65,.01,81.97-.02,2.46,0,4.59,.66,6.41,2.29,6.36,5.68,6.95,17.66,1.15,23.77-6.99,7.37-14.06,14.68-21.02,22.07-2.68,2.84-5.77,4.18-9.74,4.17-46.33-.11-92.65-.17-138.98-.12-5.44,0-9.25-2.19-11.95-6.69-5.47-9.14-11.1-18.2-16.32-27.49-4.93-8.77,.03-16.82,10.05-17.09,32.81-.92,65.62-.28,98.43-.9Z"/>
      <path d="M1466.17,1086.56c0,40.57-7.02,73.88-25.65,104.17-4.38,7.12-9.48,13.69-15.49,19.53-17.91,17.39-38.73,20.05-60.91,8.62-17.55-9.04-28.15-24.09-36.93-40.78-12.43-23.64-18.36-49.13-20.43-75.61-2.71-34.6,1.88-68.11,15.31-100.2,9.26-22.12,22.63-40.64,45.53-50.73,20.42-9,37.34-6.36,53.68,9.01,16.65,15.66,26.08,35.61,33.13,56.81,8.04,24.19,11.94,49.11,11.76,69.19Z"/>
      <path d="M868.99,1098.12c-.58,23.88-2.51,47.58-11.89,69.92-7.44,17.73-18.17,33.28-32.63,46.09-21.41,18.98-46.46,18.93-67.98-.09-18.4-16.25-29.43-37.15-37.51-59.85-6.87-19.28-11.05-39.25-10.56-59.67,1.1-45.43,17.97-83.83,53.59-113.04,6.99-5.73,14.89-10.24,24.05-11.56,14.54-2.08,27.05,3.18,37.71,12.38,23.56,20.35,38.08,45.86,42.21,77,1.71,12.88,3.13,25.77,3.01,38.8Z"/>
      <path class="cls-26" d="M533.04,787.91c-7.34-1.34-14.88-.95-22.2-2.78-8.67-2.17-15.6-6.69-20.34-14.17-6.18-9.75-11.22-20.01-11.62-31.91,4.86-.06,8.21,2.88,9.42,6.87,3.55,11.71,13.07,15.91,23.18,18.86,21.8,6.36,40.68-.81,56.97-14.97,16.46-14.3,27.24-32.84,35.64-52.78,3.08-7.31,6.87-10.26,14.79-9.97,4.03,.14,8.25-1.37,12.12,.95-.71,.79-1.66,1.02-2.65,1.21-8.24,1.54-10.66,4.27-10.95,12.49-.42,11.86-2.72,23.3-7.5,34.2-1,2.27-1.85,4.63-4.17,5.98-.87,1.35-1.74,2.7-2.62,4.05-20.71,13.01-41.61,25.71-62.26,38.84-1.4,.89-2.93,1.61-3.96,2.98-1.29,.05-2.58,.1-3.87,.15Z"/>
      <path class="cls-1" d="M605.75,741.89c6.33-13.17,9.99-26.95,10.45-41.66,.29-9.25,5.13-12.89,14.81-12.22,3.57,2.18,6.36,4.95,6.31,9.45-.03,2.67,1.76,3.23,3.64,3.99,6.45,2.62,12.94,5.15,19.02,8.59-6.46,4.03-13.01,7.92-19.33,12.15-2.13,1.43-6.71-1.48-6.6,3.74l-.06,.09c-8.57,5.14-17.15,10.29-25.72,15.43-.78,.47-1.48,1.48-2.52,.44Z"/>
      <path class="cls-3" d="M536.91,787.76c-.79-1.34-.13-2.02,1.02-2.74,21-12.96,41.98-25.96,62.97-38.94,.67-.41,1.43-.96,2.22-.14-1.69,2.65-3.04,5.6-5.13,7.9-14.25,15.71-30.35,28.67-51.68,33.5-3.11,.71-6.25,.72-9.41,.42Z"/>
      <path class="cls-12" d="M634.05,725.93c2.49-2.3,5.17-2.48,8.23-1.05,4.94,2.32,9.88,4.51,14.39,7.73,4.75,3.4-.04,5.79-.48,8.49-.52,3.16-3.07,1.49-4.76,.81-5.38-2.14-10.62-4.68-16.09-6.55-3.32-1.14-3.64-2.75-2.42-5.55,.52-1.2,.72-2.53,1.07-3.8,0,0,.06-.09,.06-.09Z"/>
      <path class="cls-4" d="M850.91,482.42c-3.1,8.4-7.2,16.18-13.52,22.44-5.03,4.99-11.2,6.97-18.31,4.35-5.62-2.07-11-10.31-10.51-16.16,.11-1.26,.99-1.5,1.69-2.17,10.12-9.66,16.45-12.59,40.64-8.46Z"/>
      <path class="cls-17" d="M1137.39,874.96c16.13,.52,32.27,.9,48.39,1.63,7.43,.33,12.46,7.72,10.21,14.4-1.3,3.86-3.8,5.82-8.21,5.73-28.6-.59-57.21-1-85.82-1.49-3.66-.06-7.32-.1-10.97-.31-6.8-.4-11.5-5.28-11.2-11.47,.28-5.75,4.96-9.63,11.69-9.64,15.3-.01,30.61,0,45.91,0,0,.39,0,.77,0,1.16Z"/>
      <path class="cls-14" d="M357.78,1134.12c-5.81,6.03-11.61,12.09-17.48,18.1-1.17,1.19-2.83,.76-4.3,.76-42.62,0-85.25-.07-127.87,.02-3.8,0-6.17-1.05-7.89-4.53-2.14-4.31-4.79-8.37-7.28-12.5-1.31-2.17-.73-3.02,1.72-2.84,.5,.04,1,0,1.5,0,52.78,0,105.56,0,158.34,.02,.92,0,1.98-.44,3.27,.97Z"/>
      <path class="cls-14" d="M1351.43,991.99c9.39-13.38,20.91-21.92,36.45-24.22,6.38-.94,11.64,2.2,16.38,6.07,10.99,8.98,18.06,20.82,23.62,33.58,14.24,32.7,19.18,66.91,16.34,102.38-1.75,21.81-6.97,42.61-17.21,62.03-4.93,9.33-10.82,17.94-18.72,25.07-8.95,8.07-18.89,9.88-30.01,5.08-7.58-3.27-14.47-7.46-19.9-14.66,4.13-.68,8.06-.42,11.73-1.82,8.55-3.28,15.09-9.15,20.49-16.24,16.24-21.33,25.09-45.49,27.58-72.17,3.07-32.88-7.05-61.69-26.59-87.59-6.5-8.62-14.46-15.61-25.53-18.11-4.64-1.05-9.12,0-14.61,.59Z"/>
      <path class="cls-7" d="M1394.74,1128.44c-6.33,15.04-12.64,28.33-24.28,38.18-5.91,5-10.72,5.3-17.38,1.22-6.91-4.24-12.38-9.6-15.08-17.77-9.37-28.39-12.51-57.34-9.34-87.05,1.18-11.1,3.14-22,6.12-32.75,.69-2.51,1.3-4.56,4.32-5.29,2.73-.66,4.11-3.22,5.62-5.43,10.75-15.74,19.92-16.32,32.42-2,5.84,6.69,10.22,14.33,14.18,22.23,.44,.87,1.18,1.82,.34,2.71-1.02,1.08-1.69-.28-2.52-.6-6.66-2.51-12.49-.62-17.58,3.77-8.28,7.15-12.32,16.75-14.95,27.06-3.98,15.62-2.06,30.67,4.59,45.21,.83,1.81,1.87,3.53,2.97,5.19,7.83,11.74,17.51,13.77,30.56,5.33Z"/>
      <path class="cls-7" d="M1370.97,1088.23c.36-9.75,2.82-19.11,8.77-27.3,3.08-4.23,4.44-4.11,7.29,.14,9.52,14.22,8.35,40.16-2.26,53.25-2.57,3.17-4.52,3.4-6.75-.22-4.85-7.86-6.76-16.5-7.05-25.87Z"/>
      <path class="cls-14" d="M766.07,1005.72c8.28-6.93,14.93-14.17,25.39-14.81,6.88-.42,12.75,2.61,17.72,6.84,18.41,15.69,30.64,35.09,34.87,59.24,3.46,19.77,4.3,39.64,2.93,59.62-1.94,28.27-10.23,54.03-29.91,75.28-4.33,4.68-9.02,8.87-14.59,11.99-7.35,4.11-14.88,4.3-22.42,.63-7.93-3.86-14.06-9.86-19.91-17.4,9.67,.11,18.11-2.24,25.87-6.92,12.83-7.74,21.12-19.24,26.2-32.97,12.73-34.42,14.46-69.03-.29-103.33-6.04-14.04-15.4-25.61-29.1-33.16-4.85-2.67-9.95-4.49-16.76-5.03Z"/>
      <path class="cls-7" d="M798.77,1056.03c-10.91-5.25-18.97-3.82-27.08,4.49-18.08,18.53-18.59,54.77-.92,73.72,6.41,6.87,13.97,10.08,23.32,6.13,1.77-.75,3.89-1.06,2.66,1.79-5.82,13.46-14.01,24.65-29.43,28.01-10.19,2.23-20.21-3.14-24.21-12.69-9.63-23.02-14.63-46.95-12.97-71.93,1.28-19.32,7.05-37.46,16.86-54.21,4.27-7.29,16.49-11.04,24.77-7.86,11.21,4.3,24.3,19.92,26.99,32.54Z"/>
      <path class="cls-7" d="M774.13,1097.41c.25-9.39,2.93-17.62,8.78-24.63,3.58-4.3,6.16-4.2,9.76-.08,11.2,12.83,10.24,38.01-1.91,50-3.49,3.44-5.56,3.45-8.54-.43-5.68-7.39-7.69-16.02-8.08-24.85Z"/>
    </g>
  </g>
</svg>