<?xml version="1.0" encoding="UTF-8"?>
<svg id="_图层_2" data-name="图层 2" xmlns="http://www.w3.org/2000/svg" viewBox="0 0 1154 1248">
  <defs>
    <style>
      .cls-1 {
        fill: #f9cf9d;
      }

      .cls-2 {
        fill: #f9eee1;
      }

      .cls-3 {
        fill: #040404;
      }

      .cls-4 {
        fill: #030202;
      }

      .cls-5 {
        fill: #060606;
      }

      .cls-6 {
        fill: #f0f0f0;
      }

      .cls-7 {
        fill: #f4f4f4;
      }

      .cls-8 {
        fill: #f5f5f5;
      }

      .cls-9 {
        fill: #e499b0;
      }

      .cls-10 {
        fill: #e3e3e3;
      }

      .cls-11 {
        fill: #fefefe;
      }

      .cls-12 {
        fill: #fbfbfb;
      }

      .cls-13 {
        fill: #e5e5e5;
      }

      .cls-14 {
        fill: #fdd3a0;
      }

      .cls-15 {
        fill: #e4e4e4;
      }

      .cls-16 {
        fill: #fead8d;
      }

      .cls-17 {
        fill: #8a7f5e;
      }

      .cls-18 {
        fill: #32321a;
      }

      .cls-19 {
        fill: #857958;
      }

      .cls-20 {
        fill: #b1b1b1;
      }

      .cls-21 {
        fill: #a7a7a7;
      }

      .cls-22 {
        fill: #cfcfcf;
      }

      .cls-23 {
        fill: #de8f56;
      }

      .cls-24 {
        fill: #cbcbcb;
      }

      .cls-25 {
        fill: #e1e1e1;
      }

      .cls-26 {
        fill: #d6c6ba;
      }

      .cls-27 {
        fill: #42372a;
      }

      .cls-28 {
        fill: #36361c;
      }

      .cls-29 {
        fill: #887c5b;
      }

      .cls-30 {
        fill: #887d5b;
      }

      .cls-31 {
        fill: #313131;
      }

      .cls-32 {
        fill: #3c3c1f;
      }

      .cls-33 {
        fill: #796e50;
      }

      .cls-34 {
        fill: #7c7152;
      }

      .cls-35 {
        fill: #7b7052;
      }

      .cls-36 {
        fill: #7b7152;
      }
    </style>
  </defs>
  <g id="_图层_1-2" data-name="图层 1">
    <g>
      <path d="M1153.88,469.02v6c-1.26,7.7-.6,15.54-1.58,23.26-5.67,44.6-19.19,86.03-48.17,121.43-17.02,20.79-37.92,36.88-60.55,50.87-28.32,17.51-58.65,30.83-90.04,41.8-2.5,.87-5.07,1.62-7.51,3.02,.34,1.57,1.8,1.87,2.85,2.45,23.83,13,45.5,28.85,65.14,47.65,17.92,17.16,33.78,35.87,46.08,57.44,10.22,17.92,18.27,36.64,20.63,57.45,1.04,9.15-.7,17.94-2.66,26.69-3.41,15.21-9.37,29.21-21.04,40.1-9.51,8.87-20.88,13.38-33.85,14.13-19.23,1.11-36.86-4.41-53.87-12.67-6.16-2.99-6.35-2.88-7.11,3.99-2.18,19.68-7.37,38.57-14.86,56.87-2.39,5.84-1.76,7.02,4.75,6.99,19.53-.09,37.43-5.62,53.36-17,10.47-7.47,21.32-14.22,32.91-19.84,23.46-11.37,46.28-9.16,67.37,4.94,14.05,9.39,22.08,23.23,23.77,40.9,1.33,13.89-2.01,26.37-6.98,38.82-2.52,6.31-6.48,11.49-12.02,15.63-21.42,15.99-44.6,28.05-71.43,31.58-25.62,3.37-50.8,.6-75.49-6.8-14.1-4.22-27.73-9.56-39.9-18.06-2.59-1.81-5.1-3.75-7.41-5.93-1.31-1.23-2.63-2.84-4.74-1.59-1.8,1.07-3.03,2.62-3.18,4.8-.14,2.03,.48,3.96,.84,5.92,4.94,27.07,8.37,54.28,8.14,81.88-.1,11.92-2.15,23.43-5.6,34.74-1.66,5.44-5.88,8.59-10.65,11.36-21.86,12.71-45.44,19.71-70.57,21.52-32.96,2.37-65.55,.35-97.41-9.09-8.82-2.61-17.09-6.58-25.15-10.98-4.57-2.49-6.91-6.5-7.93-11.52-2.72-13.41-3.92-27.02-5.41-40.59-1.11-10.09-2.11-20.2-3.51-30.26-.56-4.03-2.42-5.63-6.56-5.72-23.29-.49-46.7-.61-69.66-4.43-10.86-1.81-18.87,1.02-27.18,6.63-4.85,3.27-5.25,5.94-.24,9.21,3.95,2.58,7.35,5.71,10.65,9.01,5.09,5.08,8.43,11.13,10.17,18.07,3.4,13.58,4.08,27.3,1.88,41.14-2.2,13.83-14.26,25.75-27.89,28.49-11.41,2.29-22.61,5.45-34.31,6.41-9.31,.76-18.63,.23-27.93,1.03-5.27,.45-10.62,.45-15.95,.62-5.99,0-11.98,0-17.96,0-3.92,0-7.83,0-11.75,0-2.86,0-5.73,0-8.59,0-17.11-1.2-34.29,.44-51.38-1.2-8.17-.78-16.41-2.24-23.05-7.32-5.39-4.12-10.98-4.38-16.97-3.12-32.13,6.76-63.58,2.7-94.76-5.77-8.7-2.36-13.41-8.93-16.62-16.73-3.66-8.89-4.94-18.32-5.24-27.84-.26-8.32-.3-16.67,0-24.98,.55-15.5-1.77-30.93-.92-46.41,.18-3.25-1.89-4.29-4.23-5.36-11.01-5.02-20.62-12.13-30-19.66-12.78-10.25-20.75-23.67-26.33-38.74-2.14-5.78-4.02-11.66-4.97-17.78-.49-3.14-2.15-4.9-5.19-5.98-24.18-8.63-46.5-20.69-66.83-36.44-11.57-8.97-24.46-16.41-34.04-27.69-11.6-13.66-22.23-28.41-26.02-46.14-8.89-41.58,11.41-75.14,53.34-86.23,26.37-6.97,49.47,.76,69.74,18.71,16.66,14.75,28.32,32.98,38.7,52.27,2.72,5.06,2.93,4.99,6.31,.25,3.23-4.54,5.36-9.63,7.22-14.77,10.29-28.42,26.14-53.87,42.09-79.27,6.36-10.14,13.24-19.92,20.71-29.91-3.75-1.48-7.22-1.51-10.55-1.82-36.01-3.38-70.27-12.97-103.11-28.1-38.67-17.81-72.2-42.63-101.12-73.65-17.66-18.94-32.61-39.95-45.01-62.78-14.33-26.4-24.62-54.25-30.73-83.63-3.12-15-5.82-30.09-5.71-45.5,.02-2.67-.78-5.28-.51-7.96,0-11.21,0-22.4,0-33.59,.93-36.78,8.2-72.33,20.71-106.87,1.59-4.38,3.05-8.81,4.98-13.06,3.3-7.28,4.86-14.57,4.78-22.95-.24-24.28,2.05-48.46,5.58-72.54,5.07-34.49,14.72-67.64,27.84-99.83,7.44-18.24,19.03-24.75,38.69-21.87,25.94,3.79,50.24,12.85,73.98,23.59,3.51,1.59,6.59,3.91,9.6,6.28,2.5,1.98,4.8,2.32,7.74,.64,22.75-13.04,46.69-23.47,71.35-32.3,4.09-1.46,8.18-3.01,12.49-3.47,5.79-.62,9.25-3.8,11.7-8.81,5.77-11.83,12.19-23.3,19.55-34.25,10.12-15.05,22.25-28.22,36.19-39.75,5.66-4.69,12.15-8.17,18.42-11.95,3.08-1.86,6.51-2.42,10.06-2.43,2.18,0,4.36,0,6.55,0,11.7,.45,21.92,5.29,31.75,11,8.66,5.03,16.61,11.09,23.69,18.24,3.91,3.95,4.09,3.87,7.05-1.08,2.31-3.86,4.55-7.76,7.29-11.34,5.92-7.75,13.74-10.78,23.31-9.26,41.57,6.62,81.48,18.5,119,37.86,18.39,9.49,35.86,20.51,52.4,32.93,3.68,2.77,7.1,3.38,11.56,2.3,22.37-5.45,45.08-8.35,68.11-9.73,46.88-2.8,92.22,4.91,136.83,18.33,4.7,1.41,7.61-.34,10.74-3.03,14.28-12.33,29.53-23.32,45.58-33.21,31.2-19.23,64.73-32.67,100.45-40.78,11.7-2.65,23.44-5.05,35.33-6.68,13.44-1.84,23.09,3.58,27.05,16.46,11.47,37.31,20.31,75.24,25.36,113.99,2.71,20.8,4.16,41.68,5.25,62.64,1.17,22.35,.15,44.55-1.15,66.8-.26,4.49-.4,8.97-1.07,13.43-.8,5.35,1.96,9.69,4.39,14.03,8.96,16.05,16.24,32.87,21.95,50.29,8.43,25.69,14.72,51.91,17.03,78.93,.63,7.41,.24,14.89,1.16,22.29v5c-.85,6.33-.85,12.66,0,19Z"/>
      <path class="cls-11" d="M1.1,475.02c1.88,20.05,4.04,40.03,8.74,59.69,15.31,64.06,48.19,117.54,97.31,161.02,45.59,40.35,98.62,65.52,158.69,75.69,11.14,1.89,22.36,3.09,33.6,3.73,.48,1.58-.68,2.3-1.33,3.16-15.84,21.06-29.35,43.62-42.66,66.31-7.86,13.39-13.9,27.61-19.51,42.03-3.01,7.74-6.62,15.16-12.33,21.86-3.65-6.62-7.03-12.91-10.55-19.1-10.59-18.59-23.71-35-41.37-47.41-33.92-23.84-82.72-14.12-104.01,21.48-12.67,21.19-12.6,43.86-2.33,66.06,9.76,21.08,24.06,38.58,43.77,51.43,7.52,4.9,14.58,10.52,21.82,15.85,17.46,12.85,36.95,21.7,57.25,28.9,2.49,.88,3.69,1.78,4.15,4.59,6.07,37.48,28.4,62.1,62.02,77.52,3.26,1.49,4.23,3.05,4.23,6.61,0,23.99,.1,47.98,.65,71.96,.23,10.32,1.76,20.54,6.65,29.97,3.5,6.74,8.47,11.06,16.05,13,27.83,7.12,55.85,10.78,84.55,6.51,5.21-.78,10.21-2.55,15.69-2.38,2.68,.08,4.51,.33,6.57,2.03,10.28,8.47,22.81,9.5,35.33,10.1,13.63,.65,27.29,.89,40.93,1.3,.33,.21,.44,.42,.33,.63-.11,.21-.22,.32-.33,.32-153.41,0-306.82-.02-460.23,.12-4.19,0-4.79-1.01-4.79-4.93C.11,987.05,.1,731.04,.1,475.02c.33-.45,.67-.45,1,0Z"/>
      <path class="cls-11" d="M505,1246.85c9.79-.68,19.58-1.73,29.38-1.96,14.72-.34,29.23-1.64,43.32-6.21,.79-.26,1.59-.52,2.4-.66,16.82-2.94,27.61-14.42,29.28-31.5,1.07-10.99,.69-21.92-1.46-32.82-2.65-13.45-9.93-23.46-21.82-30.04-2.53-1.4-3.47-3.15-3.93-5.76-.43-2.42,.4-3.32,2.59-4.42,5.18-2.61,10.46-5.17,14.84-9.12,1-.9,1.84-1.64,3.48-1.11,11.4,3.63,23.32,3.61,35.06,4.48,15.94,1.18,31.94,1.63,47.91,2.22,3.86,.14,5.76,1.04,6.24,5.51,2.3,21.51,5.01,42.99,7.67,64.46,.43,3.46,1.17,6.89,2.03,10.27,.94,3.72,3.27,6.36,6.71,8.25,22.83,12.51,47.66,17.44,73.26,19.27,19.96,1.43,39.98,2.17,59.84-.8,21.23-3.18,41.36-9.84,59.92-20.89,6.33-3.77,8.06-9.54,10.28-16.41,2.76-8.54,3.31-16.94,3.74-25.43,1.29-25.42-2.51-50.48-6.34-75.51-.53-3.45-.7-7.1-2.02-10.26-2.31-5.55,1.02-8.57,4.18-11.95,.9-.96,1.48-1,2.39-.09,19.49,19.66,44.71,26.98,70.71,31.94,32.45,6.18,64.29,4.39,94.6-10.37,11.59-5.64,22.02-13.07,32.4-20.59,1.86-1.35,3.66-3.04,4.88-4.96,12.55-19.78,17.9-50.54,2.52-72.6-15.61-22.39-47.91-32.09-74.46-21.5-14.64,5.84-27.49,14.76-40.38,23.68-15,10.37-31.98,15.44-50.12,16.06-11.04,.38-11.48-.57-7.4-10.57,7.97-19.56,12.78-39.87,14.94-60.85,.08-.82,.25-1.62,.44-2.82,10.15,5.12,20.27,9.69,31.01,12.72,11.34,3.2,22.86,4.75,34.58,3.08,21.32-3.05,34.85-15.93,43.3-35.01,11.53-26.04,10.64-51.9-.48-77.9-13.82-32.3-34.84-59.26-60.27-83.05-20.42-19.11-43.18-34.94-68.76-48.28,6.49-2.31,12.33-4.3,18.11-6.46,39.7-14.85,77.9-32.55,111.47-58.99,37.6-29.61,61.6-67.83,72.83-114.28,4.67-19.3,7.98-38.77,8.96-58.61,.04-.79-.1-1.7,1.02-1.94,0,256.03-.01,512.06,.11,768.09,0,4.01-.73,4.89-4.83,4.88-214.72-.13-429.43-.11-644.15-.11-.33-.23-.44-.46-.33-.69,.11-.23,.22-.35,.33-.35Z"/>
      <path class="cls-11" d="M1153.88,445.02c-2.23-4.26-1.25-8.96-1.62-13.42-4.25-51.07-18.06-99.24-43.32-143.95-1.38-2.44-1.17-4.78-.95-7.21,2.01-21.74,2.98-43.53,2.74-65.36-.74-66.54-12.1-131.35-31.93-194.77-2.8-8.95-12.27-14.55-22.67-13.07-32.69,4.67-64.52,12.6-94.98,25.63-33.32,14.26-63.27,33.8-90.62,57.41-2.52,2.18-4.53,2.29-7.47,1.38-41.11-12.72-83.06-20.11-126.23-19.29-27.71,.53-55.09,3.9-81.98,10.77-3.35,.86-5.76,.42-8.58-1.72-37.94-28.69-79.78-49.5-125.77-61.82-15.74-4.22-31.61-7.93-47.75-10.22-8.46-1.2-15.86,1.24-20.85,8.67-3.89,5.79-7.53,11.74-11.54,18.02-16.36-17.34-35.36-30.44-59.3-35.05-.34-.19-.46-.39-.36-.59,.11-.21,.22-.31,.33-.31C637.04,.1,893.05,.11,1149.07,0c3.91,0,4.94,.59,4.93,4.78-.14,146.75-.12,293.49-.12,440.24Z"/>
      <path class="cls-11" d="M374,.99c-12.95,3.38-23.23,11.38-33.07,19.82-19.12,16.4-33.33,36.75-44.53,59.05-5.58,11.1-11.72,18.24-25.12,21.69-27.39,7.05-52.83,19.87-77.41,34-2.76,1.59-4.48,1.64-6.84-.6-4.37-4.16-9.51-7.44-15.11-9.56-20.18-7.65-40.09-16.22-61.57-19.84-5.58-.94-11.18-1.65-16.88-1.57-10.96,.17-19.11,4.79-24.37,14.53-7.15,13.27-11.22,27.71-15.95,41.89-12.34,37.05-18.07,75.29-20.01,114.18-.52,10.45-2.1,20.9,.04,31.35,.28,1.39-.46,2.57-1,3.79C14.76,349.04,4.74,390.19,1.92,433.1c-.13,1.98-.52,3.95-.78,5.93-.34,.45-.69,.45-1.03,0C.1,294.14,.12,149.25,0,4.37,0,.82,.67,0,4.33,0,127.56,.12,250.8,.1,374.03,.1c.33,.21,.44,.41,.32,.6-.12,.19-.23,.28-.35,.28Z"/>
      <path class="cls-8" d="M.1,439.02c.34,0,.69,0,1.03,0,0,12-.02,23.99-.03,35.99-.33,0-.67,0-1,0v-35.99Z"/>
      <path class="cls-21" d="M1153.88,469.02c-1.63-6.33-1.64-12.66,0-19v19Z"/>
      <path class="cls-7" d="M505,1246.85c0,.34,0,.69,0,1.03h-19c-.33-.2-.44-.39-.32-.58,.12-.18,.23-.27,.35-.27,6.32-.06,12.64-.12,18.97-.18Z"/>
      <path class="cls-22" d="M486.04,1247.03c0,.28,0,.57-.03,.85h-12c-.32-.18-.43-.37-.33-.56,.1-.2,.2-.29,.31-.29,4.02,0,8.03,0,12.05,0Z"/>
      <path class="cls-6" d="M473.99,1247.02c.01,.29,.02,.57,.02,.86h-9c0-.31,0-.63,0-.94,2.99,.03,5.99,.06,8.98,.09Z"/>
      <path class="cls-24" d="M374,.99c.02-.3,.03-.59,.03-.89h7c0,.3,0,.6,.03,.9-2.35,0-4.71,0-7.06-.01Z"/>
      <path class="cls-11" d="M368.19,552c-9.22-22.65-13.24-46.27-12.61-70.64,.94-36.27,11.91-69.48,31.2-100.07,3.55-5.63,3.62-12.35,5.24-18.57,23.41-89.94,73.27-160.96,151.3-211.87,1.1-.72,2.29-1.32,3.43-1.98,.98-.27,1.49,.27,1.86,1.06,.47,3.51-1.42,6.44-2.59,9.46-7,18.03-11.55,36.68-14.51,55.74-2.15,13.8,5.31,22.89,19.31,23.61,2.56,.05,4.37,1.38,5.81,3.37,9.23,12.79,22.14,21.06,35.6,28.51,19.94,11.03,41.09,18.95,63.21,24.47,30.23,7.54,60.69,14.25,90.13,24.64,22.27,7.86,43.41,17.95,61.86,33.02,9.36,7.65,16.63,17.24,24.43,26.33,13.68,15.94,25.23,33.57,39.22,49.25,18.3,20.49,36.06,41.63,59.6,56.53,18.09,11.45,37.84,17.91,59.48,17.85,28.33-.08,56.52-2.4,84.54-6.3,17.8-2.48,34.33-9.32,50.22-17.63,2.45-1.28,4.62-3.42,7.77-2.72-.1,6.7-.39,13.38-1.82,19.95-5.84,6.99-13.55,11.79-20.63,17.29-28.35,22.04-58.71,40.96-90.44,57.77-64.44,34.14-131.85,60.82-201.95,80.74-34.51,9.81-69.62,16.8-105.22,21.22-16.35,2.03-32.83,3.51-49.27,3.13-44.97-1.05-89.31-6.76-132.14-21.24-52.25-17.67-99.26-44.52-140.69-80.99-7.83-6.9-16.38-13.12-22.37-21.93Z"/>
      <path class="cls-14" d="M1132.71,476.06c-17.48,9.86-35.76,17.72-55.61,21.29-8.96,1.61-18.04,2.89-27.11,3.45-19.89,1.23-39.71,3.58-59.7,3.3-27.53-.39-51.77-9.75-72.78-27.12-27.07-22.38-49.61-49.02-70.66-76.99-9.49-12.62-19.49-24.86-30.14-36.51-14.19-15.53-32.02-25.86-50.99-34.31-33.29-14.83-68.79-22.41-103.94-31.03-28.46-6.99-55.69-16.82-80.59-32.48-9.76-6.14-18.8-13.19-25.59-22.69-1.24-1.73-2.39-3.15-4.68-3.11,.4-2.19,2.42-2.02,3.87-2.55,5.55-2.01,9.46-5.79,11.16-11.33,3.2-10.41,8.18-20.02,13.11-29.61,13.02-25.35,27.37-49.93,43.79-73.24,3.42-4.86,6.16-10.33,11.15-13.96,8.72-3.3,17.75-5.49,26.88-7.32,2.64-.59,2.96,.84,2.26,2.8-.72,2.05-1.97,3.84-3.12,5.68-14.67,23.57-26.2,48.61-34.87,74.95-4.53,13.75-8.59,27.66-10.42,42.1-.67,5.31-.96,10.63,.17,15.89,1.42,6.61,4.64,9.13,11.38,8.39,7.56-.83,13.66-3.56,17.29-11.36,13-27.95,28.05-54.8,45.3-80.38,15.19-22.51,31.74-43.98,49.65-64.4,1.49-1.7,3.08-3.01,5.5-2.91,4.97,.21,9.96-.39,14.93,.31,7.04,.46,14.08,.91,21.12,1.37,3.03,.76,2.29,2.46,.68,3.78-3.88,3.17-7.27,6.84-10.96,10.21-19.23,17.52-37.54,35.88-52.19,57.57-12.4,18.36-20.79,38.27-23.86,60.31-1.01,7.29-.99,14.67-.22,21.92,1.06,10.01,7.07,13.49,16.5,10.13,9.09-3.25,16.42-9.09,21.6-17.05,15.12-23.22,31.94-45.01,50.98-65.19,21.93-23.24,46.27-43.51,72.58-61.5,1.73-1.19,3.36-2.82,5.79-2.42,.17,0,.37-.05,.49,.02,8.48,5.08,13.91,.81,20.4-4.97,46.69-41.65,101.03-67.71,162.8-78.07,4.1-.69,8.23-1.2,12.32-1.92,2.43-.43,3.41,.39,4.18,2.83,10.22,32.24,17.75,65.1,22.66,98.55,6.12,41.64,8.35,83.48,6.03,125.53-.59,10.64-1.39,21.27-2.4,31.87-.25,2.68,.2,4.79,1.51,7.04,19.58,33.47,32.88,69.29,39.51,107.5,4.34,25.03,5.52,50.28,4.23,75.65Z"/>
      <path class="cls-11" d="M296.99,1118.77c8.49-6.65,7.75-14.12-1.96-19.83-2.02-.84-3.66-1.92-4.58-4.15-1.5-3.63-4.85-5.83-7.39-8.65-9.61-10.7-14.71-23.52-17.86-37.29-1.26-5.5-2.19-11.07-3.15-16.63-.59-3.42-.33-6.61,1.95-9.4,1.31-3.81,1.71-7.54-.88-11.04-1.53-2.3-.04-4.06,1.03-5.9,4.67-8.03,7.57-16.58,7.65-25.97,.17-1.1,.61-2.07,1.33-2.92,.7-.99,1.39-1.98,2.09-2.97,1.74-1.51,3.47-.64,5.11,.14,29.17,13.75,58.48,11.75,87.82,.7,19.81-7.46,38.14-17.65,53.94-31.78,16.84-15.06,26.95-34.14,30.45-56.49,4.77-30.46-4.29-56.77-24.12-79.97-10.73-12.55-23.04-23.03-37.08-31.6-1.38-.84-3.07-1.59-2.58-3.77,2.13-2.34,5.1-2.32,7.85-2.58,22.68-2.16,45.31-4.3,68.18-4.49,21.25-.18,42.5-2.84,63.31-7.75,4.73-1.11,9.09-.83,13.6,1.17,33.18,14.71,68.38,21.86,103.92,27.87,25.96,4.39,52.01,7.4,78.36,8.22,17.11,.53,34.2,1.87,51.34,1.86,6.23,0,8.12,1.52,10.3,7.43,3.91,10.62-.99,27.89-10.08,35.56-4.83,4.08-9.98,7.8-14.01,12.75-1.18,1.45-2.81,2.39-4.58,2.92-11.33,3.38-21.81,8.95-32.94,12.83h.05c-3.15,.62-6.19-.4-9.25-.71-7.63-.77-14.61,2.09-21.85,3.51-15.66,1.56-30.71-2.26-45.85-5.19-11.07-2.14-22.09-4.57-33.13-6.86-1.82-.38-3.44-1.31-4.87-2.35-7.64-5.56-16.32-6.73-25.42-6.33-5.38-1.24-10.76-2.5-15.42,1.94-5.17,6.08-3.35,13.31-1.48,19.4,6.77,22.14,12.97,44.4,17.53,67.08,5.18,25.76,10.2,51.55,12.21,77.82,.56,7.29,1.64,14.53,2.05,21.84,.18,3.36,1.57,6.42,2.79,9.53,2.83,7.21,6.58,14.22,5.72,22.39-2.62,12.27-10.13,22.14-16.26,32.64-4.99,8.54-13.41,13-22.47,16.08-4.69,1.6-8.12,5.44-8.15,11.29-.04,7.34,1.32,14.57,2.87,21.72,.77,3.57,3.2,6.54,6.51,7.84,19.66,7.71,19.78,24.22,18.75,41.19-.3,4.91-.38,10.05-4.18,14.04-1.28,1.35-2.49,2.49-4.43,2.96-38.72,9.39-78.12,9.16-117.56,8.3-14.15-.31-28.32,.19-42.44-1.13-2.64-.25-5.3-.5-7.9-1.04-9.75-2.01-9.88-2.63-10.72-12.41-.87-10.1-2.48-20.13-3.28-30.26-1.42-17.99,.11-35.96,.24-53.93,.08-11.21-1.55-14.07-12.05-17.47-7.3-4.28-14.41-8.97-23.57-7.76-7.38,.98-14.24,2.99-19.63,8.48-6.81,10.35-7.79,22.13-8.3,34-.2,4.66-.49,9.38,.06,13.98,1.3,10.89-2.9,20.18-7.53,29.5-1.89,3.8-4.61,5.43-8.75,5.19-10.13-.59-20.29-.98-30.33-2.52-6.67-1.02-6.94-1.44-7.81-7.94-.02-13-.05-25.99-.07-38.99,.9-1.57,1.77-3.14,3.27-4.3,5.04-3.87,8.14-9.09,9.93-15.09,.64-2.15,1.37-4.01,3.7-4.75Z"/>
      <path class="cls-13" d="M724.01,867.05c8.87-6.04,18.97-9.38,28.95-12.92,3.81-1.35,7.1-2.77,9.8-6.2,2.93-3.72,6.89-6.72,10.7-9.63,10.03-7.67,14.93-25.11,10.23-36.79-1.37-3.41-3.55-4.81-7.28-4.61-15.13,.84-30.25-.47-45.34-1.15-28.08-1.27-56.09-3.43-83.86-8.56-29.01-5.36-58.09-10.19-85.94-20.31-7.17-2.6-14.28-5.43-21.26-8.5-3.24-1.42-6.36-1.82-9.68-1.01-14.34,3.49-28.95,5.09-43.59,6.75-16.4,1.86-32.82,1.38-49.23,1.99-10.88,.4-21.72,2.03-32.54,3.45-5.33,.7-10.96-.43-15.96,2.44-2.32,1.36-3.97-.74-5.95-1.14-12.95-5.9-26.4-9.66-40.76-9.53-1.83,.02-3.66-.09-5.09-1.51-3.33-4.75-8.17-5.85-13.59-5.75-84.41,1.5-156.06-28.68-216.33-87.12-.23-.22-.33-.56-.5-.84,2.34-2.26,3.1-4.09-.18-6.59-9.2-7.02-17.3-15.3-25.67-23.26-9.64-11.53-17.31-24.36-24.43-37.51-16.88-31.2-27.2-64.52-31.61-99.7-.81-2.37,.1-4.01,2.41-4.55,11.95-2.78,23.7-6.24,35.29-10.27,.78-.27,1.64-.05,2.42,.3,2.7,2.36,3.02,5.85,4.1,8.94,1.13,3.22,2.57,6.08,5.4,8.18,4.52,3.37,7.65,7.87,9.69,13.07,1.37,3.49,3.5,6.34,6.03,9.07,33.82,36.49,75.82,59,123.06,72.96,27.64,8.17,55.28,16.26,83.65,21.51,16.7,3.09,33.41,6.11,50.36,7.55,1.23,.1,2.79,1.08,3.64-.37,.65-1.1-.51-2.15-1.02-3.16-18.09-35.51-29.85-72.95-34.35-112.6-3.46-30.53,2.86-59.6,13.3-88.04,.23-.64,.62-1.17,1.15-1.6,3.94,2.45,7.84,4.96,11.83,7.32,1.76,1.04,2.32,2.24,1.37,4.07-.07,.14-.07,.32-.12,.48-1.44,4.89-.6,11.44-4.34,14.36-3.41,2.66-9.36,2.05-15.61,3.12,4.72,2.69,8.21,4.84,11.85,6.67,1.91,.96,2.63,1.9,2.29,4.18-.71,4.77-1.19,9.59-1.33,14.41-.08,2.94-1.33,3.38-3.89,3.7-2.6,.32-6.79-1.04-7.45,2-.58,2.68,3.63,3.38,5.88,4.36,3.92,1.71,5.04,4.23,5.27,8.42,2.58,48.54,20.48,91.18,49.34,129.92,19.85,26.65,45.86,45.72,73.63,62.69,49.13,30.03,102.64,48.31,159.38,57.29,48.59,7.69,97.46,8.27,146.46,5.25,35.44-2.18,70.56-6.55,105.24-14.19,4.77-1.05,5.97,1.68,6.66,5.12,3.59,17.8,1.75,34.92-7.95,50.51-9.68,15.55-21.89,28.78-37.26,39.13-31.53,21.21-65.91,34.39-103.8,38.16-1.15,.11-2.31,.04-3.47,.05Z"/>
      <path class="cls-11" d="M330.03,420.04c-.84,7.15-4.16,13.57-6.08,20.41-5.88,20.92-9.26,42.17-7.75,63.86,1.34,19.36,5.73,38.26,11.06,56.91,5.53,19.36,12.78,38.06,21.44,56.24,1.58,3.33,6.34,6.85,4.2,9.78-1.81,2.47-7.18,0-10.84-.47-21.15-2.68-42.19-6.14-63.02-10.77-28.36-6.3-56.15-14.55-83.68-23.79-27.95-9.38-53.84-22.69-77.12-40.81-11.41-8.88-21.83-18.96-31.72-29.52-3.9-4.16-3.94-10.63-8.28-14.63-.72-.66-1.04-1.89-1.83-2.32-8.04-4.32-8.95-12.64-11.41-20.09-.21-.52-.12-.98,.26-1.39,5.49-3.16,11.48-5.25,17.22-7.88,29.98-13.7,57.17-31.39,80.03-55.33,5.06-5.3,9.86-10.86,14.26-16.7,10.21-13.57,20.45-27.09,31.16-40.28,17.53-21.6,28.83-46.73,38.56-72.48,12.54-33.19,24.07-66.74,31.17-101.62,.45-2.22,.52-4.76,3.25-5.75,9.43,1.89,18.66,4.96,28.31,5.49,15.65,.86,30.82,5.08,46.38,6.35,17.05,1.39,33.87,.28,49.85-6.8,2.56-1.13,5.21-3.33,8.38-1.36,1.41,11.32,2.81,22.65,4.22,33.97-.42,1.09-.89,2.14-1.66,3.05-16.52,19.68-27.11,42.97-39.49,65.17-14.73,26.43-25.92,54.29-33.24,83.67-2.46,9.88-3.71,19.92-4.36,30.06-.33,5.17-2.21,9.66-6.22,13.1-.12,2-6.08-.52-3.04,3.92Z"/>
      <path class="cls-11" d="M929.98,991.04c-.68,3.97-2.53,7.54-4.06,11.19-7.65,18.2-15.21,36.44-25.76,53.25-3.12,4.96-6.27,9.82-10.87,13.53-4.18,3.37-5.6,7.7-4.6,12.88,2.52,13.05,5.24,26.06,6.75,39.29,2.47,21.66,4.91,43.31,2.55,65.15-.3,2.79-1.24,5.49-.96,8.39,.19,1.96-1.59,2.76-3.03,3.58-19.98,11.37-41.39,17.96-64.42,18.74-19.3,.66-38.6,.59-57.78-2.15-1.63-.23-3.22-.68-4.84-1.02-5.92-8.55-10.2-17.95-12.9-27.89-3.53-13.01-5.62-26.38-8.73-39.49-1.79-7.55-1.44-15.21-2.48-22.79-1.19-8.66-4.61-15.97-11.22-21.63-3.35-2.86-5.04-6.34-6.06-10.56-7.57-31.07-13.72-62.43-19.58-93.86-.88-4.71-.91-9.09,.54-13.72,4.59-14.7,10.05-28.89,19.79-41.15,4.66-5.86,9.93-9.6,17.57-11.06,28.17-5.39,55.91-12.42,82.27-24.07,7.17-3.17,14.02-6.96,21.08-10.32,5.33-2.53,6-2.46,9.43,2.44,10.42,14.88,21.41,29.31,33.31,43.03,11.55,13.31,23.43,26.32,36.35,38.37,3.01,2.8,7.26,4.93,7.66,9.87Z"/>
      <path class="cls-13" d="M368.19,552c14.83,13.52,29.46,27.27,45.59,39.27,17.34,12.9,35.43,24.57,54.43,34.94,19.48,10.62,39.8,19.26,60.67,26.46,22.1,7.62,44.78,13.17,68.01,16.44,18.55,2.61,37.14,4.1,55.85,5.12,21.16,1.16,41.99-.76,62.88-3.17,57.46-6.63,112.79-22.03,167.12-41.25,33.36-11.8,65.95-25.51,97.99-40.61,36.61-17.26,71.96-36.63,105.24-59.69,14.45-10.01,28.49-20.59,41.89-31.98,.91-.77,1.75-1.54,3.03-1.52-1.66,22.08-7.28,43.21-15.55,63.66-17.25,42.61-48.13,72.86-87.24,95.45-47.61,27.5-98.79,45.8-152.28,57.76-67.07,15-135.02,19.36-203.56,15.97-74.5-3.69-143.84-24.01-207.86-62.79-44.48-26.95-76.53-63.91-95.68-112.17-.24-.6-.35-1.25-.52-1.88Z"/>
      <path class="cls-30" d="M280.18,184.1c-6.12,31.75-16.49,62.28-27.08,92.72-8.27,23.76-18.19,46.81-31.1,68.47-2.89,4.85-5.99,9.63-9.44,14.1-13.84,17.9-27.47,35.98-41.9,53.4-23.28,28.1-53.01,47.75-85.78,63.1-6.46,3.02-12.82,6.31-19.74,8.25-2.19-.83-2.63-2.87-3.18-4.76-6.68-23.06-10.68-46.63-13.31-70.45-1.62-14.68-3.22-29.37-3.19-44.19,0-4.8-1.12-9.57-2.95-14.09-1.03-2.54-1.46-5.08-.5-7.73,6.44-20.39,15.94-39.38,26.72-57.75,4.2-7.16,8.9-14.03,13.38-21.03,2.51,.15,2.05,2.24,2.25,3.72,.41,2.97,.74,5.96,1.76,8.79,1.38,3.85,3.76,6.73,8.21,6.93,4.54,.2,8.09-1.58,10.24-5.73,.85-1.63,1.45-3.36,1.83-5.16,3.09-14.47,6.75-28.83,8.31-43.58,.27-2.54,1.08-4.85,2.32-7.04,7.82-9.25,17.1-17,25.96-25.18,3.35,1.56,1.27,3.95,.6,5.75-5.53,14.84-9.76,30.06-13.38,45.46-1.57,6.7-2.35,13.41,.18,20.13,3.76,9.98,15.45,13.36,23.21,6.58,3.26-2.85,4.63-6.84,5.82-10.85,2.84-9.57,5.43-19.21,8.07-28.84,5.43-19.81,13.75-38.53,21.77-57.35,.65-1.53,1.39-3.03,1.92-4.61,2.4-7.05,5.79-13.43,11.84-18.08,4.33-3.21,8.97-5.86,13.99-7.83,1.4,2.12-.1,3.82-.89,5.55-11.85,25.85-20.5,52.66-24.29,80.91-.62,4.59-1.4,9.21-.43,13.88,2.26,10.88,14.16,15.7,23.25,9.31,4.32-3.03,7.43-7.14,9.5-11.97,9.84-22.93,22.33-44.57,32.74-67.23,.93-2.02,1.11-5.69,5.13-4.59,1.13,2.18,3.2,3.37,5.07,4.77,4.49,1.16,9.5,.93,12.99,4.82,.33,.46,.36,.94,.09,1.44Z"/>
      <path class="cls-13" d="M929.98,991.04c-3.83-4.85-8.68-8.65-13.11-12.89-7.56-7.23-14.8-14.84-21.75-22.67-12.1-13.64-23.78-27.65-34.54-42.4-3.32-4.56-6.63-9.13-9.79-13.8-1.69-2.51-3.29-2.79-6.03-1.33-15.57,8.29-31.58,15.64-48.43,21.01-19.45,6.2-39.23,11.11-59.29,14.78-5.73,1.05-9.18,4.39-12.46,8.28-11.63,13.79-17.45,30.38-22.27,47.4-.26,.91-.23,1.99-.05,2.93,6.36,32.31,12.14,64.73,20.08,96.72,1.34,5.4,3.2,9.76,7.53,13.38,7.99,6.67,10.7,16.17,10.82,25.88,.18,13.98,4.64,27.06,6.73,40.61,2.31,14.94,7.74,28.77,14.56,42.14,.44,.87,.64,1.87,.95,2.81-13.88-1.46-26.99-5.43-39.36-11.88-2.13-1.11-2.46-2.89-2.69-4.95-1.95-17.2-3.9-34.4-5.96-51.59-.87-7.27-1.92-14.52-3.1-21.74-1.18-7.21-7.45-13.33-14.98-13.99-10.11-.89-20.27-1.39-30.42-1.67-16.16-.45-32.25-1.75-48.33-3.3-1.8-.17-4.72,.17-2.52-3.23,13.2-20.34,16.77-43.9,22.46-66.76,5.36-21.56,9.53-43.33,8.68-65.62-1.06-27.69-5.75-54.91-12.27-81.82-.23-.96-.39-1.95-.68-3.41,7.5,.59,14.52,2.49,21.56,4.06,19.46,4.33,39.02,3.65,58.66,1.82,27.93-2.6,55.43-7.12,81.6-17.81,17.33-7.08,33.56-16.22,48.91-26.85,4.15-2.88,5.69-3.01,9.1,1.39,15.49,20.07,32.76,38.59,51.53,55.67,10.61,9.65,21.63,18.79,33.5,26.84,2.58,1.75,3.11,3.51,2.83,6.57-1.66,18.11-4.24,36.02-10.45,53.22-.28,.76-.69,1.47-1.04,2.21Z"/>
      <path class="cls-13" d="M280.18,184.1c-.1-.35-.19-.7-.29-1.05-1.43-2.21-.89-4.69-.05-6.69,1.93-4.62,1.8-9.62,3.15-14.31,13.6-38.02,29.76-74.77,54.47-107.1,9.68-12.66,21.44-23.17,35.47-31.02,2.82-1.58,5.34-2.06,8.49-1.21,17.61,4.78,31.71,14.89,43.65,28.34,1.04,3.42,3.32,6.37,3.78,10.01-7.44,20.69-12.97,41.82-15.27,63.74-1.99,18.94-1.42,37.88-.09,56.82,.13,1.82,.21,3.64,.32,5.46-6.76,1.13-12.5,5.06-19.13,6.74-13.85,3.51-27.76,4.25-41.85,2.38-17.5-2.32-34.97-4.81-52.47-7.09-6.94-.9-13.54-2.99-20.19-5.01Z"/>
      <path class="cls-11" d="M965.79,755.02c39.39,28.1,71.42,62.17,88.35,108.58,6.53,17.91,4.78,35.35-2.52,52.48-7.75,18.17-21.84,25.59-41.39,22.49-12.98-2.06-25.06-6.6-36.55-12.76-25.16-13.48-47.14-31.11-66.87-51.64-1.46-2.85-3.96-4.88-5.85-7.4-3.54-4.73-3.58-5.45,.54-9.65,10.37-10.59,19.84-21.92,28.02-34.31,12.97-19.63,23.99-40.23,31.28-62.71,.72-2.22,.46-6.23,4.98-5.08Z"/>
      <path class="cls-30" d="M384.02,770c1.66,.67,3.33,1.34,4.99,2.01,17.34,10.04,32.13,22.96,44.47,38.76,34.21,43.81,27.4,103.75-16.36,138.21-21.96,17.29-46.7,29.33-74.45,34.33-21.33,3.85-42.05,1.79-61.88-7.39-1.78-.83-3.44-2.09-5.58-1.88-.2-.61,.12-.93,.62-1.16,1.23-1.13,1.37-2.74,1.12-4.1-1.45-7.93,3.98-13.7,6.24-20.45,.37-1.09,1.44-1.79,2.63-2.11,6.58,1.45,12.04,5.34,17.85,8.4,5,2.63,9.88,5.52,15.13,7.57,6.16,2.4,12.47,2.59,18.02-1.59,10.32-7.77,8.87-21.9-2.99-28.26-9.94-5.33-19.91-10.62-29.84-15.99-2.18-1.18-4.49-2.19-6.19-4.1-.27-.46-.41-.95-.44-1.48,1.77-4.12,1.1-9.58,6.44-11.74,7.06,1.81,12.68,6.46,19.02,9.7,10.82,5.52,20.93,12.37,32.26,16.97,7.56,3.07,15.13,3.79,22.98,1.79,6.14-1.56,10.46-5.4,12.12-11.45,1.58-5.78,.42-11.24-4.06-15.66-1.91-1.89-4.01-3.5-6.26-4.94-18.08-11.62-36-23.48-54.72-34.06-1.02-.58-1.98-1.23-2.6-2.28,.53-6.99,3.88-12.43,9.28-16.72,2.12-.12,3.85,.98,5.58,1.92,13.58,7.39,27.6,13.99,40.72,22.23,7.23,4.54,14.96,8,22.93,10.92,8.19,3,16.04,.58,22.97-3.39,9-5.16,9.91-17.14,2.67-25.06-17.93-19.62-38.42-35.8-62.83-46.72-1.63-.73-3.55-1.11-4.43-2.99-.6-2.36,.75-4.12,1.9-5.91,4.27-6.66,9.26-12.79,14.18-18.98,2.18-2.74,5.09-4.04,8.51-4.37Z"/>
      <path class="cls-23" d="M860.97,112.03c-22.81,15.31-44.31,32.18-64.12,51.31-24.03,23.21-45,48.81-63.02,76.88-5.74,8.95-13.5,15.55-23.52,19.18-10.65,3.87-17.53-.75-18.3-12.26-1.67-24.82,4.78-47.76,16.78-69.24,15.46-27.68,37.34-49.93,60.64-70.93,3.58-3.23,6.63-7.04,10.7-9.72,1.64-1.08,1.23-2.01-.05-2.98,27.62,2.93,54.71,8.26,80.89,17.75Z"/>
      <path class="cls-11" d="M447.3,209.03c-2.76,3.67-5.52,7.34-8.82,11.73-2.51-13.61-3.99-26.38-4.95-39.22-2.28-30.51-2.01-60.85,6.41-90.63,5.91-20.92,14.72-40.52,26.31-58.9,1.56-2.47,3.14-3.28,6-2.83,55.05,8.63,105.57,28.6,151.43,60.3,.4,.27,.73,.64,1.25,1.11-10.79,4-21.5,7.74-32.04,11.92-18.39,7.3-35.72,16.78-52.9,26.53-2.42-.51-3.32-2.64-4.52-4.38-10.93-15.79-23.31-30.37-37.09-43.72-7.77-7.52-15.96-14.61-24.52-21.23-3.54-2.74-4.48-2.52-6.35,1.45-12.14,25.85-19.89,52.84-22.33,81.41-1.74,20.39-.63,40.53,2.73,60.63,.34,2.05,.21,3.96-.63,5.85Z"/>
      <path class="cls-23" d="M758.96,92.91c-1.15,.09-2.31,.27-3.46,.27-13.98-.03-13.86,.06-22.77,10.78-23.28,28.05-44.64,57.45-63.02,88.97-9.65,16.54-18.19,33.65-26.6,50.84-3.24,6.61-16.71,11.62-23.37,8.56-5.75-2.64-6.49-8.05-6.74-13.45-.66-14.68,3.41-28.59,7.38-42.48,9.2-32.18,23.19-62.22,40.78-90.64,.75-1.21,3.37-2.89-.28-3.92,14.27-3.79,28.84-5.94,43.48-7.43,16.51-1.69,33.08-2.58,49.7-2.09,1.63,.05,3.26,.39,4.89,.6Z"/>
      <path class="cls-16" d="M447.3,209.03c-2.61-17.25-4.76-34.51-4.31-52.04,.87-34.59,9.18-67.28,24.28-98.34,1.49-3.06,2.46-3.88,5.65-1.43,26.33,20.25,48.74,44.13,67.09,71.81-14.32,9.62-28.64,19.21-42.04,30.11-17.58,14.3-33.77,30-48.25,47.44-.73,.88-1.6,1.63-2.41,2.45Z"/>
      <path class="cls-13" d="M965.79,755.02c-2.47,.04-2.73,2.01-3.28,3.74-9.17,28.79-23.8,54.7-41.96,78.68-5.8,7.66-12.17,14.91-19.2,21.51-2.01,1.89-2.56,3.15-.51,5.7,2.31,2.88,5.09,5.66,5.98,9.51-11.17-10.05-20.77-21.55-30.51-32.91-1.95-2.28-4.01-4.5-5.64-7-1.51-2.31-5.57-3.37-5.05-6,.48-2.4,3.44-4.32,5.32-6.43,13.7-15.46,24.23-32.53,27.48-53.4,1.93-12.39,.81-24.6-2.04-36.66-.69-2.9-.05-3.64,2.55-4.38,5.19-1.47,10.04-2.73,14.97,1.16,2.11,1.66,5.14,2.41,7.88,2.97,17.01,3.5,30.1,14.25,44.01,23.51Z"/>
      <path class="cls-13" d="M607.08,1069.12c-1.91-9.47-6.38-18.15-8.86-27.36-2.25-8.35-2.59-17.29-3.15-26.01-1.15-17.85-4.29-35.41-7.31-52.99-4.47-25.94-10.39-51.55-17.78-76.81-1.12-3.82-1.95-7.82-3.73-11.32-3.19-6.28-1.19-12.66-1.14-19,.02-1.89,.77-3.98,3.16-4.58-4.5,9.05-2.19,14.61,7.54,18.01,10.2,3.57,20.58,6.51,31.09,8.96,2.12,.49,3.82,.88,4.52,3.66,6.8,26.96,11.91,54.18,13.81,81.96,1.53,22.35-2.28,44.07-7.58,65.6-3.29,13.34-5.52,26.98-10.56,39.86Z"/>
      <path class="cls-34" d="M55.06,265.41c-.07-8.78,1.2-17.1,2.16-25.43,4.05-34.89,13.23-68.49,25.79-101.22,5.64-14.69,5.75-14.74,21.04-12.77,9.43,1.21,18.59,3.63,27.48,7.02,10.87,4.15,22.16,7.2,32.73,12.14,6.38,2.98,6.45,4.43,.52,8.5-23.69,16.26-45.54,34.68-65.23,55.62-15.2,16.16-28.91,33.51-41.03,52.11-.87,1.33-1.45,2.93-3.46,4.03Z"/>
      <path class="cls-32" d="M262.04,173.08c-2.15,.15-2.46,2.06-3.12,3.48-10.19,22.03-22.31,43.13-31.88,65.46-2.5,5.83-5.49,11.37-10.7,15.37-5.52,4.23-12.44,4.95-18.21,1.72-5.98-3.35-9.21-10.37-8.56-17.21,3.1-32.47,12.91-62.97,26.67-92.35,.35-.74,.53-1.56,.79-2.35,11.53-6.86,23.92-11.93,36.27-17.05,7.13-2.96,14.41-5.56,22.95-8.83-2.78,6.07-4.99,10.9-7.21,15.74-4.19,5.65-5.55,12.34-6.98,19-.96,5.67-3.61,11.33-.02,17Z"/>
      <path class="cls-23" d="M634.01,109.15c-7.38,10.86-14.94,21.6-22.1,32.6-16.28,24.99-30.35,51.21-42.82,78.29-.89,1.92-1.07,4.15-1.76,6.18-2.69,7.85-8.66,11.81-16.39,13.62-14.4,.5-23.32-10.46-20.84-25.27,3.71-22.15,9.4-43.71,18.12-64.44,.09-1.29,.56-2.36,1.67-3.1,22.31-14.39,46.36-25.16,71.33-33.95,4.21-1.48,8.53-2.63,12.81-3.93Z"/>
      <path class="cls-13" d="M280.16,1181.89c.58,4.48,3.28,5.98,7.62,6.5,10.86,1.3,21.73,2.13,32.66,2.54,2.38,.09,3.58-.91,4.6-2.93,4.93-9.84,9.32-19.55,8.21-31.23-1.01-10.53-.19-21.19,1.68-31.72,1.11-6.3,4.03-11.51,8.06-16.27,.55,.38,.59,.8,.12,1.27-3.34,9.75,.71,15.79,11.05,16.76,6.29,.59,12.54,1.58,18.83,2.09,3.09,.25,3.79,1.57,3.69,4.46-.33,9.15-.38,18.3-.55,27.45-.29,16.18,1.15,32.23,3.66,48.2,.37,2.35,.59,3.61-2.7,4.19-29.94,5.27-59.52,4.08-88.83-4.1-2.48-.69-3.57-2.16-4.39-4.23-2.9-7.39-3.44-15.16-3.71-22.98Z"/>
      <path class="cls-13" d="M333.07,416.12c5.36-7.62,5.18-16.54,5.98-25.25,.82-8.94,2.9-17.66,5.34-26.25,5.82-20.49,12.86-40.62,22.77-59.47,12.52-23.81,24.32-48.07,39.52-70.38,3.34-4.9,6.61-9.94,11.36-13.7,1.35,6.65,2.66,13.31,4.06,19.95,.43,2.01-.42,3.49-1.43,5.07-24.04,37.4-40.43,77.94-49.7,121.38-.5,2.36-1.72,4.3-2.95,6.26-7.07,11.29-13.02,23.14-17.68,35.6-.99,2.66-2.26,4.08-5.07,4.5-4.09,.61-8.14,1.52-12.21,2.29Z"/>
      <path class="cls-34" d="M42.03,342.9c.31,6.19,4.37,11.4,4.53,17.7,.05,1.91,.5,3.91,.52,5.89,.32,23.01,3.15,45.75,6.73,68.45,2.29,14.55,5.38,28.89,9.28,43.07,.57,2.07,1.36,4.07,2.05,6.11-.05,.24-.1,.48-.16,.72-12.36,4.02-24.59,8.48-37.41,10.86-2.18,.4-2.53,1.65-2.7,3.35-1.58-4.27-1.12-8.82-1.48-13.2-3.96-48.46,2.09-95.72,17.81-141.73,.15-.45,.54-.82,.82-1.22Z"/>
      <path class="cls-32" d="M203.03,155.05c-.02,.33,.1,.77-.07,.97-12.34,14.58-16.36,33.16-23.96,50.01-8.3,18.41-12.47,38.19-18,57.51-2.03,7.07-4.65,13.62-12.93,15.6-8.27,1.97-15.96-2.21-18.99-10.4-2.41-6.51-1.95-13.06-.46-19.6,3.7-16.22,8.16-32.21,14.12-47.77,.5-1.3,2.16-2.9,.27-4.5,18.29-15.57,37.84-29.37,58.59-41.46,.41-.24,.95-.24,1.43-.36Z"/>
      <path class="cls-23" d="M1094.82,1063c-11.44,9.1-23.7,16.72-37.84,20.92-7.56-6.49-12.94-14.76-17.85-23.2-8.17-14.02-13.52-29.25-17.31-45.02,10.12-7.63,20.95-14.02,32.8-18.56,1.65-.63,3.4-1.44,5.31-1.07,1.01,.94,1.61,2.13,1.89,3.45,5.03,24.26,16.95,44.94,33,63.48Z"/>
      <path class="cls-32" d="M153.2,855.86c9.34,4.33,16.68,11.24,23.54,18.66,2.68,2.9,4.93,6.2,7.37,9.32-2.32,16.3-10.52,29.24-22.87,39.73-6.6,5.61-13.85,10.39-20.55,15.89-1.01,.73-2.06,1.32-3.38,.83-1.51-2.8-3.83-4.93-6.12-7.04-8.82-8.18-16.4-17.58-25.36-25.63,.24-1.16,1.16-1.49,2.13-1.77,8.15-1.01,15.05-4.76,21.48-9.62,5.98-4.51,11.05-9.98,16.25-15.3,5.54-5.67,7.84-12.52,6.86-20.43-.2-1.58-.95-3.28,.63-4.64Z"/>
      <path class="cls-29" d="M153.2,855.86c3.01,12.34-1.55,21.86-10.5,30.23-7.56,7.06-14.93,14.22-24.59,18.39-3.2,1.38-6.45,2.58-10.03,2.43-4.38-2.25-6.78-6.37-8.84-10.41-3.39-6.68-7.99-12.08-14.09-16.31-.77-.54-1.74-1.1-1.15-2.36,7.9-15.31,20.76-23.85,37.41-26.82,11.05-1.97,21.85-1.13,31.78,4.85Z"/>
      <path class="cls-13" d="M264,1022.81c-2.38,10.65,1.62,20.53,3.81,30.58,3.23,14.83,10.7,27.37,21.92,37.56,2.53,2.3,1.87,6.45,5.3,7.98-22.38-4.48-42.64-13.26-59.8-28.71-11.09-9.98-16.83-22.79-20.74-36.75-.93-3.33,1.22-2.61,2.94-2.63,10.77-.11,21.56,1.54,32.29-.87,5.41-1.22,10.7-2.41,14.27-7.16Z"/>
      <path class="cls-23" d="M975.84,1036.75c13-4.11,26.21-7.72,37.91-15.1,2.2,1.99,2.14,4.77,2.48,7.35,2.42,18.18,5.97,36.08,12.66,53.25,1.09,2.8,2.56,5.01,5.64,5.77,.51,.25,.88,.63,1.13,1.14-11.23,1.68-22.5,1.11-33.73,.32-6.74-.48-13.51-1.29-20-3.5-1.02-1.15-1.56-2.53-1.8-4.02-2.22-13.69-3.98-27.44-4.73-41.3-.07-1.33,.16-2.63,.44-3.92Z"/>
      <path class="cls-28" d="M292.02,824.92c8.45-13.37,17.05-26.64,27.02-38.95,10.55,.8,20.43,4.28,30.28,7.75,3.2,1.13,6.93,1.47,9.19,4.58,.79,2.14-.2,3.89-1.37,5.52-8.13,11.28-15.15,23.27-22.36,35.13-.77,1.26-1.45,2.62-2.86,3.35-2.49,.8-4.57-.56-6.6-1.51-9.89-4.62-19.79-9.23-29.97-13.18-1.37-.53-2.85-1.02-3.33-2.7Z"/>
      <path class="cls-32" d="M193.07,897.94c3.1,3.12,4.5,7.25,6.5,11.01,6.43,12.1,14.52,23.18,21.55,34.91-2.07,4.76-3.46,9.79-5.85,14.42-2.88,5.19-6.14,10.09-10.45,14.24-.85,.86-1.59,1.95-3.07,1.61-14.82-4.95-29.33-10.58-42.67-18.88-.31-.44-.38-.92-.22-1.43,9.66-6.53,18.11-14.32,25.06-23.75,6.37-8.65,8.87-18.32,8.43-28.89-.05-1.17-.26-2.32,.72-3.24Z"/>
      <path class="cls-14" d="M1094.82,1063c-5.11-2.12-7.28-7.07-10.31-11.06-12.64-16.63-20.88-35.28-24.58-55.88,17.52-3.1,34.14,3.75,42.62,17.2,6.08,9.65,5.64,20.07,3.31,30.32-1.66,7.3-3.91,14.92-11.04,19.41Z"/>
      <path class="cls-28" d="M263.04,876.93c4.42-11.4,10.71-21.82,16.88-32.31,1.33-2.25,2.71-4.47,4.06-6.71,11.56,5.08,22.63,11.11,33.76,17.03,1.84,.98,4.17,1.47,4.77,3.99,.21,1.05-.14,1.99-.64,2.86-6.19,10.69-11.14,21.97-15.98,33.3-.71,1.66-1.3,3.53-3.61,3.66-2.58-.2-4.72-1.56-6.84-2.83-9.25-5.56-18.72-10.72-28.35-15.59-1.59-.8-3.45-1.37-4.06-3.4Z"/>
      <path class="cls-28" d="M298.03,910.95c.05,.27,.08,.55,.11,.83,.79,1.69,.06,3.23-.53,4.75-3.17,8.13-6.03,16.39-9.1,24.56-.75,1.99-1.32,4.18-3.91,4.63-2.28,.04-4.09-1.19-5.94-2.27-10.99-6.47-21.73-13.34-32.71-19.83-1.53-.91-3.28-1.69-3.88-3.64,7.26-10.55,12.57-22.06,16.93-34.05,11.24,7.25,22.8,13.98,34.17,21.01,1.78,1.1,3.98,1.79,4.85,4.02Z"/>
      <path class="cls-28" d="M229.24,953.83c7.68,6.27,14.72,13.31,22.81,19.09,.46,.99,.23,1.96-.2,2.87-5.96,12.54-13.98,23.54-24.43,32.73-.61,.54-1.45,.79-2.15,1.22-16.38-.8-32.42-3.1-47.25-10.73,2.72-2.71,6.13-3.82,9.84-4.31,19.19-2.54,35.47-17.83,39.06-36.7,.31-1.65,.6-3.3,2.33-4.16Z"/>
      <path class="cls-28" d="M159.09,954.94c3.34-.35,5.43,2.2,8.01,3.54,10.45,5.45,21.24,10.05,32.55,13.36,1.19,.35,2.27,.48,2.4,1.97-1.56,4.64-5.7,6.78-9.41,9.01-8.52,5.11-17.6,8.95-27.61,10.13-13.51-6.39-25.04-15.76-36.95-24.57-4.09-3.02-8.73-5.35-12.09-9.31,1.5-1.44,3.17-.7,4.66-.18,10.98,3.84,21.51,2.15,31.89-2.33,2.04-.88,4.01-2.52,6.54-1.62Z"/>
      <path class="cls-29" d="M193.07,897.94c1.67,12.16-.74,23.27-8.41,33.08-7.17,9.17-14.55,18.09-25.51,23.07-7.22-2.63-12.79-7.7-18.46-12.6-.73-.63-1.15-1.6-.7-2.67,5.42-5.39,11.94-9.38,17.93-14.05,12.61-9.85,20.95-22.35,24.76-37.89,.26-1.07,.25-2.37,1.44-3.04,3.53,4.35,6.73,8.91,8.95,14.09Z"/>
      <path class="cls-28" d="M106,907.9c2.97-.35,4.62,1.75,6.11,3.65,6.92,8.76,15.46,15.93,23.07,24.01,1.17,1.24,3.18,2.18,1.93,4.49,.12,2.56-1.98,3.26-3.67,4.14-9.16,4.8-18.84,7.01-29.2,5.62-10.36-11.69-19.11-24.33-23.58-39.54-.91-3.11-.52-6.23-.57-9.35,2.2-.57,3.74,.98,5.48,1.76,4.74,2.13,9.82,2.67,14.86,3.48,1.9,.31,4.01,.16,5.54,1.73Z"/>
      <path class="cls-36" d="M358.08,798.87c-10.39-5.45-21.76-7.92-32.97-10.93-2.05-.55-4.28-.58-6.06-1.97,3.43-5.1,7.01-9.69,13.39-11.86,5.63-1.91,6.93-7.21,4.77-14.29,16.44-.44,32.1,2.67,46.81,10.17-11.56,6.73-17.88,17.8-24.01,29.02-.69,.56-1.34,.53-1.93-.15Z"/>
      <path class="cls-14" d="M1034.89,1088.73c-3.32,.92-5.11-.4-6.4-3.59-6.24-15.41-9.86-31.48-12.52-47.81-.85-5.21-1.48-10.45-2.21-15.68,2.69-1.98,5.38-3.96,8.07-5.95,1.11,.57,1.7,1.46,2.01,2.68,5.99,23.69,15.8,45.43,32.44,63.71,.41,.45,.48,1.21,.71,1.83-6.11,2.6-12.47,4.24-19.09,4.83-.99-.94-2-.54-3-.03Z"/>
      <path class="cls-32" d="M117.05,222.04c-1.79,17.8-5.69,35.21-9.71,52.6-.72,3.1-1.99,6.02-4.67,8-7.55,5.58-16.53,1.83-18.64-7.54-.82-3.64,0-7.55-1.9-10.98,10.71-14.8,21.7-29.37,34.92-42.08Z"/>
      <path class="cls-35" d="M165.03,992.95c.77-1.27,2.11-1.6,3.39-1.86,12.85-2.59,24.16-8.14,33.64-17.28,.69-.6,1.38-1.19,2.08-1.79,5.96-2.82,9.69-7.22,9.99-14.06,1.48-3.66,2.94-7.32,4.46-10.96,.53-1.27,.43-3.12,2.54-3.15,2.71,3.32,5.42,6.65,8.13,9.97-1.19,12.23-8,21.55-15.82,30.31-5.52,6.19-12.37,10.05-20.65,11-5.13,.59-9.96,2.11-14.76,3.86-4.33-2.02-8.66-4.03-12.99-6.05Z"/>
      <path class="cls-23" d="M957.87,1078.83c-9.57-3.36-18.65-7.57-26.06-14.74-.36-9.57,.27-18.99,4.09-27.94,8.77,2.87,17.74,3.93,26.93,2.92,1.01,3.38-.42,6.58-.82,9.83-1.04,8.43-2.42,16.81-2.67,25.32-.05,1.67-.11,3.36-1.47,4.62Z"/>
      <path class="cls-35" d="M242.08,919.97c13.97,8.33,27.94,16.66,41.92,24.99,.58,.78,2.49,.1,2.13,1.93-3.97,6.63-8.52,13.04-8.17,21.31,.08,1.93-.3,3.6-2.1,4.66,1.12-8.23-.06-9.93-6.68-14.35-10.19-6.8-20.58-13.46-28.27-23.35-4.92-6.33-4.99-6.29-.65-12.85,.54-.82,1.21-1.56,1.82-2.34Z"/>
      <path class="cls-35" d="M225.27,1009.73c8.03-8.4,16.04-16.8,21.66-27.12,1.75-3.21,3.41-6.46,5.12-9.69,2.2,1.42,4.37,2.89,6.61,4.23,4.84,2.91,9.68,2.45,14.48-.16-.05,.98-.1,1.96-.14,2.94-.67,7.56-3.38,14.38-8.02,20.31-2.12,2.71-1.96,6.25-4.01,8.88-3.95-1.71-7.96-1.82-12.08-.67-7.77,2.16-15.69,1.72-23.61,1.27Z"/>
      <path class="cls-14" d="M957.87,1078.83c.25-13.43,1.34-26.76,4.96-39.77,4.34-.77,8.67-1.54,13.01-2.31,2.27,3.44,1.06,7.41,1.39,11.08,1.15,12.78,3.37,25.41,4.71,38.16-8.35-1.27-16.33-3.82-24.07-7.16Z"/>
      <path class="cls-35" d="M322.1,858.85c-10.82-5.97-21.6-12.02-32.91-17.06-1.96-.87-4.74-.89-5.21-3.87,2.68-4.33,5.36-8.67,8.04-13,13.67,4.92,26.46,11.87,39.96,17.19,.25,.17,.34,.35,.28,.55-.07,.2-.14,.3-.22,.3-4.26,4.55-7.25,9.83-8.97,15.82-.3,.4-.62,.44-.97,.07Z"/>
      <path class="cls-35" d="M104.25,949.81c6.2-1.48,12.71-.85,18.85-2.84,5.03-1.62,10.04-3.2,14.01-6.93,.95-.41,1.91-.82,2.86-1.23,3.89,5.05,9.43,8.09,14.45,11.76,1.58,1.16,3.14,2.34,4.71,3.51-.02,.28-.04,.57-.06,.85-13.76,7.65-28.04,9.92-43.09,4.13-4.49-2.35-8.1-5.81-11.74-9.25Z"/>
      <path class="cls-35" d="M298.03,910.95c-12.42-7.41-24.84-14.82-37.27-22.21-1.11-.66-1.66-1.58-1.75-2.83,1.34-3,2.69-5.99,4.03-8.99,13.37,6.32,25.97,14.05,38.98,21.02,.57,.8,2.43,.16,2.14,1.92-3.28,.53-2.78,3.66-3.84,5.69-.9,1.73-1.53,3.59-2.28,5.4Z"/>
      <path class="cls-35" d="M106,907.9c-9.09-.61-18.18-1.22-25.89-6.98-.22-7.95-.61-15.93,3.89-23.09,10.2,5.49,14.46,15.99,20.86,24.69,1.08,1.46,2.15,2.93,3.22,4.39-.69,.33-1.39,.66-2.08,.99Z"/>
      <path class="cls-13" d="M296.99,1118.77c-.63,.94-1.62,1.8-1.84,2.83-2.01,9.26-7.49,16.01-15.06,21.31-.09-7.42-.03-14.84-.33-22.25-.13-3.25,1.43-3.1,3.61-2.52,4.5,1.18,9,2.03,13.62,.64Z"/>
      <path class="cls-15" d="M343.09,1110.05c-.04-.42-.08-.84-.12-1.27,11.26-12.13,32.88-12.05,43.05,.17-9.99-1.06-19.98-2.03-29.96-3.22-5.09-.61-9.48,.41-12.98,4.32Z"/>
      <path class="cls-12" d="M80.94,636.27c1.72-1.56,2.29,.43,2.99,1.15,8.17,8.46,17.13,16.03,26.13,23.56,2.3,1.92,1.53,3.12-3.26,5.14-9.56-9.13-18.26-19.01-25.86-29.85Z"/>
      <path class="cls-1" d="M935.9,1036.14c-1.36,9.31-2.73,18.63-4.09,27.94-2.66-2.34-6.93-4.35-7.51-7.13-.55-2.62,2.85-6.02,4.43-9.12,1.66-3.25,3.2-6.56,4.84-9.82,.48-.95,.61-2.44,2.34-1.87Z"/>
      <path class="cls-25" d="M583.69,849.12c9.91-3.31,18.42,.06,26.45,5.61,1.34,.93,2.56,2.04,3.84,3.07-10.32-2.1-20.49-4.73-30.29-8.68Z"/>
      <path class="cls-17" d="M260.97,1009.13c-.36-3.63,.77-6.74,2.99-9.63,4.47-5.82,7.18-12.5,9.04-19.55,.28,9.63-2.85,18.29-7.59,26.48-.98,1.69-2.54,3.14-2.28,5.36-1.26-.45-1.44-1.76-2.16-2.65Z"/>
      <path class="cls-10" d="M692.96,869.84c9.96-5.45,20.32-6.52,31.1-2.8-10.27,1.96-20.69,2.37-31.1,2.8Z"/>
      <path class="cls-33" d="M283,162.05c-.24,7.12-1.67,14.06-3.1,21-4.26-1.73-8.53-3.46-12.79-5.2,9.85,.99,12.67-1.19,14.26-10.75,.29-1.72,.31-3.63,1.64-5.05Z"/>
      <path class="cls-18" d="M262.05,156.08c.25-7.1,.42-14.23,6.99-19-1.59,6.61-4.37,12.77-6.99,19Z"/>
      <path class="cls-6" d="M428.86,61.07c-2.1-3.02-4.64-5.87-3.78-10.01,2.82,2.75,7.95,4.62,3.78,10.01Z"/>
      <path class="cls-26" d="M549.88,147.04c-.56,1.03-1.11,2.07-1.67,3.1-.48-.42-.97-.84-1.45-1.26,.73-1.14,1.83-1.65,3.12-1.84Z"/>
      <path class="cls-2" d="M1034.89,1088.73c1.01-1.22,2.03-3.05,3,.03-.74,.14-1.48,.27-2.23,.41-.2-.24-.46-.39-.77-.44Z"/>
      <path d="M801.97,399.18c-.47,15.3-4.3,29.59-13.28,42.16-9.2,12.88-19.83,14.7-33.16,6.03-5.16-3.35-9.22-7.78-11.77-13.3-9.88-21.43-12.05-43.39-3.7-65.86,1.98-5.33,4.97-10.17,8.91-14.32,9.85-10.39,22.13-11.03,32.73-1.48,10.66,9.6,16.48,21.93,19.27,35.82,.72,3.59,1.18,7.24,.99,10.94Z"/>
      <path d="M521.14,389.84c-.04,14.73-2.22,26.71-8.36,37.73-2.87,5.15-6.6,9.56-11.63,12.77-11.75,7.48-25.64,5.58-32.82-6.22-14.81-24.33-18.07-49.92-4.75-76.24,2.11-4.17,4.99-7.86,8.43-11.05,10.33-9.6,22.26-9.57,32.32,.3,8.7,8.55,13.37,19.24,15.68,31.07,.89,4.59,1.2,9.23,1.14,11.64Z"/>
      <path class="cls-16" d="M826.39,454.81c15.13,.49,28.36,5.54,36.55,18.73,12.54,20.19,1.28,43.72-24.06,50.46-17.95,4.77-43.96-8.85-51.84-25.09-5.71-11.76-4.4-26.63,9.64-35.25,9.13-5.6,18.85-8.98,29.71-8.84Z"/>
      <path class="cls-16" d="M424.64,436.95c9.35-.17,18.35,1.19,25.59,7.73,9.24,8.34,12.06,24.08,6.94,36.97-5.13,12.93-15.59,20.24-29.04,20.44-15.1,.23-26.77-6-34.46-18.93-9.97-16.79-2.68-44.96,25.98-46.2,1.66-.07,3.33,0,4.99,0Z"/>
      <path d="M662.1,434.22c-2.05,9.1-7.63,15.36-15.94,19.17-2.3,1.06-3.08,2.26-3.33,4.76-.83,8.26-1.39,16.59-3.87,24.6-3.96,12.8-12.21,21.8-24.81,26.11-12.67,4.33-29.3-2.76-37.23-15.09-6.79-10.56-9.12-22.44-9.65-34.68-.15-3.53-.67-4.73-4.47-4.98-13.34-.9-20.67-12.28-16.41-25.87,2.71,6.39,6.28,11.55,11.62,15.37,6.2,4.43,12.31,5.09,18.94,.81,5.85-3.78,10.49-8.64,14.58-14.17,2.08-2.81,2.55-4.77-.06-7.96-5.63-6.88-3.65-16.44,3.7-21.28,6.9-4.55,16.15-2.32,20.31,4.9,3.93,6.81,1.62,15.3-5.77,19.18-3.04,1.6-3.18,2.96-2,5.73,4.84,11.32,13.37,17.73,25.55,18.62,11.34,.83,19.82-4.46,25.84-13.9,.71-1.12,1.33-2.3,1.99-3.45,1.89-.02,1.31,1.13,1.01,2.14Z"/>
      <path class="cls-3" d="M962,545.2c-10.18-.79-18.88-1.45-27.57-2.16-1.39-.11-2.06-.99-1.83-2.41,.11-.65,.35-1.28,.53-1.93q3.32-11.92,13.35-4.75c4.8,3.44,9.56,6.93,15.51,11.24Z"/>
      <path class="cls-5" d="M940.35,519.33c.96-4.34,1.77-8.03,2.67-12.14,8.08,3.83,15.32,8.75,23.49,11.84-.07,.52-.14,1.03-.21,1.55-8.61-.42-17.22-.83-25.95-1.26Z"/>
      <path class="cls-31" d="M662.1,434.22c-.34-.71-.67-1.43-1.01-2.14,.35-1.28,.69-2.56,1.04-3.84,1.8-.2,1.29,.91,1.07,1.86-.3,1.39,.09,2.96-1.1,4.12Z"/>
      <path class="cls-20" d="M663.19,430.1c-.36-.62-.71-1.24-1.07-1.86-.04-1.04,.42-1.81,1.52-2.55,.61,1.65,.56,3.06-.46,4.42Z"/>
      <path class="cls-16" d="M1058.94,203.01c.02,20.92-1.87,41.72-4.01,62.5-.45,4.34-2.84,3.29-5.19,2.35-13.76-5.53-27.1-11.99-40.11-19.04-19.88-10.77-38.79-23.1-56.81-36.79-12.17-9.24-23.46-19.51-35-29.49-2.46-2.13-2.23-3.74-.55-6.16,13.35-19.19,28.83-36.4,46.48-51.76,22.17-19.29,46.97-34.1,74.13-45.16,3.4-1.38,4.33-1,5.31,2.67,5.42,20.35,9.32,40.96,11.81,61.87,1.47,12.35,2.48,24.7,3.15,37.12,.4,7.3,.43,14.6,.79,21.89Z"/>
      <path class="cls-4" d="M967.91,488.99c-7.43,1.91-15,2.69-22.63,3.17-2.73,.17-3.87-.37-3.68-3.38,.26-4.09,.07-8.21,.07-13.04,9.54,3.39,17.93,7.27,26.3,11.19,.55,.7,.55,1.38-.05,2.05Z"/>
      <path class="cls-27" d="M967.91,488.99c.02-.68,.03-1.37,.05-2.05,1.19-.03,2.57,.22,2.44,1.55-.08,.8-1.56,.68-2.5,.5Z"/>
      <path class="cls-32" d="M332.04,842.95c-.03-.28-.05-.57-.06-.85,6.87-13.25,15-25.72,23.46-37.98,1.15-1.66,2.38-3.18,2.63-5.25,.65,.05,1.29,.1,1.93,.15,14.7,7.07,29.13,14.56,41.94,24.86,9.5,7.65,18.28,16.06,26.45,25.05,8.7,9.59,3.8,24.03-8.26,28.68-14.65,5.66-26.49-.86-38.09-7.52-16.46-9.45-33.22-18.31-50.01-27.14Z"/>
      <path class="cls-32" d="M304.16,899.87c-.71-.64-1.42-1.28-2.14-1.92,2.35-.08,2.2-2.24,2.78-3.59,5.17-12.13,10.57-24.15,17.31-35.51,.33,.02,.65,0,.97-.07,20.56,11.29,40.04,24.34,59.74,37.03,7.51,4.84,10.8,12.43,9.03,20.01-1.69,7.19-7.57,11.52-16.24,13.36-14.25,3.02-25.48-4.09-37.01-10.25-11.57-6.18-22.96-12.69-34.43-19.06Z"/>
      <path class="cls-32" d="M286.12,946.89c-.71-.64-1.42-1.29-2.13-1.93,2.6-.35,2.62-2.6,3.3-4.41,3.6-9.6,7.23-19.18,10.85-28.77,12.44,6.62,24.94,13.13,37.29,19.91,8.39,4.61,11.79,14.82,8.08,23.13-3.71,8.32-13.85,12.6-23.21,9.24-11.13-3.99-20.92-10.79-31.5-15.95-.88-.43-1.79-.81-2.68-1.22Z"/>
      <path class="cls-19" d="M214.12,957.97c2.02,6.09-4.35,15.04-9.99,14.06,3.67-4.45,7.24-8.96,9.99-14.06Z"/>
      <path class="cls-9" d="M605.36,499.99c-8.42-.55-16.21-4.25-21.02-12.92-5.21-9.38-7.23-19.55-7.23-30.2,0-2.55,.71-4.21,3.55-5.15,6.21-2.05,11.72-5.52,16.45-10.07,1.7-1.64,2.62-1.65,4.32,.11,7.86,8.12,17.26,13.46,28.65,14.72,2.42,.27,3.15,1.22,2.81,3.5-1.09,7.38-1.36,14.92-4.03,22.01-3.88,10.29-13.7,18.19-23.49,18Z"/>
    </g>
  </g>
</svg>