<?xml version="1.0" encoding="UTF-8"?>
<svg id="_图层_2" data-name="图层 2" xmlns="http://www.w3.org/2000/svg" viewBox="0 0 1924 1382">
  <defs>
    <style>
      .cls-1 {
        fill: #040404;
      }

      .cls-2 {
        fill: #060606;
      }

      .cls-3 {
        fill: #050505;
      }

      .cls-4 {
        fill: #050403;
      }

      .cls-5 {
        fill: #eaeaea;
      }

      .cls-6 {
        fill: #e499b0;
      }

      .cls-7 {
        fill: #e49ab0;
      }

      .cls-8 {
        fill: #e49ab1;
      }

      .cls-9 {
        fill: #e4be90;
      }

      .cls-10 {
        fill: #fefefe;
      }

      .cls-11 {
        fill: #e5e5e5;
      }

      .cls-12 {
        fill: #fdd3a0;
      }

      .cls-13 {
        fill: #fdfdfd;
      }

      .cls-14 {
        fill: #fead8d;
      }

      .cls-15 {
        fill: #cf8ba0;
      }

      .cls-16 {
        fill: #c9c9c9;
      }

      .cls-17 {
        fill: #d090a4;
      }

      .cls-18 {
        fill: #de8f56;
      }

      .cls-19 {
        fill: #c7814e;
      }

      .cls-20 {
        fill: #dfb98c;
      }

      .cls-21 {
        fill: #afafaf;
      }

      .cls-22 {
        fill: #d7d6d2;
      }

      .cls-23 {
        fill: #c8814e;
      }

      .cls-24 {
        fill: #121212;
      }

      .cls-25 {
        fill: #070707;
      }

      .cls-26 {
        fill: #36361c;
      }

      .cls-27 {
        fill: #3f3e21;
      }

      .cls-28 {
        fill: #887c5b;
      }

      .cls-29 {
        fill: #887d5b;
      }

      .cls-30 {
        fill: #3c3c1f;
      }

      .cls-31 {
        fill: #786e51;
      }

      .cls-32 {
        fill: #7c7152;
      }

      .cls-33 {
        fill: #7b7051;
      }

      .cls-34 {
        fill: #7b7152;
      }
    </style>
  </defs>
  <g id="_图层_1-2" data-name="图层 1">
    <g>
      <path class="cls-13" d="M1923.91,805.97c0,190.47-.01,380.94,.09,571.41,0,3.75-.84,4.59-4.59,4.59-449.79-.1-899.58-.09-1349.37-.09-2.7-1.08-5.53-.2-8.27-.54-1.35-.16-3.04,.79-3.92-1.09,3.23-3.12,7.29-1.84,10.88-1.59,18.14,1.27,36.24,1.02,54.39,.06,9.63-.51,19.3-.58,28.92-1.28,20.42-1.49,40.92-2.57,60.59-9.06,2.06-.68,4.07-1.45,6.02-2.43,5.23-2.65,8.25-6.58,9.47-12.58,3.82-18.93,.9-36.77-7.56-53.87-2.45-4.97-5.7-9.43-10.16-12.83-2.43-1.85-3.54-4.19-3.93-7.19-.48-3.64-.85-7.27-.84-10.94,.04-15.14,.08-30.28-.38-45.42-.11-3.61,1.48-6.45,3.44-9.16,10.05-13.86,17.8-28.87,23.32-45.11,6.91-20.33,12.34-40.85,10.53-62.61-1.77-21.32-5.43-42.27-12.07-62.66-2.31-7.08-1.53-8.13,6.14-8,29.61,.5,58.87-2.43,87.73-9.07,24.44-5.62,47.08-15.57,68.07-29.23,11.24-7.31,19.23-17.48,23.9-29.99,6.88-18.41,11.84-37.26,8.26-57.15-2.75-15.23-9.6-28.45-19.87-40.22-16.38-18.78-37.75-29.14-60.42-37.55-28.33-10.52-57.95-15.11-87.74-18.9-1.89-.24-4.88,.3-5.18-1.89-.33-2.5,2.73-2.9,4.67-3.54,19.06-6.3,37.46-13.98,54.21-25.23,24.55-16.48,43.54-38.1,58.07-63.68,14.13-24.87,22.18-51.77,24.11-80.24,2.06-30.38-3.09-59.75-14.9-87.9-4.47-10.64-9.95-20.74-16.19-30.4-2.66-4.12-3.72-8.31-3.74-13.16-.12-28.52-2.26-56.84-7.74-84.9-6.67-34.19-18.62-66.27-36.46-96.25-8.44-14.18-16.17-28.79-27.31-41.13-5.89-6.53-11.46-13.42-18.37-18.97-2.31-1.85-2.73-4.39-3.15-7.08-3.29-21.44-7.29-42.73-15.48-62.95-9.28-22.92-20.15-45.01-35.14-64.83-5.53-7.31-11.94-13.88-18.31-20.47-2.63-2.72-5.92-3.51-9.57-3.42-23.82,.59-46.43,6.17-68.07,16.11-11.37,5.22-22.48,10.89-33.19,17.35-2.45,1.48-4.78,1.74-7.59,.93-27.78-8.05-56.2-12.47-84.92-15.53-25.27-2.69-50.61-2.57-75.86-1.56-30.47,1.21-60.62,5.96-90.36,13-42.86,10.15-83.78,25.5-122.85,45.78-3.99,2.07-7.91,4.29-11.74,6.65-3.33,2.06-6.51,2.21-9.9,.38-23.65-12.76-49.28-16.43-75.73-17.22-26.39-.79-52.17,2.31-77.57,9.32-11.78,3.25-19.78,9.64-21.71,22.47-2.68,17.8-4.41,35.54-3.38,53.64,.95,16.63,2.31,33.19,4.12,49.74,.22,2.02,.71,4.4-1.79,5.69-2-1.25-1.84-3.41-2.12-5.31-2.14-14.59-2.57-29.29-2.8-44.01-.03-1.94,.54-3.97-.49-5.84C.1,174.23,.13,89.41,0,4.6,0,.85,.85,0,4.6,0,567.71,.1,1130.82,.1,1693.93,.1c-.49,2.84-2.94,2.19-4.69,2.46-27.74,4.33-54.91,10.93-81.15,20.99-36.97,14.16-69.89,35.07-99.81,60.81-3.15,2.71-5.99,3.42-9.96,2.2-24.89-7.64-50.2-13.54-76.1-16.49-21.19-2.41-42.39-3.23-63.77-1.94-22.72,1.37-45.01,4.87-67.13,9.85-4.11,.93-7.35,.12-10.68-2.39-50.67-38.32-107.89-60.93-170.37-70.91-9.4-1.5-16.88,1.05-22.4,9.37-12.06,18.2-21.3,37.64-27.51,58.57-7.74,26.07-11.75,52.69-10.85,79.85,.81,24.46,3.03,48.88,8.25,72.85,1.84,8.46,.39,15.05-4.24,22.42-21.49,34.17-35.73,71.4-44.63,110.71-.9,3.97-2.31,7.6-4.44,11.05-5.25,8.51-9.91,17.34-13.93,26.52-2.65,6.06-2.81,5.99-10.38,5.17,6.2,3.89,5.72,8.67,3.51,13.88-1.17,2.76-1.69,5.75-2.57,8.62-1.08,3.52-3.18,4.79-6.8,3.84-4.13-1.08-8.29-2.09-12.59-3.24,5.13,3.57,8.97,8.24,13.41,12.27,1.49,1.35,1.98,3.01,1.66,4.97-.48,2.96-1.05,5.91-1.64,8.84-.55,2.75-2.45,4.24-5.03,5.01-4,1.18-7.93,2.56-13.12,4.26,3.52,.55,5.88,1.23,8.29,1.76,7.75,1.7,8.69,2.71,8.01,10.36-1.13,12.7,.06,25.26,2.1,37.73,5.52,33.72,17.86,64.76,37.24,92.96,.38,.55,.77,1.09,1.14,1.65,2.85,4.39,2.35,6.21-2.68,7.49-7.9,2.02-15.05,5.54-21.4,10.49-15.2,11.84-25.45,27.04-30.22,45.84-4.48,17.65-5.33,35.71-3.66,53.61,1.78,19.14,10.5,35.78,23.88,49.55,17.93,18.45,38.25,33.27,62.78,42.43,34.55,12.91,69.55,24.15,105.33,33,7.12,1.76,14.34,3.04,21.6,4.09,5.65,.82,6.49,1.53,7.01,7.15,2.47,26.58,6.65,52.87,13.16,78.77,.69,2.75,1.45,5.47,2.28,8.18,1.93,6.31,1.07,7.47-5.29,6.04-15.64-3.51-30.1,0-43.98,7.03-25.64,12.98-39.43,34.45-44.19,62.28-5.55,32.48-.37,63.55,11.43,94.02,8.86,22.88,22.84,42.1,41.92,56.8,23.91,18.42,51.25,20.08,79.23,10.24,7.29-2.56,14.07-6.86,20.45-11.44,3.73-2.68,7.8-4.23,12.29-5.22,33.68-7.41,67.32-15.01,100.82-23.24,33.49-8.23,66.73-17.47,100.53-24.42,21.72-4.47,43.62-7.59,65.75-9.3,15.94-1.23,31.88-1.85,47.87-1.97,37.08-.27,73.82,3.17,110.31,9.53,16.42,2.86,32.77,6.14,48.85,10.52,10.47,2.85,21.21,4.27,31.79,6.57,5.87,1.28,11.6-.31,17.33-1.3,29.58-5.14,50.63-30.88,53.6-58.41,4.69-43.48-11.08-78.51-43.75-106.65-6.07-5.23-12.25-10.27-19.15-14.39-1.11-.66-2.64-1.38-2.5-2.84,.17-1.83,2.06-2.07,3.44-2.28,9.93-1.52,19.42-4.74,29.04-7.41,27.08-7.51,51.48-19.69,71.38-40.2,12.6-12.99,24.42-26.41,32.49-42.77,8.41-17.04,12.09-34.83,8.78-53.78-.37-2.1-1.07-4.27,.57-6.21,2.84,.12,1.75,2.57,2.33,4,.79,1.95-.39,4.18,.77,6.1Z"/>
      <path class="cls-10" d="M558.1,1379.69c1.8,2.19,4.26,.81,6.39,1.17,1.85,.32,3.94-.69,5.54,1.01-188.43,0-376.85-.02-565.28,.12C.54,1382,0,1380.93,0,1377.05,.11,1004.38,.1,631.72,.1,259.05c1.63,1.47,.95,3.42,.97,5.16,.17,16.19,2.54,32.19,4.16,48.25,.05,.53,.72,1.01,1.11,1.51,2.39,.7,1.91,2.86,2.21,4.54,2.67,15.26,4.78,30.64,10.66,45.14,1.45,3.57,3.04,7.04,5.75,9.87,2.37,2.48,2.44,5.19,1.3,8.31-9.49,25.95-15.62,52.75-18.39,80.18-1.78,17.66-2.66,35.37-1.71,53.28,1.95,37.08,9.07,72.99,21.05,108.01,15.38,44.96,38.08,85.87,69.53,121.58,36.2,41.1,80.39,70.56,132.23,88.45,23.89,8.24,48.44,13.46,73.53,16.25,5.7,.63,6.68,2.36,3.76,7.45-7.14,12.43-13.76,25.13-20.21,37.92-20.54,40.7-33.96,83.55-39.36,128.87-1.81,15.22-2.39,30.52-3.19,45.8-.37,7.01-1.33,7.83-7.64,5.19-12.33-5.15-24.14-11.33-35.42-18.45-6.84-4.32-12-10.49-17.1-16.67-16.18-19.59-37.18-26.58-61.91-23.2-15.53,2.12-26.57,11.7-36.23,23.11-9.3,10.99-15.67,23.58-18.92,37.61-4.02,17.29-2.41,34.31,4.91,50.34,13.86,30.33,35.95,52.73,67.1,65.24,21.45,8.61,44.04,12.67,67.06,14.85,23.61,2.24,46.91,.19,70.09-3.83,6.71-1.16,11.65-.03,16.45,5.1,3.83,4.1,7.63,8.35,11.98,11.99,2.64,2.2,2.86,5.25,2.43,8.26-2.34,16.16-3.59,32.43-5.3,48.65-2,18.89-3.13,37.83-2.47,56.83,.35,10.02,5.61,16.39,15.42,18.98,7.26,1.92,14.68,3.08,22.07,4.3,15.62,2.57,30.91,6.77,46.65,8.77,22.87,2.91,45.48,1.16,68.03-2.85,2.13-.38,4.25-.83,6.39-1.2,3.22-.55,5.92-.19,7.56,3.16,1.01,2.07,3.01,3.03,5.14,3.69,5.6,1.72,11.31,2.78,17.17,3.03,14.3,.61,28.49,2.63,42.78,3.43,7.47,.42,14.91,1.35,22.39,1.63,2.12,.08,4.83-.91,5.99,2.12Z"/>
      <path class="cls-10" d="M1923.91,805.97c-2.08-2.98-.28-7.23-3.24-9.92-2.06-.38-2.25-2.25-2.89-3.71-8.58-19.63-22.84-32.73-43.6-38.76-12.01-3.49-23.87-5.62-36.38-2.47-24.36,6.15-40.31,21.6-50.29,44.06-7.37,16.58-14.09,33.43-22.54,49.57-8.03,15.33-20.92,23.17-36.76,27.54-3.37,.93-6.8,1.64-10.3,1.95-3.77,.33-6.23-1.09-7.82-4.73-3.73-8.56-3.68-10.35,3.41-16.38,30-25.57,43.77-59.06,48.25-97.32,1.47-12.61,2.33-25.23,1.76-37.87-1.09-24.49-7.07-47.36-23.26-66.68-4.55-5.43-9.85-9.91-15.48-14.08-5.16-3.82-5.26-4.98-.71-9.7,20.95-21.74,37.62-46.24,47.56-74.94,7.88-22.76,12.83-46.15,15.07-70.17,1.46-15.65,1.08-31.31,.75-46.93-.44-20.69-3.77-41.08-8.37-61.27-6.39-28.08-15.75-55.07-28.93-80.71-1.14-2.22-2.19-4.51-3.6-6.57-3.69-5.4-4.59-11.22-3.43-17.63,.95-5.23,1.12-10.62,1.28-15.9,.52-17.3,1.81-34.59,1.18-51.92-1.98-54.64-9.76-108.4-24.4-161.13-2.18-7.87-4.48-15.7-6.9-23.49-2.25-7.26-6.65-12.14-14.28-13.87-1.58-.36-3.87-.24-4.04-2.84C1770.42,.1,1844.91,.13,1919.41,0c3.75,0,4.59,.85,4.59,4.59-.1,267.12-.09,534.25-.09,801.37Z"/>
      <path d="M1695.93,.1c3.7,2.43,8.58,1.58,12.16,4.78,3.07,2.74,5.63,5.61,6.85,9.52,21.52,68.78,32.91,139.1,31.75,211.28-.25,15.48-.82,30.97-2.58,46.37-.51,4.46,.29,8.28,2.48,12.29,32.4,59.36,46.04,123.04,41.97,190.32-2.42,40.04-11.34,78.64-32.29,113.56-9.8,16.34-21.56,31.18-35.84,44.29,5.98,4.16,11.64,8.24,16.6,13.2,15.89,15.89,24.09,35.67,26.45,57.42,4.21,38.86,.55,76.76-17.93,112.18-8.2,15.72-18.69,29.54-32.87,40.29-3.85,2.92-4.29,5.77-2.64,10.1,3.07,8.08,2.82,8.08,11.55,6.6,8.3-1.4,16.02-4.42,23.45-8.2,6.83-3.47,12.12-8.69,15.95-15.38,7.69-13.45,14.23-27.44,19.97-41.82,2.96-7.41,6-14.83,10.08-21.7,14.5-24.45,35.79-38.85,64.48-36.74,30.71,2.26,54.25,16.93,65.15,47.58,6.81,32.21-3.84,59.41-23.38,84.49-24.03,30.84-54.55,51.24-92.6,60.47-9.69,2.35-19.12,5.75-30.51,7.15,9.68,4.63,16.75,10.8,23.92,16.85,25.58,21.58,40.94,48.71,44.3,82.21,1.25,12.51,.86,25.05-2.94,37.12-8.66,27.51-27.35,43.66-55.85,48.53-7.19,1.23-14.08,.7-21.23-.8-38.39-8.03-76.39-18.03-115.6-21.84-37.07-3.6-74.11-4.37-111.29-1.93-49.98,3.28-98.09,15.89-146.31,28.16-42.07,10.7-84.33,20.59-126.8,29.56-3.51,.74-6.53,2.16-9.41,4.27-23.08,16.9-48.62,21.66-76.22,14.65-11.24-2.85-21.7-7.97-30.07-16.13-45.09-43.96-60.43-97.36-47.27-158.33,7.4-34.26,34.38-57.31,67.81-62.06,8.18-1.16,16.21,.16,24.84,1.99-3.33-11.42-6.03-22.46-8.39-33.59-4.23-19.9-6.88-40.02-8.48-60.28-.19-2.46-.57-3.96-3.41-4.33-29.87-3.83-58.28-13.45-86.87-22.28-19.07-5.89-37.85-12.71-56.05-20.9-22.9-10.3-41.84-26.05-57.26-45.66-11.25-14.31-17.45-30.97-17.75-49.43-.28-16.86,.09-33.79,5.34-49.95,8.3-25.56,23.87-44.69,50.27-53.47,1.85-.62,4.04-.23,5.79-1.97-7.32-10.29-13.99-20.99-19.59-32.31-16.82-33.99-25.85-69.75-23.6-107.89,.23-3.95-1.34-4.74-4.45-5.29-4.86-.86-9.67-1.99-15.8-3.28,6.7-2.15,11.99-4.08,17.42-5.5,3.15-.83,4.03-2.45,5.12-5.52,2.72-7.69,.33-12.63-5.98-16.95-3.34-2.29-6.02-5.54-9.43-8.76,6-.11,10.99,1.92,16.01,3.34,3.48,.98,4.4-.22,4.98-3.06,.37-1.79,.68-3.63,1.38-5.3,2.97-7.06,5.24-13.9-4.45-18.01,.8-.65,1-.94,1.2-.95,3.11-.11,6.55,2.93,8.93,1.03,2.2-1.74,2.78-5.5,4.1-8.36,4.04-8.76,8.44-17.34,13.78-25.38,2.04-3.07,2.35-6.55,3.12-9.9,9.55-41.52,25.42-80.4,48.58-116.21,1.61-2.49,1.84-4.78,1.28-7.51-7.37-35.7-11.6-71.73-8.65-108.18,3.3-40.79,15.29-78.83,38.73-112.83,4.86-7.05,11.79-9.89,19.83-8.69,59.1,8.85,113.83,29,162.89,63.61,1.63,1.15,3.56,2.02,4.88,3.45,6.81,7.39,14.51,7.14,23.8,4.99,54.09-12.5,108.29-11.82,162.4,.35,12.98,2.92,25.89,6.1,38.51,10.32,2.32,.78,3.8,.4,5.69-1.25,47.06-40.91,100.96-67.94,162.4-79.51,8.56-1.61,17.11-3.28,25.66-4.92,.67,0,1.33,0,2,0Z"/>
      <path d="M558.1,1379.69c-11.09-.92-22.17-1.86-33.26-2.76-14.44-1.18-28.88-2.35-43.32-3.49-5.03-.4-9.74-2.12-14.57-3.35-1.58-.4-3.01-1.1-3.3-2.67-.79-4.42-3.6-4.25-6.95-3.48-36.81,8.47-73.36,6.49-109.83-2.38-9.85-2.39-19.93-3.8-29.91-5.66-13.64-2.55-19.43-9.35-19.89-23.25-.82-25.23,2-50.24,4.53-75.26,.99-9.77,2.2-19.52,3.5-29.26,.42-3.1-.36-4.78-2.98-6.95-5.33-4.41-9.61-10.03-14.92-14.59-2.04-1.75-3.69-2.54-6.58-2.07-20.23,3.27-40.53,6.07-61.12,5.33-20.2-.73-40.19-3.34-59.74-8.33-39.47-10.07-69.66-32.34-88.03-69.28-21.37-42.97-1.99-85.62,26.53-107.19,19.57-14.8,41.31-13.83,63.01-4.44,8.63,3.74,16.51,8.89,21.92,16.85,10.61,15.62,26.81,23.51,42.96,31.48,5.03,2.48,10.26,4.58,15.6,6.94,.75-12.82,1.35-25.09,2.21-37.34,3.23-46.02,15.39-89.69,34.63-131.51,8.08-17.55,17.08-34.61,26.83-51.27,2.09-3.57,1.8-4.4-2.47-4.89-108.83-12.57-191.4-65.88-246.71-160.46-29.42-50.31-46.06-104.94-50.79-163.05-4.05-49.64,2.51-98,19.12-144.96,1.25-3.53,1.44-5.71-1.48-9.05-5.9-6.74-7.77-15.67-10.06-24.19-3.11-11.57-4.44-23.49-6.74-35.22-1.82-18.89-4.07-37.74-4.68-56.73-.59-18.71,.56-37.24,4.12-55.66,1.96-10.13,8.48-16.09,17.34-18.76,42.58-12.82,85.74-14.75,129.24-5.03,10.43,2.33,20.34,6.26,29.67,11.53,2.86,1.61,5.19,1.72,8.26-.02,57.26-32.45,118.63-52.89,183.77-61.85,67.29-9.26,133.93-5.3,199.61,11.99,6.16,1.62,9.93,.49,14.8-2.25,22.82-12.85,46.17-24.48,72.45-28.62,8.56-1.35,17.14-2.44,25.82-2.61,4.5-.09,7.95,1.65,11.01,4.87,39.89,42.01,60.65,92.74,68.31,149.46,.35,2.59,.81,4.67,3.78,5.67,3.56,1.19,4.71,5.01,7.06,7.54,35.79,38.57,58.38,84.11,71.15,134.85,8.39,33.34,10.56,67.35,11.05,101.54,.05,3.63,1.09,6.59,3.11,9.68,57.56,88.25,34.64,201.63-47.22,261.7-18.01,13.21-38.58,21.49-59.62,28.61-1.33,.45-2.66,.89-4.91,1.64,27.5,2.99,53.75,6.92,79.28,14.51,18.7,5.56,36.91,12.5,53.3,23.33,19.74,13.04,34.57,29.99,41.39,53.23,5.36,18.25,1.91,35.89-2.71,53.6-5.76,22.06-18.82,37.91-38.78,48.94-31.3,17.3-64.91,26.19-100.21,29.77-16.27,1.65-32.56,2.51-48.9,1.76-3.72-.17-4.12,.57-2.93,3.98,7.24,20.87,11.03,42.42,12.9,64.42,2.15,25.12-4.6,48.44-13.17,71.53-5.2,14-12.43,26.86-21.33,38.79-1.99,2.67-2.88,5.4-2.79,8.77,.47,18.32,.8,36.64,1.08,54.97,.04,2.69,.62,4.51,3.17,6.09,4.31,2.67,7.25,6.82,9.7,11.24,10.62,19.19,13.46,39.47,8.33,60.82-1.16,4.82-4.7,7.55-8.85,9.58-10.92,5.35-22.73,7.54-34.63,8.94-35.29,4.15-70.74,5.39-106.25,4.94-6.98-.09-13.96-.66-20.94-1.01Z"/>
      <path class="cls-5" d="M960.4,448.16c-.44,1.92-1.46,1.77-2.66,1.77,.53-1.53,1.55-1.38,2.66-1.77Z"/>
      <path class="cls-10" d="M1004.61,547.19c-18.57-47.03-17.13-93.84,1.65-140.41,4.04-10.03,8.94-19.67,14.78-28.77,2.57-4.01,3.97-8.26,5.04-12.84,22.37-95.53,74.24-170.3,157.24-223.11,.55-.35,1.17-.58,1.76-.86,1.27,2.25-.02,4.21-.8,6.15-7.91,19.69-13.49,39.99-16.68,60.97-1.82,11.95,2.24,19.46,13.13,23.7,2.37,1.06,4.83,.74,7.28,.45,.52,0,1.02,.13,1.49,.35,4.92,4.26,8.17,9.98,13.18,14.27,15.29,13.07,32.87,22.06,51.23,29.72,20.85,8.7,42.88,13.47,64.68,18.95,32.32,8.12,64.67,16.02,94.65,31.37,19.76,10.12,36.46,23.59,50.59,40.72,15.06,18.26,28.43,37.84,44.24,55.48,16.89,18.84,33.49,38.04,54.43,52.65,19.06,13.3,40.3,20.36,63.66,20.76,17.01,.29,33.88-1.6,50.8-2.81,11.29-.81,22.57-1.63,33.74-3.52,17.76-3.01,34.29-9.49,50.21-17.74,2.43-1.26,4.72-3.3,7.84-2.61-.11,6.7-.39,13.39-1.83,19.97-8.62,8.9-18.84,15.84-28.63,23.28-34.37,26.1-71.74,47.26-110.43,66.13-34.15,16.66-69.18,31.33-104.95,44.19-27.6,9.93-55.47,19.01-83.93,26.17-31.52,7.92-63.34,14.21-95.71,17.74-12.59,1.37-25.22,1.91-37.81,2.54-12.08,.6-24.23-.8-36.35-1.56-16.48-1.03-32.8-3.21-49.01-6.17-33.28-6.07-65.2-16.38-95.85-30.71-31.25-14.61-60.18-32.86-86.99-54.52-10.24-8.27-19.7-17.42-29.49-26.19-1.24-1.11-1.58-2.93-3.15-3.73Z"/>
      <path class="cls-10" d="M1011.71,773.11c-16.48-12.04-30.16-26.34-35-46.89-3.89-16.48-1.68-33.05,1.03-49.52,2.04-12.39,8.02-22.78,16.26-32,2.31-2.59,4.6-5.26,7.84-6.81,3.02-.57,4.26,2.18,6.25,3.46,2.79,1.8,4.94,4.44,7.56,6.49,1.6,1.26,2.34,2.86,.63,4.67-3.56,2.74-6.24,5.86-6.07,10.81,.14,4.05,1.5,7.17,5.32,8.81,3.69,1.58,7.93,.34,10.85-2.88,1.38-1.53,2.09-3.38,2.86-5.23,1.07-2.3,2.59-2.8,4.72-1.26,3.48,2.53,6.92,5.09,9.83,8.29,2.21,2.26,3.52,5.55,7.11,6.26,2.87,.59,5.16,2.24,7.43,3.96,38.92,29.53,81.01,53.84,125.04,74.73,40.42,19.18,83.19,31.29,127.05,39.59,20.95,3.96,42.12,6.07,63.44,7.28,15.17,.86,30.33,1.19,45.42,.47,19.48-.93,38.68-4.46,57.4-10.24,17.84-5.51,35.49-11.52,52.33-19.68,5.55-2.69,10.75-6.03,16.14-9.01,3.1-1.71,4.54-4.02,4.51-7.63-.06-5.34,.89-10.62,2.13-15.8,.52-2.17,1.47-4.48,4.41-2.11,8.35,5.45,15.05,3.41,18.29-6.04,5.08-14.83,11.07-29.25,19.7-42.35,18.46-28.03,44.11-45.34,77.73-49.18,19.19-2.19,35.38,5.37,49.02,18.7,9.62,11.65,11.76,25.94,14.13,40.14,.24,1.46,.03,3-1.37,4-1.65,.24-2.23-1.1-3.08-2.07-3.92-4.48-9.84-5.09-13.35-1.39-3.09,3.26-2.67,8.95,.89,12,3.96,3.39,9.16,2.36,12.76-2.54,.49-.67,.87-1.41,1.32-2.11,.74-.79,1.08-2.43,2.5-1.92,1.46,.52,1.33,2.15,1.5,3.45,1.35,10.27,1.6,20.63,.91,30.91-.91,13.63-2.88,27.13-7.44,40.16-7.55,21.57-20.49,38.72-40.46,50.22-16.91,9.74-33.88,19.34-53.1,23.96-8.28,1.99-16.82,2.35-25.15,3.75-7.19,1.21-13.76,1.45-20.74-.92-4.11-1.4-8.61,.19-12.65,1.84-4.24,1.73-7.59,9.11-6.38,14,.56,2.28,1.22,4.52,1.08,6.87-.93,15.47,5.98,27.77,16.11,38.5,11.72,12.42,25.96,21.28,41.66,27.85,7.51,3.14,7.68,3.51,6.57,11.56-4.12,29.63-17.25,55.03-36.23,77.74-5.05,6.04-10.46,11.63-16.78,16.34-2.99,2.23-6.13,3.75-10.02,3.96-34.74,1.94-69.37,4.83-103.72,10.8-36.43,6.33-73.11,11.22-109.49,17.86-24.63,4.5-48.46,12.12-72.5,18.95-14.74,4.19-29.62,7.88-44.46,11.73-8.88,2.3-16.94,5.86-23.89,11.94-3.51,3.06-7.3,5.78-11.18,8.4-10.31,6.96-21.27,8.24-32.85,3.98-21.08-7.74-37.3-21.48-49.29-40.36-.54-.85-.54-1.92-1.26-2.67-10.96-30.15-13.3-60.62-2-91.11,11.17-30.14,44.75-43.83,74-30.78,4.7,2.1,9.37,4.26,13.96,6.59,4.14,2.1,8.39,3.09,13,2.27,2.89-.8,5.38-2.65,6.25-5.26,1.33-4.01,3.86-3.97,7.04-3.35,6.2,1.22,12.44,2.27,18.64,3.48,4.95,.97,6.58-.94,4.95-5.74-1.12-3.31-2.9-6.35-4.5-9.46-13.36-26.09-25.94-52.5-34.58-80.62-5.83-18.96-10.97-38.04-11.16-58.09-.04-3.69-1.38-7.17-2.2-10.74-1.56-6.82-3.14-13.68-3.47-20.64-.24-5.01-2.27-8.19-6.54-10.19-2.79-1.31-4.85-3.16-5.64-6.22-6.23-8.68-13.21-8.7-19.58-.05-1.12,1.53-2.65,2.46-4.4,3.11-9.73,3.58-17.03,10.23-22.86,18.55-2.96,4.22-6.32,5.47-11.49,4.41-29.53-6.03-58.17-15.24-87.02-23.71-9.91-2.91-19.9-5.38-30.35-5.06-1.88,.06-3.6-.52-5.3-1.21Z"/>
      <path class="cls-12" d="M1768.75,470.04c-15.98,8.7-32.52,16.02-50.3,20.23-11.01,2.61-22.26,3.77-33.48,4.5-20.38,1.32-40.71,3.96-61.2,3.23-22.89-.82-43.75-8.02-62.37-21.17-21.08-14.89-37.95-34.24-54.91-53.44-17.72-20.07-32.57-42.45-50.35-62.49-11.07-12.48-24.22-22.23-38.8-30.18-24.88-13.57-51.77-21.58-79.01-28.66-23.93-6.23-48.26-11.07-71.69-19.08-20.85-7.13-40.68-16.48-58.46-29.78-7.53-5.63-13.96-12.27-19.31-19.98,9.85-4.74,12.95-14.14,16.93-23.33,13.05-30.14,29.91-58.22,47.92-85.61,3.92-5.97,8.17-11.73,12.28-17.58,1.09-1.55,2.48-2.63,3.93-3.73,9.77-3.57,19.77-6.27,30.04-7.97,.89,2.27-.7,3.8-1.73,5.42-21.19,33.52-36.46,69.52-45.3,108.2-1.78,7.8-3,15.69-2.69,23.75,.43,11.36,6.45,15.46,17.25,12.05,5.96-1.88,9.84-5.29,12.48-11.12,14.61-32.25,32.84-62.45,53.08-91.44,12.4-17.76,26.01-34.59,40.06-51.06,1.64-1.93,3.44-3.62,5.83-4.57,13.06-.36,26.05,.64,39.02,2.03-1.29,5.27-5.87,7.81-9.43,11.11-23.14,21.44-45.69,43.38-61.61,71.06-12.31,21.4-19.12,44.24-17.73,69.18,.15,2.71,.72,5.27,1.86,7.71,2.23,4.73,5.76,6.82,10.94,5.65,10.72-2.4,19.35-8.41,25.26-17.49,14.21-21.83,29.94-42.39,47.49-61.68,22.9-25.18,48.92-46.58,76.78-65.9,1.91-1.32,3.85-2.63,6.38-1.91,8.09,4.77,13.35,.76,19.53-4.77,49.87-44.59,108.13-71.27,174.47-80.26,3.14-.43,4.55,.02,5.6,3.4,14.88,47.85,24.12,96.73,27.65,146.73,2.59,36.66,1.96,73.22-1.8,109.75-.23,2.23,.56,3.84,1.56,5.57,19.37,33.38,32.78,68.95,39.44,107.01,4.44,25.37,5.67,50.93,4.42,76.62Z"/>
      <path class="cls-11" d="M1124.96,1096.93c9.78,13.07,20.29,25.42,34.51,33.93,8.16,4.88,16.63,8.97,26.3,10.11,10.47,1.24,19.46-2.9,26.45-9.49,12.99-12.26,28.91-16.79,45.42-21.05,26.65-6.88,53.06-14.66,79.68-21.68,20.82-5.49,42.11-8.65,63.38-11.9,19.77-3.02,39.44-6.78,59.23-9.64,17.51-2.53,34.91-5.71,52.55-7.44,16.82-1.65,33.61-3.87,50.51-3.72,15.35,.14,25.32-7.83,34.6-18.82,9.95-11.78,18.47-24.31,25.24-38.09,6.86-13.97,10.92-28.77,13.13-44.16,.63-4.37-2.09-5.33-5.05-6.51-16.6-6.58-31.47-15.88-43.74-28.9-10.32-10.96-17.56-23.56-16.09-39.32,.38-4.05-3.07-7-1.41-11.46,3.87-10.41,12.94-15.42,23.75-12.1,1.43,.44,2.8,1.04,4.19,1.59,2.45,.96,4.81,2.3,7.15-.46,1.18-1.39,3.13-.8,4.77-.84,17.83-.42,34.82-4.46,50.84-12.26,13.3-6.47,26.57-13.02,38.46-22.01,13.28-10.04,22.2-23.26,28.13-38.57,8.12-20.97,9.57-42.94,8.91-65.14-.06-1.97-.73-3.91-.9-5.88-.16-1.97-.04-3.97-.04-5.99-1.49-.1-.92,1.67-1.93,1.88-1.53-1.69-1.54-3.38,.03-5.05,2.23-4.12-.1-8.06-.73-11.96-1.84-11.31-5.82-21.95-11.39-31.98,11.11,9.76,16.55,22.63,19.9,36.59,3.86,16.07,3.38,32.31,2.24,48.67-1.86,26.63-8.48,51.78-24.43,73.35-16.09,21.76-36.41,39.55-62.4,47.95-19.47,6.29-40.19,7.75-60.46,1.01-1.42-.47-2.89-.8-4.35-1.11-6.24-1.32-11.66,1.48-13.24,6.82-1.63,5.5,1.42,11.54,7.57,13.36,10.69,3.16,21.5,6.33,32.76,6.14,24.73-.43,48.81-3.74,69.98-18.1,.53-.36,1.16-.57,1.98-.96,4.92,13.84,8.7,27.72,10.06,42.2,2.35,25.04,2.43,49.9-5.77,74.11-1.87,5.51-4.01,10.92-5.92,16.42-2.39,6.93-.1,12.9,5.64,15.01,5.53,2.03,11.19-.73,13.89-7.32,5.74-14.03,10.6-28.36,12.64-43.47,.38-2.83,1.48-3.9,4.38-4.88,12.92-4.37,25.52-3.83,38.06,1.15,2.16,.86,4.42,1.64,6.31,2.93,29.67,20.2,49.94,46.38,51.84,83.68,.95,18.61-2.37,36.1-18.09,48.51-10.59,8.35-22.66,12.21-36.28,9.3-45.84-9.81-91.44-21-138.46-24.09-39.64-2.61-79.19-2.23-118.72,2.19-46.16,5.16-90.68,17.76-135.53,28.92-37.28,9.28-74.58,18.51-112.3,25.75-9.01,1.73-16.07,5.23-23.25,10.08-22.27,15.03-45.58,17.09-69.79,4.8-1.77-.9-3.59-1.88-5.06-3.18-18.31-16.12-32.87-34.77-39.15-58.9Z"/>
      <path class="cls-11" d="M1004.61,547.19c3.2,1.47,5.78,3.83,8.21,6.24,19.29,19.14,40.66,35.69,63.49,50.31,26.66,17.07,54.88,31.01,84.83,41.52,24.49,8.6,49.54,14.74,75.15,18.48,16.7,2.44,33.51,4.11,50.46,4.38,8.93,.14,17.79,.53,26.76,.12,15.09-.69,30.02-2.28,44.99-4.07,26.68-3.2,52.9-8.77,78.89-15.34,41.74-10.55,82.35-24.63,122.29-40.68,26.38-10.6,52.32-22.19,77.73-34.94,36.89-18.51,72.25-39.54,105.12-64.59,7.25-5.52,14.26-11.36,21.36-17.08,.92-.74,1.75-1.54,3.03-1.52-1.14,18.06-5.47,35.46-11.31,52.47-10.3,30-27.04,55.84-50.63,77.19-2.83,2.56-5.18,3.43-9.21,2.52-28.17-6.35-53.73,1.19-77.6,15.91-19.93,12.29-36.07,28.38-46.83,49.43-1.32,2.59-3.18,3.86-5.91,4.75-41.78,13.5-84.56,22.08-128.17,26.84-41.82,4.56-83.71,5.78-125.73,3.86-84.24-3.85-161.75-27.7-231.11-76.53-35.77-25.18-59.72-59.17-75.8-99.27Z"/>
      <path class="cls-11" d="M1043.01,671.96c-3.01-3.4-6.85-5.81-10.25-8.76-1.57-1.36-1.81,.38-2.61,.82-.94-.58-1.14-1.54-1.31-2.51-.01-4.36-2.14-7.22-6.21-8.66-2.07-1.32-4.62,.74-6.64-.94,.71-1.16,.52-2.08-.56-2.95-4.55-3.66-9.06-7.37-13.59-11.06,7.13-5.8,15.23-8.54,24.45-8.07,3.78,.19,6.71,2.2,9.14,4.56,37.87,36.85,82.93,61.94,132.02,80.16,42.51,15.78,86.58,24.48,131.83,27.59,52.71,3.62,105.19,1.6,157.49-5.34,32.67-4.34,64.82-11.4,96.57-20.23,1.38-.38,2.76-.76,4.68-1.29-1.83,8.13-7.72,15.51-1.83,23.59-2.07-.69-3-.02-3.27,2.22-.69,5.74-2.35,11.4-1.91,17.23,.23,3.13-1.11,4.89-3.58,6.42-22.51,13.97-47.24,22.53-72.37,30.27-30.9,9.51-62.63,11.16-94.55,9.83-42.83-1.79-84.77-9.16-126.01-21.04-35.13-10.12-68.69-23.87-100.88-41.05-34.16-18.23-67.25-38.2-97.98-61.85-1.81-1.39-4.02-1.4-5.63-2.84,1.3-1.61,3.34-1.22,5-1.84,4.05-1.51,6.27-5.33,5.45-9.43-.83-4.11-4.23-6.64-8.69-6.47-4.58,.17-6.68,2.15-7.39,7.01-.23,1.61,0,3.35-1.35,4.63Z"/>
      <path class="cls-18" d="M1497.9,105.99c-9.39,4.44-17.27,11.14-25.52,17.25-17.39,12.89-33.63,27.16-48.67,42.71-20.97,21.68-39.47,45.31-55.79,70.72-6.19,9.64-15.63,15.79-27.16,17.9-6.66,1.22-12.27-5.1-12.79-13.95-1.06-18.21,2.03-35.69,8.95-52.58,8.76-21.39,22.05-39.79,37.45-56.72,12.53-13.78,26.13-26.52,39.91-39.06,1.34-1.22,2.46-2.68,3.69-4.02,27.31,2.89,54.03,8.47,79.93,17.74Z"/>
      <path class="cls-10" d="M1083.22,202.96c-2.79,3.64-5.59,7.27-9.03,11.76-6.84-47.77-10.58-94.25,4.78-140.13,5.78-17.25,13.59-33.5,23.26-48.89,1.32-2.1,2.49-3.28,5.46-2.83,55.46,8.44,106.2,28.68,152.31,60.59,.25,.17,.38,.53,.89,1.27-29.65,9.15-57.55,21.89-84.03,37.73-3.19,.35-4.26-2.32-5.6-4.25-11.47-16.46-24.45-31.6-38.97-45.44-7-6.67-14.35-12.93-21.96-18.89-3.93-3.07-4.91-2.94-7.05,1.59-10.5,22.13-17.73,45.25-20.95,69.57-1.66,12.57-2.33,25.18-2.02,37.86,.28,11.34,1.79,22.55,3.5,33.74,.33,2.2,.5,4.3-.59,6.32Z"/>
      <path class="cls-18" d="M1378.95,86.23c-27.19,30.5-51.32,63.25-72.02,98.48-10.12,17.22-19.57,34.81-27.87,53-3.03,6.63-16.28,11.36-22.96,8.45-5.83-2.54-6.8-7.86-7.08-13.25-.73-14,3.09-27.31,6.79-40.59,9.44-33.91,23.95-65.54,43.04-95.1,.45-.69,.76-1.48,1.13-2.22,11.84-3.37,24.01-4.92,36.19-6.35,14.21-1.66,28.46-2.79,42.79-2.43Z"/>
      <path class="cls-14" d="M1083.22,202.96c-2.78-18.77-5.08-37.57-4.18-56.61,1.56-33,9.67-64.29,24.23-93.97,2.02-4.12,3.69-2.95,6.23-.97,23.38,18.25,43.91,39.22,61.05,63.48,1.89,2.68,3.3,5.8,6.31,7.56-32.58,20.4-62.27,44.23-87.44,73.43-2.05,2.37-4.14,4.71-6.21,7.07Z"/>
      <path class="cls-18" d="M1269.94,102.97c-13.14,18.98-26.16,38.02-37.63,58.08-9.9,17.32-19.39,34.87-27.27,53.2-2.48,5.76-3.4,12.19-9.43,15.79-2.15,1.29-4.3,2.5-6.73,3.18,0,0-.42-.02-.42-.02l-.42,.04c-2.37,.47-4.74,.49-7.11-.01-10.87-2.87-16.74-11.92-14.98-23.53,3.31-21.78,8.86-42.96,17.28-63.36,.69-1.68,1.23-3.43,1.84-5.14,26.54-16.62,54.71-29.6,84.86-38.22Z"/>
      <path class="cls-11" d="M1192.71,777.08c2.18,3.57,6.17,4.71,9.37,6.89,2.71,1.84,3.75,4.05,4.03,7.4,.57,6.73,1.17,13.62,3.13,20.02,2.62,8.56,2.77,17.32,3.56,25.99,1.36,14.97,5.45,29.25,9.69,43.51,9.18,30.87,23.47,59.57,38.02,88.14,.75,1.48,1.64,2.93,2.13,4.5,1.64,5.21-.85,7.81-6.17,6.74-6.96-1.4-13.96-2.62-20.92-4.03-2.29-.46-3.61-.05-4.67,2.32-1.28,2.85-3.11,5.59-6.97,5.34,4.05-2.42,7.23-5.51,6.88-10.66-.37-5.37-3.9-8.26-8.65-9.82-2.63-.86-3.24-3.07-4.19-5.18-9.11-20.2-13.29-41.75-16.9-63.38-6.07-36.36-7.79-73.05-7.55-109.87,.02-2.64-.51-5.28-.78-7.91Z"/>
      <path class="cls-11" d="M1011.71,773.11c14.53-1.29,28.26,2.46,41.91,6.64,27.06,8.3,54.17,16.42,81.91,22.23,3.69,.77,6.32,.37,8.48-2.97,7.01-10.85,16.67-18.29,29.12-21.98-1.95,12.44-.77,24.92-.49,37.38,.09,4.16,.07,8.35,.52,12.48,.42,3.87-.96,4.31-4.44,3.72-22.86-3.88-44.89-10.89-67.03-17.52-20.88-6.25-41.3-13.8-61.47-22.03-10.56-4.31-20.18-10.11-28.51-17.96Z"/>
      <path class="cls-18" d="M1803.14,808.91c4.56-11,9.6-21.68,19.73-28.89,4.88,4.23,8.08,9.96,13.15,14.13,16.72,13.76,34.8,24.91,55.77,30.95,1.13,.43,2.32,.78,3.23,1.64,.56,1.21,.11,2.31-.51,3.29-7.66,12.2-16.79,22.99-29.36,30.47-.47,.13-.96,.2-1.45,.2-12.04-3.53-22.62-9.86-31.94-18.02-11.19-9.78-21.16-20.75-28.62-33.78Z"/>
      <path class="cls-12" d="M1891.9,826.01c-14.57-2.96-27.19-10.22-39.45-18.13-9.31-6.01-18.38-12.39-25.38-21.22-1.64-2.07-3.48-3.99-4.21-6.63,11.52-9.31,24.26-12.69,39.02-9.35,12.79,2.89,23.71,8.24,31.82,18.82,4.82,6.28,7.56,13.18,7.36,21.16,1.27,4.6-.56,8.64-2.36,12.64-1.34,2.99-3.67,3.95-6.79,2.72Z"/>
      <path class="cls-23" d="M1771.95,869.9c2.99-4.31,5.98-8.63,8.97-12.94,4.71,5.26,8.45,11.13,10.05,18.06,.79,3.43,2.61,4.57,5.93,4.59,12.43,.09,24.41-2.38,36.22-6,3.94-1.21,7.72-3.17,12.04-2.86,8.03,2.02,16,4.29,24.3,5,1,.09,1.94,.44,2.58,1.31-8.95,10.57-19.02,19.84-31.16,26.69-13.54,.21-26.48-2.48-38.47-8.77-10.22-5.37-19.24-12.49-27.43-20.64-1.28-1.27-2.8-2.42-3.03-4.43Z"/>
      <path class="cls-23" d="M1735.91,890.83c9.35-3.53,18.74-6.99,27.03-12.76,4.99,5.92,8.78,12.8,14.48,18.17,8.47,7.98,17.22,15.52,28.44,19.49,1,.35,2.4,.53,2.08,2.22-15.45,4.44-30.65,10.09-47.09,9.85-7.55-5.48-12.27-13.26-16.81-21.1-2.98-5.13-5.37-10.61-8.13-15.88Z"/>
      <path class="cls-12" d="M1803.14,808.91c1.54,.09,2.16,1.22,2.92,2.37,14.42,21.99,32.7,39.42,57.82,48.72,.38,1.19-.41,1.92-1.2,2.43-5.64,3.63-11.14,7.54-17.9,8.91-3.44,.36-6.53-.83-9.6-2.14-15.9-6.82-29.37-16.76-39.71-30.76-1.64-2.22-2.91-4.47-1.59-7.3,3.09-7.41,6.17-14.82,9.26-22.23Z"/>
      <path class="cls-18" d="M1793.88,831.14c-.31,4.96,3.52,7.74,6.19,10.91,11.93,14.22,26.83,24.01,44.8,29,.27,.17,.37,.36,.3,.56-.07,.21-.15,.31-.23,.31-4.29-.14-8,1.97-11.93,3.17-12.24,3.74-24.66,6.09-37.53,5.93-3.4-.04-5.2-.9-5.62-4.56-.66-5.77-3.7-10.58-7.13-15.09-1.05-1.38-1.98-2.63-1.81-4.42,4.32-8.6,8.64-17.21,12.96-25.81Z"/>
      <path class="cls-9" d="M1807.94,917.95c-18.43-6.81-32.14-19.34-42.9-35.43-.9-1.35-1.41-2.97-2.1-4.46,3-2.72,6.01-5.45,9.01-8.17,9.04,8.25,18,16.52,28.76,22.66,9.39,5.37,19.46,8.09,30.05,9.38,3.41,.42,6.86,.54,10.12,1.79-10.57,5.69-21.17,11.31-32.94,14.22Z"/>
      <path class="cls-9" d="M1735.91,890.83c2.01,.28,2.5,1.97,3.14,3.47,5.38,12.4,12.96,23.36,21.8,33.51-11.59,1.03-22.72-1.74-33.9-4.1-.22-.25-.59-.47-.63-.75-1.33-9.32-1.55-18.69-1.41-28.09,0-.63,.57-1.17,1.06-1.63,3.31-.8,6.62-1.6,9.93-2.4Z"/>
      <path class="cls-23" d="M1864.94,859.88c12.28-8.86,22.45-19.65,30.02-32.82,1.75-1.2,3.49-1.73,5.19,.09-2.88,14.12-8.21,27.09-17.99,37.94-6.12-.46-12.43-.31-17.22-5.21Z"/>
      <path class="cls-9" d="M1864.94,859.88c5.41,2.81,11.71,2.71,17.22,5.21-2.97,4.32-6.2,8.43-10.12,11.96-9.38,.1-18.24-2.5-27.11-5.12-.03-.29-.05-.58-.07-.88,6.41-3.56,13.34-6.23,19.01-11.06,.35-.04,.71-.08,1.06-.12Z"/>
      <path class="cls-19" d="M1725.98,893.23c.33,10.16,.65,20.32,.98,30.47-3.84,.06-4.96-1.94-5.14-5.62-.28-5.63-1.15-11.25-1.94-16.85-1.01-7.13-1.08-7.12,6.11-8.01Z"/>
      <path class="cls-20" d="M1900.15,827.15c-1.73-.03-3.46-.06-5.19-.09-1.08-.17-2.29,.04-3.05-1.05,4.17-.37,8.18-5.31,8.86-10.99,.17-1.45,.2-2.91,.29-4.37,1.18,5.58,.44,11.06-.91,16.5Z"/>
      <path class="cls-10" d="M755.26,366.92c9.63,.78,13.43-2.75,14.58-13.22,1.91-17.41,3.11-34.83,1.2-52.32-.09-.78-.01-1.58-.01-3.74,44.28,57.72,65.43,121.92,66.12,193.15,0,3.42,1.72,7-.98,10.16-1.66-5.21-2.7-10.64-5.51-15.45-3.82-6.53-9.24-9.22-15.26-7.51-5.87,1.66-8.98,7.08-9.33,14.27-.43,8.63-1.51,17.22-1.02,25.89,.43,7.67,1.61,15.2,3.95,22.53,1.12,3.5,2.64,6.82,4.82,9.8,3.49,4.77,7.98,7.63,14.1,6.54,5.91-1.05,9.04-5.26,10.83-10.59,1.49-4.44,1.57-9.15,2.26-13.92,4.86,1.63,7.7,4.96,10.09,9.33,37.5,68.41,26.08,150.16-28.87,205.56-1.62,1.64-3.47,3.06-5.21,4.58-9.93,5.39-20.89,7.73-31.7,10.39-30.28,7.45-61.31,10.93-91.87,16.9-19.78,3.87-39.61,7.46-59.57,10.25-18.95,2.66-38,4.33-57.07,5.99-32.22,2.8-64.5,3.5-96.77,2.66-30.28-.79-60.4-4.14-90.36-8.83-21.22-3.33-42.38-7.11-63.64-10.22-6.67-.98-12.59-4.32-18.63-7.06-37.83-17.21-72.53-39.37-104.11-66.4-26.68-22.83-51.04-47.79-70.71-77.04-23.11-34.37-41.21-71.13-52.59-111.06-.58-2.04-1.55-4.3,1.4-5.5,8.52-.58,16.86,1.35,25.29,2.01,14.49,1.12,28.97,.91,43.41,.36,11.09-.42,22.23-1.39,33.24-3.29,13.99-2.41,27.52-6.57,41.23-10.08,19.2-4.91,38.54-9.29,56.9-17.01,32.81-13.79,62.65-32.31,89.72-55.43,31.22-26.66,56.55-58.58,82.31-90.21,30.03-36.86,55.13-77.22,83.31-115.39,1.18-1.59,2.07-3.45,4.05-4.28,3,.04,3.64,2.59,4.66,4.57,10.79,21.08,22.77,41.46,36.66,60.65,18.84,26.02,40.86,48.79,68.96,64.9,20.22,11.59,41.62,20.41,64.92,23.43,10.77,1.4,21.67,1.47,31.55-4.5,2.39-1.44,4.9-2.05,7.6-.89Z"/>
      <path class="cls-10" d="M690.23,826.86c12.3,4.22,25.11,4.59,37.93,5.05,42,1.49,83.11,7.62,122.17,24.07,15.51,6.53,29.68,15.02,40.59,28.2,1.99,2.4,4.09,4.71,5.11,7.75,1.2,4.75-.24,9.28-1.39,13.76-4.07,15.8-11.07,30.34-20.09,43.84-7.33,10.97-18.31,17.77-29.6,23.96-15.6,8.55-32.5,12.23-50.13,13.79-20.04,1.77-40.03,4.25-60.08,5.87-29.53,2.38-58.86,1.33-87.7-6.26-.94-.25-1.88-.73-3.43-.22,4.39,10.34,11.38,19.4,14.53,30.24,.33,.62,.66,1.23,1,1.85,8.22,14.85,12.61,31.11,17.34,47.24,7.41,25.24,7.16,50.93,4.36,76.76-1.02,9.44-2.09,18.87-3.72,28.22-3.74,21.45-14.08,40.09-25.11,58.4-6.03,10.01-12.95,19.33-21.39,27.54-5.69,5.54-11.78,10.27-19.23,13.14-1.15,.45-2.88,.53-2.82,2.31,.04,1.31,1.34,1.85,2.36,2.36,6.41,3.24,12.36,7.2,18.35,11.12,4.58,3,10.18,3.01,15.44,3.56,4.26,.44,5.74,2.45,5.72,6.47-.06,12.48-.14,24.93,1.78,37.36,1.07,6.93-2.08,13.76-2.25,20.77-.04,1.72-1.26,3.04-2.92,3.76-26.12,1.47-52.26,3.07-78.4,1.06-23.23-1.79-46.4-4.24-69.6-6.36-3.98-.36-7.98-.79-11.96-.76-3.88,.03-5.46-1.1-5.43-5.38,.12-18.16,.69-36.3,1.47-54.44,.99-2.23,.6-4.62,.39-6.86-.98-10.45,2.73-19.93,6.01-29.45,1.61-4.69,3.67-9.27,5.7-13.84,1.87-4.21,1.59-4.79-2.9-5.43-7.58-1.08-15.16-2.18-22.52-4.34-17.54-5.15-31.53-15.62-42.7-29.76-18.02-22.82-33.07-47.45-43.67-74.64-1.22-3.14-1.82-6.39-1.68-9.77-.15-5.98,.42-11.99-.59-17.94-.65-3.79,1.69-5.37,4.76-6.51,13.02-4.84,25.23-11.23,36.56-19.3,16.17-11.52,31.99-23.55,44.4-39.22,21.15-26.7,31.88-57.74,36.84-91.08,1.88-12.68,2.76-25.45,3.78-38.21,.42-5.25-1.75-10.54-.15-15.85,1.35-2.28,3.66-2.04,5.78-2.06,16.96-.21,33.86-2.12,50.82-2.01,12.43,.08,23.2-4.27,33.63-10.57,22.22-13.42,45.31-25.37,66.86-39.93,7.74-5.23,16.66-7.22,25.82-8.26Z"/>
      <path class="cls-28" d="M541.17,219.12c-19.95,28.51-39.1,57.63-60.03,85.4-32.77,43.48-65.52,87.13-106.91,123.17-41.83,36.42-89.38,61.63-143.89,73.31-15.75,3.37-30.97,9.05-46.98,11.42-28.97,4.29-58.04,4.65-87.17,1.95-4.64-.43-9.26-1-13.89-1.5-1.86-1.41-5.51,2.4-6.31-2.15,1.19-2.22,.92-4.49,.3-6.79-7.39-27.65-9.11-55.92-7.47-84.26,2-34.61,6.88-68.9,15-102.67,.87-3.61,2.51-6.86,4.22-10.1,11.01-16.41,24.31-30.87,38.56-44.43,16.2-15.42,33.77-29.17,52.49-41.42,2.69,1.63,.87,3.64,.23,5.27-3.53,9.04-5.78,18.41-7.38,27.94-1.48,8.83-.49,17.13,5.13,24.64,12.17,16.22,37.57,14.71,47.56-2.97,1.89-3.34,3.66-6.82,4.35-10.58,3.29-17.89,11.76-33.87,18.3-50.57,4.13-10.54,9.52-20.51,13.99-30.9,1.11-2.58,2.19-5.26,4.84-6.78,10.02-4.41,20.44-7.69,30.87-10.94,2.31,2.78,.36,5.42-.43,7.98-8.53,27.51-17.05,55.03-22.46,83.37-2.02,10.61-3.92,21.26-1.79,32.19,2.21,11.36,8.91,19.21,19.44,22.76,10.49,3.53,20.79,1.61,29.43-5.95,8.71-7.61,13.19-17.91,17.2-28.33,12.88-33.46,31.52-63.81,50.41-94.03,6.79-10.87,14.08-21.42,21.56-31.83,1.93-2.69,3.66-5.6,6.8-7.16,6.87-1.93,13.91-.81,20.87-1.24,1.13-.42,2.39-.77,3.18,.36,.95,1.35-.03,2.56-.83,3.59-4.7,6.05-9.15,12.28-13.41,18.65-19.05,28.52-32.76,59.39-40.66,92.8-1.9,8.05-2.86,16.05,.09,24.08,4.18,11.36,12.29,18.11,24.15,19.84,11.52,1.68,20.79-3.15,28.33-11.54,4.7-5.22,7.99-11.46,11.65-17.41,13-21.12,25.96-42.27,39.54-63.03,8.58-13.11,17.84-25.69,27.89-37.71,4.78-5.72,9.62-11.53,12.42-18.62,.52-1.31,1.53-2.14,2.65-2.88,3.12,.17,6.16,.72,9.07,1.89,2.38,2.01,.67,3.67-.68,4.97-8.21,7.92-11.39,17.57-10.34,28.8,.14,1.47-.27,2.94-1.07,4.24-1.01,1.91-2.16,3.75-2.99,5.73-2.67,6.41-.63,11.46,6.03,15.34,1.47,1.1,3.17,.58,4.72,.49,2.4-.14,3.62,1.07,4.5,2.99,.35,1.17-.05,2.03-1.09,2.62Z"/>
      <path class="cls-11" d="M75.86,511.14c1.85,1.67,4.55,.19,6.43,1.75-2.36,.32-1.75,1.7-1.3,3.26,5.2,18.07,11.74,35.63,19.52,52.75,9.09,20.03,20.1,38.96,32.14,57.33,16.14,24.62,35.91,46.17,57.43,66.05,22.59,20.87,47.05,39.45,73.45,55.31,18.54,11.14,37.78,21.02,57.93,28.89,7.85,3.07,16.56,2.96,24.86,4.42,15.79,2.77,31.61,5.43,47.48,7.77,11.78,1.74,23.65,2.8,35.45,4.35,34.05,4.46,68.28,4.6,102.49,3.76,18.68-.46,37.37-1.78,56.03-3.55,13.84-1.31,27.69-2.57,41.46-4.37,14.75-1.93,29.44-4.45,44.07-7.16,24.23-4.5,48.48-8.84,72.8-12.83,22.07-3.63,44.03-7.91,65.21-15.45,1.85-.66,3.67-1.65,5.76-1.42-10.75,11.21-23.87,18.99-37.72,25.58-28.14,13.4-58.05,20.98-88.59,26.31-21.33,3.72-42.83,5.88-64.5,6.26-2.51,.04-4.99,.36-7.3,1.41-4.37,1.98-6.69,6.26-6.03,10.98,.65,4.64,4.3,8.52,9.55,8.64,8.13,.18,16.29-.24,24.42-.75,13.12-.81,26.17-2.28,39.16-4.31,1.42-.22,3-.61,4.19,.77-4.04,2.04-8.48,2.75-12.81,3.87-9.4,2.42-16.89,8.38-24.81,13.5-19.8,12.81-40.98,23.28-60.97,35.7-9.67,6-19.89,6.48-30.4,6.99-16.89,.81-33.79,1.38-50.68,2.04-1.04,.04-1.98,.24-2.61,1.15-1.07-.03-1.52-.77-1.88-1.62-1.82-14.97-6.85-28.73-15.23-41.32-2.38-3.58-4.91-4.74-9.16-3.65-30.96,8.01-62.6,8.68-94.26,7.67-15.27-.49-30.59-1.33-45.74-3.7-2.08-.33-4.46-.02-5.52-2.56,.77-9.93-2.72-13.31-12.84-13.75-51.69-2.25-100.11-15.94-144.35-42.96-69.79-42.61-112.2-105.97-136.76-182.53-9.56-29.79-14.9-60.38-16.28-91.65-.72-5.47-.07-10.96-.35-16.43-.13-2.58,.98-3.27,3.3-2.74,.98,.23,1.92,.55,2.83,.97,12.74,5.92,26.07,10.07,39.71,13.31,1.59,.38,3.34,.5,4.44,1.99Z"/>
      <path class="cls-11" d="M541.17,219.12l.84-2.08c.21-3.94,3.21-6.46,4.98-9.59,2.2-3.89,4.59-7.68,7.1-11.39,9.85-14.11,22.07-25.99,36.45-35.18,27.13-17.33,55.77-31.16,88.7-33.41,2.92-.2,4.9,.23,6.98,2.44,27.96,29.63,44.34,65.3,53.6,104.39,6.26,26.43,9.28,53.43,10.93,80.54,.76,12.51-.66,24.96-2.15,37.36-.78,6.46,.77,11.47,6.67,14.71-1.99,.11-3.95,.24-5.74,1.34-12.67,7.78-26.48,7.1-40.08,4.28-32.94-6.82-62.23-21.27-87.81-43.3-21.33-18.37-38.51-40.12-53.44-63.82-9.03-14.33-17.6-28.92-25.08-44.13-.41-.84-1.28-1.46-1.93-2.18Z"/>
      <path class="cls-29" d="M507.12,888.96c.28,.38,.55,.76,.83,1.14,1.88,29.73-2.2,58.83-10.32,87.32-11.26,39.53-34.72,70.27-68.43,93.64-13.77,9.55-27.96,18.06-43.69,23.86-2.83,1.04-3.95,2.27-3.09,5.43,1.56,5.71,.62,11.59,.55,17.41-.35,.46-.82,.63-1.39,.51-2.41-4.49-6.09-8.77-2.51-14.31,3.34-10.25-1.03-15.61-13-15.92-2.75-2.9-4.59-6.23-4.79-10.32,1.07-3.2,3.68-5.48,5.04-8.53,7.05-15.92-3.63-32.51-21.86-33.9-2.44-.19-5.03,.36-7.19-1.35-2.21-5.46-3.08-11.05-1.7-16.87,1.75-1.77,3.96-1.55,6.09-1.26,14.33,1.93,28.69,3.6,43.06,5.25,7.42,.85,14.94,1.56,21.86-2.58,9.09-5.45,13.19-13.51,11.84-23.92-1.3-10.06-7.48-16.51-16.9-19.65-7.46-2.49-15.4-2.43-23.13-3.48-9.05-1.23-18.13-2.27-27.22-3.23-1.66-.18-3.27-.57-4.77-1.37-1.96-1.22-2.58-3.03-1.86-5.11,2.82-8.14,6.67-15.77,11.65-22.8,.78-1.09,1.97-1.73,3.3-2.05,8.37-.56,16.53,1.39,24.78,2.18,14.72,1.42,29.42,3.04,44.22,3.52,9.04,.29,17.94-.9,26.8-2.33,15.66-2.51,24.05-14.52,21.7-30.21-1.17-7.8-3.38-14.91-9.65-20.21-1.01-.85-1.92-1.89-1.57-3.44,1.55-2.15,3.8-1.84,5.91-1.51,10.21,1.6,20.51,1.99,30.79,2.6,1.69,.1,3.31,.34,4.65,1.5Z"/>
      <path class="cls-11" d="M382.26,1118.01c.25-.05,.49-.13,.72-.24,.36,11.22,5.75,20.81,10.82,30.22,9.22,17.09,18.99,33.87,30.87,49.36,15.65,20.4,35.24,33.86,61.34,36.63,3.28,.35,6.49,1.32,9.77,1.62,3.54,.33,2.93,1.81,1.88,4.23-3.39,7.76-6.55,15.62-9.81,23.43-3.07,7.34-4.15,14.99-3.85,22.92,.07,1.9,.75,4.03-.89,5.72,0-9.58-.89-19.13,3.08-28.42,2.47-5.77-1.89-11.97-9.09-13.5-9.27-1.97-18.72-3.06-27.97-5.09-14.57-3.2-29.4-5.57-42.68-13.21-5.28-3.04-11.23-.96-13.91,3.77-2.69,4.76-1.42,10.45,3.59,14.09,8.23,5.98,17.81,8.9,27.53,11.26,11.47,2.79,22.92,5.7,34.63,7.32,3.32,.46,4.13,1.78,4.01,5.14-.83,21.63-1.39,43.27-2,64.91-.06,2.02,.18,3.74-2.68,4.35-22.45,4.74-45.08,6.72-67.99,5.12-.64-.04-1.25-.38-1.88-.57,6.58-12.15,8.03-25.23,6.52-38.68-3.31-29.56-19.77-50.84-43.17-67.64-.81-.58-1.73-1.01-2.24-1.93,7.02-7.95,5.1-15.87-5.08-19.09-13.04-4.12-23.57-11.98-33.32-20.82-.32-1,.36-1.06,.73-1.17,18.08-5.34,33.98-15.06,49.83-24.85,7.65-4.73,8.44-12.03,2.15-18.16-1.4-1.47-.66-2.75,.48-3.85,9.11-8.81,15.86-18.91,17.64-31.78,.07-.47,.55-.8,.97-1.07Z"/>
      <path class="cls-11" d="M647.03,1357.77c2.84-8.36,4.73-17.26,3.63-25.74-1.56-11.96-1.56-23.84-1.53-35.77,.01-3.95-.82-5.55-5.18-5.49-9.89,.15-17.86-4.95-25.71-10.27-3.15-2.14-6.71-3.65-9.99-5.61-1.42-.85-2.77-2.3-2.66-3.93,.12-1.7,2.18-1.1,3.33-1.44,12.12-3.6,20.7-12.24,28.16-21.51,15.49-19.26,27.59-40.61,35.5-64.17,3.88-11.55,4.79-23.65,6.37-35.6,1.86-13.99,2.26-28.08,2.19-42.22-.09-17.99-4.3-35.15-9.68-52.07-3.76-11.84-8.2-23.47-12.34-35.19,7.78,8.39,18.16,10.51,28.82,11.99,2.31,.32,4.62,1.05,6.91,.98,8.4-.26,12.25,3.98,14.91,11.8,8,23.53,12.59,47.59,13.22,72.37,.48,18.87-6.16,36.23-12.31,53.65-5.28,14.96-14.19,27.8-23.44,40.44-4.43,6.05-8.11,12.07-2.43,19.4,.52,.67,.37,1.93,.39,2.92,.35,14.15,1.34,28.32,.78,42.44-.43,10.81,2.81,18.73,10.7,26.26,12.37,11.8,14.42,27.5,12.94,43.83-.27,2.94-1.79,4.5-4.83,5.43-14.14,4.33-28.73,5.42-43.32,6.67-4.8,.41-9.62,.58-14.43,.87Z"/>
      <path class="cls-30" d="M417.14,145.17c-10.01,13.69-19.7,27.6-28.72,41.97-19.76,31.45-38.37,63.47-51.79,98.29-4.47,11.61-10.9,22.08-23.16,27.55-18.01,8.04-39.51-3.85-42.53-23.33-2.41-15.57,1.23-30.42,4.57-45.27,5.54-24.65,12.84-48.82,20.57-72.87,.56-1.74,1.34-3.43,.91-5.34,26.29-8.44,53.22-14.14,80.53-17.83,13.11-1.77,26.28-3.97,39.63-3.17Z"/>
      <path class="cls-30" d="M533.02,152.05c-4.65,12.85-14.32,22.28-22.49,32.68-14.1,17.96-25.9,37.44-38.17,56.62-10.57,16.52-19.94,33.81-31.4,49.74-9.2,12.78-25.5,17.07-39.47,10.94-12.92-5.67-20.44-20.78-17.73-35.62,5.89-32.3,18.59-61.93,35.35-89.96,6.15-10.29,12.96-20.13,20.51-29.43,2.25-2.77,.35-2.8-1.6-3.1,2.25-1.86,4.45,.13,6.68,.12,11.27,0,22.53,0,33.8,.94,18.29,1.53,36.51,3.49,54.53,7.05Z"/>
      <path class="cls-32" d="M36.46,353.25c-3.92-10.61-5.62-20.61-7.15-30.58-4.39-28.65-7.2-57.44-6.3-86.49,.29-9.49,1.34-18.9,3.04-28.24,.58-3.18,2.17-4.87,5.3-5.76,36.66-10.4,73.72-11.97,111.13-5.02,5.85,1.09,11.51,3.26,17.22,5.02,1.73,.53,3.36,1.37,5.99,2.47-56.77,37.66-100.47,85.89-129.23,148.6Z"/>
      <path class="cls-11" d="M658.12,1016.9c-4.51-8.29-9.04-16.56-13.52-24.86-1.34-2.47-2.56-5.01-4.09-8,8.58,1.51,16.57,4,24.83,5.26,18.89,2.87,37.71,4.41,56.88,2.92,11.21-.87,22.48-1.47,33.7-2.37,11.03-.88,21.99-2.58,33-3.67,8.72-.86,17.48-1.42,26.09-3.09,11.67-2.27,22.34-7.19,32.82-12.62,21.31-11.02,32.58-29.96,41.02-51.27,3.5-8.83,5.39-18.03,7.15-27.28,8.5,11.1,11.07,23.87,9.71,37.41-.91,9.09-3.32,17.97-6.14,26.68-3.96,12.24-11.59,21.5-22.69,28.03-22.9,13.46-47.39,22.53-73.63,26.65-24.69,3.88-49.51,6.91-74.54,4.23-15.2-1.63-30.29-4.18-45.42-6.41-2.63-.39-5.14-1.39-7.35-2.96-4.36-3.12-8.94-4.66-13.89-1.52-4.88,3.11-4.88,7.9-3.96,12.89Z"/>
      <path class="cls-10" d="M348.86,1238.8c5.37,.62,8.61,4.87,12.2,7.96,15.62,13.43,27.54,29.39,32.48,49.95,3.78,15.72,3.29,31.09-2.03,46.36-.7,2-1.38,3.73-3.77,3.99-12.54-.5-24.52-4.28-36.79-6.35-9.17-1.55-18.27-3.59-27.47-4.96-4.38-.65-5.59-2.56-5.56-6.8,.11-19.17,1.61-38.23,3.56-57.27,1.22-11.9,2.46-23.81,3.73-36.07,8,1.99,15.22,7.57,23.65,3.2Z"/>
      <path class="cls-32" d="M75.86,511.14c-15.35-2.25-29.77-7.47-43.92-13.57-1.52-.66-3.04-1.3-4.58-1.9-.27-.1-.63,.05-1.42,.13,0,6.05,0,12.15,0,18.25-1.29-5.24-.92-10.6-.73-15.87,1.14-31.33,4.82-62.29,13.94-92.43,10.65-35.2,26.54-67.82,47.79-97.83,.28-.39,.73-.66,1.1-.99-6.69,23.24-10.47,47.07-13.79,70.94-3.61,25.96-5.33,52.12-4.02,78.33,.85,17,3.89,33.79,8.23,50.29,.72,2.73,1.02,4.62-2.58,4.67Z"/>
      <path class="cls-32" d="M507.12,888.96c-12.23-.06-24.41-.69-36.48-2.87-1.55-.28-3.34-.68-4.61,.93-1.86,1.18-3.54,.11-5.22-.48-4.78-1.69-9.69-2.44-14.74-1.94-13.09,1.3-26.19,2.13-39.34,1.76-17.09-.93-33.49-5.33-49.78-10.18-8.94-2.66-17.7-5.87-26.28-9.54-1.84-.79-4.39-.91-4.71-3.72,3.4-6,6.8-12,10.21-18.01,6.56,2.06,13.43,2.31,20.17,2.83,43.04,3.3,86.02,4.57,128.36-6.39,1.83-.47,3.43-.76,4.82,1.2,9.89,13.95,16.72,29.04,17.61,46.4Z"/>
      <path class="cls-30" d="M266.11,177.11c-11.82,23.68-21.95,48.09-31.78,72.64-1.67,4.18-2.34,8.63-3.29,13.01-2.22,10.26-6.53,19.38-16.05,24.75-11.76,6.64-23.45,5.66-33.99-2.63-9.83-7.73-12.59-18.5-10.49-30.44,1.81-10.3,3.98-20.55,8.31-30.19,.4-.89,1.39-2.04,.27-3.19,27.29-18.05,56.24-32.81,87.02-43.95Z"/>
      <path class="cls-26" d="M325.95,862.93c25.59,11.45,52.16,19.32,80.14,22.12,3.25,1.17,6.83-.37,10.09,.94-.3,1.89-1.71,2.2-2.91,2.65-14.15,5.28-24.65,15.27-34.43,26.3-5.94,6.7-12.16,13.16-17.37,20.48-.8,1.12-1.93,1.81-3.27,2.13-3.78,1.6-7.55,.41-11.28-.14-15.92-2.39-31.67-5.59-47.1-10.24-2.06-.62-4.16-1.24-5.58-3.05,9.16-21.13,19.77-41.5,31.72-61.18Z"/>
      <path class="cls-26" d="M264.01,1082.96c-2.02-3.06-1.27-6.53-.76-9.62,1.69-10.21,.32-20.53,1.58-30.79,.93-7.53,1.65-15.13,2.35-22.71,1.01-.38,1.98-.16,2.91,.24,16.83,7.24,34.51,11,52.65,12.86,3.41,1.1,6.94,.69,10.41,.63,3.86-.06,6.14,1.37,7.3,5.25,3.66,12.26,9.74,23.28,17.66,33.32,1.49,1.89,3.73,3.51,3.28,6.43-3.84,6.12-10.27,7.27-16.48,7.57-23.97,1.16-47.78,.22-70.91-7.26-6.88-2.22-6.93-2.06-9.99,4.06Z"/>
      <path class="cls-30" d="M152.12,1039.91c8.51,2.71,13.55,9.49,18.97,15.93,3.79,4.51,7.06,9.54,12.09,12.9-7.38,12.94-15.91,25-27.64,34.4-14.58,11.7-31.71,17.25-49.91,19.94-4.6,.68-9.18,1.5-13.81,1.94-6.84-12.96-9.59-26.6-6.82-41.16,7.53,.56,13.86-3.22,20.34-6.02,17.53-7.59,31.26-20.05,43.1-34.77,1.03-1.28,1.82-2.85,3.68-3.17Z"/>
      <path class="cls-30" d="M189.1,1072.91c12.9,7.43,25.89,14.68,39.68,20.38,2.1,.87,4.21,1.72,6.32,2.58-1.93,3.07-1.95,6.62-2.42,10.02-1.88,13.5-5.74,26.45-10.6,39.14-.8,1.51-1.4,3.2-3.4,3.56-13.37,3.32-26.85,6.15-40.58,7.26-15.01,1.22-30.05,2.75-45.13,.75-3.94-.52-7.97,.36-11.86-.8-1.41-.73-1.59-1.6-.19-2.52,1.27-.83,2.77-1.08,4.21-1.48,35.29-9.72,57.13-35.04,61.65-71.45,.32-2.61,.33-5.34,2.31-7.44Z"/>
      <path class="cls-26" d="M270.07,1001.93c3.23-17.72,7.9-35.05,13.95-52.02,17.24,7.37,35.55,10.42,53.87,13.45,2.41,.4,5.04,.39,6.65,2.77,.75,2.78-.66,5.22-1.23,7.78-2.53,11.39-4.8,22.8-4.86,34.53-.02,2.97-.03,6.09-3,8.02-1.36,.8-2.86,.89-4.35,.66-19.37-2.94-38.65-6.29-57.13-13.09-1.41-.52-2.79-1.06-3.9-2.12Z"/>
      <path class="cls-26" d="M249.07,1100.93c9.94,2.54,19.72,5.69,29.85,7.47,2.4,.42,4.77,1.03,7.15,1.56,2.27,1.75,2.98,4.37,3.65,6.93,4.81,18.53,6.37,37.29,3.45,56.29-.43,2.77-.9,5.62-3.1,7.72-5.08,2.65-10.71,2.99-16.22,3.53-11.29,1.1-22.43,3.78-33.87,3.39-1.12-1.99,.19-3.56,1.07-5.07,7.3-12.5,9.03-26.34,9.51-40.38,.21-6.11,.84-12.3-.48-18.4-.35-1.7-.45-3.41-.45-5.14-.11-5.97-2.1-11.88-.56-17.9Z"/>
      <path class="cls-28" d="M189.1,1072.91c-2.05,17.43-5.7,34.36-16.43,48.84-12.59,16.99-29.68,27.07-49.98,32.11-.93,.23-1.82,.66-2.73,1-1.58,1.65-3.26,.91-4.93,.2-9.59-8.57-17.25-18.64-23.21-30.03,3.68-3.34,8.48-2.33,12.74-2.98,22.87-3.52,43.72-11.01,59.64-28.8,5.54-6.19,10.53-12.8,14.78-19.96,1.05-1.77,1.63-4.12,4.19-4.54,1.97,1.39,3.95,2.78,5.92,4.17Z"/>
      <path class="cls-26" d="M115.03,1155.06c1.64-.07,3.29-.13,4.93-.2,11.62-.29,23.17,1.74,34.81,1.06,16.33-.96,32.66-1.74,48.68-5.55,4.33-1.03,8.8-1.47,12.99-3.11,1.01-.4,1.95-.33,2.64,.67,1.42,1.91-.01,3.47-.73,5.03-5.09,11.08-11.66,21.14-20.63,29.51-1.29,1.2-2.79,2.25-1.56,4.33-11.62-.78-22.43-5.16-33.69-7.48-14.34-2.96-27.52-8.27-39.11-17.28-2.85-2.22-5.55-4.64-8.32-6.97Z"/>
      <path class="cls-34" d="M344.06,965.99c-13.6-2.76-27.42-4.39-40.84-8.05-5.76-1.57-11.42-3.43-16.93-5.74-1.15-.48-2.12-.9-2.27-2.27,3.41-8.6,6.81-17.21,10.22-25.81,18.43,5.78,37.28,9.68,56.38,12.46,2.77,.4,5.6,.33,8.4,.48,.25,.15,.36,.33,.32,.53-.04,.21-.1,.32-.18,.32-6.05,5.69-8.75,13.37-12.04,20.66-.99,2.2-3.24,4.52-1.03,7.3-.64,.62-1.31,.7-2.03,.14Z"/>
      <path class="cls-34" d="M196.16,1186.79c-3.33-1.13-2.19-2.39-.33-4.13,10.46-9.75,18.21-21.34,23.25-34.74,.63-1.04,1.27-2.08,1.9-3.12,6.84-2.57,13.7-5.02,20.2-8.44,5.27-2.78,8.88-6.6,9.96-12.57,2.06,8.65,1.22,17.45,.56,26.1-1.02,13.43-4.26,26.38-11.72,37.93-8.33,1.89-16.74,1.2-25.12,.69-6.25-.38-12.47-1.13-18.7-1.72Z"/>
      <path class="cls-26" d="M358.2,1152.77c-8.6,.14-14.44,6.26-21.32,10.03-7.42,4.06-14.53,8.7-22.71,11.19-1.19-2.27,.19-4.19,.89-6.17,2.98-8.33,5.68-16.68,5.71-25.71,.02-7.09-2.08-13.38-5.71-19.36-1.84-3.03-4.72-5.74-3.99-9.85,12.58-.14,25.17,.41,37.71-1.04,1.79-.21,3.56-.56,5.35-.85,5.26,12.55,5.41,25.79,5.2,39.06-.02,1.01-.42,1.93-1.14,2.69Z"/>
      <path class="cls-34" d="M311.08,1112.91c2.77,6.77,8.11,12.23,9.9,19.51,3.06,12.42-.26,24.03-4.51,35.51-.75,2.03-1.53,4.04-2.29,6.06-7.76,3.27-15.69,5.92-24.1,6.91,5.6-24.04,3.37-47.64-4-70.94,8.33,.99,16.67,1.97,25,2.96Z"/>
      <path class="cls-28" d="M152.12,1039.91c-15.89,22.15-36.39,37.88-62.95,45.16-1.59,.44-3.59,2-4.17-1.2,3.2-15.51,11-28.4,22.42-39.2,11.84-11.19,29.76-12,44.7-4.77Z"/>
      <path class="cls-34" d="M270.07,1001.93c7.64,2.16,15.22,4.51,22.92,6.42,13.83,3.43,27.78,6.31,42.01,7.63,.42,.24,.98,.32,1.06,.94,.03,5.7,.67,11.33,2.03,16.87-4.98,1.1-9.99,.77-14.99,.22-19.49-1.36-38.31-5.38-55.92-14.16,.96-5.97,1.92-11.95,2.89-17.92Z"/>
      <path class="cls-34" d="M358.2,1152.77c.04-10.36-.64-20.66-2.03-30.94-.49-3.66-3.28-6.87-2.04-10.81,4.59-.46,9.19-.89,13.78-1.39,4.42-.48,8.26-2.17,11.16-5.66-1.45,5.25,1.58,9.49,3.18,14.05-.55,13.3-7.53,23.33-16.45,32.39-1.19,1.21-3.28,1.95-2.63,4.31-1.75-.41-3-2.11-4.98-1.95Z"/>
      <path class="cls-28" d="M251.14,1123.79c1.06,5.75-1.89,9.04-6.52,11.94-6.63,4.16-13.91,6.65-21.07,9.5-1,.4-1.87,.66-2.58-.43,5.22-15.18,10.2-30.41,11.14-46.61,.12-2.14,1.38-2.34,2.99-2.33,2.36,.99,4.72,1.97,7.08,2.96,6.52,5.18,6.95,13.01,8.83,20.22,.04,1.58,.09,3.17,.13,4.75Z"/>
      <path class="cls-33" d="M264.01,1082.96c-.19-9.97-.24-8.95,8.41-6.06,23.82,7.96,48.4,9.12,73.18,7.87,5.74-.29,11.44-2.03,15.46-6.85,.31-.41,.64-.42,.98-.03,1.34,3.38,2.69,6.76,4.03,10.15-5.96,1.6-12.12,1.77-18.19,2.41-28.43,2.98-56.43,.75-83.87-7.49Z"/>
      <path class="cls-33" d="M530,191.95c-1.05-8.97-.55-17.65,3.94-25.85,1.73-3.16,4.19-5.51,6.59-8,1.13-1.17,2.68-2.15,1.56-4.15,5.93,.42,11.57,2.11,18.11,3.73-11.57,10.72-21.26,22.18-30.19,34.28Z"/>
      <path class="cls-31" d="M554.09,196.07c-2.89,7.65-7.53,14.29-12.08,20.98-1.96-3.64-6.18-2.24-8.97-4.02,6.16,.7,10.45-1.86,13.58-7.17,2.07-3.52,3.98-7.29,7.47-9.78Z"/>
      <path class="cls-27" d="M251.01,1119.04c-2.57-6.9-4.67-14.01-8.83-20.22,2.3,.7,4.59,1.4,6.89,2.1,1.64,5.93,.97,12.11,1.94,18.11Z"/>
      <path class="cls-16" d="M836.18,500.95c1.8-3.24-.21-6.85,.98-10.16,1.16,4.83,.64,9.75,1.12,15.92-1.65-2.51-2.21-4-2.11-5.76Z"/>
      <path d="M1438.08,391.86c-.53,15.92-4.14,29.6-12.29,41.8-10.22,15.31-22.12,17.51-38.17,4.44-8.48-6.91-11.79-17.05-14.04-27.43-3.52-16.2-4.02-32.28,2.26-48.04,2.11-5.3,4.88-10.17,8.69-14.42,9.81-10.93,22.6-11.77,33.35-1.75,13.48,12.57,19.5,28.52,20.2,45.4Z"/>
      <path d="M1157.1,386.04c0,12.48-2.25,24.45-8.38,35.47-2.69,4.85-6.19,9.05-10.82,12.21-11.99,8.16-25.75,5.71-34.08-6.14-6.76-9.62-9.67-20.67-11.45-32.06-2.46-15.76-.37-30.79,7.71-44.75,1.84-3.17,3.99-6.12,6.55-8.77,10.95-11.33,23.85-11.3,34.82,.07,9.99,10.36,15.7,26.42,15.65,43.97Z"/>
      <path class="cls-14" d="M1462.38,448.75c15.08,.53,28.24,5.53,36.57,18.65,11.57,18.21,2.78,40.5-18.35,48.6-16.6,6.37-30.97,1.12-44.43-8.38-7.49-5.28-13.31-11.99-15.35-21.34-2.59-11.83,.98-21.34,11.03-28.13,9.17-6.19,19.27-9.63,30.53-9.4Z"/>
      <path class="cls-14" d="M1062.94,496.14c-15.4-.82-27.61-7.19-34.5-21.42-7.93-16.37-.45-41.64,25.29-43.83,7.74-.66,15.21-.27,22.58,2.09,14.39,4.62,19.9,17.36,19.05,31.4-.81,13.33-6.74,23.45-19.25,29.14-4.16,1.89-8.53,2.74-13.16,2.62Z"/>
      <path d="M1299.1,424.07c-1.63,10.84-7.21,18.83-17.28,23.35-2.19,.99-2.76,2.2-2.99,4.44-.87,8.26-1.38,16.6-3.85,24.61-4,12.98-12.31,22.12-25.18,26.36-12.58,4.15-28.93-2.88-36.8-15.04-6.83-10.54-9.29-22.41-9.71-34.66-.15-4.33-1.47-4.94-5.28-5.19-12.65-.84-20.15-13.16-15.49-25.78,2.78,7.2,7.1,12.71,13.41,16.55,5.13,3.11,10.2,3.4,15.55,.36,7.44-4.23,12.93-10.3,17.57-17.36,1.49-2.26,.12-3.16-.99-4.58-5.54-7.07-4.97-15.38,1.37-21,6.38-5.65,16.08-4.66,21.13,2.17,4.89,6.61,3.21,16.41-4.28,20.25-4.16,2.13-3.55,4.18-2.16,7.29,4.98,11.16,16.24,18.11,28.37,17.43,12.09-.68,21.77-8.59,25.66-20.97,1.71-.16,1.33,.79,.94,1.75Z"/>
      <path class="cls-1" d="M1599.95,508.32c-.66,.04-1.32,.12-1.98,.13-9.17,.14-10.37-1.77-6.69-10.24,.68-1.57,1.5-1.52,2.65-.96,5.05,2.46,10.33,4.48,14.95,7.77,.74,.53,1.99,.94,1.58,2.18-.4,1.2-1.64,.89-2.57,.91-2.64,.06-5.29,.02-7.93,.02,0,.07,0,.13,0,.2Z"/>
      <path class="cls-2" d="M1607.31,535.4c-6.22-1.71-12.42-3.5-18.67-5.09-2.08-.53-2.08-1.33-1.44-3.13,2.97-8.36,2.95-8.44,9.8-2.71,3.78,3.16,7.37,6.56,11.05,9.86-.25,.36-.49,.72-.74,1.08Z"/>
      <path class="cls-12" d="M1180.93,233.23c2.37,0,4.74,0,7.11,.01-2.37,1.3-4.74,1.32-7.11-.01Z"/>
      <path class="cls-21" d="M1299.1,424.07c-.31-.58-.63-1.17-.94-1.75-.31-1.16,.61-1.74,1.26-3.29,.78,2.28,.82,3.69-.32,5.04Z"/>
      <path class="cls-6" d="M1713.84,738.44c.21,13.49-8.89,23.36-22.96,26.63-21.55,5-40.22-9.27-44.04-31.13-1.31-7.47-.65-14.6,1.25-21.67,3.4-12.66,17.07-20.36,30.54-15.94,17.44,5.73,30.86,16.29,34.75,35.67,.16,.81,.39,1.63,.43,2.45,.07,1.33,.02,2.66,.02,4Z"/>
      <path class="cls-6" d="M1062.01,716.72c.41,9.25-3.42,16.75-9.82,23.11-9.96,9.89-32.08,8.6-39.92-5.73-4.65-8.49-8.87-16.73-6.28-26.84,2.1-8.17,5.93-14.64,14.4-17.69,4.01-1.45,7.43-4.24,11.95-4.71,16.95-1.76,27.7,12.48,29.64,27.37,.19,1.47,.03,2.99,.03,4.49Z"/>
      <path class="cls-7" d="M1667.05,675.89c-.02,7.95-6.56,14.18-14.84,14.17-8.17-.01-14.91-6.98-15.02-15.51-.12-9.2,7.24-16.64,16.31-16.71,8.69-.07,12.72,6.26,13.55,18.04Z"/>
      <path class="cls-7" d="M1697.71,662.84c7.92,.05,15.17,6.01,15.06,12.37-.14,8.42-6.78,15.8-14.23,15.82-8.23,.03-15.74-6.93-15.54-14.41,.2-7.7,6.75-13.84,14.72-13.78Z"/>
      <path class="cls-8" d="M1009.96,684.11c-.06,7.37-4.91,12.92-11.12,12.75-5.71-.16-10.68-6.18-10.67-12.92,.02-6.72,5.07-12.06,11.34-11.98,6,.08,10.51,5.33,10.45,12.16Z"/>
      <path class="cls-8" d="M1015.98,651.91c2.37-.11,4.74-2.11,7.1,.01-1.41,1.05-.65,1.67,.33,2.51,2.34,2.01,5.24,3.49,6.55,6.54,.06,1.02,.11,2.04,.17,3.06-1.5,6.01-4.86,9.54-9.55,10.02-5.34,.55-9.87-2.2-11.32-6.89-1.95-6.31,.66-12.24,6.71-15.25Z"/>
      <path class="cls-15" d="M1043.01,671.96c-.45-9.48,2.03-13.03,9.16-13.1,5.63-.05,9.78,3.9,9.86,9.39,.08,5.58-3.79,9.53-9.56,9.75-.82,.03-1.65,.04-2.47,.06-3.88-.25-4.7-4.02-6.99-6.1Z"/>
      <path class="cls-8" d="M1733.04,703.95c-.01,1.68-.02,3.36-.03,5.05-3.18,5.87-6.84,8.16-11.79,6.86-4.44-1.16-7.11-4.12-7.39-8.89-.28-4.7,2.51-8.86,6.6-9.93,5.02-1.31,8.85,.28,11.41,4.74,.41,.72,.8,1.45,1.21,2.17Z"/>
      <path class="cls-14" d="M1694.93,195.88c.17,21.9-1.89,42.35-4.01,62.8-.35,3.39-1.25,4.56-5.05,2.99-23.72-9.82-46.36-21.66-67.92-35.59-22.5-14.54-43.76-30.64-62.99-49.36-2.61-2.54-3.14-4.32-.88-7.5,7.6-10.71,15.77-20.89,24.65-30.59,22.62-24.71,49.25-43.88,79.24-58.53,5.37-2.62,10.97-4.77,16.41-7.25,2.76-1.26,3.98-.85,4.83,2.41,4.66,17.97,8.3,36.12,10.78,54.53,2.03,15.11,3.55,30.23,4.2,45.49,.31,7.29,.35,14.6,.73,20.59Z"/>
      <path class="cls-4" d="M1610.64,471.5c-7.56,3.97-13.76,7.23-20.44,10.74-.08-4.59-.37-8.5-1.25-12.33-.64-2.78,.67-3.06,2.98-2.52,5.76,1.34,11.55,2.54,18.72,4.11Z"/>
      <path class="cls-17" d="M1029.97,660.97c-3.43-2.65-6.85-5.3-10.5-8.12,1.13-1.28,2.5-.67,3.61-.92,4.7,1.19,6.92,4.26,6.89,9.04Z"/>
      <path class="cls-14" d="M736.89,654.29c0-20.72,18.67-38.57,40.63-38.13,19.86,.4,34.04,14.1,34.13,34.83,.1,21.69-18.41,41.31-39.2,41.66-17.72,.29-35.56-19.31-35.56-38.35Z"/>
      <path class="cls-3" d="M696.42,652.65c3.43-4.63,7.57-7.12,11.23-10.15,1.59-1.32,2.77-.41,3.97,.42,2.75,1.91,2.27,4.98,2.4,7.68,.09,1.91-1.81,1.52-3.04,1.57-4.55,.19-9.09,1.16-14.56,.48Z"/>
      <path class="cls-25" d="M695.78,669.06c4.77-2.93,9.55-5.85,14.32-8.79,1.88-1.16,3.83-1.26,4.12,1.26,.26,2.28,3.34,5.87-1.42,6.81-5.47,1.07-11.07,1.41-16.62,2.06-.14-.45-.27-.89-.41-1.34Z"/>
      <path class="cls-24" d="M698.94,632.93c4.35-3.58,7.9-6.5,11.47-9.44,2.77,4.98,2.46,6.03-2.48,7.89-2.58,.97-5.18,2.05-8.99,1.55Z"/>
      <path class="cls-22" d="M432.22,815.48c-1.04,.72-2.06,.64-3.42,.04,1.3-.75,2.31-.8,3.42-.04Z"/>
      <path class="cls-30" d="M359.16,937.89c-.07-.28-.11-.56-.14-.85,12.17-16.45,25.1-32.17,42.23-43.85,4.25-2.9,9.01-4.78,14.23-6.68-3.34-1.43-6.69,.61-9.38-1.47,13.28,.03,26.52-.48,39.72-2.01,7.12-.82,13.8,.98,20.21,3.98,13.42,8.12,16.5,33.58,8.26,43.81-5.04,6.26-11.38,9.65-18.93,10.97-17.16,2.98-34.33,2.04-51.62,.55-14.88-1.29-29.63-3.85-44.57-4.45Z"/>
      <path class="cls-30" d="M336.06,1016.93c-.35-.31-.71-.63-1.06-.94,1.61-1.84,2.07-4.07,2.05-6.4-.13-14.93,2.94-29.34,7-43.6,.68-.05,1.35-.09,2.03-.14,16.26,2.03,32.5,4.32,48.8,6.03,20.53,2.16,31.65,21.82,21.56,39.11-4.37,7.49-11.32,11.63-20.1,11.96-12.5,.47-24.72-2.36-37.09-3.46-7.75-.69-15.38-2.42-23.19-2.56Z"/>
      <path class="cls-30" d="M362.05,1077.9c-.33,0-.66,.02-.99,.03-10.03-11.93-18.2-24.88-22.2-40.15-.62-2.35-2.28-2.79-4.54-2.92-3.74-.22-7.62,1.13-11.23-.84,5-.07,10-.14,14.99-.22,8.59,.04,16.97,.68,23.63,7.19,10.17,9.92,11.06,23.45,2.18,34.58-.62,.78-1.24,1.55-1.86,2.33Z"/>
      <path class="cls-6" d="M1213.07,453.03c-.57-4.24,.66-6.8,5.19-8.14,5.6-1.67,10.44-5.12,14.64-9.22,1.89-1.85,2.89-1.64,4.71,.19,7.81,7.86,16.97,13.34,28.25,14.4,2.76,.26,3.33,1.53,2.97,3.89-.95,6.23-1.35,12.55-2.99,18.68-2.23,8.35-7.31,14.45-14.61,18.79-8.19,4.88-21.47,1.72-28.22-6.84-7.34-9.31-9.09-20.45-9.96-31.76Z"/>
    </g>
  </g>
</svg>