<?xml version="1.0" encoding="UTF-8"?>
<svg id="_图层_2" data-name="图层 2" xmlns="http://www.w3.org/2000/svg" viewBox="0 0 1587 1334">
  <defs>
    <style>
      .cls-1 {
        fill: #f6f6f6;
      }

      .cls-2 {
        fill: #030303;
      }

      .cls-3 {
        fill: #f4f4f4;
      }

      .cls-4 {
        fill: #fcfcfc;
      }

      .cls-5 {
        fill: #e3e3e3;
      }

      .cls-6 {
        fill: #ededec;
      }

      .cls-7 {
        fill: #f1f1f1;
      }

      .cls-8 {
        fill: #fefefe;
      }

      .cls-9 {
        fill: #e5e5e5;
      }

      .cls-10 {
        fill: #e4e4e4;
      }

      .cls-11 {
        fill: #e5be90;
      }

      .cls-12 {
        fill: #e5d4c1;
      }

      .cls-13 {
        fill: #fbd19e;
      }

      .cls-14 {
        fill: #fead8d;
      }

      .cls-15 {
        fill: #fed3a0;
      }

      .cls-16 {
        fill: #877b59;
      }

      .cls-17 {
        fill: #b3b1b2;
      }

      .cls-18 {
        fill: #b6b6b6;
      }

      .cls-19 {
        fill: #323218;
      }

      .cls-20 {
        fill: #acacac;
      }

      .cls-21 {
        fill: #dadada;
      }

      .cls-22 {
        fill: #d7d7d7;
      }

      .cls-23 {
        fill: #df9057;
      }

      .cls-24 {
        fill: #c9824e;
      }

      .cls-25 {
        fill: #0b0b0b;
      }

      .cls-26 {
        fill: #37371b;
      }

      .cls-27 {
        fill: #a3a3a3;
      }

      .cls-28 {
        fill: #6f6f70;
      }

      .cls-29 {
        fill: #887c5b;
      }

      .cls-30 {
        fill: #887d5b;
      }

      .cls-31 {
        fill: #827758;
      }

      .cls-32 {
        fill: #827656;
      }

      .cls-33 {
        fill: #3a3a3a;
      }

      .cls-34 {
        fill: #4f4f4f;
      }

      .cls-35 {
        fill: #7b7152;
      }

      .cls-36 {
        fill: #4e4e4e;
      }
    </style>
  </defs>
  <g id="_图层_1-2" data-name="图层 1">
    <g>
      <path class="cls-8" d="M422.07,.12C808.8,.12,1195.52,.13,1582.25,0c4.26,0,4.75,1.11,4.75,4.97-.1,441.36-.1,882.72,0,1324.08,0,3.88-.53,4.95-4.76,4.95-414.38-.13-828.77-.12-1243.15-.12-.32-.56-.23-1.05,.27-1.45,5.81-1.56,11.84-1.43,17.75-2.27,11.23-1.6,22.19-5.25,33.42-6.01,14.03-.94,25.73-7.55,38.13-12.63,5.92-2.42,9.38-7.06,11.83-12.86,4.07-9.64,6.12-19.69,7.11-30.02,.08-.83,.04-1.68,.22-2.49,.27-1.24,.12-3,1.83-3.12,1.31-.09,1.7,1.41,2.14,2.44,2.19,5.23,4.12,10.55,6.04,15.88,1.81,5.02,4.08,9.84,6.32,14.68,3.57,7.7,9.67,11.4,17.86,11.34,17.15-.14,34.29,.8,51.44-.64,8.44-.71,16.95-.47,25.39-1.71,24.1-3.54,46.69-12.17,69.42-20.33,12.57-4.52,24.73-9.85,36.34-16.53,16.94-9.75,24.15-30.7,16.12-48.6-6.62-14.76-18.24-23.88-33.59-28.39-5.28-1.55-10.78-2.16-16.21-3.01-4.17-.65-7.07-2.74-8.53-6.74-4.45-12.21-9.41-24.23-13.7-36.5-1.4-4-.83-7.25,1.46-10.79,7.58-11.76,15.08-23.58,19.89-36.87,1.65-4.57,3.38-4.63,6.46-.54,2.81,3.72,5.5,7.51,8.7,10.94,11.05,11.87,25.15,16.45,40.77,18.99,26.99,4.39,45.22-10.13,61.83-27.63,8.53-8.99,10.14-21.49,11.75-33.46,2.7-20.15-1.33-39.8-4.64-59.49-4-23.79-11.66-46.48-20.83-68.7-2.75-6.65-2.02-7.7,5.35-7.8,27.48-.39,54.88-2.05,82.1-5.98,8.94-1.29,17.55-3.85,26-7.04,6.67-2.52,7.98-1.32,7.17,5.84-2.69,23.66-4.87,47.39-4.17,71.22,.49,16.77,1.08,33.65,6.89,49.75,1.11,3.07,1.01,6.2,.36,9.37-5.08,24.85-7.06,50.07-9.64,75.25-4.14,40.33-5.23,80.71-4.79,121.19,.07,6.21,.88,12.28,1.92,18.35,1.5,8.82,6.48,15.17,13.95,19.76,6.33,3.88,13.28,6.24,20.48,7.76,25.27,5.33,50.69,9.47,76.48,11.77,31.4,2.8,60.91-3.85,89.88-14.7,4.68-1.75,8.95-4.38,13.18-7.09,10.31-6.61,12.74-16.28,11.77-27.71-.9-10.74-3.95-20.57-10.55-29.18-2.84-3.71-3.11-7.99-2.81-12.38,1.85-27.3,5.79-54.3,11.45-81.06,1.43-6.77,2.72-7.49,9.72-6.56,13.06,1.73,26.15,2.72,39.35,2.45,7.41-.15,7.96,.69,8.22,7.85,.55,15.35,3.4,30.43,5.39,45.62,.54,4.13,.79,8.29,1.43,12.41,.62,4-.45,7.64-3.2,10.65-12.72,13.95-16.64,31.38-18.36,49.24-1.45,15.1,7.83,24.75,19.79,32.2,8.84,5.51,18.83,6.84,28.83,6.83,19.67-.02,39.22,1.76,58.81,3.03,11.68,.75,23.28-.81,34.92-1.17,16.41-.5,32.39-3.92,47.73-9.92,9.95-3.89,19.56-8.53,28.51-14.36,8.62-5.61,13.32-13.3,13.54-24.11,.16-7.6,.5-15.28,1.48-22.9,.83-6.46-.14-12.94-.51-19.43-.56-9.79-.59-19.62-1.06-29.43-1.05-22.1-2.52-44.17-3.88-66.25-.99-16.11-1.72-32.24-3.3-48.3-1.17-11.91-1.38-23.94-4.38-35.63-.83-3.24,.4-4.3,3.75-3.29,2.73,.83,5.1,2.45,7.53,3.89,20.4,12.09,42.48,18.19,66.18,18,27.02-.22,51.38-8.88,69.99-28.32,17.56-18.34,30.53-40.38,28.71-67.07-2.72-40.03-32.79-72.53-76.81-68.52-16.19,1.47-28.63,9.26-35.94,24.29-2.18,4.49-4.61,8.87-6.49,13.51-1.95,4.8-4.41,9.34-7.48,13.53-2.66,3.64-6.29,5.6-10.74,5.22-8.37-.72-16.31-2.59-23.39-7.75-4.87-3.55-7.43-7.77-7.75-13.68-.87-15.82-3.48-31.44-5.74-47.1-2.98-20.61-6.7-41.11-10.33-61.62-1.19-6.74-.98-7.47,5.27-10.49,6.49-3.13,12.56-6.87,18.08-11.51,5.29-4.45,11.75-6.94,17.71-10.25,15.39-8.56,29.5-19.12,42.38-30.77,38.39-34.71,69.99-74.8,92.35-121.86,18.34-38.59,32.85-78.31,38.58-120.91,3.17-23.54,3.1-47.12,1.82-70.77-.66-12.17-2.32-24.19-4.11-36.21-.66-4.45,.09-5.37,4.66-5.5,7.16-.21,14.33,0,21.49-.09,14.14-.18,22.23-8.55,22.75-22.7,.36-9.79-1.99-19.19-3.08-28.77-3.27-28.61-7.24-57.15-10.13-85.81-.87-8.61-2.88-17.07-7.66-24.61-4.49-7.09-10.74-10.34-19.02-9.1-5.81,.87-11.62,.8-17.45,.8-42.82,0-85.65,0-128.47,0-1.83,0-3.67-.06-5.5-.03-3.99,.06-5.5-1.94-5.75-5.83-1.26-19.66-4.22-39.07-9.43-58.1-8.12-29.67-22.07-56.37-41.24-80.37-4.82-6.04-11.55-8.09-18.83-6.5-50.5,11.01-96.82,31.45-138.55,62.08-10.07,7.39-20.06,14.91-29.23,23.44-2.48,2.31-5.31,3.19-8.72,2.61-24.57-4.21-49.37-5.05-74.2-4.18-21.84,.76-43.41,4.02-64.76,8.78-23.14,5.16-45.89,11.54-67.77,20.76-3.78,1.59-6.82,1.27-10.16-1.24-47.18-35.48-100.68-55.4-158.7-63.99-10.2-1.51-20.48-2.53-30.84-2.56-11.67-.02-18.4,5.11-21.02,16.53-2.91,12.67-5.47,25.41-7.79,38.2-1.29,7.14-2.63,7.97-9.34,5.62-33.36-11.67-67.7-18.75-102.84-22.07-.5-.05-1.01-.16-1.49-.07-10.44,1.81-15.32-4.1-19.9-12.54-11.31-20.85-25.47-39.82-41-57.76-23.67-27.33-51.54-49.6-82.24-68.48-8.51-5.23-17.08-10.35-27.13-12.16-.51-.41-.6-.9-.28-1.47Z"/>
      <path class="cls-8" d="M422.07,.12c0,.25,0,.5,0,.76-.36,.82-1.03,1.41-1.84,1.57-7.27,1.48-11.64,6.61-15.87,12.12-27.68,36.05-52.14,74.12-71.99,115.03-17.2,35.44-31.35,72.09-41.55,110.19-1.08,4.05-3.02,7.33-6.21,9.97-31.25,25.94-56.45,56.95-76.63,92.06-9.05,15.76-16.56,32.31-23.02,49.31-1.07,2.81-2.11,5.62-3.78,8.14-16.13,24.35-28.43,50.87-42.96,76.14-4.29,7.46-4.34,16.67-6.4,25.05-2.5,10.19-3.41,20.64-3.47,31.2-.12,19.51,.24,38.94,3.9,58.21,2.97,15.63,8.45,30.43,13.71,45.37,10.75,30.52,26.47,58.18,46.75,83.24,15.64,19.32,34.59,35.02,55.43,48.45,4.48,2.89,8.96,5.78,13.38,8.76,5.13,3.47,5.49,4.53,2.31,9.69-17.3,28.09-30.09,58.28-41.69,89.02-10.97,29.08-19.13,58.92-23.73,89.7-1.48,9.93-2.69,10.39-10.95,4.67-10.8-7.49-19.24-17.39-27.76-27.2-4.37-5.03-8.61-10.16-12.68-15.45-9.72-12.62-12.53-27.28-13.29-42.68-.6-12.12-.83-24.31-4.88-35.99-8.17-23.52-23.43-39.3-48.65-43.5-15.13-2.52-28.12,3.29-39.85,12.37-13.02,10.09-23.12,22.61-29.68,37.7-6.68,15.36-9,31.49-7.69,48.3,2.5,31.98,17.96,57.69,38.12,81.31,23.56,27.6,53.4,45.13,87.87,55.45,10.88,3.26,21.84,6.01,33.06,7.75,7.78,1.21,15.6,1.17,23.39,.13,7.36-.98,8.14-.27,9.15,7.04,1.73,12.54,3.31,25.13,6.97,37.29,1.48,4.92,.33,9.65-.29,14.35-.99,7.49-.77,14.96-.82,22.44-.05,9.66-.02,19.33-.01,28.99,0,5.82,.3,11.62,.78,17.44,1.13,13.8-.35,27.62-1.26,41.38-.57,8.63-.8,17.29-1.22,25.9-.73,14.77-2.08,29.58-1.26,44.41,.39,7.15,.67,14.42,6.96,19.58,2.49,2.05,5.23,3.61,8.17,4.75,20.36,7.87,40.72,15.82,62.62,18.44,6.43,.77,12.88,1.84,19.39,1.53,10.34-.49,20.59,1.53,30.93,1.09,1.17-.05,2.33,.17,3.34,.85,.46,.41,.53,.88,.19,1.41H.13v-4.92C.13,887.65,.14,446.33,0,5.02,0,.51,1.27,.03,5.23,.03c138.95,.11,277.89,.09,416.84,.09Z"/>
      <path class="cls-5" d="M329.08,1333.88c0-.29,0-.58-.02-.87,3.34-2.34,6.69-2.34,10.03,0,0,.29-.01,.58-.02,.87h-10Z"/>
      <path d="M339.1,1333c-3.34,0-6.69,0-10.03,0-14.65-.54-29.3-.9-43.94-1.65-23.09-1.18-44.62-8.7-65.99-16.77-20.37-7.69-23.04-11.32-22.93-33.07,.14-28.83,2.07-57.6,3.69-86.37,.49-8.68-.12-17.29-.4-25.95-.7-21.31-1.78-42.74,.83-63.91,1.52-12.33-3.59-23.07-4.65-34.67-.57-6.29-1.9-12.51-2.48-18.8-.28-3.11-.92-4.2-4.4-3.89-63.59,5.56-152.17-35.21-181.39-117.68-14.13-39.89-6.26-83.89,31.38-114.48,25.12-20.42,56.76-17.55,78.23,7.28,10.94,12.66,15.51,27.64,17.08,43.89,1.07,11.1,.8,22.3,2.87,33.32,1.47,7.79,4.17,15.15,8.79,21.56,11.23,15.58,23.72,30.08,38.27,42.7,3.39,2.94,7.08,5.46,11.52,7.69,1.84-10.04,3.37-19.79,5.44-29.43,12.06-56.07,32.68-108.82,61.99-158.12,2.41-4.06,1.69-5.57-1.95-7.87-14.5-9.16-28.74-18.63-41.94-29.72-26.38-22.18-46.31-49.38-61.02-80.09-15.4-32.16-28.39-65.41-30.29-101.71-1.35-25.81-1.52-51.44,5.22-76.89,2.57-9.73,6.75-18.14,11.43-26.71,11.94-21.91,23.56-43.98,36.63-65.28,4.63-7.55,6.94-16.49,10.56-24.68,21.55-48.78,52.85-90.25,93.76-124.43,1.93-1.61,2.97-3.4,3.59-5.68,23.3-85.72,63.2-163,118.18-232.64,3.94-4.99,9.22-6.75,14.94-8.06,5.05,.23,9.82,1.42,14.29,3.85,60.21,32.74,107.05,79,140.05,139.08,2.88,5.24,5.98,7.03,11.78,7.34,38.81,2.06,76.33,10.64,112.94,23.42,.77,.27,1.56,.47,2.61,.79,2.72-15.4,5.92-30.49,9.11-45.59,2.56-12.14,11.68-17.5,22.35-16.92,63.73,3.48,122.84,21.45,176.2,57.06,3.18,2.12,6.81,3.83,9.41,6.53,6.01,6.25,11.71,5.17,19.26,2.25,52.63-20.3,107.13-30.25,163.69-27.37,12.97,.66,25.91,2.01,38.71,4.24,2.71,.47,4.3-.28,6.17-1.92,49.13-43.29,105.37-72.71,169.55-86.46,7.85-1.68,14.76,.76,19.88,7.14,24.78,30.89,40.06,66.03,46.85,104.95,2.06,11.82,3.47,23.72,3.96,35.71,.11,2.67,.96,3.3,3.49,3.29,48.82-.12,97.65-.17,146.47-.23,.83,0,1.67-.07,2.49-.2,13.73-2.2,21.2,1.96,26.68,14.87,4.77,11.24,5.48,23.27,6.65,35.18,2.8,28.67,6.6,57.21,10.69,85.71,.83,5.81,.84,11.67,.31,17.45-1.07,11.55-9.92,19.44-21.47,19.56-7.5,.08-15.01,.36-22.49-.03-4.58-.24-5.48,.93-4.68,5.42,4.38,24.34,5.94,48.92,5.04,73.63-1.68,46.15-13.33,89.78-31.3,132.26-21.16,50-51.16,93.68-89.39,131.84-18.56,18.53-39.24,34.47-62.63,46.65-11.51,5.99-20.78,15.64-33.11,20.27-1.99,.75-1.59,2.2-1.31,3.7,5.34,28.8,10.37,57.66,14.06,86.72,1.28,10.07,2.29,20.18,3.27,30.29,.19,2,1.01,3.14,2.46,4.49,6.98,6.55,15.34,9.65,24.65,10.94,5.17,.71,9.13-.76,12.14-5.01,2.9-4.1,4.96-8.64,7.03-13.19,1.79-3.93,3.67-7.82,5.52-11.73,11.69-24.8,34.44-28.73,54.57-26.51,47.55,5.25,74.56,61.24,55.98,102.04-11.42,25.07-27.58,45.01-53.37,56.07-21.54,9.24-43.9,10.22-66.62,6.06-15.36-2.82-29.66-8.6-43.01-16.74-2.63-1.6-5.16-3.55-9.09-3.97,3.55,5.12,3.39,10.62,3.89,15.9,5.32,55.9,8.23,111.95,10.64,168.03,.7,16.21-.65,32.3-2.02,48.39-.63,7.47-5.63,12.87-11.55,16.78-21.02,13.89-44.04,22.5-69.24,24.91-27.64,2.64-55.23,1.86-82.82-.75-10.28-.97-20.62,.15-30.94-1.06-13.31-1.56-23.92-7.61-32.51-17.63-7.91-9.24-8.26-19.95-6.09-31.16,3.04-15.7,7.53-30.78,19.11-42.63,2.56-2.62,1.69-5.62,1.34-8.48-1.61-13.39-3.51-26.74-5.09-40.13-.82-6.94-1.34-13.92-1.72-20.9-.14-2.51-.71-3.48-3.42-3.37-15.52,.65-30.97-.37-46.31-2.8-2.33-.37-3.52-.08-4.09,2.66-5.73,27.91-10.18,56-12.04,84.46-.33,5.04,.74,9.18,3.9,13.4,9.09,12.15,10.95,26.2,8.87,40.86-.92,6.47-5.11,11.06-10.31,14.75-12.32,8.71-26.51,12.76-40.75,16.97-34.91,10.33-69.91,7.03-104.94,1.4-12.8-2.06-25.47-4.92-38.19-7.47-1.95-.39-3.86-1.02-5.75-1.63-21-6.81-28.49-16.02-29.51-38.02-1.6-34.66-.52-69.28,2.4-103.85,2.11-24.89,3.79-49.82,7.32-74.57,1.27-8.89,3.04-17.71,4.68-26.54,.5-2.68,.4-5.09-.61-7.74-5.82-15.2-6.29-31.28-6.76-47.22-.75-25.51,.93-50.95,4.37-76.25,.18-1.29,.16-2.61,.25-4.22-39.09,14.96-79.96,13.18-120.59,15.37-.56,.94,.44,1.93,.87,2.86,7.35,16.26,13.42,33.11,17.48,50.35,6.2,26.35,11.44,52.95,9.46,80.46-2.3,32.01-21.62,50.75-49.16,61.18-20.67,7.83-58.07,1.5-75.93-27.33-.94-1.52-1.98-2.97-3.38-5.07-5.56,16.48-14.21,30.57-23.5,44.29-1.2,1.77-.48,3.22,.06,4.68,4.97,13.41,10.06,26.77,15.01,40.19,.88,2.38,2.46,3.31,4.79,3.66,4.61,.69,9.19,1.54,13.79,2.25,9.3,1.43,17.39,5.4,24.61,11.35,18.82,15.51,20.52,32.82,14.41,52.93-1.56,5.14-5.26,8.82-9.59,11.82-6.17,4.27-12.64,8.11-19.49,11.12-28.21,12.41-57.07,22.96-87.29,29.37-12.28,2.61-24.83,2.74-37.31,3.05-15.16,.37-30.33,.08-45.49,.31-10.04,.15-16.88-4.25-20.63-13.46-4.24-10.41-8.37-20.86-13.13-32.75-.03,13.38-2.47,24.76-6.78,35.82-2.69,6.88-6.79,12.1-13.73,14.96-8.3,3.42-16.36,7.54-24.88,10.24-8.18,2.59-17.04,2.1-25.47,4.16-12.79,3.12-25.82,4.95-39.02,5.3Z"/>
      <path class="cls-8" d="M1380.83,549.07c-7.12,25.53-16.9,49.98-29.67,73.21-2.56,4.66-5.37,9.18-7.9,13.86-3.43,6.36-2.05,12.79,3.2,15.75,5.16,2.91,11.06,1.13,14.86-5.02,9.46-15.28,17.76-31.18,24.47-47.88,.68-1.69,1.51-3.31,2.27-4.96,8.53-2.64,11.66-9.32,13.27-17.34,.67-3.34,1.81-6.61,2.72-10.13-2.14,1.17-3.3,3.92-5.85,3.4-1.2-.24-.93-1.87-.27-2.95,1.01-4.12,2.08-8.21,3.93-12.05,1.95-1.46,3.24,.06,4.34,.92,2.55-13.34,5.27-26.7,7.63-40.14,4.26-24.28,7.8-48.7,8.29-73.33,.29-14.52-.55-29.16-5.09-43.41-8.69-27.32-10.22-55.13-3.83-83.26,1.57-6.93,5-11.98,11.42-15.4,8.26-4.41,16.3-8.89,26.07-9.17,4.28-.12,8.24,.3,12.13,1.93,15.09,11.25,25.03,26.53,33.23,43.04,13.19,26.54,20.04,54.85,23.02,84.23,3.11,30.66,2.64,61.15-2.66,91.58-5.72,32.87-17.36,63.65-30.8,94.05-20.29,45.88-50.07,84.78-85.93,119.12-15.21,14.56-32.05,27.67-51.39,36.74-9.89,4.64-17.15,13.23-27.3,17.39-3.38,1.38-6.55,3.26-9.82,4.89-9.36,4.64-10.42,7.04-8.63,17.22,3.49,19.82,7,39.64,10.14,59.52,4.26,26.98,7.94,54.02,8.89,81.38,.58,16.86,0,33.69-1.88,50.4-1.22,10.88-6.55,20.52-13.24,29.23-6.12,7.96-12.95,15.27-21.14,21.12-16,11.42-32.17,22.54-51.3,28.37-3.45,1.05-6.61,3.04-9.91,4.6-5.21,3-11,2.18-16.61,2.5-10.54,.61-20.68,3.38-30.88,5.77-14.48,3.39-29.04,5.32-44.01,5.2-41.17-.33-82.14-2.74-122.85-9.19-8.92-1.41-17.03-4.31-24.61-9.09-20.18-12.74-39.4-26.73-57.17-42.71-5.07-4.56-7.85-10.05-9.22-16.68-3.84-18.63-5.95-37.43-7.34-56.4-1.4-19.15-.68-38.28-.69-57.42,0-9.79,1.41-19.57,2.23-29.35,.39-4.6,2.63-7.94,6.36-10.76,18.42-13.95,38.56-24.93,59.31-34.92,18.17-8.74,36.6-16.9,55.6-23.67,21.78-7.76,43.87-14.6,66.2-20.63,2.74-.74,5.44-1.59,8.11-2.54,8.44-2.98,16.91-3.96,25.99-2.89,17.22,2.01,33.77-1.88,49.9-7.77,12.54-4.58,24.59-10.28,36.33-16.54,4.98-2.66,8.72-7.46,14.39-9.84-21.28,4.47-42.53,7.41-63.93,9.02-13.62,1.03-27.29,.51-40.88-1.12-6.61-.79-13.29-1.37-19.9-1.45-34.32-.39-67.94-5.97-101.41-12.86-18.93-3.89-37.64-8.73-56.31-13.72-2.44-.65-4.7-1.63-6.87-2.9-.15-.07-.35-.1-.45-.22-2.3-2.79-6.77-4.97-6.6-8.33,.23-4.8,2.72-9.48,4.18-14.24,.5-1.62,1.78-1.21,2.86-1.23,2.66-.06,5.32-.02,8.3-.02-.31-.63-.39-1.18-.67-1.32-7.42-3.53-7.95-8.62-6.05-16.43,6.49-26.54,6.2-53.43,1.14-80.24-.78-4.13-1.15-8.09-.52-12.27,6.52-43.08,5.04-85.92-4.14-128.49-.57-2.67-.25-4.6,1.18-6.9,20.73-33.25,38.16-68.01,48.43-106.06,8.26-30.59,10.85-61.51,5.66-92.9-.29-1.76-.72-3.49-1.09-5.23,2.2-1.57,3.76,.06,5.25,1.21,7.25,5.57,14.27,11.45,20.85,17.76,19.19,18.41,37.69,37.48,53.66,58.87,6.32,8.46,15.47,12.82,25.56,15.35,4.36,1.09,7.6-1.74,11.3-3,1.96-.09,3.54,.87,5.02,1.94,16.74,12.12,35.97,18.36,55.6,23.67,18.13,4.9,36.47,8.82,54.95,12.1,2.73,.48,5.69,.56,7.8,2.83,1.61,8.65,2.95,17.36,4.91,25.92,2.12,9.27,6.4,11.79,15.6,9.91,3.32-.68,6.64-.34,9.96-.36,13.65-.05,27.3-.02,40.86-.02,1.04,1.81-.48,2.62-1.1,3.62-13.42,21.97-11.99,55.8,3.28,76.63,2.89,3.94,6.29,7.31,10.54,9.79,12.75,7.46,26.05,4.25,33.64-8.34,6.36-10.54,8.24-22.37,9.07-34.4,1.21-17.32-3.7-32.84-14.08-46.68,6.28-.98,12.59-.25,18.88-.37,2.28-.04,4.01,1.48,5.72,2.81,5.2,4.04,9,9.26,12.41,14.8,3.72,9.08,4.04,18.76,4.78,28.33,.89,11.59,.93,23.22,.11,34.83-.86,2.11-2.8,2.61-4.68,3.3-20.64,7.61-26.78,33.58-11.88,50.13,1.75,1.95,4.09,3.46,4.75,6.25Z"/>
      <path class="cls-8" d="M923.2,689.89c-7.5,25-20.31,46.96-37.83,66.24-2.76,2.46-5.96,4.09-9.37,5.53-34.86,14.7-70.96,24.8-108.44,30.16-26.15,3.74-52.46,4.74-78.68,3.18-47.04-2.8-92.51-13.5-136.07-31.58-29.91-12.41-58.01-28.35-85.24-45.82-34.11-21.9-66.18-46.53-96.9-72.91-12.11-10.4-24.32-20.73-35.46-32.21-1.79-1.84-4.27-3.46-3.24-6.72,1.38-6.21,3.8-12.02,6.82-17.59,.55-1.02,1.06-2.28,1.95-2.86,13.66-8.8,13.39-24.11,17.34-37.37,.9-3.03,1.69-5.32,4.48-7.13,12.14-7.83,22.49-17.69,31.7-28.76,8.9-10.71,13.7-22.54,11.03-36.9-3.76-20.18-23.24-32.74-42.87-26.8-4.26,1.29-4.92,.28-4.99-3.61-.21-10.22-2.03-20.13-6.16-29.61-3.4-7.81-8.01-14.63-14.95-19.59-2.63-1.88-2.96-3.57-1.47-6.17,5.64-9.86,5.45-20.6,5.2-31.53-.62-27.31-41.57-62.88-75.45-40.34-10.41,6.93-20.52,14.21-30.35,21.92-1.2,.94-2.05,2.67-4.55,2.27,6.83-11.49,14.42-22.08,22.55-32.3,14.68-18.45,31.21-35.08,49.58-49.85,2.34-1.88,3.6-4.02,4.38-6.9,22.62-83.5,60.41-159.44,113.55-227.74,2.79-3.59,4.64-4.13,8.7-1.88,59.7,33.01,105.15,79.76,135.88,140.68,2.36,4.67,4.71,7.66,10.24,6.61,5.69-.63,8.47,3.05,11.33,7.16,33.88,48.76,56.82,102.2,69.12,160.26,1.96,9.27,7.12,16.71,13.97,23.12,3.72,3.49,8.22,4.06,12.97,4.05,2.84,.48,4.12,2.72,5.25,4.92,8.35,16.2,21.5,28.29,34.73,40.23,21.93,19.79,45.93,36.92,70.32,53.48,13.08,8.89,26.73,16.93,39.86,25.74,15.6,10.46,29.46,22.89,40.5,38.18,11.35,15.72,18.08,33.29,19.65,52.69,1.7,21.04,2.42,42.21,8.73,62.62,3,9.7,5.76,19.47,10.5,28.55,2.49,4.76,5.13,9.31,9.09,13.03,1.54,1.45,3.28,2.97,2.6,5.53Z"/>
      <path class="cls-8" d="M279.32,520.93c5.68,7.6,11.58,8.1,18.27,1.56,6.41-6.27,21.36-8.96,29.56-5.28,3.52,1.58,5.7,4.22,7.14,7.87,5.42,13.74,2.75,26.76-3.07,39.58-.2,.44-.5,.88-.85,1.21-16.41,15.33-20.27,36-24.03,56.67-.9,4.95,1.01,9.13,4.74,12.48,10.73,13.61,22.53,26.31,34.88,38.39,24.98,24.44,50.25,48.61,78.54,69.34,24.15,17.71,50.07,32.33,77.52,44.2,41.13,17.79,83.06,33.54,125.15,48.91,3.29,1.2,6.65,2.37,10.06,2.93,9.75,1.62,16,8.08,22.27,14.89,8.68,9.43,17.33,18.87,25.46,28.79,2.22,2.71,3.82,5.85,6.19,8.43,7.76,13.19,12.97,27.57,19.38,41.39,14.15,30.49,23.04,62.52,27.94,95.67,2.26,15.32,3.48,30.75-.46,46.05-1.19,4.64-2.38,9.33-5.86,12.95-2.45,1.34-4.14-.27-5.78-1.61-18.87-15.46-34.27-33.78-45.69-55.39-7-13.24-13.03-26.92-18.33-40.93-1.64-4.35-3.2-8.71-3.09-13.52,.06-2.75-1.16-5.2-3.19-7.09-1.38-1.28-2.44-2.68-2.91-4.5-4.29-28.63-11.03-56.79-16.11-85.27-1.08-6.05-5.51-9.89-10.94-9.53-5.55,.36-9.65,4.81-9.85,11.27-.21,6.72,1.99,13.12,3.28,19.63,5.11,25.76,10.83,51.4,13.74,77.58,3.03,27.36-1.01,53.75-9.7,79.59-6.21,18.46-14.56,36.02-23.01,53.53-3.9,8.07-6.84,16.62-14.16,22.56-2.29,1.86-.56,4.48-.03,6.54,2.32,9.03,5.89,17.64,9.08,26.39,3.93,10.76,8.58,21.25,11.85,32.26,1.62,5.48,5.57,7.58,10.96,6.35,21.07-4.83,43.57,11.27,45.21,32.68,.32,4.17-.42,8.54-4.89,11.26-12.7,7.74-26.06,13.93-40.3,18.21-12.06,2.09-24.17,1.37-36.29,.6-12.97-.82-25.81-2.68-38.67-4.45-14.71-2.03-27.46-8.83-39.87-16.45-2.54-1.56-4-3.92-4.91-6.7-4.7-14.41-8.73-29.02-12.8-43.62-1.19-4.27-.4-5.34,4.78-5.88,18.37-1.91,34.47-9.74,50.12-18.8,2.18-1.26,4.12-2.81,5.84-4.65,4.15-4.46,5.15-8.87,2.97-13.15-2.1-4.13-6.61-5.97-12.44-5.29-5.61,.66-11.2,1.53-16.87,1.67-44.07,1.08-84.41-10.67-120.21-36.36-22.45-16.11-45.35-31.61-67.15-48.61-6.81-5.31-13.53-10.82-18.8-17.82-.96-1.28-2.11-3.18-3.95-2.39-1.99,.85-1.63,3.14-1.44,4.91,.7,6.5,2.42,12.77,4.78,18.84,8.98,23.13,20.26,44.93,37.3,63.31,1.52,1.64,2.36,3.5,2.72,5.74,2.52,15.44,5.32,30.84,8.41,46.18,1.09,5.4,3.3,9.55,9.08,11.38,3.73,1.19,7.81,10.1,6.49,13.92-.99,2.85-.38,5.1,.89,7.47,2.64,3.78,6.31,5.59,10.85,6.25,3.6,.52,7.15,1.49,10.64,2.55,19.52,5.88,27.7,17.24,27.47,37.98,.97,2.59-1.13,2.94-2.67,3.87-21.23,12.88-45.25,16.33-69.07,20-18.92,2.92-37.58,1.6-54.62-8.62-.57-.34,.15,.07-.44-.23-16.35-8.43-13.47-3.88-14.49-23.46-1.31-25.1-.56-50.29,3.1-75.27,.42-2.87-.05-5.08-2.33-7.12-24.38-21.86-36.44-49.93-40.99-81.76-1.49-10.41-1.9-20.85-2.15-31.36-.33-14.46-1.95-28.93-1.69-43.37,.34-19.28,1-38.59,3.1-57.79,.22-1.14,.7-2.18,1.3-3.16,12.07-14.83,21.54-31.11,27.25-49.43,5.94-19.1,9.15-38.73,11.41-58.58,1.13-9.96,.31-19.91,1.04-29.84,.08-.53,.24-1.04,.46-1.53,10.21-11.83,20.14-23.94,32.2-34.03,2.05-1.71,3.94-3.59,5.7-5.6,5.55-6.35,5.39-11.62-.67-17.45-4.57-4.4-9.9-7.88-14.92-11.73-36.45-27.97-68.46-60.72-100.94-93.02-16.97-16.88-26.64-37.93-36.83-58.89-6.14-12.64-7.23-26.04-8.26-39.72-1.22-16.15-.61-32.28-.8-48.41-.12-10.32,1.18-20.57,2.13-30.83,.33-3.59,3.1-6.58,3.07-10.36,.08-.65-.02-1.4,.27-1.94,14.12-26.57,27.53-53.55,47.56-76.48,16.88-19.32,36.18-35.8,57.56-49.85,19.58-12.87,45.03,.69,46.8,24.24,.72,9.59-3.48,17.39-6.33,25.79-.75,2.2-1.64,4.36-2.25,6.6-1.62,6.03,.18,11.38,5.82,13.88,14.22,6.31,18.09,18.62,19.48,32.35,.74,7.27,.65,14.65-.24,21.94-.48,3.95,.84,7.56,1.45,11.31,.97,2.83-1.01,3.39-2.9,3.12-8.66-1.23-17.24-.13-25.87,.36-6.62,.38-7.31-.39-9.95-6.69-6.86-16.42-15.71-31.57-28.45-44.19-5.72-5.66-12.54-9.22-20.58-10.4-3.1-.46-5.96,.08-8.7,1.48-40.49,20.77-39.86,74.25-16.25,99.39,8.24,8.78,18.76,13.04,30.67,13.75,3.97,.24,7.65-1.19,10.1-4.5,2.37-3.21,5.85-4.84,8.93-7.07,2.92-2.12,4.16-.74,5.11,1.91Z"/>
      <path class="cls-9" d="M945.84,716.07c13.99,3.45,27.97,6.97,41.98,10.35,23.82,5.74,47.85,10.38,72.15,13.68,17.44,2.37,34.92,3.46,52.5,4.07,15.88,.55,31.67,3.14,47.64,2.86,20.1-.36,39.91-3.24,59.68-6.49,6.34-1.04,12.65-2.35,19.75-3.68-2.93,3.48-6.67,4.49-9.56,6.69-20.12,15.28-43.29,23.79-67.51,29.62-10.35,2.49-21.01,2.67-31.64,1.01-6.21-.97-12.28,.04-18.15,2.08-16.32,5.67-33.32,9.1-49.64,14.68-23.18,7.92-46.38,15.76-68.65,26.18-23.06,10.79-45.94,21.82-66.83,36.54-3.25,2.29-6.41,4.72-9.67,7-3.69,2.57-3.42,6.67-3.83,10.32-2.68,23.85-2.6,47.82-1.94,71.73,.67,24.51,3.41,48.86,8.87,72.85,1.59,6.98,6.69,11.09,11.53,15.21,17.19,14.65,35.37,27.97,54.53,40.02,9.23,5.81,19.32,7.6,29.65,9.11,20.81,3.05,41.73,4.87,62.73,6.28,22.93,1.55,45.85,2.33,68.76,1.53,14.39-.5,28.39-4.72,42.36-8.2,6.66-1.66,13.42-2.22,20.16-2.43,4.5-.14,8.87-1.28,13.37-1.08-.65,.74-1.32,1.47-1.95,2.23-3.3,4.08-3.69,9.06-1.01,12.94,2.65,3.84,7.64,5.32,12.48,3.58,23.6-8.53,45.5-20.22,65.43-35.52,5.41-4.15,10.37-8.79,16.05-14.69,.97,11.84,1.85,22.62,2.73,33.39-2.11-1.31-3.79-1.42-5.93,.53-24.59,22.34-52.79,38.66-83.98,49.96-10.66,3.86-21.5,7.13-32.73,8.8-4.23,.63-6.08,2.4-5.92,6.83,.54,14.97-.21,29.93-1.01,44.87-.41,7.64-.89,15.37-2.87,22.74-2.97,11.04,1.65,18.82,9.67,25.27,14.2,11.43,30.69,17.91,48.42,21.29,16.71,3.18,33.58,4.8,50.62,4.32,2.34-.07,4.63-.41,6.94-.7,2.11-.26,4.34-.72,6.09,1.14-14.71,8.36-30.67,12.5-47.41,13.93-32.68,2.79-65.22,.64-97.72-2.83-1.64-.18-3.39-.32-4.97,.05-9.69,2.29-16.79-2.13-22.94-8.81-2.76-3-3.79-6.59-2.21-10.61,1.08,.53,0,1.92,1.03,2.56-.96-1,.1-2.47-.94-3.37,1.43-13.51,5.08-26.17,14.95-36.1,5.23-5.26,6.88-11.02,6.32-18.47-1.42-18.95-5.14-37.58-6.87-56.47-1.21-13.28-1.54-13.22,11.21-15.79,5.05-1.02,10.14-1.92,15.1-3.3,6.76-1.89,10.2-7.26,8.79-12.99-1.47-5.97-7.11-9-14.25-7.28-23.77,5.7-47.75,8.87-72.24,6.48-21.46-2.1-42.63-5.2-61.54-16.72-1.41-.86-2.99-1.49-4.57-1.97-6.15-1.84-12.04,.8-14.07,6.19-1.99,5.3,.45,10.47,6.37,13.43,8.91,4.46,17.56,9.53,27.31,12.08,2.29,.6,2.74,1.63,2.24,3.92-5.84,26.34-10.08,52.92-12.17,79.83-.47,5.99-.59,11.97-.39,17.96,.19,5.71,2.4,10.6,6.09,14.95,5.19,6.12,7.47,13.23,6.76,21.26-1.02,2.41-2.42,4.47-4.63,6.02-1.3,.91-2.5,2.12-2.33,4-11.97,6.95-25.38,9.51-38.55,12.93-21.08,5.48-42.28,4.12-63.53,1.84-19.38-2.08-38.54-5.55-57.54-9.82-18.1-4.07-20.38-6.43-21.12-24.95-1.25-30.98-.29-61.95,2.23-92.86,1.9-23.23,3.61-46.48,6.46-69.62,.83-6.76,1.89-13.49,2.83-20.14,1.99-.42,2.7,.96,3.69,1.68,11.81,8.63,25.12,14.27,38.65,19.5,.92,.36,1.93,.51,2.92,.64,5.72,.75,10.38-1.88,11.97-6.73,1.67-5.1-.51-10.35-5.83-12.87-5.86-2.77-11.99-4.96-17.86-7.7-10.78-5.03-20.62-11.22-28.04-20.95-5.66-7.43-7.11-16.05-8.22-24.76-2.5-19.74-1.94-39.61-.69-59.38,2.22-35.26,7.56-70.14,14.5-104.76,.96-4.79-.97-8.05-4.35-10.88-3.55-2.98-7.89-3.1-11.85-1.83-3.21,1.03-3.96,4.71-4.52,7.83-2.44,13.59-4.87,27.18-7.07,40.81-.46,2.83-1.05,4.49-4.29,4.81-2.59,.26-5.21,1.16-7.63,2.22-16.73,7.35-34.5,9.68-52.48,11.04-22.09,1.67-44.19,3.23-66.37,2.22-1.96-.09-3.76,.45-4.87-2.13-7.47-17.41-15.8-34.39-26.79-50.48,9.77-.9,18.99-1.5,28.14-2.62,31.96-3.92,63.76-9.51,93.22-22.67,38.77-17.31,71.26-43.27,96.07-78.1,2.7-3.79,5.08-4.37,8.93-2.97,4.09,1.49,8.29,2.43,13.01,1.73-1.28-4.62-5.51-6.94-8.24-11.17,10.24,2.42,19.76,5.27,29.59,6.63,5.27,.72,10.56,1.47,15.87,1.78,6.49,.39,11.19-3.38,11.82-8.97,.65-5.73-2.83-10.53-9.26-11.59-9.35-1.53-18.83-2.28-28.03-4.69-.95-.25-1.87-.64-2.8-.97-.33-.2-.44-.39-.33-.58,.11-.19,.22-.29,.33-.29q5.59-.5,1.83-6.05Z"/>
      <path class="cls-15" d="M923.2,689.89c-.26-.61-.35-1.4-.79-1.81-14.07-12.83-18.39-30.47-23.32-47.72-4.86-17.01-6.48-34.48-7.25-52.13-1.21-27.92-11.34-52.19-30.63-72.77-15.94-17-35.49-28.95-54.86-41.26-27.39-17.41-53.83-36.17-78.53-57.22-16.33-13.91-32.5-28.18-42.46-47.87-.7-1.39-1.41-3.12-3.42-3.34,4.34-5.85,8.33-11.81,10.65-18.88,7.83-23.93,7.69-48.04,2.41-72.4-5.05-23.27-14.23-44.99-24.45-66.33-3.45-7.2-7.18-14.27-10.63-21.47-.55-1.15-3.22-3.74,1.12-3.79,12.28,2.85,24.2,6.85,35.93,11.45,2.33,2.09,3.33,4.93,4.37,7.74,13.67,36.95,23.62,74.89,30.11,113.75,2.77,16.58,5.3,33.21,6.04,50.02,.36,8.13,3.97,13.88,10.82,17.81,6.21,3.57,11.66,2.25,15.4-3.84,3.91-6.37,5.51-13.61,6.62-20.82,3.6-23.39,5.23-46.86,3.52-70.58-1.25-17.3-3.17-34.44-6.53-51.44-.4-2.02-1.7-4.67,1.52-5.93,8.48,5.38,16.78,11.01,24.35,17.65,4.41,8.22,5.59,17.41,7.7,26.28,6.26,26.29,10.49,52.94,13.32,79.8,.96,9.1,1.29,18.25,1.36,27.42,.09,11.32,8.73,19.23,19.26,18.29,6.88-.62,14.04-6.68,15.79-14.16,3.11-13.31,5.15-26.8,6.02-40.47,.63-9.81,1.36-19.6,.76-29.43-.06-.95-.07-2.06,1.32-2.26,23.18,29.38,40.76,61.85,53.24,97.08,14.95,42.22,21.42,85.77,19.86,130.5-.45,12.81-1.11,25.67-3.61,38.26-1.8,9.06,1.37,17.44,2.36,26.1,3.27,28.45,1.8,56.42-7.35,83.76Z"/>
      <path class="cls-9" d="M691.14,890.92c-5.53-4.12-9.03-10.08-13.49-15.15-9.75-11.09-19.33-22.31-30.41-32.13-2.81-2.49-6.48-2.36-9.75-3.32-20.61-6.01-40.45-14.1-60.41-21.88-21.35-8.32-42.82-16.35-63.94-25.26-35.99-15.19-70.06-33.58-100.66-58.14-20.23-16.24-39.26-33.76-57.97-51.71-10.45-10.03-20.16-20.73-30.34-30.98-5.06-5.1-10.27-10.38-13.08-17.32,9.92,3.23,15.75-.59,16.59-11.08,.51-6.3,1.76-12.38,4.3-18.17,2.93,6.44,8.76,10.32,13.6,14.98,6.91,6.67,14.54,12.59,21.71,19,18.94,16.91,38.75,32.77,59.18,47.82,34.71,25.58,71.05,48.53,110.03,67.16,28.92,13.82,59.27,23.31,90.48,30.2,15.03,3.32,30.26,5.35,45.55,7.24,20.25,2.5,40.55,2.45,60.75,1.54,30.31-1.37,60.17-6.55,89.47-14.74,21.49-6.01,42.19-14.05,62.63-22.85-12.95,15.64-28.76,27.99-45.21,39.68-26.93,19.14-57.67,28.13-89.55,34.13-29.69,5.6-59.68,7.59-90.31,7.63,5.45,3.51,10.89,7.01,16.67,10.73-5.6,6.68-3.67,13.03,.66,19.41,5.03,7.41,9.96,14.91,13.49,23.2Z"/>
      <path class="cls-17" d="M1361.85,381.1c.84,1.78,1.67,3.56,2.77,5.89h-79.65c-2.59-1.26-3.14-3.65-3.55-6.19-5.85-36.3-12.59-72.46-18.54-108.74-1.48-9.03-2.66-18.11-2.4-27.29,.09-3.07,.62-5.28,4.78-5.26,33.95,.15,67.9,.08,101.85,.09,.67,0,1.33,.07,1.95,.34,29.62-1.11,59.24-.31,88.86-.51,28.65-.19,57.3-.19,85.94-.47,3.3-.03,4.54,.96,5.5,4,2.89,9.16,3.35,18.66,4.3,28.07,2.88,28.65,6.6,57.2,10.68,85.7,.02,.16,.08,.33,.08,.49,.1,2.99,1.23,6.53,.02,8.84-1.5,2.87-4.98,0-7.63,.12-7.15,.31-14.33-.12-21.48,.18-3.77,.16-5.41-.92-6.55-4.72-7.15-23.78-17.45-46.06-33-65.61-14.6-18.35-32.98-30.62-55.58-37.94-13.41-4.35-24.17-1.83-35.58,4.21-25.01,13.24-37.29,35.12-42.68,61.83-.39,1.96-.73,3.93-1.1,5.89-1.57,3.02-4.48,2.47-7.04,2.49-13.64,.09-27.27,.01-40.91,.05-11.99,.03-17.45,4.87-19.67,16.74-1.13,6.05-.58,11.92,.64,17.81,1.7,8.24,6.55,12.35,14.99,12.42,15.3,.12,30.6,0,45.9,.06,2.46,0,5.05-.39,7.12,1.52Z"/>
      <path class="cls-8" d="M1307.13,1262.98c-7.3,.02-14.52,1.21-21.86,.97-24.15-.79-48.06-3.14-70.31-13.33-11.89-5.44-23.62-11.59-30.21-24.03-2.01-3.79-2.13-7.55-1.35-11.57,2.03-10.41,3.04-20.91,3.69-31.51,.87-14.29,.94-28.57,.75-42.85-.06-4.55,3.27-4.22,5.65-4.54,9.92-1.33,19.48-4.04,28.89-7.22,29.71-10.04,56.8-24.81,81.07-44.77,4.21-3.46,7.64-7.88,12.8-10.41,1.42,.98-.08,3.25,1.56,4.22,3.08,50.07,7.57,100.08,7.22,150.32-.04,6.14-.93,12.26-1.12,18.4-.18,5.74-2.6,9.75-7.85,12.1-3.01,1.35-5.97,2.82-8.96,4.24Z"/>
      <path class="cls-9" d="M246.07,957.91c-.97,17.04-2.15,34.06-2.86,51.11-.57,13.94,.82,27.84,1.62,41.75,.29,4.98,.16,9.98,.26,14.97,.57,28.82,6.19,56.31,21.52,81.23,5.97,9.71,13.39,18.19,22.02,25.56,1.74,1.49,2.73,2.77,2.35,4.98-4.55,26.33-4.09,52.9-3.85,79.46,.04,3.96,1.29,7.85,1.01,11.87-.14,2.02,1.47,2.79,2.98,3.57,8.87,4.59,17.85,8.91,27.21,12.42,3.94,1.47,7.96,1.92,12.17,2.15,24.76,1.34,48.36-4.83,71.98-10.83,5.66-1.44,10.9-3.88,15.61-7.53,1.76-1.36,4.18-2.02,6.41-2.58,1.51-.38,2.38-.97,2.7-2.44,1.15,9.89-1.49,19.08-5.22,28.06-.86,2.07-2.84,2.75-4.65,3.5-8.72,3.63-17.69,6.31-26.88,8.72-38.4,10.08-77.18,9.07-116.03,4.86-18.97-2.05-36.55-9.65-54.21-16.54-2.98-1.16-2.61-3.64-2.74-5.81-.75-12.99,.45-25.96,.91-38.93,.6-16.63,1.7-33.25,2.52-49.87,.18-3.65,.31-7.28,1.25-10.84,1.73-6.56-1.3-12.75-1.6-19.19-.97-20.66-.5-41.28,.61-61.9,.14-2.63,.88-5.24,1.46-7.83,.48-2.16,.57-4.28-.13-6.4-7.93-24.18-9.97-49.09-9.16-74.35,.4-12.47,1.72-24.88,3.04-37.28,.56-1.72,1.95-2.52,3.44-3.34,7.99-4.37,15.59-9.27,21.77-16.12,1.14-1.27,2.29-2.96,4.5-2.44Z"/>
      <path class="cls-9" d="M378.24,1216.84c-2.49-1.71-2.57-4.18-1.73-6.65,.72-2.13-.14-3.64-.83-5.57-1.75-4.94-4.24-8.39-9.67-9.97-3.32-.97-4.27-4.82-4.98-8.14-3.48-16.34-6.67-32.72-8.93-49.28-.25-1.86-1.28-2.97-2.39-4.2-19.68-21.68-32.71-47.02-41-74.93-1.08-3.63-2.05-7.39-1.56-11.26,.23-1.82,.68-3.86,2.62-4.47,1.69-.53,2.63,1.26,3.52,2.34,16.23,19.66,37.94,32.5,58.36,46.94,11.64,8.23,22.52,17.5,34.63,25.11,23.88,14.99,49.17,26.48,77.37,29.94,17.9,2.19,35.94,3.94,53.97,.36,5.22-1.04,10.62,1.59,12.83,5.66,2.77,5.11,2.03,9.93-2.25,14.58-2.26,2.47-4.87,4.41-7.81,6.09-16.1,9.22-32.61,17.23-51.54,18.49-2.19,.15-2.96,.81-2.27,3.11,4.58,15.25,9.06,30.53,13.59,45.8,.59,1.98,1.75,3.4,3.58,4.56,14.9,9.45,30.71,15.63,48.53,17.83,21.97,2.71,43.91,4.05,65.99,3.82-26.88,10.38-53.92,20.04-83.32,20.02-16.15-.01-32.31,.2-48.46,.45-3.38,.05-5.4-.86-6.7-4.31-12-31.7-25.07-63.01-34.66-95.6-1.05-3.58-1.04-5.21,3.43-4.15,2.89,.68,5.95,.59,8.92-.18,5.25-1.36,8.55-5.39,8.39-10.35-.16-4.9-3.69-9.02-8.98-9.91-4.91-.83-9.98-.85-14.84-1.88-27.23-5.81-50.66-18.75-70.49-38.23-4.83-4.74-10.76-5.6-15.16-1.91-4.38,3.67-4.95,9.98-1.01,15.31,4.91,6.65,11.54,11.49,18.13,16.3,6.32,4.62,12.94,8.79,19.79,12.58,1.2,.66,2.76,1,2.44,3.18-1.45,9.84,.67,19.57,1.24,29.34,.21,3.68,.62,5.68-4.55,4.66-10.69-2.11-16.13,3.81-14.18,14.52Z"/>
      <path class="cls-30" d="M1238.06,372.91c-28.3-5.03-56.42-10.76-83.78-19.81-12.72-4.21-24.6-9.99-35.49-17.82-1.43-1.03-2.67-2.62-4.8-2.23,5.73-30.54-5.68-56.5-22.29-80.74-16.54-24.16-38.52-43.05-61.43-60.89-4.07-3.17-8.09-6.41-12.21-9.51-1.51-1.14-3.53-2.16-2.92-4.7,12.86-2.16,25.73-4.3,38.77-5.06,5.28,2.98,9.62,7.23,13.69,11.51,17.1,17.97,33.99,36.12,49.15,55.82,17.4,22.61,33.85,45.87,47.55,70.89,4.36,7.96,10.76,10.37,18.61,11.08,6.44,.59,10.22-3.46,10.8-10.36,.92-10.94-2.13-21.19-5.52-31.28-10.12-30.16-24-58.52-41.84-84.9-3.64-5.38-7.49-10.61-11.38-15.82-1.05-1.4-2.54-2.76-1.81-4.88,10.36,1.39,20.75,2.58,30.73,5.93,6.43,3.67,9.96,10.11,14.44,15.54,15.4,18.73,29.47,38.46,42.49,58.93,2.44,3.84,4.77,7.63,3.28,12.47-.56,13.21,2.94,25.97,4.53,38.93,2.74,22.34,6.25,44.59,9.43,66.88Z"/>
      <path class="cls-23" d="M661.04,182.92c-2.94,1.14-.35,2.46,.08,3.32,8.9,17.65,17.8,35.31,24.86,53.8,9.43,24.7,15.74,50.05,13.91,76.74-.99,14.44-3.91,28.55-10.89,41.52-1.71,3.18-4.05,5.6-7.06,7.48-6.73,1.94-11.68-1.26-15.93-5.84-6.56-7.06-11.01-15.15-13.04-24.79-12.16-57.56-35.45-110.3-69.22-158.45-2.33-3.33-4.62-6.4-9.17-6.38,17.97,.46,35.81,2.18,53.51,5.23,11.09,1.91,22.17,3.96,32.94,7.36Z"/>
      <path class="cls-26" d="M1015.14,177.22c3.18,4.65,8.2,7.2,12.49,10.5,17.02,13.13,33.45,26.91,48.08,42.7,19.3,20.83,34.06,44.19,39.71,72.55,1.48,7.4,1.85,14.82,1.53,22.32-.13,2.92-1.36,5.42-2.97,7.77-2.97,3.68-6.97,4.4-11.24,3.46-10.54-2.33-19.65-7.4-26.21-16.03-21.45-28.21-45.89-53.47-73.47-75.7-1.44-1.16-2.57-3.25-5.01-2.61-.53-6.47-1.71-12.89-4.1-18.85-3.76-9.39-12.77-10.66-21.3-12.23-9.2-1.7-18.42-3.27-27.64-4.9-2.14-2.02-6.32-1.17-7.12-5.07,21.98-10.04,45.03-16.75,68.53-22.05,2.9-.65,5.81-1.25,8.71-1.88Z"/>
      <path class="cls-9" d="M167.06,465.94c.91,4.94-1.69,9.35-2.22,14.14-2.17,19.9-1.79,39.82-1.69,59.74,.07,13.25,1.12,26.5,3.17,39.58,1.05,6.7,4.6,12.79,7.51,18.93,4.64,9.77,9.82,19.29,14.36,29.11,2.73,5.89,7.03,10.51,11.19,15.17,18.96,21.25,39.25,41.27,59.94,60.78,19.77,18.63,40.63,36.11,62.63,52.17,9.86,7.2,10.63,15.37,1.36,23.45-13.07,11.4-23.93,24.85-36.17,37-1.8-1.03-2.3-2.82-2.29-4.63,.04-5.34-.84-10.45-3.1-15.31-.28-.6-.12-1.29,.27-1.87,1.04-2.78,2.49-4.98,5.9-5.24,1.67-.12,3.08-1.22,4.28-2.41,5.82-5.79,2.05-11.94,.24-17.72-1.38-4.4-5.35-6.37-9.96-5.85-2.71,.3-4.78-.41-6.95-1.86-13.02-8.68-26.45-16.72-38.6-26.69-32.51-26.67-54.61-60.51-69.84-99.36-9.52-24.3-17.37-48.88-18.59-75.2-1.11-24.06-1.07-47.96,6.75-71.16,1.87-5.54,3.93-10.99,8.27-15.18,2.17-2.1,2.38-5.05,3.52-7.59Z"/>
      <path class="cls-9" d="M279.32,520.93c-1.22-1.53-2.22-2.7-4.43-.9-3.16,2.58-6.81,4.33-9.43,7.86-2.98,4.03-7.97,4.61-12.75,4-19.61-2.51-33.03-13.5-40.2-31.47-9.73-24.4-7.21-47.74,8.5-69.24,3.3-4.51,7.28-8.18,12.61-10.15,3.35-1.24,4.87-4.96,8.49-5.91,7.46-1.95,14.17,.32,20.37,3.93,11.56,6.72,18.82,17.56,25.8,28.5,4.92,7.72,9.05,15.92,12.17,24.52,1.25,3.44,3.12,4.09,6.31,4.02,6.63-.14,13.18-1.73,19.85-1.1,2.3,.22,4.63-.22,6.91,.67,1.78,.7,3.31,.4,3.68-1.89,3.54,5.77,8.51,7.39,14.82,5.07,.58,1.51,.9,3.06,2.5,4.07,7.96,5.03,13.83,12.24,19.88,19.26-5.29,6.95-11.75,12.64-18.87,17.61-.32-.26-.73-.41-.81-.67-5.85-18.8-24.53-27.95-47.48-23.72-7.62,1.41-14.76,3.99-21.02,8.69-5.65,4.25-8.75,9.52-6.92,16.83Z"/>
      <path class="cls-15" d="M873.27,300.07c-19.13-24.25-40.71-46.08-65.52-65.63,9.45-2.97,18.53-4.63,27.59-6.17,45.79-7.79,91.43-6.98,136.91,2.69,3.14,.67,4.28,1.9,4.94,5.01,10.02,47.43,3.48,92.84-15.94,136.85-7.38,16.72-15.36,33.1-24.99,49.7-1.62-5.67-3-10.54-4.39-15.4,.45-3.44,2.64-6.09,4.26-8.95,16.21-28.49,25.8-59.09,29.37-91.63,1.6-14.61,1.49-29.22,.09-43.83-.4-4.24-1.28-4.97-5.47-3.67-18.99,5.87-37.25,13.48-54.69,23.02-9.07,4.96-17.77,10.5-26.38,16.2-1.68,1.11-3.26,3.11-5.78,1.81Z"/>
      <path class="cls-30" d="M1259.06,191.93c-21.39-10.03-43.2-18.98-66.05-25.17-7.19-1.95-14.41-3.78-22.24-5.83,13.3-11.33,26.98-21,41.27-29.82,32.51-20.07,67.41-34.43,104.44-43.8,4.47-1.13,6.75-.1,9.38,3.46,24.9,33.79,39.26,71.45,42.2,113.39,.08,1.16,.36,2.3,.43,3.46,.74,12.57,2.21,10.66-9.66,10.31-1.58-1.24-1.93-2.99-2.1-4.87-2.54-27.81-10.15-54.16-22.72-79.09-2.69-5.34-5.42-10.66-8.35-15.89-1.86-3.33-3.43-3.23-6.03-.96-5.9,5.15-11.42,10.7-16.7,16.44-15.12,16.45-28.45,34.26-39.67,53.62-1.07,1.84-1.93,3.93-4.19,4.75Z"/>
      <path class="cls-8" d="M751.94,197.13c-8.96-4.31-17.87-8.71-26.9-12.86-1.99-.91-2.3-2.05-2.01-3.88,2.42-15.27,5.29-30.44,8.73-45.52,.65-2.86,2.35-2.15,4.08-2.07,32.96,1.41,64.88,7.89,95.92,19.12,32.79,11.86,62.76,28.67,90.23,50.05,.51,.4,.97,.85,2.35,2.08-3.8-.27-6.62-.53-9.45-.66-30.73-1.4-61.18,.87-91.32,7.09-1.45,.3-2.94,.4-4.42,.6-3.69-.73-6.59-3.08-9.8-4.79-15.58-8.33-31.56-15.76-48.47-21.05-5.14-1.61-5.45-1.4-6.44,3.99-.5,2.73-.32,5.7-2.51,7.91Z"/>
      <path class="cls-23" d="M768.83,231.07c-2.1,3.33,.12,6.48,.68,9.56,2.79,15.37,4.43,30.83,5.73,46.39,1.3,15.67,.67,31.26-.38,46.83-.97,14.38-2.36,28.8-7.75,42.43-4.94,12.49-13.9,14.28-24.09,5.52-4.93-4.24-6.51-9.26-6.9-15.17-2.45-37.9-9.7-74.99-19.33-111.63-5.41-20.58-12.3-40.71-19.82-60.62,25.38,9.44,49.38,21.58,71.87,36.7Z"/>
      <path class="cls-26" d="M1133.16,174.24c15.89,21.44,30.32,43.77,41.43,68.1,8.16,17.87,15.57,36.02,19.71,55.33,1.1,5.13,1.05,10.29,.56,15.41-.63,6.63-6.08,10.66-12.67,9.75-2.29-.31-4.52-1.08-6.8-1.5-5.09-.93-8.35-3.77-10.94-8.35-21.51-37.91-46.97-72.97-76.18-105.34-11.04-12.24-22.75-23.8-34.36-35.48,26.49-2.12,52.91-1.73,79.25,2.08Z"/>
      <path class="cls-14" d="M873.27,300.07c6.46-4.04,12.91-8.09,19.37-12.11,21.29-13.26,44.16-23.04,68.01-30.6,4.92-1.56,5.87-.66,6.34,4.53,3.39,37.52-1.99,73.77-16.06,108.67-5.15,12.78-10.86,25.34-19.07,36.56-5.33-13.22-10.2-26.62-16.42-39.48-11.63-24.05-26.05-46.33-42.18-67.56Z"/>
      <path class="cls-14" d="M1259.06,191.93c16.85-29.95,37.77-56.62,63.97-79.44,2.68,2.35,3.96,5.44,5.52,8.22,16.2,28.9,26.72,59.63,29.5,92.81,.12,1.48,.51,2.94,.77,4.41-18.1,.08-36.19,.17-54.29,.25-1.2,0-2.25-.32-3.25-1.02-13.46-9.44-27.85-17.33-42.22-25.24Z"/>
      <path class="cls-23" d="M858.7,314.19c1.07,24.29-1.25,48.29-6.55,71.99-2.34,10.46-11.94,17.15-22.12,15.82-9.1-1.19-16.16-10.13-16.03-20.52,.3-24-3.57-47.58-7.44-71.13-3.29-19.96-7.62-39.72-13.29-59.16-.22-.77-.06-1.65-.08-2.47,11.4,8.06,21.63,17.49,31.58,27.22,12.22,11.94,23.8,24.46,33.94,38.26Z"/>
      <path class="cls-9" d="M1462.83,293.11c-7.06-.39-14.15-1.1-21.11,.85-8.28,2.31-15.8,6.5-22.34,11.76-5.08,4.09-5.12,11.33-6.33,17.43-2.31,11.6-2.79,23.43-2.01,35.19,.9,13.54,2.68,27.02,7.1,39.96,3.24,9.51,4.51,19.24,4.96,29.27,.4,8.95,.36,17.82-.13,26.75-.74,13.73-2.36,27.36-4.34,40.94-2.91,19.95-6.68,39.77-10.72,59.53-.23,1.11-.61,2.19-1.04,3.71-1.87-1.29-2.32-4.22-5.02-3.52,4.03-16.63,8.65-33.13,10.58-50.2,3.14-27.79,3.17-55.44-3.55-82.81-1.12-4.58-3.2-8.67-5.82-12.59-6.28-9.4-12.2-19.04-17.8-28.87-2.77-4.87-4.64-9.88-4.87-15.51-.83-20.31,.59-40.23,9.61-58.93,6.56-13.59,17.38-22.43,31.03-28.21,4.76-2.02,9.17,.61,13.52,1.41,10.55,1.96,20.15,6.57,28.27,13.85Z"/>
      <path class="cls-9" d="M653.16,963.94c5.16,3.87,7.33,8.74,7.85,15.46,.67,8.76,5.34,16.67,8.76,24.73,7.79,18.37,16.87,36.05,29.27,51.85,8.55,10.89,18.56,20.32,29.04,29.27,1.07,.91,2.7,1.16,4.06,1.72-7.51,8.55-16.54,15.24-27.01,19.4-6.5,2.58-13.65,1.01-20.47-.27,.32-.7,.87-1.91,.14-2.02-1-.15,0,1.42-.76,1.9-14.83-1.16-24.76-9.63-32-21.8-2.79-4.7-4.87-9.83-7.35-14.72-.58-1.14-.7-2.16-.3-3.33,.43-1.26,.81-2.53,1.16-3.81,8.64-31.65,12.85-63.65,7.61-96.4-.1-.64,0-1.32,0-1.98Z"/>
      <path class="cls-23" d="M22.96,898.02c-.96-15.64,1.37-30.51,10.17-43.88,8.71,2.61,17.3,5.57,26.41,6.69,17.59,2.17,34.35,.14,49.86-9,1.06,2.22,1.58,4.58,1.75,7.03,.64,5.58,2,11.12,1.4,16.77-.46,4.38,.89,8.54,1.12,12.83,.22,4-1.03,6.24-5.11,7.07-2.73,.55-5.51,1.5-6.72,4.53-1.29,1.68-3.16,2.38-5.09,2.91-24.28,6.7-47.92,6.23-70.44-6.37-1.68-.87-2.29,.84-3.36,1.43Z"/>
      <path class="cls-11" d="M282.04,794.19c4.89,6.52,3.26,14.58,5.12,21.81-.09,.33-.17,.66-.26,.99-1.73,4.48-5.08,7.72-8.37,11.02-5.59,5.58-9.6,11.78-11.66,19.77-8.05,31.1-13.41,62.65-17.43,94.48-.58,4.57-.44,9.29-2.37,13.63-.33,.68-.66,1.35-.99,2.03-8.66,8.99-18.52,16.34-29.7,21.9,4.68-42.15,16.95-82.22,33.26-121.18,9.31-22.24,18.93-44.31,32.42-64.44Z"/>
      <path class="cls-28" d="M1369.05,239.94c-9.49,.06-18.97,.15-28.46,.16-24.49,.02-48.98,.11-73.47-.09-4.24-.04-5.29,1.27-5.27,5.34,.07,14.71,3.22,28.99,5.41,43.42,4.72,31.15,11.61,61.94,15.63,93.2,.25,1.91,1.28,3.4,2.07,5.03-5.99,.05-12-.13-17.98,.22-3.7,.22-5.26-.92-5.81-4.69-2.58-17.77-5.52-35.48-8.12-53.24-2.58-17.6-4.57-35.29-7.45-52.84-2.04-12.4,.63-23.68,5.72-34.73,.81-1.76,2.07-2.4,3.94-2.4,37.48,.03,74.95,.04,112.43,.07,.45,0,.9,.36,1.35,.56Z"/>
      <path class="cls-26" d="M1483.92,932.95c6.33,12.84,6.79,25.83,1.04,38.99-2.48,2.02-5.41,1.35-8.17,1.21-22.72-1.13-42.83-8.76-59.89-24.06-4.86-4.35-8.71-9.56-13.07-14.34,4.1-9.25,7.65-18.78,14.03-26.84,3.25,2.12,5.58,5.21,8.26,7.91,14.7,14.89,32.45,20.13,52.92,17.05,1.63-.25,3.27-.78,4.89,.07Z"/>
      <path class="cls-26" d="M1224.09,267.11c.66-4.71-2.04-8.17-4.33-11.81-16.71-26.47-35.6-51.31-55.87-75.13,9.16,.62,17.77,3.72,26.42,6.31,21.26,6.35,41.93,14.3,61.63,24.61,.74,2.45,4.09,3.79,2.98,7.02-4.52-.11-8.82,1.22-13.14,2.25-2.85,.68-4.83,2.77-6.18,5.4-4.25,8.27-7.47,16.96-10.27,25.8-.91,2.87-.09,5.9-.07,8.86,.02,2.16,.42,4.69-1.16,6.7Z"/>
      <path class="cls-26" d="M1363.86,958.07c1.49-.05,3-.26,4.47-.11,12.32,1.22,21.82-3.84,29.48-13.08,1,.35,1.66,1.12,2.18,1.97,11.64,19.04,30.21,27.75,50.5,33.86,6.07,1.83,12.35,2.58,18.66,3.06,1.16,.09,2.34,.26,2.99,1.46-1.74,3.25-5.37,3.68-8.15,5.29-16.09,9.31-33.55,12.34-51.9,10.63-8.46-.79-16.06-4.03-22.98-8.91-3.81-1.85-4.48-6.09-6.88-9.02-3.2-5.78-5.76-11.87-8.22-17.97-1.45-3.58-3.41-5.47-7.31-5.09-1.24-.29-2.69-.3-2.83-2.08Z"/>
      <path class="cls-23" d="M101.12,899.93c-.11-4.62,3.78-5.52,6.7-5.73,5.36-.39,5.82-3.46,5.25-7.39-1.36-9.28-1.02-18.66-1.91-27.96,2.04,5.56,1.79,11.37,2.14,17.16,.72,11.92,1.35,23.86,4.64,35.47,2.06,7.25,5.32,13.93,8.93,20.48-4.33,5.42-10.46,8.52-16.06,12.26-7.7,5.16-15.86,9.53-24.39,13.18-.48,.09-.97,.07-1.45-.03-5.19-3.06-9.59-7.12-13.87-11.29-5.6-5.46-11.12-10.99-16.56-16.6-1.26-1.3-3.39-2.47-2.01-4.94,6.42-2.5,13.42-1.64,19.97-3.69,13.68-4.27,25.9-11.01,36.71-20.37,1.13-.98,2.12-2.11,3.1-3.23,.33-.37,.54-.83,.54-.82-3.63,1.91-6.94,4.83-11.74,3.5Z"/>
      <path class="cls-15" d="M109.4,851.82c-.28,2.38-2.17,3.16-3.99,3.99-16.55,7.5-33.76,9.02-51.48,5.54-5.53-1.09-11.01-2.37-16.29-4.38-1.7-.65-3.53-1.06-4.51-2.83,5.64-10.51,14.03-18.57,23.69-25.2,11.87-8.14,25.7-7.4,37.09,1.46,7.22,5.62,12.96,12.39,15.49,21.43Z"/>
      <path class="cls-24" d="M117.01,1013.87c-15.85-6.11-30.04-14.98-43.15-25.7,.66-1.19,1.85-1.35,3-1.43,12.57-.82,23.18-6.54,33.41-13.26,.86-.57,1.77-1.01,2.84-.84,3.64,2.3,7.42,4.33,11.43,5.95,3.11,1.26,5.71,.71,8.21-1.56,4.77-4.33,8.19-9.49,10.39-15.53,.66-1.8,.86-3.98,3.1-4.8,2.96,2.69,5.67,5.6,7.95,8.9-.03,5.88-3.02,10.77-5.63,15.67-6.55,12.27-15.91,22.02-27.6,29.55-1.4,.9-2.7,1.93-3.95,3.03Z"/>
      <path class="cls-28" d="M1361.85,381.1c-17.83-.04-35.66-.09-53.48-.13-8.82-.02-13.76-4.01-15.87-12.7-1.76-7.22-1.89-14.45-.46-21.74,1.88-9.64,8.76-15.38,18.59-15.38,14.83,0,29.66,.01,44.49,0,1.97,0,4.04,.38,5.72-1.13-.58,5.4-1.17,10.79-1.75,16.19-2.21-1.99-4.77-2.71-7.76-2.68-12.66,.09-25.32-.02-37.98,.07-6.76,.05-8.37,1.54-9.49,8.29-.22,1.32-.35,2.64-.37,3.98-.24,11.04,1.35,12.68,12.34,12.68,11.66,0,23.32-.06,34.98,.04,3.13,.03,5.92-.5,8.27-2.67,.93,5.06,1.86,10.13,2.78,15.19Z"/>
      <path class="cls-35" d="M1383.09,982.76c2.77,2.14,2.78,6.16,5.61,8.26,5.12,4.37,7.92,10.58,12.31,15.54,4.28,4.84,8.46,9.77,13.08,14.31,1.04,1.02,2.44,2.28,1.79,3.8-.61,1.43-2.39,.74-3.63,.71-5.12-.1-10.26,.43-15.37-.29-9.27-1.31-18.59-2.42-26.95-7.17-2.12-1.58-2.86-3.96-3.85-6.26-6.83-15.82-5.8-32.51-5.53-49.12,.03-1.86,.39-3.68,2.47-4.48,.27-.01,.55,0,.82,0,.85,.95,2.04,.78,3.12,.98,2.19,.99,2.82,3.17,3.82,5.06,3.49,6.61,7.52,12.87,12.29,18.64Z"/>
      <path class="cls-19" d="M1396.89,1025.1h19.16c-10.39-11.26-20.57-21.36-27.35-34.08,4.45,.97,7.44,4.72,11.8,6,18.34,5.38,36.25,4.08,53.73-3.29,6.05-2.55,11.8-5.82,17.68-8.76,2.07-2.41,4.39-2.99,7.05-.93-5.73,12.59-14.72,22.17-26.38,29.57-16.58,10.52-34.85,12.97-53.91,12.24-.6-.02-1.19-.49-1.79-.75Z"/>
      <path class="cls-29" d="M1483.92,932.95c-20.46,5.25-38.87,1.15-54.88-12.57-4.21-3.6-8.84-7.07-11.18-12.46,6.07-5.77,13.61-7.15,21.57-7.02,20.75,.33,38.45,13.12,44.49,32.05Z"/>
      <path class="cls-24" d="M52.17,924.9c9.77,10.73,19.79,21.2,31.22,30.2,.63,.5,1.13,1.16,1.69,1.74-.36,1.69-1.74,2.35-3.11,2.94-9.02,3.86-18.38,6.62-28.06,8.27-12.78-14.47-22.14-30.91-28.23-49.22-.31-.92-.31-1.93-.46-2.91,1.4-.58,2.65,0,3.8,.64,5.6,3.09,11.72,4.69,17.8,6.43,1.54,.7,3.3,.62,4.82,1.39,.17,.17,.34,.34,.51,.51Z"/>
      <path class="cls-29" d="M1478.97,984.04c-2.44-.35-4.74,.3-7.05,.93-23.24-.3-43.35-9.03-61.33-23.13-5.67-4.44-9.96-10.21-12.78-16.95,2.01-3.38,4.02-6.75,6.02-10.13,2.66,.59,4.13,2.77,5.72,4.6,14.91,17.24,33.31,28.2,56.07,31.23,6.4,.85,12.84,1.6,19.34,1.35-1.36,4.35-3.38,8.37-5.99,12.09Z"/>
      <path class="cls-19" d="M1363.03,958.07c-.34,1.09-.94,2.18-.99,3.29-.87,19.01-.96,37.92,7.76,55.6,.14,.28,.09,.65,.14,.98-4.54-.58-8.39-2.96-12.36-4.93-2.52-1.25-4.67-3.55-7.29-4.22-9.6-2.46-10.45-9.06-9.37-17.29,1.62-12.33,2.15-24.76,2.01-37.21,0-.81,.11-1.61,.22-3.02,6.57,3.13,12.98,5.78,19.89,6.81Z"/>
      <path class="cls-14" d="M751.94,197.13c.27-1.63,.5-3.27,.81-4.89q1.96-10.42,11.84-7.15c18.35,6.08,35.68,14.35,52.35,24.07,.83,.48,1.48,1.27,2.22,1.92-10.09,2.64-20.18,5.3-30.27,7.93-1.19,.31-2.25,.03-3.28-.71-10.74-7.82-22.45-14.11-33.67-21.16Z"/>
      <path class="cls-24" d="M164.29,975.7c6.1,4.94,12.11,10,18.83,14.11-3.9,7.32-7.54,14.78-12.23,21.64-3.67,5.37-7.76,10.35-12.85,14.46-8.85-1.59-17.62-3.5-25.96-6.99-.48-1.65,.73-2.45,1.77-3.19,12.36-8.77,20.78-20.57,26.74-34.34,.89-2.06,1.53-4.42,3.71-5.7Z"/>
      <path class="cls-11" d="M53.92,968.05c1.98-2.5,5.09-2.28,7.73-2.95,8.07-2.05,15.98-4.51,23.44-8.26,.34,.03,.67,.05,1.01,.08,4.75,1.34,7.98,5.1,12.02,7.59,3.36,2.07,6.76,4.08,10.1,6.17,1.26,.79,3.34,1.02,2.93,3.33-11.02,8.42-23.16,13.9-37.28,14.15-7.77-5.59-14-12.71-19.95-20.12Z"/>
      <path class="cls-15" d="M111.15,974.02c-7.57-4.87-15.47-9.22-22.58-14.8-.9-.71-1.99-1.16-2.47-2.3,14.21-7.3,27.72-15.76,40.77-24.97,2.81,3.93,5.62,7.87,8.43,11.81,.64,1.3,.35,2.55-.18,3.81-4.25,10.17-11.57,17.92-19.73,25-.63,.55-1.43,.81-2.29,.48-.65,.32-1.3,.64-1.95,.96Z"/>
      <path class="cls-17" d="M1359.07,365.92c.13,3.11-1.2,4.18-4.44,4.15-15.29-.17-30.58-.17-45.87-.01-3.53,.04-5.16-1.35-5.79-4.65-1.06-5.6-1.39-11.14-.1-16.77,.99-4.3,3.14-6.6,7.86-6.55,14.62,.14,29.25,.16,43.88-.01,3.24-.04,4.56,1.07,4.48,4.15,0,6.57-.01,13.13-.02,19.7Z"/>
      <path class="cls-14" d="M1380.83,549.07c-13.92-11.06-18.04-30.02-9.94-45.17,3.75-7.01,10.14-10.31,17.21-12.64,1.58-.52,3.11-1.06,4.55-1.87-1.5,20.38-5.32,40.3-11.82,59.68Z"/>
      <path class="cls-11" d="M164.29,975.7c-6.59,16.88-15.61,31.96-31.33,42.05-.39,.25-.59,.78-.89,1.18-5.29-.87-10.16-3.02-15.06-5.06-.54-1.09-.23-1.72,.85-2.37,17.84-10.74,29.59-26.34,36.33-45.88,3.37,3.36,6.73,6.72,10.1,10.08Z"/>
      <path class="cls-8" d="M374.41,502.19c-1.82-.12-2.94-1.23-4.02-2.58-4.96-6.21-10.33-11.99-17.23-16.15-1.86-1.12-3.82-2.32-1.13-4.61,4.02-3.69,8.01-7.4,13.32-9.26,4.95-1.73,9.64-3.25,14.22,1.31,5,4.96,6.58,10.66,4.55,17.17-1.75,5.61-5.28,10.23-9.71,14.11Z"/>
      <path class="cls-11" d="M158.04,1025.91c1.72-4.7,6.2-7.16,8.97-11.08,4.9-6.93,9.28-14.12,12.87-21.78,.74-1.59,1.24-3.08,3.25-3.24,.46,.18,.94,.32,1.38,.54q10.01,5.07,7.78,16.84c-2.49,6-6.09,11.8-3.23,18.72-5.43,2.31-11.22,1.66-16.86,1.77-4.75,.1-9.55-.3-14.16-1.78Z"/>
      <path class="cls-23" d="M113.09,973.06c9.6-8.1,18.03-17.09,22.2-29.3,3.65,4.32,7.3,8.64,10.95,12.95-2.73,7.82-5.85,15.34-12.33,21.04-3.04,2.68-6.01,4.12-9.75,2.03-3.77-2.1-8.49-2.66-11.06-6.74Z"/>
      <path class="cls-11" d="M47.15,924.04c-7.88-1.16-15.06-4.21-21.92-8.12-1.89-5.82-2.33-11.83-2.27-17.91,.94-.9-1.16-3.94,2.21-3.12,7.56,7.02,13.84,15.26,21.3,22.39,1.86,1.78,4.52,3.61,3.46,7.02-.95,.13-1.9,.3-2.77-.27Z"/>
      <path class="cls-4" d="M429.82,1217.04c-1.35-.95-2.58-2.27-4.08-2.77-6.8-2.26-7.65-7.49-7.73-13.65-.11-7.93-.84-15.84-1.3-23.87,4.03-.22,5.39,1.21,5.79,5.25,.98,9.94,4.99,19.19,7.71,28.74,.36,1.27,.7,2.54,1.04,3.82,.32,1.28,.66,2.58-1.43,2.48Z"/>
      <path class="cls-10" d="M1397.93,567.02c.67,.48-1.04,3.79,1.84,1.59,1.8-1.38,2.99-3.61,5.88-4-1.58,7.63-3.51,14.97-6.17,22.06-1.88,4.99-6.13,7.19-11.41,7.37,3.29-9,6.58-18.01,9.86-27.01Z"/>
      <path class="cls-31" d="M1387.76,426.23c-4.52-4.54-8.48-9.62-13.32-13.88-2.76-2.43-5.57-3.75-9.33-3.52-4.77,.29-9.57,.13-14.36,.16-.85-1.62,.71-1.01,1.09-1.01,7.59,.06,15.18,.19,22.77,.3,1.19,.02,2.53,.04,3.14,1.11,3.24,5.67,8.1,10.38,10.01,16.84Z"/>
      <path class="cls-13" d="M189.05,1025.92c-2.69-.26-3.36-2.12-2.85-4.27,1.12-4.66,2.53-9.24,3.81-13.86,.42-1.52,1.07-2.08,2.27-.6-.03,4.24-.21,8.48-.05,12.71,.1,2.75-.76,4.73-3.18,6.02Z"/>
      <path class="cls-32" d="M1254.92,218.11c-.65-2.48-3.57-4-2.98-7.02,3.83,1.97,7.65,3.94,11.48,5.91-.03,.37-.06,.74-.09,1.1h-8.42Z"/>
      <path class="cls-6" d="M937.9,201.14c2.03,2.18,5.57,2.22,7.12,5.07-4.63-.51-9.27-1.02-13.9-1.53-.05-.31-.1-.61-.16-.92,2.31-.87,4.62-1.75,6.93-2.62Z"/>
      <path class="cls-1" d="M1044.03,1270.91c-3.48-1.56-.41-2.91,.37-3.79,2-2.24,4.36-4.17,6.58-6.23,1.52,6-2.61,8.08-6.95,10.02Z"/>
      <path class="cls-7" d="M684.03,1105.98c-.38-1.53-2.04-2.66-1.38-4.8,2.36,.52,3.85,2.11,4.45,4.07,.28,.92-1.63,.42-2.45,.84,0,0-.35,.13-.35,.13l-.27-.25Z"/>
      <path class="cls-27" d="M939.02,721.93c-.16,.02-.35,.1-.49,.05-1.79-.58-3.93-.32-5.21-2.06-.14-.18,.27-1.14,.54-1.2,2.09-.43,3.57,.99,5.21,1.9,.48,.45,.47,.89-.05,1.31Z"/>
      <path class="cls-21" d="M429.82,1217.04c1.08-.48,1.17-1.53,1.43-2.48,.68,1.57,1.36,3.13,2.31,5.29-2.17-.63-3.02-1.64-3.73-2.81Z"/>
      <path class="cls-3" d="M1131.97,1253.89c1.41,1.55,1.35,3.35,1.18,5.67-1.86-1.66-.66-3.45-1.27-4.85-.21-.3-.18-.57,.09-.82Z"/>
      <path class="cls-22" d="M939.02,721.93c.02-.44,.03-.87,.05-1.31l4.94,1.49c0,.29,0,.58,0,.87-1.79,.28-3.35-.57-4.98-1.05Z"/>
      <path d="M1086.84,480.12c-.53,11.52-1.31,22.44-5.86,32.69-3.19,7.2-7.94,13.04-14.87,16.9-10.89,6.07-19.14,4.81-27.71-4.3-9.01-9.59-14.21-21.17-16.93-33.87-4.3-20.05,.05-38.33,12.6-54.41,11.26-14.44,26.58-14.56,38.42-.54,10.73,12.7,14.05,27.92,14.35,43.54Z"/>
      <path class="cls-14" d="M1000.55,610.47c-17.16-.97-29.48-7.05-36.14-21.17-6.93-14.68-1.32-30.97,13.01-40.97,17.43-12.16,43.81-10.94,60.01,2.77,7.38,6.25,10.3,20.06,5.47,29.94-8.94,18.29-24.27,27.36-42.35,29.43Z"/>
      <path d="M1162.79,503.11c6.61,11.41,16.21,17.74,29.65,15.8,12.09-1.75,19.97-9.07,23.89-20.68,.85-2.52,1.01-3.96-2.09-5.27-8.34-3.54-11.3-11.73-7.47-19.25,3.63-7.12,12.21-10,19.14-6.43,7.61,3.92,11.08,13.4,6.25,20.3-3.2,4.58-1.63,6.95,1.24,10.06,4.2,4.56,8.71,8.69,14.32,11.48,7.95,3.96,12.77,3.34,19.53-2.53,2.4-2.08,4.58-4.39,6.1-7.2,1.4-2.58,2.58-5.28,3.93-8.09,5.26,12.34-1.38,24.72-14.15,26.7-12.69,1.97-24.14-1.35-34.23-8.98-3.06-2.32-4.15-1.8-6.51,.85-8.84,9.88-19.37,16.78-33.35,16.15-13.2-.6-24.04-9.31-27.29-21.72-.37-1.02,.08-1.33,1.04-1.19Z"/>
      <path class="cls-20" d="M1160.76,501.13c-.8-1.03-1.53-2.24-.23-3.17,.33-.23,1.16,1.25,1.3,2.22-.34,.34-.41,.98-1.07,.95Z"/>
      <path class="cls-33" d="M1160.76,501.13c.36-.32,.71-.64,1.07-.95,.32,.98,.64,1.95,.95,2.93-.35,.4-.69,.8-1.04,1.19-1.06-.83-.77-2.08-.99-3.17Z"/>
      <path class="cls-14" d="M348.6,249.66c-5.05,1.05-5.53-.54-4.61-4.35,14.58-60.57,39.67-116.35,75.63-167.24,1.87-2.65,2.96-3.07,5.59-.73,13.37,11.91,24.96,25.37,35.48,39.8,20.24,27.77,34.19,58.47,42.85,91.7,1.3,4.97,.07,6.68-4.56,8.57-31.7,12.93-64.44,22.07-98.22,27.44-17.56,2.79-35.29,4.29-52.16,4.81Z"/>
      <path d="M602.12,455.23c-1.51,23.21-10.48,43.07-27.65,58.89-8.07,7.44-17.97,9.75-28.8,7.86-6.4-1.12-10.13-5.45-12.64-10.96-4.93-10.8-5.43-22.18-3.99-33.76,2.85-22.91,14.25-40.22,34.53-51.23,18-9.77,33.26-2.35,37.32,17.73,.76,3.74,1.46,7.54,1.22,11.47Z"/>
      <path class="cls-14" d="M477.89,570.17c-20.04,1.04-34.08-11.97-39.31-26.51-6.86-19.09,6.65-39.35,28.07-42.52,19.59-2.9,40.51,7.17,50.55,24.32,6.99,11.95,3.45,27.42-8.28,35.64-9.3,6.51-19.74,9.27-31.03,9.06Z"/>
      <path class="cls-14" d="M855.16,625.82c13.76-.01,24.42,4.55,33.58,12.63,9.16,8.07,10.78,23.43,4.1,35.97-6.18,11.59-21.23,18.98-35.58,17.47-14.47-1.52-25.74-10.39-29.52-23.23-3.8-12.9,1.47-29.46,11.98-37.8,4.94-3.92,10.54-5.54,15.44-5.04Z"/>
      <path d="M816.96,562.09c8.44,8.97,16.65,18.14,24.19,27.9,.61,.79,1.24,1.57,1.84,2.36,4.57,6.08,4.79,10.92,.66,14.1-4.16,3.2-8.64,1.7-13.38-4.28-13.26-16.71-26.69-33.26-44.7-45.31-3.1-2.07-4.82-5.07-3.92-9.01,.95-4.18,4.01-6.01,7.92-6.5,15.87-1.98,30.77,1.59,44.95,8.43,4.85,2.34,6.38,6.76,4.57,10.74-1.89,4.15-6.26,5.45-11.53,3.46-2.79-1.05-5.6-2.06-8.4-3.08-1.11-.32-2.51-1.15-2.2,1.18Z"/>
      <path d="M761.84,578.02c-.43,13.66-11.69,22.13-24.3,18.53-12.56-3.59-21.41-11.84-27.38-23.19-1.51-2.88-2.54-3.19-5.45-1.85-9.61,4.43-19.7,5.99-30.15,3.49-16.95-4.05-26.87-21.08-21.79-38.16,.46,3.26,.66,6,1.26,8.66,2.6,11.58,9.46,19.5,21.14,22.08,11.43,2.53,21.36-.87,29.25-9.76,1.39-1.56,1.73-2.52,.03-4.45-6.29-7.16-5.7-15.86,1.05-21.04,6.74-5.18,15.8-3.77,20.61,3.2,5.16,7.49,3.2,16.84-5.01,21.36-2.94,1.62-3,3.05-2.34,5.79,1.89,7.88,4.97,15.07,10.33,21.29,4.08,4.74,8.98,5.81,14.83,4.61,7.07-1.46,12.82-5.16,17.92-10.56Z"/>
      <path class="cls-2" d="M358.64,408.62c6.86,4.45,14.19,8.35,20.35,13.62,2.47,2.11-1.43,5.66-3.4,7.99-1.98,2.34-3.03,.1-4.05-1.31-4.64-6.42-9.25-12.86-13.87-19.29,.32-.33,.64-.67,.96-1Z"/>
      <path class="cls-25" d="M378.49,401.75c4.92,.83,8.61,2.43,11.36,4.66,3.23,2.62-2.09,3.25-2.05,6.35-3.29-3.88-5.93-7.01-9.32-11.01Z"/>
      <path class="cls-18" d="M816.96,562.09c-.8-.26-1.89-1.03-1.48-1.54,1.17-1.43,2.52-.65,3.67,.35-.77,.33-1.83,.11-2.2,1.18Z"/>
      <path class="cls-15" d="M247.06,955.89c.48-17.22,3.62-34.13,6.33-51.06,3.37-21.04,7.87-41.86,13.52-62.43,1.13-4.1,3.3-7.09,5.97-10.02,4.67-5.13,9.35-10.25,14.02-15.38,.97,37.28-4.42,73.46-19.43,107.81-4.99,11.42-11.87,21.87-20.41,31.09Z"/>
      <path class="cls-8" d="M1021.97,1197.05c0,9.4,.06,17.06-.03,24.72-.04,3.42,1.07,5.99,3.91,8.11,9.42,7.03,8.4,19.5-.69,27.12-17.23,14.44-36.81,16.38-58.05,14.13-13.64-1.45-26.98-3.41-39.43-9.27-6.14-2.89-11.98-6.43-17.87-9.82-1.09-.63-2.15-1.78-2.62-2.94-4.57-11.26-9.89-21.99-10.5-34.83-1.04-21.81-.62-43.58-.5-65.36,.06-11.88,1.39-23.81,3.09-35.59,1.12-7.74,5.49-13.87,13.83-15.95,4.85-1.21,9.21,1.1,13.42,2.53,8.62,2.93,16.91,6.85,25.74,9.26,.64,.17,1.33,.4,1.82,.81,7.46,6.33,16.81,7.14,25.82,9.19,6.45,1.47,12.45,4.01,16.86,9.75,2.76,3.59,7.35,5.53,10.71,8.83,8.39,8.22,11.99,18.33,13.61,29.67,1.49,10.46,.43,20.92,.89,29.64Z"/>
      <path class="cls-15" d="M50.17,923.9c-6.71-9.23-15.61-16.49-22.81-25.28-.88-1.08-3.28-1.43-2.2-3.72,8.64,3.77,17.15,7.76,26.58,9.52,16.94,3.16,33.26,.8,49.37-4.49,4.17-1.44,8.35-2.87,12.6-4.34-2.44,11.92-38.41,28.96-61.55,29.3,0,0,0,.02,0,.02-.52-.62-1.55-.24-1.99-1.01Z"/>
      <path class="cls-12" d="M264.44,835.23c.29-1.37,.58-2.75,.87-4.12,.76,1.51,1.18,2.98-.87,4.12Z"/>
      <path class="cls-16" d="M1383.09,982.76c-1.2,1.24-1.56,.02-2.12-.7-5.48-7.17-10.27-14.76-13.99-23,4.12-.97,6.29,.85,7.79,4.67,2.53,6.44,5.52,12.7,8.32,19.04Z"/>
      <path class="cls-23" d="M50.17,923.9c.66,.34,1.33,.68,1.99,1.01-1.7-.14-3.56,.65-5.01-.87,1.01-.05,2.01-.1,3.02-.14Z"/>
      <path class="cls-34" d="M1316.92,346.1c4.96,.04,9.71,4.68,9.76,9.54,.06,5.28-4.53,10.14-9.66,10.25-5.57,.12-10.13-4.45-10.1-10.13,.03-5.33,4.56-9.7,10-9.66Z"/>
      <path class="cls-36" d="M1347.29,365.24c-5.67,.02-9.62-4.03-9.56-9.81,.06-5.49,3.98-9.46,9.39-9.51,5.69-.05,9.89,4,9.93,9.57,.04,5.59-4.11,9.73-9.76,9.75Z"/>
    </g>
  </g>
</svg>